<svg xmlns="http://www.w3.org/2000/svg" xmlns:svg="http://www.w3.org/2000/svg" xmlns:xlink="http://www.w3.org/1999/xlink" id="svg2" width="16" height="16" version="1.1"><defs id="defs4"><linearGradient id="linearGradient10798-1-9-3-7-6-8-9-0-9-1-8-7"><stop id="stop10800-5-2-1-8-20-6-4-9-8-2-0-4" offset="0" style="stop-color:#879688;stop-opacity:1"/><stop style="stop-color:#9e9e9e;stop-opacity:1" id="stop10806-6-8-5-3-9-24-8-4-3-2-6-8" offset=".624"/><stop id="stop10802-1-5-3-0-4-8-4-2-9-2-3-7" offset="1" style="stop-color:#cacaca;stop-opacity:1"/></linearGradient><linearGradient id="linearGradient5058" x1="388.637" x2="388.418" y1="478.188" y2="462.11" gradientUnits="userSpaceOnUse" xlink:href="#linearGradient10798-1-9-3-7-6-8-9-0-9-1-8-7"/><linearGradient id="linearGradient4838"><stop id="stop4840" offset="0" style="stop-color:#4177af;stop-opacity:1"/><stop style="stop-color:#14518f;stop-opacity:1" id="stop4846" offset=".476"/><stop id="stop4842" offset="1" style="stop-color:#6ea2d8;stop-opacity:1"/></linearGradient><linearGradient id="linearGradient4951" x1="7.88" x2="1.035" y1="-6.99" y2="-6.99" gradientUnits="userSpaceOnUse" xlink:href="#linearGradient4838"/><linearGradient id="linearGradient4789"><stop id="stop4791" offset="0" style="stop-color:#4e8fbd;stop-opacity:1"/><stop id="stop4793" offset="1" style="stop-color:#30495a;stop-opacity:1"/></linearGradient><linearGradient id="linearGradient3041" x1="-2.287" x2="-2.287" y1="1044.692" y2="1049.598" gradientTransform="matrix(1.1126308,0,0,1.1126308,-15.752685,-116.8453)" gradientUnits="userSpaceOnUse" xlink:href="#linearGradient4789"/></defs><metadata id="metadata7"/><g style="display:inline" id="layer1" transform="translate(0,-1036.3622)"><g id="g5050" transform="matrix(0.89877071,0,0,0.89877071,19.132321,106.0773)"><g style="display:inline" id="g6940" transform="matrix(0.75585723,0,0,0.76929359,-19.35986,219.3382)"><path id="path10796-2-6-2" d="m 398.75,468.23718 c 0,5.86803 -4.75697,10.625 -10.625,10.625 -5.86803,0 -10.625,-4.75697 -10.625,-10.625 0,-5.86802 4.75697,-10.625 10.625,-10.625 5.86803,0 10.625,4.75698 10.625,10.625 z" transform="matrix(0.41862728,0,0,0.41862728,-152.54647,872.27858)" style="font-size:13.58917427000000089px;font-style:normal;font-weight:400;line-height:125%;letter-spacing:0;word-spacing:0;fill:url(#linearGradient5058);fill-opacity:1;stroke:#656565;stroke-width:3.3660261600000001;stroke-linecap:round;stroke-linejoin:round;stroke-miterlimit:4;stroke-opacity:1;stroke-dasharray:none;stroke-dashoffset:0;display:inline;font-family:Sans"/></g><g id="layer1-9-2" transform="matrix(1.3958958,0,0,0.78177853,-14.584134,227.66707)" style="fill:#fff;fill-opacity:1;display:inline"><path id="path3971" d="m 4.6403881,-9.4591022 1.1687457,2.0243272 1.1687458,2.0243272 -2.3374916,0 -2.3374917,-1e-7 1.1687459,-2.0243271 z" transform="matrix(1.0222921,0,0,1.2210784,0.37029304,1057.569)" style="color:#000;fill:url(#linearGradient4951);fill-opacity:1;fill-rule:nonzero;stroke:#105c9c;stroke-width:.47365916;stroke-linecap:butt;stroke-linejoin:miter;stroke-miterlimit:4;stroke-opacity:1;stroke-dasharray:none;stroke-dashoffset:0;marker:none;visibility:visible;display:inline;overflow:visible;enable-background:accumulate"/></g><path id="path3986" d="m -19.084488,1037.2757 1.152554,0 -0.0087,11.1395 2.224662,0 -2.824439,3.3379 -2.707644,-3.3133 2.188145,0 z" style="fill:url(#linearGradient3041);fill-opacity:1;stroke:none;display:inline"/></g></g></svg>