<svg xmlns="http://www.w3.org/2000/svg" xmlns:svg="http://www.w3.org/2000/svg" xmlns:xlink="http://www.w3.org/1999/xlink" id="svg2" width="16" height="16" version="1.1"><defs id="defs4"><linearGradient id="linearGradient5103"><stop style="stop-color:#fefdef;stop-opacity:1" id="stop5105" offset="0"/><stop style="stop-color:#fce69e;stop-opacity:1" id="stop5107" offset="1"/></linearGradient><linearGradient id="linearGradient4922"><stop style="stop-color:#77849a;stop-opacity:1" id="stop4924" offset="0"/><stop style="stop-color:#38445d;stop-opacity:1" id="stop4926" offset="1"/></linearGradient><linearGradient id="linearGradient4878"><stop style="stop-color:#4e8fbd;stop-opacity:1" id="stop4880" offset="0"/><stop style="stop-color:#4d5a5d;stop-opacity:1" id="stop4882" offset="1"/></linearGradient><linearGradient id="linearGradient4884" x1="0" x2="8" y1="13.5" y2="13.5" gradientTransform="translate(-2.96875,1036.3622)" gradientUnits="userSpaceOnUse" xlink:href="#linearGradient4878"/><linearGradient id="linearGradient4878-7"><stop style="stop-color:#4e8fbd;stop-opacity:1" id="stop4880-4" offset="0"/><stop style="stop-color:#4d5a5d;stop-opacity:1" id="stop4882-0" offset="1"/></linearGradient><linearGradient id="linearGradient4901" x1="0" x2="8" y1="13.5" y2="13.5" gradientTransform="translate(-2.96875,1028.3622)" gradientUnits="userSpaceOnUse" xlink:href="#linearGradient4878-7"/><linearGradient id="linearGradient4929" x1="10" x2="10" y1="1" y2="6" gradientTransform="matrix(1,0,0,0.79999651,-3,1038.5635)" gradientUnits="userSpaceOnUse" xlink:href="#linearGradient4922"/><linearGradient id="linearGradient4922-8"><stop style="stop-color:#77849a;stop-opacity:1" id="stop4924-8" offset="0"/><stop style="stop-color:#38445d;stop-opacity:1" id="stop4926-2" offset="1"/></linearGradient><linearGradient id="linearGradient4946" x1="10" x2="10" y1="1" y2="6" gradientTransform="matrix(1,0,0,0.79999652,-3,-1053.1622)" gradientUnits="userSpaceOnUse" xlink:href="#linearGradient4922-8"/><linearGradient id="linearGradient5109" x1="11.906" x2="11.906" y1="1042.362" y2="1047.268" gradientTransform="translate(-3.0000002,1.0000001)" gradientUnits="userSpaceOnUse" xlink:href="#linearGradient5103"/></defs><metadata id="metadata7"/><g id="layer1" transform="translate(0,-1036.3622)" style="display:inline"><path style="fill:url(#linearGradient5109);fill-opacity:1;stroke:none;display:inline" id="path4108-1" d="m 3.7499998,1045.3622 0,1 5.25,0 0,2 2.9998932,-2.5 -2.9998932,-2.5 0,2 z"/><path style="fill:url(#linearGradient4884);fill-opacity:1;stroke:none" id="path4108" d="m -2.96875,1049.3622 0,1 5,0 0,2 2.9998932,-2.5 -2.9998932,-2.5 0,2 z"/><path style="fill:url(#linearGradient4901);fill-opacity:1;stroke:none;display:inline" id="path4108-9" d="m -2.96875,1041.3622 0,1 5,0 0,2 2.9998932,-2.5 -2.9998932,-2.5 0,2 z"/><rect style="fill:url(#linearGradient4929);fill-opacity:1;stroke:none" id="rect4920" width="1" height="4" x="6" y="1039.362"/><rect style="fill:url(#linearGradient4946);fill-opacity:1;stroke:none;display:inline" id="rect4920-4" width="1" height="4" x="6" y="-1052.362" transform="scale(1,-1)"/><path style="fill:#b57a13;fill-opacity:1;stroke:none;display:inline" id="path4108-1-6" d="m 7.9999998,1042.3622 0,2 -3.25,0 -1,0 c -0.9918497,0.9918 -0.9863244,2.0137 0,3 l 1,0 3.25,0 0,2 c 0,0.6519 0.740915,0.6375 1.5,0 l 3.9375002,-3.5 -3.9375002,-3.5 c -0.760225,-0.7602 -1.5,-0.5203 -1.5,0 z m 1,1 3.0000002,2.5 -3.0000002,2.5 0,-2 -4.6875,0 c -0.2762136,-0.2099 -0.2774437,-0.7282 0,-1 l 4.6875,0 z"/><rect style="opacity:1;fill:#fce69e;fill-opacity:1;stroke:#a46a0c;stroke-width:1;stroke-linecap:square;stroke-linejoin:miter;stroke-miterlimit:4;stroke-opacity:1;stroke-dasharray:none;stroke-dashoffset:0" id="rect4117" width="6.004" height="2" x="9.5" y="1038.862"/></g></svg>