<svg xmlns="http://www.w3.org/2000/svg" xmlns:svg="http://www.w3.org/2000/svg" xmlns:xlink="http://www.w3.org/1999/xlink" id="svg2" width="16" height="16" version="1.1"><defs id="defs4"><linearGradient id="linearGradient6281"><stop id="stop6283" offset="0" style="stop-color:#fefdef;stop-opacity:1"/><stop id="stop6285" offset="1" style="stop-color:#fce69e;stop-opacity:1"/></linearGradient><linearGradient id="linearGradient6275"><stop style="stop-color:#a16e12;stop-opacity:1" id="stop6277" offset="0"/><stop style="stop-color:#a16e12;stop-opacity:1" id="stop6279" offset="1"/></linearGradient><linearGradient id="linearGradient6271" x1="12.578" x2="12.578" y1="1037.784" y2="1043.763" gradientTransform="translate(-3.2187497,17.756243)" gradientUnits="userSpaceOnUse" xlink:href="#linearGradient6275"/><linearGradient id="linearGradient6273" x1=".938" x2=".938" y1="4.844" y2="7.549" gradientTransform="matrix(1.8479968,0,0,1.8479968,7.0487538,1047.1671)" gradientUnits="userSpaceOnUse" xlink:href="#linearGradient6281"/><linearGradient id="linearGradient5109-2" x1="11.906" x2="11.906" y1="1042.362" y2="1047.268" gradientTransform="translate(-3.0000002,1.0000001)" gradientUnits="userSpaceOnUse" xlink:href="#linearGradient5103-9"/><linearGradient id="linearGradient4946-8" x1="10" x2="10" y1="1" y2="6" gradientTransform="matrix(1,0,0,0.79999652,-3,-1053.1622)" gradientUnits="userSpaceOnUse" xlink:href="#linearGradient4922-8-7"/><linearGradient id="linearGradient4922-8-7"><stop id="stop4924-8-6" offset="0" style="stop-color:#77849a;stop-opacity:1"/><stop id="stop4926-2-6" offset="1" style="stop-color:#38445d;stop-opacity:1"/></linearGradient><linearGradient id="linearGradient4929-1" x1="10" x2="10" y1="1" y2="6" gradientTransform="matrix(1,0,0,0.79999651,-3,1038.5635)" gradientUnits="userSpaceOnUse" xlink:href="#linearGradient4922-86"/><linearGradient id="linearGradient4901-2" x1="0" x2="8" y1="13.5" y2="13.5" gradientTransform="translate(-2.96875,1028.3622)" gradientUnits="userSpaceOnUse" xlink:href="#linearGradient4878-7-2"/><linearGradient id="linearGradient4878-7-2"><stop id="stop4880-4-0" offset="0" style="stop-color:#4e8fbd;stop-opacity:1"/><stop id="stop4882-0-1" offset="1" style="stop-color:#4d5a5d;stop-opacity:1"/></linearGradient><linearGradient id="linearGradient4884-4" x1="0" x2="8" y1="13.5" y2="13.5" gradientTransform="translate(-2.96875,1036.3622)" gradientUnits="userSpaceOnUse" xlink:href="#linearGradient4878-6"/><linearGradient id="linearGradient4878-6"><stop id="stop4880-6" offset="0" style="stop-color:#4e8fbd;stop-opacity:1"/><stop id="stop4882-2" offset="1" style="stop-color:#4d5a5d;stop-opacity:1"/></linearGradient><linearGradient id="linearGradient4922-86"><stop id="stop4924-9" offset="0" style="stop-color:#77849a;stop-opacity:1"/><stop id="stop4926-8" offset="1" style="stop-color:#38445d;stop-opacity:1"/></linearGradient><linearGradient id="linearGradient5103-9"><stop id="stop5105-8" offset="0" style="stop-color:#fefdef;stop-opacity:1"/><stop id="stop5107-3" offset="1" style="stop-color:#fce69e;stop-opacity:1"/></linearGradient></defs><metadata id="metadata7"/><g id="layer1" transform="translate(0,-1036.3622)" style="display:inline"><g id="g6256" transform="matrix(1.1632138,0,0,1.1632138,1.6961117,-191.54519)"><path style="fill:url(#linearGradient6271);fill-opacity:1;stroke:none;display:inline" id="path5581-1-4" d="m 7.9984333,1055.6028 2.5790617,0.013 0.01343,1.7328 1.719381,-0.013 -0.01344,2.579 -1.719381,0.013 6e-6,1.7194 -2.5790617,-0.013 -6e-6,-1.7193 -1.732808,-10e-5 0.01344,-2.579 1.732808,0 z"/><path style="fill:url(#linearGradient6273);fill-opacity:1;stroke:none;display:inline" id="path5581-5" d="m 8.8581208,1056.4759 0.8596871,0 0,1.7194 1.7193741,0 0,0.8597 -1.7193741,0 0,1.7193 -0.8596871,0 0,-1.7193 -1.7193744,0 0,-0.8597 1.7193744,0 z"/><g style="display:inline" id="layer1-5" transform="matrix(0.85968719,0,0,0.85968719,-1.4614849,164.66895)"><path id="path4108-1" d="m 3.7499998,1045.3622 0,1 5.25,0 0,2 2.9998932,-2.5 -2.9998932,-2.5 0,2 z" style="fill:url(#linearGradient5109-2);fill-opacity:1;stroke:none;display:inline"/><path id="path4108" d="m -2.96875,1049.3622 0,1 5,0 0,2 2.9998932,-2.5 -2.9998932,-2.5 0,2 z" style="fill:url(#linearGradient4884-4);fill-opacity:1;stroke:none"/><path id="path4108-9" d="m -2.96875,1041.3622 0,1 5,0 0,2 2.9998932,-2.5 -2.9998932,-2.5 0,2 z" style="fill:url(#linearGradient4901-2);fill-opacity:1;stroke:none;display:inline"/><rect id="rect4920" width="1" height="4" x="6" y="1039.362" style="fill:url(#linearGradient4929-1);fill-opacity:1;stroke:none"/><rect id="rect4920-4" width="1" height="4" x="6" y="-1052.362" transform="scale(1,-1)" style="fill:url(#linearGradient4946-8);fill-opacity:1;stroke:none;display:inline"/><path id="path4108-1-6" d="m 7.9999998,1042.3622 0,2 -3.25,0 -1,0 c -0.9918497,0.9918 -0.9863244,2.0137 0,3 l 1,0 3.25,0 0,2 c 0,0.6519 0.740915,0.6375 1.5,0 l 3.9375002,-3.5 -3.9375002,-3.5 c -0.760225,-0.7602 -1.5,-0.5203 -1.5,0 z m 1,1 3.0000002,2.5 -3.0000002,2.5 0,-2 -4.6875,0 c -0.2762136,-0.2099 -0.2774437,-0.7282 0,-1 l 4.6875,0 z" style="fill:#b57a13;fill-opacity:1;stroke:none;display:inline"/></g></g></g></svg>