<svg xmlns="http://www.w3.org/2000/svg" xmlns:svg="http://www.w3.org/2000/svg" xmlns:xlink="http://www.w3.org/1999/xlink" id="svg2" width="16" height="16" version="1.1"><defs id="defs4"><linearGradient id="linearGradient4953-4"><stop id="stop4955-4" offset="0" style="stop-color:#fff;stop-opacity:1"/><stop id="stop4957-5" offset="1" style="stop-color:#fff;stop-opacity:0"/></linearGradient><radialGradient id="radialGradient5115" cx="-18.562" cy="27.314" r="3.359" fx="-18.562" fy="27.314" gradientUnits="userSpaceOnUse" xlink:href="#linearGradient4953-4"/><linearGradient id="linearGradient4852-7-4"><stop id="stop4854-4-0" offset="0" style="stop-color:#707070;stop-opacity:1"/><stop id="stop4856-0-3" offset="1" style="stop-color:#a0a0a0;stop-opacity:1"/></linearGradient><linearGradient id="linearGradient4844-4-5"><stop id="stop4846-8-7" offset="0" style="stop-color:#2b2b2b;stop-opacity:1"/><stop id="stop4848-8-6" offset="1" style="stop-color:#404040;stop-opacity:1"/></linearGradient><linearGradient id="linearGradient3869" x1="4.753" x2="4.753" y1="1051.047" y2="1038.581" gradientTransform="matrix(0.54891851,0,0,0.54891851,-18.987361,475.72971)" gradientUnits="userSpaceOnUse" xlink:href="#linearGradient4852-7-4"/><linearGradient id="linearGradient3871" x1="8.657" x2="8.657" y1="1050.739" y2="1037.7" gradientTransform="matrix(0.54891851,0,0,0.54891851,-18.987361,475.72971)" gradientUnits="userSpaceOnUse" xlink:href="#linearGradient4844-4-5"/><linearGradient id="linearGradient5099-2" x1="-18.015" x2="-18.015" y1="1056.339" y2="1061.313" gradientTransform="translate(3.7499998,-16.499999)" gradientUnits="userSpaceOnUse" xlink:href="#linearGradient4916-9"/><linearGradient id="linearGradient4916-9"><stop id="stop4918-0" offset="0" style="stop-color:#ffeab6;stop-opacity:1"/><stop id="stop4921-0" offset="1" style="stop-color:#f8d888;stop-opacity:1"/></linearGradient><linearGradient id="linearGradient5101-5" x1="-18.015" x2="-9.604" y1="1061.313" y2="1059.978" gradientTransform="translate(3.7499998,-16.499999)" gradientUnits="userSpaceOnUse" xlink:href="#linearGradient4935-5"/><linearGradient id="linearGradient4935-5"><stop id="stop4937-0" offset="0" style="stop-color:#bc7f32;stop-opacity:1"/><stop id="stop4939-0" offset="1" style="stop-color:#a37840;stop-opacity:1"/></linearGradient><linearGradient id="linearGradient5111-8" x1="-10.678" x2="-13.058" y1="1063.509" y2="1061.874" gradientTransform="translate(4.09375,-16.375)" gradientUnits="userSpaceOnUse" xlink:href="#linearGradient4916-9"/><linearGradient id="linearGradient5113-7" x1="-13.058" x2="-14.473" y1="1061.874" y2="1065.144" gradientTransform="translate(4.09375,-16.375)" gradientUnits="userSpaceOnUse" xlink:href="#linearGradient4943-3"/><linearGradient id="linearGradient4943-3"><stop id="stop4945-2" offset="0" style="stop-color:#bc7f32;stop-opacity:1"/><stop id="stop4947-4" offset="1" style="stop-color:#7b6244;stop-opacity:1"/></linearGradient><radialGradient id="radialGradient3047-6" cx="387.597" cy="442.578" r="6.188" fx="387.597" fy="442.578" gradientTransform="matrix(1.5657869,-2.9706834e-6,2.6069523e-6,1.3740716,-219.20821,-165.52072)" gradientUnits="userSpaceOnUse" xlink:href="#linearGradient11146-4-4-3-7"/><linearGradient id="linearGradient11146-4-4-3-7"><stop id="stop11150-4-72-2-5" offset="0" style="stop-color:#faefba;stop-opacity:1"/><stop style="stop-color:#9e6542;stop-opacity:1" id="stop11152-9-0-2-8" offset="1"/></linearGradient><radialGradient id="radialGradient3049-4" cx="387.597" cy="442.578" r="6.188" fx="387.597" fy="442.578" gradientTransform="matrix(1.5657869,-2.9706834e-6,2.6069523e-6,1.3740716,-228.33321,-165.52072)" gradientUnits="userSpaceOnUse" xlink:href="#linearGradient11146-8-3-2-5-2"/><linearGradient id="linearGradient11146-8-3-2-5-2"><stop id="stop11150-7-5-9-0-7" offset="0" style="stop-color:#faefba;stop-opacity:1"/><stop style="stop-color:#9e6542;stop-opacity:1" id="stop11152-8-4-35-4-2" offset="1"/></linearGradient><radialGradient id="radialGradient3051-6" cx="387.597" cy="442.578" r="6.188" fx="387.597" fy="442.578" gradientTransform="matrix(1.5657869,-2.9706834e-6,2.6069523e-6,1.3740716,-219.20821,-154.64572)" gradientUnits="userSpaceOnUse" xlink:href="#linearGradient11146-7-5-30-9-8"/><linearGradient id="linearGradient11146-7-5-30-9-8"><stop id="stop11150-9-6-9-9-3" offset="0" style="stop-color:#faefba;stop-opacity:1"/><stop style="stop-color:#9e6542;stop-opacity:1" id="stop11152-6-7-6-1-9" offset="1"/></linearGradient><radialGradient id="radialGradient3053-7" cx="387.597" cy="442.578" r="6.188" fx="387.597" fy="442.578" gradientTransform="matrix(1.5657869,-2.9706834e-6,2.6069523e-6,1.3740716,-208.33321,-154.64572)" gradientUnits="userSpaceOnUse" xlink:href="#linearGradient11146-8-7-5-7-9-4"/><linearGradient id="linearGradient11146-8-7-5-7-9-4"><stop id="stop11150-7-8-3-8-47-8" offset="0" style="stop-color:#faefba;stop-opacity:1"/><stop style="stop-color:#9e6542;stop-opacity:1" id="stop11152-8-8-6-3-4-2" offset="1"/></linearGradient></defs><metadata id="metadata7"/><g style="display:inline" id="layer1" transform="translate(0,-1036.3622)"><g id="g5082" transform="translate(18.738328,0)"><g id="g3112"><g style="display:inline" id="g5028" transform="translate(0.34374998,0.12499996)"><path style="fill:url(#linearGradient5099-2);fill-opacity:1;stroke:url(#linearGradient5101-5);stroke-width:1;stroke-linecap:butt;stroke-linejoin:miter;stroke-miterlimit:4;stroke-opacity:1;stroke-dasharray:none" id="path4887" d="m -17.595785,1048.2294 c -0.04419,-0.7071 0,-5.3378 0,-6.8943 0,-1.5565 1.000669,-2.5911 3.702254,-2.5911 2.717929,0 5.7111048,-0.017 5.7111048,-0.017 0,0 1.878252,0.088 1.878252,1.8783 l 0,3.271"/><rect style="fill:#fff;fill-opacity:1;stroke:none" id="rect3885" width="1.03" height="8.068" x="-12.066" y="1038.16" ry="0"/><path id="path5012" d="m -17.374999,1040.6747 10.749999,0" style="opacity:.11522636;fill:none;stroke:#ba7f33;stroke-width:1px;stroke-linecap:butt;stroke-linejoin:miter;stroke-opacity:1;display:inline"/><path id="path5014" d="m -11.490485,1040.1204 4.640388,0 c 0,0 -0.220971,-0.9723 -1.5467957,-0.9281 -1.3258251,0.044 -5.7639293,0 -5.7639293,0 0,0 -1.846352,0.088 -2.023128,0.9281 2.784233,0 4.693465,0 4.693465,0 z" style="fill:#fff;fill-opacity:.67123287;stroke:none;display:inline"/></g><g style="display:inline" id="g11260-4-3" transform="matrix(0.27903303,0,0,0.27903303,-112.19247,915.99265)"><g id="g3039" transform="translate(1.4254497,1.0815088)"><rect style="fill:url(#radialGradient3047-6);fill-opacity:1;stroke:#694337;stroke-width:3.58380508;stroke-linecap:round;stroke-linejoin:round;stroke-miterlimit:4;stroke-opacity:1;stroke-dasharray:none;stroke-dashoffset:0;display:inline" id="rect10961-8-9" width="11.099" height="10.875" x="384.026" y="439.175" transform="translate(-20.000002,2.6171874e-6)"/><rect style="fill:url(#radialGradient3049-4);fill-opacity:1;stroke:#694337;stroke-width:3.58380508;stroke-linecap:round;stroke-linejoin:round;stroke-miterlimit:4;stroke-opacity:1;stroke-dasharray:none;stroke-dashoffset:0;display:inline" id="rect10961-9-0-0" width="10.371" height="10.875" x="375.125" y="439.175"/><rect style="fill:url(#radialGradient3051-6);fill-opacity:1;stroke:#694337;stroke-width:3.58380508;stroke-linecap:round;stroke-linejoin:round;stroke-miterlimit:4;stroke-opacity:1;stroke-dasharray:none;stroke-dashoffset:0;display:inline" id="rect10961-3-9-3" width="11.155" height="10.875" x="383.97" y="450.05" transform="translate(-20.000002,2.6171874e-6)"/><rect style="fill:url(#radialGradient3053-7);fill-opacity:1;stroke:#694337;stroke-width:3.58380508;stroke-linecap:round;stroke-linejoin:round;stroke-miterlimit:4;stroke-opacity:1;stroke-dasharray:none;stroke-dashoffset:0;display:inline" id="rect10961-9-6-4-0" width="10.427" height="10.875" x="395.125" y="450.05" transform="translate(-20.000002,2.6171874e-6)"/><path id="path11108-6-0" d="m 358.58262,450.0766 32.34962,0" style="fill:none;stroke:#694337;stroke-width:3.58380508;stroke-linecap:butt;stroke-linejoin:miter;stroke-miterlimit:4;stroke-opacity:1;stroke-dasharray:none"/><path id="path11108-8-0-8" d="m 374.78353,433.85267 0,30.58237" style="fill:none;stroke:#694337;stroke-width:3.58380508;stroke-linecap:butt;stroke-linejoin:miter;stroke-miterlimit:4;stroke-opacity:1;stroke-dasharray:none;display:inline"/></g></g><path id="path4887-8" d="m -12.611647,1044.0594 -0.04419,0.01 8.352698,0 c 0,0 2.077126,-0.221 1.06066,1.1048 -1.016466,1.3258 -3.358757,3.7565 -3.358757,3.7565 -3.401795,0 -7.923481,-0.044 -10.606601,-0.044 0,-1.5305 -0.04419,-4.6846 -0.04419,-4.6846" style="fill:url(#linearGradient5111-8);fill-opacity:1;stroke:url(#linearGradient5113-7);stroke-width:1;stroke-linecap:butt;stroke-linejoin:miter;stroke-miterlimit:4;stroke-opacity:1;stroke-dasharray:none;display:inline"/><path id="path4933-7" d="m -12.44064,1043.9872 c -0.25,0 -4.774318,4.3765 -4.774318,4.3765" style="fill:none;stroke:#bc7f32;stroke-width:1px;stroke-linecap:butt;stroke-linejoin:miter;stroke-opacity:1;display:inline"/></g><path style="fill:none;stroke:#bc7f32;stroke-width:1px;stroke-linecap:butt;stroke-linejoin:miter;stroke-opacity:1" id="path4933" d="m -12.749999,1043.9872 c -0.25,0 -4.53125,4.5312 -4.53125,4.5312"/><path style="fill:url(#radialGradient5115);fill-opacity:1;stroke:none;display:inline" id="path4951" d="m -15.202795,27.313707 c 0,1.854991 -1.503767,3.358757 -3.358757,3.358757 -1.85499,0 -3.358757,-1.503766 -3.358757,-3.358757 0,-1.85499 1.503767,-3.358757 3.358757,-3.358757 1.85499,0 3.358757,1.503767 3.358757,3.358757 z" transform="matrix(1.7368421,0,0,1.7368421,17.426932,999.3828)"/><path id="rect4043" d="m -11.621264,1045.8667 c -0.256996,-0.2569 -0.670765,-0.2569 -0.927748,0 l -1.708671,1.7087 -1.708658,-1.7087 c -0.256957,-0.2569 -0.670765,-0.2569 -0.927747,0 l -0.4721,0.4721 c -0.25697,0.257 -0.256963,0.6707 2.1e-5,0.9277 l 1.70863,1.7088 -1.708634,1.7085 c -0.257008,0.2571 -0.257002,0.6708 -6e-6,0.9278 l 0.472125,0.4722 c 0.256968,0.2569 0.670737,0.2569 0.927745,0 l 1.708662,-1.7087 1.720533,1.7205 c 0.256969,0.2571 0.670738,0.2571 0.927747,0 l 0.4721,-0.472 c 0.256981,-0.257 0.2544,-0.6683 -2.1e-5,-0.9278 l -1.720533,-1.7205 1.708661,-1.7087 c 0.256993,-0.257 0.256987,-0.6708 1.9e-5,-0.9278 z" style="fill:url(#linearGradient3869);fill-opacity:1;stroke:url(#linearGradient3871);stroke-width:1;stroke-linecap:round;stroke-linejoin:miter;stroke-miterlimit:4;stroke-opacity:1;stroke-dasharray:none;stroke-dashoffset:0;display:inline"/></g></g></svg>