<svg xmlns="http://www.w3.org/2000/svg" xmlns:svg="http://www.w3.org/2000/svg" xmlns:xlink="http://www.w3.org/1999/xlink" id="svg2" width="16" height="16" version="1.1"><defs id="defs4"><linearGradient id="linearGradient4908-2" x1="5.994" x2="15.923" y1="1038.405" y2="1052.364" gradientTransform="matrix(1.0070984,0,0,1.0029935,-4.0363034,-3.1516)" gradientUnits="userSpaceOnUse" xlink:href="#linearGradient4902-3"/><linearGradient id="linearGradient4902-3"><stop id="stop4904-2" offset="0" style="stop-color:#c7b571;stop-opacity:1"/><stop id="stop4906-2" offset="1" style="stop-color:#989891;stop-opacity:1"/></linearGradient><linearGradient id="linearGradient4101" x1="9.895" x2="9.895" y1="1039.153" y2="1051.838" gradientTransform="matrix(0.95438269,0,0,0.92584015,-3.2465113,77.503215)" gradientUnits="userSpaceOnUse" xlink:href="#linearGradient4994-6"/><linearGradient id="linearGradient4994-6"><stop id="stop4996-1" offset="0" style="stop-color:#f9fafc;stop-opacity:1"/><stop id="stop4998-89" offset="1" style="stop-color:#dce7f7;stop-opacity:1"/></linearGradient><radialGradient id="radialGradient3091-1-9-6-4" cx="-757.205" cy="-738.838" r="3.48" fx="-757.205" fy="-738.838" gradientTransform="matrix(1.8508179,-8.813921e-6,8.4531434e-6,1.7750589,656.64043,584.37415)" gradientUnits="userSpaceOnUse" xlink:href="#linearGradient4528-9-5-7-9-7"/><linearGradient id="linearGradient4528-9-5-7-9-7"><stop id="stop4530-0-5-0-5-8" offset="0" style="stop-color:#e0c576;stop-opacity:1"/><stop id="stop4532-7-9-3-3-6" offset="1" style="stop-color:#9e7916;stop-opacity:1"/></linearGradient><linearGradient id="linearGradient3093-5-2-7-0" x1=".938" x2=".938" y1="4.844" y2="7.549" gradientTransform="matrix(2.3199889,0,0,2.3173471,9.7407354,1026.2511)" gradientUnits="userSpaceOnUse" xlink:href="#linearGradient6281-8-0-1-6-6-4-2-8"/><linearGradient id="linearGradient6281-8-0-1-6-6-4-2-8"><stop style="stop-color:#f7f9fb;stop-opacity:1" id="stop6283-0-2-2-1-2-0-1-6" offset="0"/><stop style="stop-color:#ffd680;stop-opacity:1" id="stop6285-5-0-9-7-6-9-9-1" offset="1"/></linearGradient><mask id="mask8465" maskUnits="userSpaceOnUse"><path id="path8467" d="m 2.005808,1041.3724 0,0.5 0,11.0313 0,0.5 0.5,0 12.9375,0 0.5,0 0,-0.5 0,-11.0313 0,-0.5 -0.5,0 -12.9375,0 -0.5,0 z" style="color:#000;font-style:normal;font-variant:normal;font-weight:400;font-stretch:normal;font-size:medium;line-height:normal;font-family:Sans;-inkscape-font-specification:Sans;text-indent:0;text-align:start;text-decoration:none;text-decoration-line:none;letter-spacing:normal;word-spacing:normal;text-transform:none;direction:ltr;block-progression:tb;writing-mode:lr-tb;baseline-shift:baseline;text-anchor:start;display:inline;overflow:visible;visibility:visible;fill:#fff;fill-opacity:1;fill-rule:nonzero;stroke:none;stroke-width:1;marker:none;enable-background:accumulate"/></mask><filter id="filter8410" width="1.48" height="1.48" x="-.24" y="-.24"><feGaussianBlur id="feGaussianBlur8412" stdDeviation="1.465"/></filter></defs><metadata id="metadata7"/><g style="display:inline" id="layer1" transform="translate(0,-1036.3622)"><path id="rect4001-3" d="m 2,1039.3622 6.6899073,0 3.3100927,0.093 0,11.907 -10,0 z" style="display:inline;fill:url(#linearGradient4101);fill-opacity:1;stroke:none"/><path id="rect4001" d="m 1.500001,1038.8622 10.999996,0 c 0,0 0,8.6667 0,13 l -10.999997,0 z" style="display:inline;fill:none;stroke:url(#linearGradient4908-2);stroke-width:1;stroke-linecap:butt;stroke-linejoin:miter;stroke-miterlimit:4;stroke-dashoffset:0;stroke-opacity:1"/><path id="path4187" d="m 3.5110341,1043.8797 5.5075699,0" style="display:inline;fill:none;fill-rule:evenodd;stroke:#49a068;stroke-width:.99999994px;stroke-linecap:butt;stroke-linejoin:miter;stroke-opacity:1"/><path id="path4189" d="m 3.4480905,1046.873 5.5705135,0" style="display:inline;fill:none;fill-rule:evenodd;stroke:#49a068;stroke-width:.99999994px;stroke-linecap:butt;stroke-linejoin:miter;stroke-opacity:1"/><path id="path4187-6" d="m 10,1043.8622 1.012273,0" style="display:inline;fill:none;fill-rule:evenodd;stroke:#49a068;stroke-width:.99999994px;stroke-linecap:butt;stroke-linejoin:miter;stroke-opacity:1"/><path id="path4187-6-4" d="m 9.987727,1046.8622 1.012273,0" style="display:inline;fill:none;fill-rule:evenodd;stroke:#49a068;stroke-width:.99999994px;stroke-linecap:butt;stroke-linejoin:miter;stroke-opacity:1"/><path id="path4187-6-4-2" d="m 9.987727,1049.8622 1.012273,0" style="display:inline;fill:none;fill-rule:evenodd;stroke:#49a068;stroke-width:.99999994px;stroke-linecap:butt;stroke-linejoin:miter;stroke-opacity:1"/><path style="display:inline;fill:none;fill-rule:evenodd;stroke:#49a068;stroke-width:.99999994px;stroke-linecap:butt;stroke-linejoin:miter;stroke-opacity:.2154696" id="path4278" d="m 4.5,1040.3578 0,2.5044 4.5175504,0"/><path style="display:inline;fill:none;fill-rule:evenodd;stroke:#49a068;stroke-width:.99999994px;stroke-linecap:butt;stroke-linejoin:miter;stroke-opacity:.2154696" id="path4278-4" d="m 4,1045.8622 4.9848827,0"/><path style="display:inline;fill:none;fill-rule:evenodd;stroke:#49a068;stroke-width:.99999994px;stroke-linecap:butt;stroke-linejoin:miter;stroke-opacity:.2154696" id="path4278-4-0" d="m 4,1048.8622 4.9848827,0"/><path style="display:inline;fill:none;fill-rule:evenodd;stroke:#49a068;stroke-width:.99999994px;stroke-linecap:butt;stroke-linejoin:miter;stroke-opacity:.2154696" id="path4278-4-0-3" d="m 10,1048.8622 1.023681,0"/><path style="display:inline;fill:none;fill-rule:evenodd;stroke:#49a068;stroke-width:.99999994px;stroke-linecap:butt;stroke-linejoin:miter;stroke-opacity:.2154696" id="path4278-4-0-3-7" d="m 10,1045.8622 1.023681,0"/><path style="display:inline;fill:none;fill-rule:evenodd;stroke:#49a068;stroke-width:.99999994px;stroke-linecap:butt;stroke-linejoin:miter;stroke-opacity:.2154696" id="path4278-4-0-3-7-2" d="m 10,1042.8622 1.023681,0"/><path id="path4185" d="m 3.5,1040.3774 0,9.4848 5.5000002,0" style="display:inline;fill:none;fill-rule:evenodd;stroke:#49a068;stroke-width:1px;stroke-linecap:butt;stroke-linejoin:miter;stroke-opacity:1"/><g id="g8461" mask="url(#mask8465)" transform="matrix(0.6258371,0,0,0.98852889,3.1169292,8.9685178)" style="display:inline"><g style="display:inline;fill:#fff;stroke:#fff;stroke-width:1.27137804" id="g7590-1-0" transform="matrix(0.51237963,0,0,0.51237963,21.788022,514.89288)"><path style="display:inline;opacity:.85;fill:#fff;stroke:#fff;stroke-width:7.44396067;stroke-linecap:round;stroke-linejoin:round;stroke-miterlimit:4;stroke-dasharray:none;stroke-opacity:1;filter:url(#filter8410)" id="rect6501-1-6-8" d="m -16.30668,1023.0143 c 0,0 0.754772,2.7548 2.663409,4.6634 1.908637,1.9086 4.663405,2.6634 4.663405,2.6634 0,0 -2.739141,0.7391 -4.663398,2.6634 -1.924257,1.9243 -2.663409,4.6634 -2.663409,4.6634 0,0 -0.676645,-2.6766 -2.66341,-4.6634 -1.986765,-1.9868 -4.663405,-2.6634 -4.663405,-2.6634 0,0 2.801649,-0.8017 4.663405,-2.6634 1.861756,-1.8618 2.663403,-4.6634 2.663403,-4.6634 z"/></g></g><rect id="rect3910" width="4.583" height="4.454" x="-746.433" y="-728.673" transform="matrix(-0.70710678,-0.70710678,0.70710678,-0.70710678,0,0)" style="display:inline;fill:url(#radialGradient3091-1-9-6-4);fill-opacity:1;stroke:#a27d18;stroke-width:1.03243756;stroke-miterlimit:4;stroke-dasharray:none;stroke-opacity:1"/><path style="display:inline;fill:url(#linearGradient3093-5-2-7-0);fill-opacity:1;stroke:none" id="path5581-5-5" d="m 12.012228,1037.3622 1.001133,0 0,2 1.986639,0 0,0.9593 -1.986639,0 0,2.0407 -1.001133,0 0,-2.0407 -1.98664,0 0,-0.9593 1.98664,0 z"/></g></svg>