<svg xmlns="http://www.w3.org/2000/svg" xmlns:svg="http://www.w3.org/2000/svg" xmlns:xlink="http://www.w3.org/1999/xlink" id="svg2" width="16" height="16" version="1.1"><defs id="defs4"><linearGradient id="linearGradient4764"><stop style="stop-color:#005020;stop-opacity:1" id="stop4766" offset="0"/><stop style="stop-color:#309858;stop-opacity:1" id="stop4768" offset="1"/></linearGradient><linearGradient id="linearGradient4757"><stop id="stop4759" offset="0" style="stop-color:#e0e566;stop-opacity:1"/><stop id="stop4761" offset="1" style="stop-color:#80b050;stop-opacity:1"/></linearGradient><linearGradient id="linearGradient5618" x1="2.031" x2="2.031" y1="5.564" y2="9.144" gradientTransform="matrix(1.9375158,0,0,2.0245922,5.812421,1033.1241)" gradientUnits="userSpaceOnUse" xlink:href="#linearGradient4757"/><linearGradient id="linearGradient4770" x1="27" x2="27" y1="1050.362" y2="1039.362" gradientTransform="translate(-17.910641,3.03125)" gradientUnits="userSpaceOnUse" xlink:href="#linearGradient4764"/></defs><metadata id="metadata7"/><g id="layer1" transform="translate(0,-1036.3622)" style="display:inline"><path style="font-size:10.29760742px;font-style:normal;font-weight:400;line-height:125%;letter-spacing:0;word-spacing:0;fill:#286296;fill-opacity:1;stroke:#286296;stroke-opacity:1;font-family:Sans" id="path4020" d="m 3.8803616,1038.3622 c -2.96874996,2 -2.96874996,7 0,9 l 0.03125,0 c -2,-2 -2,-7 0,-9 z"/><path style="font-size:10.29760742px;font-style:normal;font-weight:400;line-height:125%;letter-spacing:0;word-spacing:0;fill:#286296;fill-opacity:1;stroke:#286296;stroke-opacity:1;display:inline;font-family:Sans" id="path4020-4" d="m 8.2595737,1038.3622 c 2.9687483,2 2.9687483,7 0,9 l -0.03125,0 c 1.9999993,-2 1.9999993,-7 0,-9 z"/><path style="fill:url(#linearGradient5618);fill-opacity:1;stroke:url(#linearGradient4770);stroke-width:1;stroke-linecap:butt;stroke-linejoin:miter;stroke-miterlimit:4;stroke-opacity:1;stroke-dasharray:none;display:inline" id="path5581" d="m 11.504818,1044.8682 2.02933,0 0,2.017 1.965852,0 0,2.0189 -1.965852,0 0,1.9877 -2.02933,0 0,-1.9877 -2.028352,0 0,-2.0189 2.028352,0 z"/></g></svg>