<svg xmlns="http://www.w3.org/2000/svg" xmlns:svg="http://www.w3.org/2000/svg" xmlns:xlink="http://www.w3.org/1999/xlink" id="svg2" width="16" height="16" version="1.1"><defs id="defs4"><linearGradient id="linearGradient4976"><stop style="stop-color:#696969;stop-opacity:1" id="stop4978" offset="0"/><stop style="stop-color:#4f504f;stop-opacity:1" id="stop4980" offset="1"/></linearGradient><linearGradient id="linearGradient4905"><stop style="stop-color:#494949;stop-opacity:1" id="stop4907" offset="0"/><stop id="stop4918" offset=".154" style="stop-color:#666665;stop-opacity:1"/><stop id="stop4916" offset=".385" style="stop-color:#666665;stop-opacity:1"/><stop id="stop4914" offset=".5" style="stop-color:#494949;stop-opacity:1"/><stop style="stop-color:#686867;stop-opacity:1" id="stop4921" offset=".615"/><stop id="stop4925" offset=".846" style="stop-color:#696969;stop-opacity:1"/><stop style="stop-color:#494949;stop-opacity:1" id="stop4910" offset="1"/></linearGradient><linearGradient id="linearGradient4912" x1="-2.78" x2="-2.78" y1="1064.267" y2="1051.267" gradientTransform="translate(19,0)" gradientUnits="userSpaceOnUse" xlink:href="#linearGradient4905"/><linearGradient id="linearGradient4905-4"><stop style="stop-color:#494949;stop-opacity:1" id="stop4907-0" offset="0"/><stop id="stop4918-9" offset=".154" style="stop-color:#666665;stop-opacity:1"/><stop id="stop4916-4" offset=".385" style="stop-color:#666665;stop-opacity:1"/><stop id="stop4914-8" offset=".5" style="stop-color:#494949;stop-opacity:1"/><stop style="stop-color:#686867;stop-opacity:1" id="stop4921-8" offset=".615"/><stop id="stop4925-2" offset=".846" style="stop-color:#696969;stop-opacity:1"/><stop style="stop-color:#494949;stop-opacity:1" id="stop4910-4" offset="1"/></linearGradient><linearGradient id="linearGradient4947" x1="-2.78" x2="-2.78" y1="1064.267" y2="1051.267" gradientTransform="translate(1061.0467,-1073.4853)" gradientUnits="userSpaceOnUse" xlink:href="#linearGradient4905-4"/><linearGradient id="linearGradient4982" x1="-1.78" x2="-1.78" y1="1052.267" y2="1063.267" gradientTransform="translate(19,0)" gradientUnits="userSpaceOnUse" xlink:href="#linearGradient4976"/><mask id="mask5102" maskUnits="userSpaceOnUse"><path style="fill:#fff;fill-opacity:1;stroke:none;display:inline" id="path5104" d="m 15.220116,1051.2669 0,1 -5,0 0,5 -0.9999997,0 0,1 0.9999997,0 0,5 5,0 0,1 1,0 0,-1 5,0 0,-5 1,0 0,-1 -1,0 0,-5 -5,0 0,-1 -1,0 z"/></mask><filter id="filter5106" width="1.287" height="1.482" x="-.144" y="-.241"><feGaussianBlur id="feGaussianBlur5108" stdDeviation=".599"/></filter></defs><metadata id="metadata7"/><g id="layer1" transform="translate(0,-1036.3622)" style="display:inline"><g style="display:inline" id="g8159" transform="translate(-8.2201163,-12.904699)"><path style="fill:url(#linearGradient4982);fill-opacity:1;stroke:none;display:inline" id="rect4112-1" d="m 10.220116,1052.2669 0,11 11,0 0,-11 -11,0 z m 1,1 9,0 0,9 -9,0 0,-9 z"/><rect style="fill:url(#linearGradient4912);fill-opacity:1;stroke:none" id="rect4903" width="1" height="13" x="15.22" y="1051.267"/><rect style="fill:url(#linearGradient4947);fill-opacity:1;stroke:none;display:inline" id="rect4903-5" width="1" height="13" x="1057.267" y="-22.22" transform="matrix(0,1,-1,0,0,0)"/><rect style="fill:#e3ebf8;fill-opacity:1;stroke:none" id="rect4986" width="4" height="4" x="11.22" y="1058.267"/><rect style="fill:#fff;fill-opacity:1;stroke:none;display:inline" id="rect4986-5" width="2" height="2" x="12.22" y="1059.267"/><rect style="fill:#e3ebf8;fill-opacity:1;stroke:none;display:inline" id="rect4986-1" width="4" height="4" x="16.22" y="1058.267"/><rect style="fill:#fff;fill-opacity:1;stroke:none;display:inline" id="rect4986-5-7" width="2" height="2" x="17.22" y="1059.267"/><rect style="fill:#e3ebf8;fill-opacity:1;stroke:none;display:inline" id="rect4986-11" width="4" height="4" x="11.22" y="1053.267"/><rect style="fill:#fff;fill-opacity:1;stroke:none;display:inline" id="rect4986-5-5" width="2" height="2" x="12.22" y="1054.267"/><rect style="fill:#e3ebf8;fill-opacity:1;stroke:none;display:inline" id="rect4986-1-2" width="4" height="4" x="16.22" y="1053.267"/><rect style="fill:#fff;fill-opacity:1;stroke:none;display:inline" id="rect4986-5-7-7" width="2" height="2" x="17.22" y="1054.267"/><g id="g5097" mask="url(#mask5102)"><g id="g4987" style="filter:url(#filter5106);stroke:#fff;stroke-width:2;stroke-miterlimit:4;stroke-dasharray:none"><path style="fill:#fff;stroke:#fff;stroke-width:2;stroke-linecap:butt;stroke-linejoin:round;stroke-opacity:1;display:inline;stroke-miterlimit:4;stroke-dasharray:none" id="path4140-7-0" d="m 14.738757,1061.753 0,-2.9835 c 0,-0.723 0.30837,-1.0403 0.822507,-1.0403 0.430028,0 0.520145,-0.9365 0.841842,-0.9365 l 1.452911,0 c 0.641386,0 0.423649,0.9888 0.832594,0.9888 l 3.032826,0 c 0.515862,0 1.024752,0.4466 1.024752,1.0248 l 0,2.9693 c 0,0.5312 -0.334077,0.9764 -0.976415,0.9764 l -6.058745,0 c -0.471088,0 -0.972272,-0.4831 -0.972272,-0.999 z"/><path style="fill:#fff;fill-opacity:1;stroke:#fff;stroke-width:2;stroke-linecap:butt;stroke-linejoin:round;stroke-opacity:1;display:inline;stroke-miterlimit:4;stroke-dasharray:none" id="path4140-1-9" d="m 15.114407,1062.2833 1.62435,-1.5138 8.007432,0.037 -2.58579,1.9457 -6.44937,0 c -0.471088,0 -0.596622,0.047 -0.596622,-0.4687 z"/></g></g><path style="fill:#fff;fill-opacity:1;stroke:#696969;stroke-width:1px;stroke-linecap:butt;stroke-linejoin:round;stroke-opacity:1" id="path4140" d="m 14.738757,1061.753 0,-2.9835 c 0,-0.723 0.30837,-1.0403 0.822507,-1.0403 0.430028,0 0.520145,-0.9365 0.841842,-0.9365 l 1.452911,0 c 0.641386,0 0.423649,0.9888 0.832594,0.9888 l 3.032826,0 c 0.515862,0 1.024752,0.4466 1.024752,1.0248 l 0,2.9693 c 0,0.5312 -0.334077,0.9764 -0.976415,0.9764 l -6.058745,0 c -0.471088,0 -0.972272,-0.4831 -0.972272,-0.999 z"/><path style="fill:none;stroke:#e3ebf8;stroke-width:.8086499px;stroke-linecap:butt;stroke-linejoin:round;stroke-opacity:1;display:inline" id="path4140-7-4" d="m 15.504868,1061.374 0,-2.1253 c 0,-0.5847 0.249364,-0.8412 0.665121,-0.8412 0.347742,0 0.420615,-0.7573 0.680755,-0.7573 l 0.600372,0 c 0.518657,0 0.342584,0.7995 0.673277,0.7995 l 3.027019,0 c 0.417152,0 0.828666,0.3612 0.828666,0.8288 l 0,2.1138 c 0,0.4295 -0.270152,0.7895 -0.789578,0.7895 l -4.899404,0 c -0.380945,0 -0.786228,-0.3906 -0.786228,-0.8078 z"/><path style="fill:none;fill-opacity:1;stroke:#696969;stroke-width:1px;stroke-linecap:butt;stroke-linejoin:round;stroke-opacity:1;display:inline" id="path4140-7" d="m 14.738757,1061.753 0,-2.9835 c 0,-0.723 0.30837,-1.0403 0.822507,-1.0403 0.430028,0 0.520145,-0.9365 0.841842,-0.9365 l 1.452911,0 c 0.641386,0 0.423649,0.9888 0.832594,0.9888 l 3.032826,0 c 0.515862,0 1.024752,0.4466 1.024752,1.0248 l 0,2.9693 c 0,0.5312 -0.334077,0.9764 -0.976415,0.9764 l -6.058745,0 c -0.471088,0 -0.972272,-0.4831 -0.972272,-0.999 z"/><path style="fill:#fff;fill-opacity:1;stroke:#696969;stroke-width:1px;stroke-linecap:butt;stroke-linejoin:round;stroke-opacity:1;display:inline" id="path4140-1" d="m 15.114407,1062.2833 1.62435,-1.5138 8.007432,0.037 -2.58579,1.9457 -6.44937,0 c -0.471088,0 -0.596622,0.047 -0.596622,-0.4687 z"/></g></g></svg>