<svg xmlns="http://www.w3.org/2000/svg" xmlns:svg="http://www.w3.org/2000/svg" xmlns:xlink="http://www.w3.org/1999/xlink" id="svg2" width="16" height="16" version="1.1"><defs id="defs4"><linearGradient id="linearGradient6738"><stop id="stop6740" offset="0" style="stop-color:#5481b6;stop-opacity:1"/><stop style="stop-color:#1c65a2;stop-opacity:1" id="stop5729" offset=".5"/><stop id="stop6742" offset="1" style="stop-color:#5286ba;stop-opacity:1"/></linearGradient><linearGradient id="linearGradient4964" x1="-31.957" x2="-31.957" y1="1042.254" y2="1039.602" gradientTransform="matrix(1.1876056,0,0,1.1876056,46.681185,-191.60474)" gradientUnits="userSpaceOnUse" xlink:href="#linearGradient6738"/></defs><metadata id="metadata7"/><g id="layer1" transform="translate(0,-1036.3622)"><path id="path6736" d="m 11.609555,1046.917 -6.1713054,0 3.0856518,-5.143 z" style="font-size:13.589174270000001px;font-style:normal;font-weight:400;line-height:125%;letter-spacing:0;word-spacing:0;fill:url(#linearGradient4964);fill-opacity:1;stroke:#2268a5;stroke-width:1;stroke-linecap:butt;stroke-linejoin:round;stroke-miterlimit:4;stroke-opacity:1;stroke-dasharray:none;display:inline;font-family:Sans"/><path style="opacity:1;fill:#fff;fill-opacity:1;stroke:none;display:inline" id="rect6501-1-6-1" d="m 8.5107074,1043.0116 c 0,0 0.1917576,0.6999 0.6766707,1.1849 0.4849113,0.4848 1.1847919,0.6765 1.1847919,0.6765 0,0 -0.6959103,0.1879 -1.1847903,0.6767 -0.4888799,0.4889 -0.6766706,1.1847 -0.6766706,1.1847 0,0 -0.1719097,-0.6798 -0.6766707,-1.1847 -0.504761,-0.5048 -1.1847934,-0.6767 -1.1847934,-0.6767 0,0 0.7117911,-0.2037 1.1847934,-0.6765 0.4730006,-0.4732 0.676669,-1.1849 0.676669,-1.1849 z"/></g></svg>