<svg xmlns="http://www.w3.org/2000/svg" xmlns:svg="http://www.w3.org/2000/svg" xmlns:xlink="http://www.w3.org/1999/xlink" id="svg2" width="16" height="16" version="1.1"><defs id="defs4"><filter id="filter5785" width="1.24" height="1.24" x="-.12" y="-.12" color-interpolation-filters="sRGB"><feGaussianBlur id="feGaussianBlur5787" stdDeviation=".2"/></filter><linearGradient id="linearGradient5789"><stop style="stop-color:#f57c7c;stop-opacity:1" id="stop5791" offset="0"/><stop id="stop5793" offset=".629" style="stop-color:#f14d5c;stop-opacity:1"/><stop style="stop-color:#e76061;stop-opacity:1" id="stop5795" offset="1"/></linearGradient><linearGradient id="linearGradient5001" x1="-16.115" x2="-16.115" y1="1031.035" y2="1033.667" gradientTransform="matrix(0.80203684,0,0,0.80203684,21.436652,216.87896)" gradientUnits="userSpaceOnUse" xlink:href="#linearGradient5789"/></defs><metadata id="metadata7"/><g id="layer1" transform="translate(0,-1036.3622)"><rect id="rect6724" width="4.005" height="4.005" x="6.497" y="1042.859" style="font-size:13.58917427px;font-style:normal;font-weight:400;line-height:125%;letter-spacing:0;word-spacing:0;fill:url(#linearGradient5001);fill-opacity:1;stroke:#cb2e39;stroke-width:.981363;stroke-linecap:round;stroke-linejoin:round;stroke-miterlimit:4;stroke-opacity:1;stroke-dasharray:none;stroke-dashoffset:0;display:inline;font-family:Sans"/><rect id="rect6724-4" width="3.997" height="3.997" x="7.554" y="1043.883" transform="matrix(0.68480814,0,0,0.68480814,1.9899547,328.6327)" style="font-size:13.58917427px;font-style:normal;font-weight:400;line-height:125%;letter-spacing:0;word-spacing:0;opacity:.25;fill:none;stroke:#fff;stroke-width:.68290508;stroke-linecap:round;stroke-linejoin:round;stroke-miterlimit:4;stroke-opacity:1;stroke-dasharray:none;stroke-dashoffset:0;display:inline;filter:url(#filter5785);font-family:Sans"/><path style="opacity:1;fill:#fff;fill-opacity:1;stroke:none;display:inline" id="rect6501-1-6-1" d="m 8.5107074,1043.0116 c 0,0 0.1917576,0.6999 0.6766707,1.1849 0.4849113,0.4848 1.1847919,0.6765 1.1847919,0.6765 0,0 -0.6959103,0.1879 -1.1847903,0.6767 -0.4888799,0.4889 -0.6766706,1.1847 -0.6766706,1.1847 0,0 -0.1719097,-0.6798 -0.6766707,-1.1847 -0.504761,-0.5048 -1.1847934,-0.6767 -1.1847934,-0.6767 0,0 0.7117911,-0.2037 1.1847934,-0.6765 0.4730006,-0.4732 0.676669,-1.1849 0.676669,-1.1849 z"/></g></svg>