<svg xmlns="http://www.w3.org/2000/svg" xmlns:svg="http://www.w3.org/2000/svg" xmlns:xlink="http://www.w3.org/1999/xlink" id="svg2" width="16" height="16" version="1.1"><defs id="defs4"><linearGradient id="linearGradient4968"><stop id="stop4970" offset="0" style="stop-color:#7792b2;stop-opacity:1"/><stop style="stop-color:#a1b3cb;stop-opacity:1" id="stop4972" offset=".159"/><stop style="stop-color:#6180a9;stop-opacity:1" id="stop4974" offset=".466"/><stop style="stop-color:#a1b3cb;stop-opacity:1" id="stop4976" offset=".744"/><stop id="stop4978" offset="1" style="stop-color:#7995b8;stop-opacity:1"/></linearGradient><linearGradient id="linearGradient4960"><stop id="stop4962" offset="0" style="stop-color:#fdfcfa;stop-opacity:1"/><stop style="stop-color:#fff;stop-opacity:.251" id="stop4964" offset=".674"/><stop id="stop4966" offset="1" style="stop-color:#d2e0f1;stop-opacity:0"/></linearGradient><linearGradient id="linearGradient4847"><stop style="stop-color:#d2e0f1;stop-opacity:1" id="stop4849" offset="0"/><stop id="stop4855" offset=".841" style="stop-color:#d2e0f1;stop-opacity:1"/><stop style="stop-color:#fcf2cf;stop-opacity:1" id="stop4851" offset="1"/></linearGradient><linearGradient id="linearGradient4825"><stop style="stop-color:#c7a229;stop-opacity:1" id="stop4827" offset="0"/><stop style="stop-color:#a07e1e;stop-opacity:1" id="stop4829" offset="1"/></linearGradient><linearGradient id="linearGradient4817"><stop style="stop-color:#fefdef;stop-opacity:1" id="stop4819" offset="0"/><stop style="stop-color:#fbdd83;stop-opacity:1" id="stop4821" offset="1"/></linearGradient><radialGradient id="radialGradient4089" cx="29.622" cy="1043.239" r="5.391" fx="29.622" fy="1043.239" gradientTransform="matrix(-8.4128165e-6,1.4346441,-1.6077392,-9.4278539e-6,1685.7383,1001.4109)" gradientUnits="userSpaceOnUse" xlink:href="#linearGradient4847"/><radialGradient id="radialGradient4091" cx="28.466" cy="1044.412" r="5.016" fx="28.466" fy="1044.412" gradientTransform="matrix(0.88536081,0.01424168,-0.02077996,1.2918258,4.9826165,-305.70643)" gradientUnits="userSpaceOnUse" xlink:href="#linearGradient4960"/><linearGradient id="linearGradient4093" x1="33.923" x2="33.923" y1="1051.258" y2="1040.46" gradientTransform="translate(-19.96534,-0.5545528)" gradientUnits="userSpaceOnUse" xlink:href="#linearGradient4968"/><linearGradient id="linearGradient4095" x1="25.083" x2="31.932" y1="1038.872" y2="1038.872" gradientTransform="translate(-20,-0.147048)" gradientUnits="userSpaceOnUse" xlink:href="#linearGradient4817"/><linearGradient id="linearGradient4097" x1="27.425" x2="27.425" y1="1037.767" y2="1039.846" gradientTransform="translate(-20,-0.147048)" gradientUnits="userSpaceOnUse" xlink:href="#linearGradient4825"/></defs><metadata id="metadata7"/><g id="layer1" transform="translate(0,-1036.3622)" style="display:inline"><g id="g4083" transform="matrix(0.90162747,0,0,0.90162747,0.30656226,102.31711)"><path id="rect4044" d="m 5.2136895,1038.7143 6.6566975,0 c 0.453044,1.6907 2.762136,2.5911 2.762136,5.1157 l 0,5.4202 c 0,1.5302 -1.231912,2.7621 -2.762136,2.7621 l -6.6566975,0 c -1.530224,0 -2.762136,-1.2319 -2.762136,-2.7621 l 0,-5.4202 c 0,-2.5909 2.334749,-3.5207 2.762136,-5.1157 z" style="fill:url(#radialGradient4089);fill-opacity:1;stroke:none"/><path id="rect4044-7" d="m 5.2136895,1038.7143 6.6566975,0 c 0.453044,1.6907 2.762136,2.5911 2.762136,5.1157 l 0,5.4202 c 0,1.5302 -1.231912,2.7621 -2.762136,2.7621 l -6.6566975,0 c -1.530224,0 -2.762136,-1.2319 -2.762136,-2.7621 l 0,-5.4202 c 0,-2.5909 2.334749,-3.5207 2.762136,-5.1157 z" style="fill:url(#radialGradient4091);fill-opacity:1;stroke:none;display:inline"/><path id="rect4044-1" d="m 5.2136895,1038.7143 6.6566975,0 c 0.453044,1.6907 2.762136,2.5911 2.762136,5.1157 l 0,5.4202 c 0,1.5302 -1.231912,2.7621 -2.762136,2.7621 l -6.6566975,0 c -1.530224,0 -2.762136,-1.2319 -2.762136,-2.7621 l 0,-5.4202 c 0,-2.5909 2.334749,-3.5207 2.762136,-5.1157 z" style="fill:none;stroke:url(#linearGradient4093);stroke-width:1.10910547;stroke-linecap:butt;stroke-linejoin:round;stroke-miterlimit:4;stroke-opacity:1;stroke-dasharray:none;stroke-dashoffset:0;display:inline"/><rect id="rect4815" width="10.057" height="2.222" x="3.531" y="1036.522" rx=".762" ry=".762" style="fill:url(#linearGradient4095);fill-opacity:1;stroke:url(#linearGradient4097);stroke-width:1.10910547;stroke-linecap:butt;stroke-linejoin:round;stroke-miterlimit:4;stroke-opacity:1;stroke-dasharray:none;stroke-dashoffset:0"/></g><path id="path21763" d="m 6.738238,1045.3769 c -4e-6,0.5057 -0.09722,0.9203 -0.291688,1.2435 -0.22402,0.3749 -0.548377,0.5624 -0.973072,0.5624 -0.424698,0 -0.749834,-0.1875 -0.975405,-0.5624 -0.196014,-0.3232 -0.294022,-0.7378 -0.294022,-1.2435 0,-0.5058 0.09801,-0.9202 0.294022,-1.2435 0.225571,-0.375 0.550707,-0.5624 0.975405,-0.5625 0.424695,10e-5 0.749052,0.1875 0.973072,0.5625 0.194455,0.3233 0.291684,0.7377 0.291688,1.2435 z m -0.410697,0 c -4e-6,-0.3646 -0.07079,-0.6769 -0.21235,-0.9365 -0.160236,-0.2924 -0.37414,-0.4385 -0.641713,-0.4385 -0.269131,0 -0.483814,0.1461 -0.644047,0.4385 -0.143123,0.2596 -0.214683,0.5719 -0.214683,0.9365 0,0.3647 0.07157,0.6767 0.214683,0.9366 0.160233,0.2922 0.374916,0.4385 0.644047,0.4385 0.267573,0 0.481477,-0.1463 0.641713,-0.4385 0.141565,-0.2599 0.212346,-0.5719 0.21235,-0.9366 z" style="font-style:normal;font-variant:normal;font-weight:400;font-stretch:normal;font-size:10px;line-height:125%;font-family:Gautami;text-align:start;letter-spacing:0;word-spacing:0;writing-mode:lr-tb;text-anchor:start;display:inline;fill:#10305a;fill-opacity:1;stroke:#17325d;stroke-width:.43093461;stroke-miterlimit:4;stroke-dasharray:none;stroke-opacity:1"/><path id="path21765" d="m 8.8747035,1043.4881 0,3.7435 -0.7456623,0 0.00726,-3.7513 z" style="font-style:normal;font-variant:normal;font-weight:400;font-stretch:normal;font-size:10px;line-height:125%;font-family:Gautami;-inkscape-font-specification:Gautami;text-align:start;letter-spacing:0;word-spacing:0;writing-mode:lr-tb;text-anchor:start;display:inline;fill:#10305a;fill-opacity:1;stroke:#17325d;stroke-width:.26428938;stroke-miterlimit:4;stroke-dasharray:none;stroke-opacity:1"/><path id="path21763-3" d="m 12.77305,1045.3769 c -3e-6,0.5053 -0.09834,0.9197 -0.295019,1.2427 -0.226576,0.3747 -0.554637,0.562 -0.984182,0.562 -0.429549,0 -0.758395,-0.1873 -0.986541,-0.562 -0.198254,-0.323 -0.297379,-0.7374 -0.297379,-1.2427 0,-0.5054 0.09912,-0.9196 0.297379,-1.2427 0.228146,-0.3748 0.556992,-0.562 0.986541,-0.5621 0.429545,10e-5 0.757606,0.1873 0.984182,0.5621 0.196677,0.3231 0.295016,0.7373 0.295019,1.2427 z m -0.415386,0 c -4e-6,-0.3644 -0.07158,-0.6765 -0.214775,-0.9359 -0.162064,-0.2922 -0.378411,-0.4383 -0.64904,-0.4383 -0.272205,0 -0.489338,0.1461 -0.651401,0.4383 -0.144757,0.2594 -0.217133,0.5715 -0.217133,0.9359 0,0.3645 0.07238,0.6763 0.217133,0.936 0.162063,0.292 0.379196,0.4383 0.651401,0.4383 0.270629,0 0.486976,-0.1463 0.649041,-0.4383 0.143181,-0.2597 0.21477,-0.5715 0.214774,-0.936 z" style="font-style:normal;font-variant:normal;font-weight:400;font-stretch:normal;font-size:10px;line-height:125%;font-family:Gautami;-inkscape-font-specification:Gautami;text-align:start;letter-spacing:0;word-spacing:0;writing-mode:lr-tb;text-anchor:start;display:inline;fill:#10305a;fill-opacity:1;stroke:#17325d;stroke-width:.43324903;stroke-miterlimit:4;stroke-dasharray:none;stroke-opacity:1"/></g></svg>