<svg xmlns="http://www.w3.org/2000/svg" xmlns:svg="http://www.w3.org/2000/svg" xmlns:xlink="http://www.w3.org/1999/xlink" id="svg4223" width="16" height="16" version="1.1"><defs id="defs4225"><linearGradient id="linearGradient3818"><stop id="stop3820" offset="0" style="stop-color:#5c7aaa;stop-opacity:1"/><stop id="stop3822" offset="1" style="stop-color:#286296;stop-opacity:1"/></linearGradient><linearGradient id="linearGradient3810"><stop id="stop3812" offset="0" style="stop-color:#c1cde0;stop-opacity:1"/><stop id="stop3814" offset="1" style="stop-color:#a5b5d0;stop-opacity:1"/></linearGradient><linearGradient id="linearGradient3802"><stop id="stop3804" offset="0" style="stop-color:#fff2b0;stop-opacity:1"/><stop id="stop3806" offset="1" style="stop-color:#fecf6c;stop-opacity:1"/></linearGradient><linearGradient id="linearGradient3794"><stop id="stop3796" offset="0" style="stop-color:#be9c28;stop-opacity:1"/><stop id="stop3798" offset="1" style="stop-color:#a77e1c;stop-opacity:1"/></linearGradient><linearGradient id="linearGradient3800" x1="-11" x2="-6" y1="1048.862" y2="1048.862" gradientTransform="translate(1057.3622,-1060.3622)" gradientUnits="userSpaceOnUse" xlink:href="#linearGradient3794"/><linearGradient id="linearGradient3808" x1="-10" x2="-7" y1="1048.862" y2="1048.862" gradientTransform="translate(1057.3622,-1060.3622)" gradientUnits="userSpaceOnUse" xlink:href="#linearGradient3802"/><linearGradient id="linearGradient3816" x1="-17" x2="-14" y1="1042.862" y2="1042.862" gradientTransform="translate(1058.3622,-1047.3622)" gradientUnits="userSpaceOnUse" xlink:href="#linearGradient3810"/><linearGradient id="linearGradient3824" x1="-18" x2="-13" y1="1042.862" y2="1042.862" gradientTransform="translate(1058.3622,-1047.3622)" gradientUnits="userSpaceOnUse" xlink:href="#linearGradient3818"/></defs><metadata id="metadata4228"/><g id="layer1" transform="translate(0,-1036.3622)"><rect id="rect3014" width="1" height="5" x="4" y="1044.362" style="fill:#286296;fill-opacity:1;stroke:none"/><rect id="rect3016" width="6" height="1" x="4" y="1048.362" style="fill:#286296;fill-opacity:1;stroke:none"/><rect id="rect3790" width="5" height="5" x="1046.362" y="-14" transform="matrix(0,1,-1,0,0,0)" style="fill:url(#linearGradient3800);fill-opacity:1;stroke:none"/><rect id="rect3792" width="5" height="5" x="1040.362" y="-7" transform="matrix(0,1,-1,0,0,0)" style="fill:url(#linearGradient3824);fill-opacity:1;stroke:none"/><path style="fill:#366c9a;fill-opacity:1;display:inline" id="path10927-5-7-4-4" d="m 10.672835,1044.3774 c -0.171562,-0.017 -0.373083,-0.055 -0.534902,-0.1025 -0.251107,-0.074 -0.226087,0.015 -0.226087,-0.7967 0,-0.4245 0.0071,-0.7045 0.01809,-0.7088 0.0099,0 0.02939,0 0.04325,0.012 0.04494,0.034 0.27312,0.1505 0.348667,0.1784 0.172897,0.064 0.432322,0.097 0.615066,0.077 0.405106,-0.043 0.679627,-0.2729 0.817703,-0.685 0.111346,-0.3324 0.105744,-0.2035 0.117201,-2.6968 l 0.01055,-2.2935 0.768974,0 0.768976,0 0.0057,2.1382 c 0.0059,2.2102 -5.1e-4,2.4688 -0.07203,2.8715 -0.144883,0.8166 -0.554897,1.4311 -1.162763,1.7426 -0.408624,0.2094 -1.00188,0.3124 -1.518377,0.2637 z"/><rect id="rect3786" width="3" height="3" x="1041.362" y="-6" transform="matrix(0,1,-1,0,0,0)" style="fill:url(#linearGradient3816);fill-opacity:1;stroke:none"/><rect id="rect3788" width="3" height="3" x="1047.362" y="-13" transform="matrix(0,1,-1,0,0,0)" style="fill:url(#linearGradient3808);fill-opacity:1;stroke:none"/></g></svg>