<svg xmlns="http://www.w3.org/2000/svg" xmlns:svg="http://www.w3.org/2000/svg" xmlns:xlink="http://www.w3.org/1999/xlink" id="svg2" width="16" height="16" version="1.1"><defs id="defs4"><linearGradient id="linearGradient4908-2" x1="10.545" x2="10.545" y1="1038.578" y2="1052.323" gradientTransform="translate(-1.977903,-1.044194)" gradientUnits="userSpaceOnUse" xlink:href="#linearGradient4902-3"/><linearGradient id="linearGradient4902-3"><stop style="stop-color:#b28a30;stop-opacity:1" id="stop4904-2" offset="0"/><stop style="stop-color:#7c703e;stop-opacity:1" id="stop4906-2" offset="1"/></linearGradient><linearGradient id="linearGradient4900-1" x1="7.999" x2="9.987" y1="1042.231" y2="1040.33" gradientTransform="translate(2.022097,-1.044194)" gradientUnits="userSpaceOnUse" xlink:href="#linearGradient4894-6"/><linearGradient id="linearGradient4894-6"><stop style="stop-color:#e0c88f;stop-opacity:1" id="stop4896-8" offset="0"/><stop style="stop-color:#d5b269;stop-opacity:1" id="stop4898-5" offset="1"/></linearGradient><linearGradient id="linearGradient4994-6"><stop style="stop-color:#f9fafc;stop-opacity:1" id="stop4996-1" offset="0"/><stop style="stop-color:#dce7f7;stop-opacity:1" id="stop4998-89" offset="1"/></linearGradient><linearGradient id="linearGradient4101" x1="9.895" x2="9.895" y1="1039.153" y2="1051.838" gradientTransform="translate(-1.977903,-1.044194)" gradientUnits="userSpaceOnUse" xlink:href="#linearGradient4994-6"/></defs><metadata id="metadata7"/><g id="layer1" transform="translate(0,-1036.3622)" style="display:inline"><path style="fill:url(#linearGradient4101);fill-opacity:1;stroke:none;display:inline" id="rect4001-3" d="m 3.5193795,1037.8597 7.0096695,0 3.062057,3.0066 0,9.9546 -10.0717265,0 z"/><path style="fill:url(#linearGradient4900-1);fill-opacity:1;stroke:none;display:inline" id="path4884" d="m 9.998718,1037.397 0,3.9112 3.977478,0 z"/><path style="fill:none;stroke:url(#linearGradient4908-2);stroke-width:1;stroke-linecap:butt;stroke-linejoin:miter;stroke-miterlimit:4;stroke-opacity:1;stroke-dashoffset:0;display:inline" id="rect4001" d="m 3.5193795,1037.8597 7.0096695,0 3.062057,3.0066 0,9.9546 -10.0717265,0 z"/><path id="path10927-5-7-4-4" d="m 6.6084618,1048.3431 c -0.2116277,-0.019 -0.4602115,-0.062 -0.6598209,-0.1162 -0.3097493,-0.083 -0.2788869,0.017 -0.2788869,-0.9031 0,-0.4813 0.0088,-0.7987 0.022313,-0.8035 0.012257,0 0.036259,0 0.053355,0.013 0.055439,0.038 0.3369032,0.1706 0.4300938,0.2023 0.2132743,0.072 0.5332849,0.1095 0.7587063,0.088 0.4997134,-0.048 0.838345,-0.3094 1.0086665,-0.7765 0.1373503,-0.3768 0.1304394,-0.2307 0.1445726,-3.0571 l 0.013011,-2.6 0.9485572,0 0.9485603,0 0.00704,2.4239 c 0.0073,2.5055 -6.28e-4,2.7987 -0.08886,3.2552 -0.1787185,0.9256 -0.684485,1.6223 -1.4343096,1.9754 -0.5040536,0.2374 -1.2358574,0.3542 -1.8729745,0.299 z" style="display:inline;fill:#366c9a;fill-opacity:1"/></g></svg>