<svg xmlns="http://www.w3.org/2000/svg" xmlns:svg="http://www.w3.org/2000/svg" xmlns:xlink="http://www.w3.org/1999/xlink" id="svg2" width="16" height="16" version="1.1"><defs id="defs4"><linearGradient id="linearGradient4908-2" x1="10.545" x2="10.545" y1="1038.578" y2="1052.323" gradientTransform="translate(-1.977903,-1.044194)" gradientUnits="userSpaceOnUse" xlink:href="#linearGradient4902-3"/><linearGradient id="linearGradient4902-3"><stop id="stop4904-2" offset="0" style="stop-color:#b28a30;stop-opacity:1"/><stop id="stop4906-2" offset="1" style="stop-color:#7c703e;stop-opacity:1"/></linearGradient><linearGradient id="linearGradient4900-1" x1="7.999" x2="9.987" y1="1042.231" y2="1040.33" gradientTransform="translate(2.022097,-1.044194)" gradientUnits="userSpaceOnUse" xlink:href="#linearGradient4894-6"/><linearGradient id="linearGradient4894-6"><stop id="stop4896-8" offset="0" style="stop-color:#e0c88f;stop-opacity:1"/><stop id="stop4898-5" offset="1" style="stop-color:#d5b269;stop-opacity:1"/></linearGradient><linearGradient id="linearGradient4994-6"><stop id="stop4996-1" offset="0" style="stop-color:#f9fafc;stop-opacity:1"/><stop id="stop4998-89" offset="1" style="stop-color:#dce7f7;stop-opacity:1"/></linearGradient><linearGradient id="linearGradient4101" x1="9.895" x2="9.895" y1="1039.153" y2="1051.838" gradientTransform="translate(-1.977903,-1.044194)" gradientUnits="userSpaceOnUse" xlink:href="#linearGradient4994-6"/></defs><metadata id="metadata7"/><g style="display:inline" id="layer1" transform="translate(0,-1036.3622)"><path id="rect4001-3" d="m 3.5193795,1037.8597 7.0096695,0 3.062057,3.0066 0,9.9546 -10.0717265,0 z" style="fill:url(#linearGradient4101);fill-opacity:1;stroke:none;display:inline"/><path style="display:inline;fill:#edf2f9;fill-opacity:1;stroke:#286296;stroke-width:1;stroke-linejoin:round;stroke-miterlimit:4;stroke-dasharray:none;stroke-opacity:1" id="path10927-5-7-4-4-1" d="m 6.7476524,1045.5518 c 0.2547789,0.7799 0.2420289,1.3838 1.2045679,1.3594 0.5922332,0 0.5865402,-0.4818 0.5845429,-1.0166 0,-2.2381 -0.026178,-1.9038 -0.026178,-5.0535 l 1.0125089,0 0.9462579,0 0.007,1.8815 c 0.0101,2.7197 0.02733,3.0048 0.02733,3.6827 -0.03773,1.6138 -0.167449,1.9096 -0.9154504,2.2929 -0.502828,0.2577 -1.9138727,0.2027 -2.6158579,0.1553 -0.7019853,-0.047 -1.4789625,-1.5332 -1.4746421,-2.2591 z"/><path id="path4884" d="m 9.998718,1037.397 0,3.9112 3.977478,0 z" style="fill:url(#linearGradient4900-1);fill-opacity:1;stroke:none;display:inline"/><path id="rect4001" d="m 3.5193795,1037.8597 7.0096695,0 3.062057,3.0066 0,9.9546 -10.0717265,0 z" style="fill:none;stroke:url(#linearGradient4908-2);stroke-width:1;stroke-linecap:butt;stroke-linejoin:miter;stroke-miterlimit:4;stroke-opacity:1;stroke-dashoffset:0;display:inline"/></g></svg>