<svg xmlns="http://www.w3.org/2000/svg" xmlns:svg="http://www.w3.org/2000/svg" xmlns:xlink="http://www.w3.org/1999/xlink" id="svg2" width="16" height="16" version="1.1"><defs id="defs4"><linearGradient id="linearGradient3918"><stop id="stop3920" offset="0" style="stop-color:#b4903d;stop-opacity:1"/><stop id="stop3922" offset="1" style="stop-color:#a28137;stop-opacity:1"/></linearGradient><linearGradient id="linearGradient5448"><stop id="stop5450" offset="0" style="stop-color:#ad8e5f;stop-opacity:1"/><stop id="stop5452" offset="1" style="stop-color:#8f6e4d;stop-opacity:1"/></linearGradient><linearGradient id="linearGradient5440"><stop id="stop5442" offset="0" style="stop-color:#ad8e5f;stop-opacity:1"/><stop id="stop5444" offset="1" style="stop-color:#8f6e4d;stop-opacity:1"/></linearGradient><linearGradient id="linearGradient5428"><stop id="stop5430" offset="0" style="stop-color:#f0a53b;stop-opacity:1"/><stop style="stop-color:#f2d58f;stop-opacity:1" id="stop5438" offset=".269"/><stop style="stop-color:#efb965;stop-opacity:1" id="stop5436" offset=".604"/><stop id="stop5432" offset="1" style="stop-color:#df9833;stop-opacity:1"/></linearGradient><linearGradient id="linearGradient5378"><stop style="stop-color:#f4d684;stop-opacity:1" id="stop5380" offset="0"/><stop id="stop5382" offset=".25" style="stop-color:#fcf4c6;stop-opacity:1"/><stop id="stop5384" offset=".5" style="stop-color:#fbeebc;stop-opacity:1"/><stop style="stop-color:#eeb960;stop-opacity:1" id="stop5386" offset="1"/></linearGradient><linearGradient id="linearGradient5351"><stop id="stop5353" offset="0" style="stop-color:#e4a239;stop-opacity:1"/><stop id="stop5355" offset="1" style="stop-color:#fada7d;stop-opacity:1"/></linearGradient><linearGradient id="linearGradient5331"><stop id="stop5333" offset="0" style="stop-color:#fef48d;stop-opacity:1"/><stop style="stop-color:#fffffe;stop-opacity:1" id="stop5341" offset=".325"/><stop style="stop-color:#fffffe;stop-opacity:1" id="stop5339" offset=".664"/><stop id="stop5335" offset="1" style="stop-color:#fef48d;stop-opacity:1"/></linearGradient><linearGradient id="linearGradient5206"><stop id="stop5208" offset="0" style="stop-color:#bbb8bb;stop-opacity:1"/><stop style="stop-color:#ccc8cb;stop-opacity:1" id="stop5216" offset=".25"/><stop style="stop-color:#bdb6bc;stop-opacity:1" id="stop5214" offset=".5"/><stop id="stop5210" offset="1" style="stop-color:#9b8c98;stop-opacity:1"/></linearGradient><linearGradient id="linearGradient5109"><stop id="stop5111" offset="0" style="stop-color:#906f4e;stop-opacity:1"/><stop id="stop5113" offset="1" style="stop-color:#dfbd7f;stop-opacity:1"/></linearGradient><linearGradient id="linearGradient5368" x1="29.715" x2="29.715" y1="1041.326" y2="1039.139" gradientTransform="translate(1.3742784e-7,-0.01182114)" gradientUnits="userSpaceOnUse" xlink:href="#linearGradient5109"/><linearGradient id="linearGradient5370" x1="27.01" x2="32.177" y1="1046.132" y2="1046.132" gradientUnits="userSpaceOnUse" xlink:href="#linearGradient5378"/><linearGradient id="linearGradient5372" x1="26.881" x2="32.472" y1="1056.969" y2="1056.969" gradientUnits="userSpaceOnUse" xlink:href="#linearGradient5331"/><linearGradient id="linearGradient5374" x1="25.982" x2="33.276" y1="1056.969" y2="1056.969" gradientUnits="userSpaceOnUse" xlink:href="#linearGradient5351"/><linearGradient id="linearGradient5376" x1="26.452" x2="32.842" y1="1052.004" y2="1052.004" gradientTransform="translate(1.3742784e-7,-4.4137428e-5)" gradientUnits="userSpaceOnUse" xlink:href="#linearGradient5206"/><linearGradient id="linearGradient5434" x1="26.107" x2="33.163" y1="1045.95" y2="1045.95" gradientUnits="userSpaceOnUse" xlink:href="#linearGradient5428"/><linearGradient id="linearGradient5446" x1="25.367" x2="33.89" y1="1051.407" y2="1051.407" gradientUnits="userSpaceOnUse" xlink:href="#linearGradient5440"/><linearGradient id="linearGradient5454" x1="25.368" x2="33.89" y1="1054.82" y2="1054.82" gradientUnits="userSpaceOnUse" xlink:href="#linearGradient5448"/><linearGradient id="linearGradient3924" x1="-29.024" x2="-21.886" y1="1005.383" y2="1013.515" gradientUnits="userSpaceOnUse" xlink:href="#linearGradient3918"/></defs><metadata id="metadata7"/><g style="display:inline" id="layer1" transform="translate(0,-1036.3622)"><g id="g8472" transform="matrix(0.9346781,0,0,0.9346781,-14.571811,69.044514)" style="display:inline"><g id="g8421" transform="translate(15.600543,0)"><g id="g5359" transform="matrix(0.70710678,0.70710678,-0.70710678,0.70710678,730.34515,280.80707)"><path style="fill:none;stroke:url(#linearGradient5368);stroke-width:1.06988704;stroke-miterlimit:4;stroke-opacity:1;stroke-dasharray:none;display:inline" id="rect4221-4" d="m 28.565245,1040.0695 -1.069887,2.1398 4.279549,0 -1.069887,-2.1398 c -0.472828,-0.9477 -1.844257,-0.7625 -2.139775,0 z"/><path style="fill:url(#linearGradient5370);fill-opacity:1;stroke:url(#linearGradient5434);stroke-opacity:1" id="rect4221" d="m 26.607269,1042.2428 c 1.259438,-1.6377 4.858466,-1.5046 6.055728,0 l 0,8.5925 -6.055728,0 z"/><path style="font-size:medium;font-style:normal;font-variant:normal;font-weight:400;font-stretch:normal;text-indent:0;text-align:start;text-decoration:none;line-height:normal;letter-spacing:normal;word-spacing:normal;text-transform:none;direction:ltr;block-progression:tb;writing-mode:lr-tb;text-anchor:start;baseline-shift:baseline;color:#000;fill:#496da1;fill-opacity:1;stroke:none;stroke-width:1px;marker:none;visibility:visible;display:inline;overflow:visible;enable-background:accumulate;font-family:Sans;-inkscape-font-specification:Sans" id="path5028" d="m 29.411544,1042.9075 c -0.368467,0.01 -0.72715,0.043 -1.069887,0.1003 l 0,2.4073 c 0.342737,-0.057 0.70142,-0.09 1.069887,-0.1003 z"/><path style="fill:#ffffc9;fill-opacity:1;stroke:url(#linearGradient5454);stroke-width:1;stroke-opacity:1;display:inline" id="rect4221-7-1" d="m 29.645582,1053.51 c -1.546954,0 -3.096933,0.3554 -3.778039,1.0365 l 0,0.5683 c 1.362214,1.3622 6.178977,1.3438 7.522644,0 l 0,-0.5683 c -0.671834,-0.6719 -2.197651,-1.0342 -3.744605,-1.0365 z"/><path style="fill:url(#linearGradient5372);fill-opacity:1;stroke:url(#linearGradient5374);stroke-width:.87995493;stroke-opacity:1;display:inline" id="rect4221-7-1-2" d="m 26.422196,1052.4196 0,12.1257 6.413338,0 0,-12.1257 z"/><path style="fill:url(#linearGradient5376);fill-opacity:1;stroke:url(#linearGradient5446);stroke-width:1.0003444;stroke-linejoin:round;stroke-miterlimit:3;stroke-opacity:1;stroke-dasharray:none;display:inline" id="rect4221-7" d="m 25.867543,1050.1666 0,4.3799 c 1.778049,-1.9187 5.89609,-1.8666 7.522644,0 l 0,-4.3799 c -1.258456,-2.537 -6.051006,-2.5281 -7.522644,0 z"/></g><path style="font-size:medium;font-style:normal;font-variant:normal;font-weight:400;font-stretch:normal;text-indent:0;text-align:start;text-decoration:none;line-height:normal;letter-spacing:normal;word-spacing:normal;text-transform:none;direction:ltr;block-progression:tb;writing-mode:lr-tb;text-anchor:start;baseline-shift:baseline;color:#000;fill:#fff;fill-opacity:1;fill-rule:nonzero;stroke:none;stroke-width:1;marker:none;visibility:visible;display:inline;overflow:visible;enable-background:accumulate;font-family:Sans;opacity:.75" id="rect3997-9-1-7" d="m 7.8599979e-4,1034.9573 0.0332657502,11.7512 9.54286335,0 -0.033266,-11.7512 z m 1.06463030021,1.0699 7.4136029,0 0.033266,9.6114 -7.4136028,0 z"/><g id="layer1-3" transform="matrix(1.0698871,0,0,1.0698871,31.053515,-39.399823)" style="display:inline"><rect id="rect3916" width="6.806" height="8.927" x=".354" y=".444" ry="0" transform="translate(-29.034714,1004.1438)" style="opacity:1;fill:#fff;fill-opacity:1;stroke:none;stroke-width:.75;stroke-linejoin:round;stroke-miterlimit:4;stroke-opacity:1;stroke-dasharray:none"/><path style="font-size:medium;font-style:normal;font-variant:normal;font-weight:400;font-stretch:normal;text-indent:0;text-align:start;text-decoration:none;line-height:normal;letter-spacing:normal;word-spacing:normal;text-transform:none;direction:ltr;block-progression:tb;writing-mode:lr-tb;text-anchor:start;baseline-shift:baseline;color:#000;fill:url(#linearGradient3924);fill-opacity:1;fill-rule:nonzero;stroke:none;stroke-width:1;marker:none;visibility:visible;display:inline;overflow:visible;enable-background:accumulate;font-family:Sans;-inkscape-font-specification:Sans" id="rect3997-9-1" d="m -28.935919,1004.1559 0.03125,10.0555 7.72611,0 -0.03125,-10.0555 z m 1,1 5.72611,0 0.03125,8.0555 -5.72611,0 z"/></g><g id="layer1-8" transform="matrix(1.0937493,0,0,0.77138998,-2.2721165,237.64434)"><path id="path10927-5-7-4-4" d="m 4.7609494,1044.3396 c -0.1933415,-0.019 -0.420446,-0.062 -0.6028077,-0.1155 -0.2829848,-0.083 -0.2547891,0.017 -0.2547891,-0.8978 0,-0.4784 0.00804,-0.794 0.020385,-0.7988 0.011198,0 0.033126,0 0.048745,0.013 0.050649,0.038 0.3077924,0.1696 0.3929307,0.2011 0.1948459,0.072 0.4872053,0.1088 0.6931487,0.087 0.4565347,-0.048 0.7659062,-0.3076 0.9215107,-0.772 0.1254823,-0.3746 0.1191685,-0.2293 0.1320805,-3.0391 l 0.011887,-2.5847 0.8665952,0 0.8665981,0 0.00643,2.4096 c 0.00666,2.4908 -5.741e-4,2.7823 -0.081182,3.2361 -0.163276,0.9202 -0.6253407,1.6128 -1.3103752,1.9638 -0.4604999,0.236 -1.1290707,0.3521 -1.7111364,0.2972 z" style="fill:#366c9a;fill-opacity:1;display:inline"/></g></g></g></g></svg>