<svg xmlns="http://www.w3.org/2000/svg" xmlns:svg="http://www.w3.org/2000/svg" xmlns:xlink="http://www.w3.org/1999/xlink" id="svg2" width="16" height="16" version="1.1"><defs id="defs4"><linearGradient id="linearGradient4945-1" x1="1.433" x2="3.073" y1="6.461" y2="8.105" gradientUnits="userSpaceOnUse" xlink:href="#linearGradient4939-7"/><linearGradient id="linearGradient4939-7"><stop style="stop-color:#d5f3ff;stop-opacity:1" id="stop4941-4" offset="0"/><stop style="stop-color:#fcffff;stop-opacity:1" id="stop4943-0" offset="1"/></linearGradient><linearGradient id="linearGradient4939-8-1"><stop style="stop-color:#d5f3ff;stop-opacity:1" id="stop4941-8-7" offset="0"/><stop style="stop-color:#fcffff;stop-opacity:1" id="stop4943-2-4" offset="1"/></linearGradient><linearGradient id="linearGradient4178" x1="1.433" x2="3.073" y1="6.461" y2="8.105" gradientUnits="userSpaceOnUse" xlink:href="#linearGradient4939-8-1"/><linearGradient id="linearGradient5109-0-1" x1="11.718" x2="11.718" y1="1047.274" y2="1043.119" gradientTransform="translate(19.911612,0)" gradientUnits="userSpaceOnUse" xlink:href="#linearGradient5103-3-7"/><linearGradient id="linearGradient5103-3-7"><stop style="stop-color:#c1ebca;stop-opacity:1" id="stop5105-5-4" offset="0"/><stop id="stop7550-07-0" offset=".267" style="stop-color:#b3dac7;stop-opacity:1"/><stop id="stop7548-6-9" offset=".517" style="stop-color:#9ec2c3;stop-opacity:1"/><stop style="stop-color:#7a99bb;stop-opacity:1" id="stop5107-7-48" offset="1"/></linearGradient><linearGradient id="linearGradient6354"><stop id="stop6356" offset="0" style="stop-color:#6994ad;stop-opacity:1"/><stop id="stop6358" offset="1" style="stop-color:#095a98;stop-opacity:1"/></linearGradient><linearGradient id="linearGradient6310" x1="11.418" x2="11.418" y1="1067.173" y2="1063.019" gradientTransform="translate(19.911612,-20)" gradientUnits="userSpaceOnUse" xlink:href="#linearGradient6354"/></defs><metadata id="metadata7"/><g id="layer1" transform="translate(0,-1036.3622)" style="display:inline"><g style="display:inline" id="g8159" transform="translate(-8.2201163,-12.904699)"><g style="display:inline" id="g4106" transform="matrix(0.77147567,0,0,0.77147567,2.7662997,238.52831)"><path id="path4981-0" d="m 12.535948,1057.3138 c 0,0 0.409535,-0.5625 1.699794,-0.5625 1.290259,0 1.658145,0.5 1.658145,0.5" style="fill:none;stroke:#324e6e;stroke-width:1px;stroke-linecap:butt;stroke-linejoin:miter;stroke-opacity:1"/><path id="path4985-9" d="m 8.780508,1057.2857 0.5226274,-0.5467 3.3916416,-3.5479 c 0.828641,-0.7734 2.088175,-0.8729 2.088175,1.7014" style="fill:none;stroke:#324e6e;stroke-width:1px;stroke-linecap:round;stroke-linejoin:round;stroke-opacity:1"/><path id="path4985-5-4" d="m 17.623497,1058.2071 4.076913,-4.2647 c 0.828641,-0.7734 2.088175,-0.8729 2.088175,1.7015" style="fill:none;stroke:#324e6e;stroke-width:1px;stroke-linecap:round;stroke-linejoin:round;stroke-opacity:1;display:inline"/><path id="path4150-8" d="m 4.7343755,7.5624995 c 0,1.2253819 -0.9933683,2.2187503 -2.2187503,2.2187503 -1.2253819,0 -2.2187502,-0.9933684 -2.2187502,-2.2187503 0,-1.2253819 0.9933683,-2.2187502 2.2187502,-2.2187502 1.225382,0 2.2187503,0.9933683 2.2187503,2.2187502 z" transform="matrix(0.89367816,0,0,0.89367816,8.471957,1052.0008)" style="fill:url(#linearGradient4945-1);fill-opacity:1;stroke:#324e6e;stroke-width:1.11897111;stroke-miterlimit:4;stroke-opacity:1;stroke-dasharray:none"/><path id="path4150-4-8" d="m 4.7343755,7.5624995 c 0,1.2253819 -0.9933683,2.2187503 -2.2187503,2.2187503 -1.2253819,0 -2.2187502,-0.9933684 -2.2187502,-2.2187503 0,-1.2253819 0.9933683,-2.2187502 2.2187502,-2.2187502 1.225382,0 2.2187503,0.9933683 2.2187503,2.2187502 z" transform="matrix(0.89367816,0,0,0.89367816,15.471957,1052.0008)" style="fill:url(#linearGradient4178);fill-opacity:1;stroke:#324e6e;stroke-width:1.11897111;stroke-miterlimit:4;stroke-opacity:1;stroke-dasharray:none;display:inline"/></g><g id="layer1-7-1" transform="matrix(1,0,0,-1,-10.954911,2105.5878)" style="display:inline"><path style="fill:url(#linearGradient5109-0-1);fill-opacity:1;stroke:none;display:inline" id="path4108-1" d="m 26.071923,1043.9275 0,2.3878 5.089689,0 0,1.5313 3.781143,-2.432 -3.781143,-3.0027 0,1.5156 z"/><path style="fill:url(#linearGradient6310);fill-opacity:1;stroke:none;display:inline" id="path4108-1-6" d="m 30.161612,1041.8097 0,1.5156 -3.354854,0 -1,0 c -0.99185,0.9918 -0.986324,3.0037 0,3.99 l 1,0 3.354854,0 0,1.5313 c 0,0.6519 0.740915,0.6375 1.5,0 l 3.923255,-3.4983 -3.923255,-3.5386 c -0.760225,-0.7602 -1.5,-0.5203 -1.5,0 z m 1,1 2.985755,2.5386 -2.985755,2.4983 0,-1.5313 -4.792354,0 c -0.276214,-0.2099 -0.277444,-1.7182 0,-1.99 l 4.792354,0 z"/></g></g></g></svg>