<svg xmlns="http://www.w3.org/2000/svg" xmlns:svg="http://www.w3.org/2000/svg" xmlns:xlink="http://www.w3.org/1999/xlink" id="svg2" width="16" height="16" version="1.1"><defs id="defs4"><linearGradient id="linearGradient6354"><stop style="stop-color:#6994ad;stop-opacity:1" id="stop6356" offset="0"/><stop style="stop-color:#095a98;stop-opacity:1" id="stop6358" offset="1"/></linearGradient><linearGradient id="linearGradient5109-0-1" x1="11.718" x2="11.718" y1="1047.274" y2="1043.119" gradientTransform="translate(19.911612,0)" gradientUnits="userSpaceOnUse" xlink:href="#linearGradient5103-3-7"/><linearGradient id="linearGradient5103-3-7"><stop id="stop5105-5-4" offset="0" style="stop-color:#c1ebca;stop-opacity:1"/><stop style="stop-color:#b3dac7;stop-opacity:1" id="stop7550-07-0" offset=".267"/><stop style="stop-color:#9ec2c3;stop-opacity:1" id="stop7548-6-9" offset=".517"/><stop id="stop5107-7-48" offset="1" style="stop-color:#7a99bb;stop-opacity:1"/></linearGradient><linearGradient id="linearGradient6319" x1="11.418" x2="11.418" y1="1067.173" y2="1063.019" gradientTransform="translate(19.911612,-20)" gradientUnits="userSpaceOnUse" xlink:href="#linearGradient6354"/></defs><metadata id="metadata7"/><g style="display:inline" id="layer1" transform="translate(0,-1036.3622)"><g style="display:inline" id="layer1-7-7" transform="matrix(1,0,0,-1,-22.119163,2088.5678)"><path id="path4108-1-6-1" d="m 29.161612,1039.4348 0,1.7031 -3.354854,0.031 -1,0 c -0.99185,0.9918 -0.986324,5.0037 0,5.99 l 1,0 3.354854,0 0,1.5313 c 0,0.6519 1.772165,0.7 2.53125,0.062 l 5.423255,-4.6233 -4.923255,-4.4135 c -0.760225,-0.7602 -3.03125,-0.8016 -3.03125,-0.281 z m 1.03125,1.4062 5.485755,3.2886 -5.298255,3.7796 -0.21875,-1.7501 -3.636104,0 c -0.276214,-0.2099 -0.388381,-3.9867 0,-3.99 l 3.636104,-0.031 z" style="fill:#fff;fill-opacity:.93913042;stroke:none;display:inline"/></g><g style="display:inline" id="layer1-7" transform="matrix(1,0,0,-1,-22.119163,2089.724)"><path id="path4108-1" d="m 26.071923,1043.9275 0,2.3878 5.089689,0 0,1.5313 3.781143,-2.432 -3.781143,-3.0027 0,1.5156 z" style="fill:url(#linearGradient5109-0-1);fill-opacity:1;stroke:none;display:inline"/><path id="path4108-1-6" d="m 30.161612,1041.8097 0,1.5156 -3.354854,0 -1,0 c -0.99185,0.9918 -0.986324,3.0037 0,3.99 l 1,0 3.354854,0 0,1.5313 c 0,0.6519 0.740915,0.6375 1.5,0 l 3.923255,-3.4983 -3.923255,-3.5386 c -0.760225,-0.7602 -1.5,-0.5203 -1.5,0 z m 1,1 2.985755,2.5386 -2.985755,2.4983 0,-1.5313 -4.792354,0 c -0.276214,-0.2099 -0.277444,-1.7182 0,-1.99 l 4.792354,0 z" style="fill:url(#linearGradient6319);fill-opacity:1;stroke:none;display:inline"/></g></g></svg>