<svg xmlns="http://www.w3.org/2000/svg" xmlns:svg="http://www.w3.org/2000/svg" xmlns:xlink="http://www.w3.org/1999/xlink" id="svg2" width="16" height="16" version="1.1"><defs id="defs4"><linearGradient id="linearGradient5109-0-1" x1="11.718" x2="11.718" y1="1047.274" y2="1043.119" gradientTransform="translate(19.745682,-0.05530904)" gradientUnits="userSpaceOnUse" xlink:href="#linearGradient5103-3-7"/><linearGradient id="linearGradient5103-3-7"><stop style="stop-color:#c1ebca;stop-opacity:1" id="stop5105-5-4" offset="0"/><stop id="stop7550-07-0" offset=".267" style="stop-color:#b3dac7;stop-opacity:1"/><stop id="stop7548-6-9" offset=".517" style="stop-color:#9ec2c3;stop-opacity:1"/><stop style="stop-color:#7a99bb;stop-opacity:1" id="stop5107-7-48" offset="1"/></linearGradient><linearGradient id="linearGradient6354"><stop id="stop6356" offset="0" style="stop-color:#6994ad;stop-opacity:1"/><stop id="stop6358" offset="1" style="stop-color:#095a98;stop-opacity:1"/></linearGradient><linearGradient id="linearGradient4235" x1="11.418" x2="11.418" y1="1067.173" y2="1063.019" gradientTransform="translate(19.773337,-20.05531)" gradientUnits="userSpaceOnUse" xlink:href="#linearGradient6354"/><linearGradient id="linearGradient7357-5" x1="12.518" x2="12.518" y1="1037.615" y2="1044.481" gradientUnits="userSpaceOnUse" xlink:href="#linearGradient11290-0"/><linearGradient id="linearGradient11290-0"><stop style="stop-color:#567ead;stop-opacity:1" id="stop11292-3" offset="0"/><stop style="stop-color:#35679d;stop-opacity:1" id="stop11294-4" offset="1"/></linearGradient><linearGradient id="linearGradient3939-2" x1="531.093" x2="531.093" y1="366.789" y2="371.179" gradientTransform="translate(-61.366562,1.4453859)" gradientUnits="userSpaceOnUse" xlink:href="#linearGradient3967-5"/><linearGradient id="linearGradient3967-5"><stop id="stop3969-3" offset="0" style="stop-color:#c48a4e;stop-opacity:1"/><stop id="stop3971-6" offset="1" style="stop-color:#ad6c24;stop-opacity:1"/></linearGradient><linearGradient id="linearGradient4933-1" x1="538.006" x2="538.006" y1="396.223" y2="374.212" gradientTransform="translate(-60.558598,0)" gradientUnits="userSpaceOnUse" xlink:href="#linearGradient3973-6"/><linearGradient id="linearGradient3973-6"><stop id="stop3975-0" offset="0" style="stop-color:#f8d078;stop-opacity:1"/><stop id="stop3977-3" offset="1" style="stop-color:#f8f0c8;stop-opacity:1"/></linearGradient><linearGradient id="linearGradient4935-8" x1="548.459" x2="548.459" y1="398.988" y2="373.771" gradientTransform="translate(-60.558598,0)" gradientUnits="userSpaceOnUse" xlink:href="#linearGradient3949-4"/><linearGradient id="linearGradient3949-4"><stop style="stop-color:#9e6627;stop-opacity:1" id="stop3951-7" offset="0"/><stop style="stop-color:#c38536;stop-opacity:1" id="stop3953-6" offset="1"/></linearGradient><linearGradient id="linearGradient3955-1"><stop id="stop3957-4" offset="0" style="stop-color:#c38536;stop-opacity:1"/><stop style="stop-color:#f2dc91;stop-opacity:1" id="stop3959-2" offset=".154"/><stop style="stop-color:#fbdc8b;stop-opacity:1" id="stop3961-1" offset=".5"/><stop id="stop3963-4" offset=".75" style="stop-color:#e6bd7a;stop-opacity:1"/><stop id="stop3965-5" offset="1" style="stop-color:#ba772f;stop-opacity:1"/></linearGradient><linearGradient id="linearGradient3072" x1="523.008" x2="543.914" y1="373.229" y2="373.229" gradientTransform="translate(-60.558598,1.4188)" gradientUnits="userSpaceOnUse" xlink:href="#linearGradient3955-1"/><mask id="mask5159" maskUnits="userSpaceOnUse"><g style="font-size:11.05178356px;font-style:normal;font-variant:normal;font-weight:400;font-stretch:normal;text-align:start;line-height:125%;letter-spacing:0;word-spacing:0;writing-mode:lr-tb;text-anchor:start;fill:#fff;fill-opacity:1;stroke:#fff;stroke-width:.24860173;stroke-miterlimit:4;stroke-opacity:1;stroke-dasharray:none;display:inline;font-family:AustralianFlyingCorpsStencil;-inkscape-font-specification:AustralianFlyingCorpsStencil" id="g5161" transform="matrix(0.33025863,0,0,0.33025863,-142.45111,929.04872)"><rect style="fill:#fff;fill-opacity:1;stroke:#fff;stroke-width:3.02792978;stroke-linecap:round;stroke-linejoin:round;stroke-miterlimit:4;stroke-opacity:1;stroke-dasharray:none;stroke-dashoffset:0;display:inline" id="rect5163" width="15" height="16.625" x="463.743" y="368.495" rx="2.625" ry="2.625"/><path style="fill:#fff;fill-opacity:1;stroke:#fff;stroke-width:3.02792978;stroke-linecap:round;stroke-linejoin:round;stroke-miterlimit:4;stroke-opacity:1;stroke-dasharray:none;stroke-dashoffset:0" id="path5165" d="m 463.24874,374.64819 31.13385,0 c 1.45425,0 2.625,1.17075 2.625,2.625 l 0,19.0178 c 0,1.45425 -1.17076,2.63221 -2.625,2.625 l -31.13385,-0.15421 c -1.45423,-0.007 -2.625,-1.17075 -2.625,-2.625 l 0,-18.86359 c 0,-1.45425 1.17075,-2.625 2.625,-2.625 z"/><path style="fill:#fff;stroke:#fff;stroke-width:3.02792978;stroke-linecap:butt;stroke-linejoin:miter;stroke-miterlimit:4;stroke-opacity:1;stroke-dasharray:none" id="path5167" d="m 462.26171,374.64819 20.09375,0"/></g></mask><filter id="filter5173" width="1.326" height="1.402" x="-.163" y="-.201"><feGaussianBlur id="feGaussianBlur5175" stdDeviation=".757"/></filter></defs><metadata id="metadata7"/><g id="layer1" transform="translate(0,-1036.3622)" style="display:inline"><g style="display:inline" id="g8159" transform="translate(-8.2201163,-12.904699)"><g style="font-size:11.05178356px;font-style:normal;font-variant:normal;font-weight:400;font-stretch:normal;text-align:start;line-height:125%;letter-spacing:0;word-spacing:0;writing-mode:lr-tb;text-anchor:start;fill:#236298;fill-opacity:1;stroke:url(#linearGradient7357-5);stroke-width:.24860173;stroke-miterlimit:4;stroke-opacity:1;stroke-dasharray:none;display:inline;font-family:AustralianFlyingCorpsStencil;-inkscape-font-specification:AustralianFlyingCorpsStencil" id="g13813" transform="matrix(0.33025863,0,0,0.33025863,-142.45111,929.04872)"><rect style="fill:#fdf7eb;fill-opacity:1;stroke:url(#linearGradient3939-2);stroke-width:3.02792978;stroke-linecap:round;stroke-linejoin:round;stroke-miterlimit:4;stroke-opacity:1;stroke-dasharray:none;stroke-dashoffset:0;display:inline" id="rect13693-3" width="15" height="16.625" x="463.743" y="368.495" rx="2.625" ry="2.625"/><path style="fill:url(#linearGradient4933-1);fill-opacity:1;stroke:url(#linearGradient4935-8);stroke-width:3.02792978;stroke-linecap:round;stroke-linejoin:round;stroke-miterlimit:4;stroke-opacity:1;stroke-dasharray:none;stroke-dashoffset:0" id="rect13693" d="m 463.24874,374.64819 31.13385,0 c 1.45425,0 2.625,1.17075 2.625,2.625 l 0,19.0178 c 0,1.45425 -1.17076,2.63221 -2.625,2.625 l -31.13385,-0.15421 c -1.45423,-0.007 -2.625,-1.17075 -2.625,-2.625 l 0,-18.86359 c 0,-1.45425 1.17075,-2.625 2.625,-2.625 z"/><path style="fill:none;stroke:url(#linearGradient3072);stroke-width:3.02792978;stroke-linecap:butt;stroke-linejoin:miter;stroke-miterlimit:4;stroke-opacity:1;stroke-dasharray:none" id="path13797" d="m 462.26171,374.64819 20.09375,0"/></g><g id="g5153" mask="url(#mask5159)"><g id="g5148" style="filter:url(#filter5173)"><g id="layer1-7-1-9" transform="matrix(1.1300143,0,0,-1.1300143,-15.696637,2241.9533)" style="display:inline;fill:#fff;stroke:#fff"><path style="fill:#fff;fill-opacity:1;stroke:#fff;display:inline" id="path4108-1-8" d="m 26.569701,1043.6509 0,2.8579 4.425981,0 0,1.2824 3.781143,-2.432 -3.781143,-3.0027 0,1.2944 z"/><path style="fill:#fff;fill-opacity:1;stroke:#fff;display:inline" id="path4108-1-6-3" d="m 30.023337,1041.7543 0,1.2944 -2.691146,0 -1,0 c -0.99185,0.9918 -0.986324,3.4738 0,4.4601 l 1,0 2.691146,0 0,1.2824 c 0,0.6519 0.740915,0.6375 1.5,0 l 3.923255,-3.4983 -3.923255,-3.5386 c -0.760225,-0.7602 -1.5,-0.5203 -1.5,0 z m 1,1 2.985755,2.5386 -2.985755,2.4983 0,-1.2824 -4.128646,0 c -0.276214,-0.2099 -0.277444,-2.1883 0,-2.4601 l 4.128646,0 z"/></g></g></g><g id="layer1-7-1" transform="matrix(1.1300143,0,0,-1.1300143,-15.696637,2241.9533)" style="display:inline"><path style="fill:url(#linearGradient5109-0-1);fill-opacity:1;stroke:none;display:inline" id="path4108-1" d="m 26.569701,1043.6509 0,2.8579 4.425981,0 0,1.2824 3.781143,-2.432 -3.781143,-3.0027 0,1.2944 z"/><path style="fill:url(#linearGradient4235);fill-opacity:1;stroke:none;display:inline" id="path4108-1-6" d="m 30.023337,1041.7543 0,1.2944 -2.691146,0 -1,0 c -0.99185,0.9918 -0.986324,3.4738 0,4.4601 l 1,0 2.691146,0 0,1.2824 c 0,0.6519 0.740915,0.6375 1.5,0 l 3.923255,-3.4983 -3.923255,-3.5386 c -0.760225,-0.7602 -1.5,-0.5203 -1.5,0 z m 1,1 2.985755,2.5386 -2.985755,2.4983 0,-1.2824 -4.128646,0 c -0.276214,-0.2099 -0.277444,-2.1883 0,-2.4601 l 4.128646,0 z"/></g></g></g></svg>