<svg xmlns="http://www.w3.org/2000/svg" xmlns:svg="http://www.w3.org/2000/svg" xmlns:xlink="http://www.w3.org/1999/xlink" id="svg2" width="16" height="16" version="1.1"><defs id="defs4"><linearGradient id="linearGradient4200" x1="6.389" x2="6.389" y1="7.237" y2=".393" gradientUnits="userSpaceOnUse" xlink:href="#linearGradient5091"/><linearGradient id="linearGradient4198" x1="3.383" x2="3.383" y1="7.016" y2=".982" gradientUnits="userSpaceOnUse" xlink:href="#linearGradient5081"/><linearGradient id="linearGradient5081"><stop id="stop5083" offset="0" style="stop-color:#ffe296;stop-opacity:1"/><stop style="stop-color:#f8d880;stop-opacity:1" id="stop5089" offset=".5"/><stop id="stop5085" offset="1" style="stop-color:#fffcd3;stop-opacity:1"/></linearGradient><linearGradient id="linearGradient5091"><stop id="stop5093" offset="0" style="stop-color:#c6852e;stop-opacity:1"/><stop id="stop5095" offset="1" style="stop-color:#e1a555;stop-opacity:1"/></linearGradient><filter id="filter7038" width="1.481" height="1.479" x="-.24" y="-.24"><feGaussianBlur id="feGaussianBlur7040" stdDeviation=".662"/></filter><linearGradient id="linearGradient6268" x1="26.385" x2="28.899" y1="1047.351" y2="1051.042" gradientTransform="translate(-21.875,0)" gradientUnits="userSpaceOnUse" xlink:href="#linearGradient5925-1"/><linearGradient id="linearGradient6266" x1="27.74" x2="28.339" y1="1048.96" y2="1050.113" gradientTransform="translate(-21.875,0)" gradientUnits="userSpaceOnUse" xlink:href="#linearGradient5933-5"/><linearGradient id="linearGradient6264" x1="3.29" x2="3.29" y1="1038.393" y2="1046.9" gradientTransform="translate(-1.875,0)" gradientUnits="userSpaceOnUse" xlink:href="#linearGradient5894-4"/><radialGradient id="radialGradient6262" cx="28.688" cy="1046.294" r="4.5" fx="28.688" fy="1046.294" gradientTransform="matrix(1.4312189,0,0,1.9064579,-34.245592,-947.65067)" gradientUnits="userSpaceOnUse" xlink:href="#linearGradient5992-4"/><linearGradient id="linearGradient5925-1"><stop id="stop5927-1" offset="0" style="stop-color:#9eacbc;stop-opacity:1"/><stop id="stop5929-5" offset="1" style="stop-color:#667480;stop-opacity:1"/></linearGradient><linearGradient id="linearGradient5933-5"><stop id="stop5935-1" offset="0" style="stop-color:#fff;stop-opacity:1"/><stop id="stop5937-7" offset="1" style="stop-color:#abb6c2;stop-opacity:1"/></linearGradient><linearGradient id="linearGradient5992-4"><stop id="stop5994-8" offset="0" style="stop-color:#fff;stop-opacity:1"/><stop style="stop-color:#fdfbeb;stop-opacity:1" id="stop6002-8" offset=".383"/><stop style="stop-color:#f8eb99;stop-opacity:1" id="stop6000-2" offset=".595"/><stop id="stop5996-45" offset="1" style="stop-color:#ffe4b1;stop-opacity:1"/></linearGradient><linearGradient id="linearGradient5894-4"><stop id="stop5896-0" offset="0" style="stop-color:#e9a328;stop-opacity:1"/><stop id="stop5898-9" offset="1" style="stop-color:#f9c537;stop-opacity:1"/></linearGradient></defs><metadata id="metadata7"/><g id="layer1" transform="translate(0,-1036.3622)" style="display:inline"><path style="fill:#fff;fill-rule:evenodd;stroke:none;stroke-width:1px;stroke-linecap:butt;stroke-linejoin:miter;stroke-opacity:1;fill-opacity:1" id="path3395" d="m 0.8396893,1040.9159 c 0,-0.221 0.751301,-2.0329 1.3258252,-2.4307 0.5745243,-0.3977 2.1655145,-0.9722 2.5632621,-1.0164 0.3977476,-0.044 2.2097087,-0.3094 2.6958446,0.088 0.4861359,0.3977 1.767767,1.5909 2.032932,2.3422 0.265165,0.7513 0.4861359,1.5468 0.4861359,1.5468 0,0 1.0606599,-0.3535 1.5467959,0.088 0.486136,0.442 3.447146,5.3033 3.49134,6.0104 0.04419,0.7071 -0.08839,2.8727 -0.574524,3.1378 -0.486136,0.2652 -1.37002,0.7955 -1.767767,0.7955 -0.397748,0 -4.5520002,0.1768 -4.9497478,-0.044 -0.3977475,-0.2209 -1.1048543,-0.9722 -1.1048543,-0.9722 0,0 -2.298097,0.3977 -2.6958446,0 -0.3977476,-0.3978 -1.5026019,-1.2817 -1.5467961,-1.6352 -0.044194,-0.3536 -0.044194,-2.3865 -0.044194,-2.3865 0,0 0.044194,-0.7513 0,-1.1049 -0.044194,-0.3535 -1.1048543,-1.6352 -1.2374368,-2.3865 -0.13258255,-0.7513 -0.2209709,-2.0329 -0.2209709,-2.0329 z"/><g style="display:inline" id="layer1-0" transform="translate(-0.51245454,0.0390477)"><path id="path5108-6-7" d="m 5.5022998,1038.5281 c -1.8240601,0 -3.3055556,1.4814 -3.3055556,3.3055 0,2.1067 1.6593104,1.1418 1.6786025,3.3314 l 3.2539062,0 c 0,-2.089 1.6786025,-1.1771 1.6786025,-3.3314 0,-1.8241 -1.4814955,-3.3055 -3.3055556,-3.3055 z" style="display:inline;fill:none;stroke:#edaa2b;stroke-width:.8263889;stroke-linecap:round;stroke-linejoin:round;stroke-miterlimit:4;stroke-dasharray:none;stroke-dashoffset:0;stroke-opacity:1;filter:url(#filter7038)"/><g id="g6257" transform="matrix(0.77997385,0,0,0.73483496,0.928723,276.05573)"><path style="fill:url(#radialGradient6262);fill-opacity:1;stroke:url(#linearGradient6264);stroke-width:1.32088518;stroke-linecap:round;stroke-linejoin:round;stroke-miterlimit:4;stroke-dasharray:none;stroke-dashoffset:0;stroke-opacity:1" id="path5108-3" d="m 6.625,1037.8622 c -2.207266,0 -4,1.7927 -4,4 0,2.5493 2.007905,3.3816 2.03125,6.0313 l 3.9375,0 c 0,-2.5279 2.03125,-3.4244 2.03125,-6.0313 0,-2.2073 -1.792734,-4 -4,-4 z"/><rect style="display:inline;fill:#4a607a;fill-opacity:1;stroke:#4a607a;stroke-width:1;stroke-linecap:round;stroke-linejoin:round;stroke-miterlimit:4;stroke-dasharray:none;stroke-dashoffset:0;stroke-opacity:1" id="rect5896-7-0" width="2.031" height="3.438" x="5.594" y="1048.425"/><rect style="fill:url(#linearGradient6266);fill-opacity:1;stroke:url(#linearGradient6268);stroke-width:1.32088518;stroke-linecap:round;stroke-linejoin:round;stroke-miterlimit:4;stroke-dasharray:none;stroke-dashoffset:0;stroke-opacity:1" id="rect5896-73" width="3.938" height="3" x="4.656" y="1047.862"/></g></g><g style="display:inline" id="layer1-5" transform="matrix(0.70552057,0,0,0.70552057,4.8741663,309.9897)"><g id="g8472" transform="matrix(0.9346781,0,0,0.9346781,-14.571811,69.044514)" style="display:inline"><g id="g4193" transform="matrix(1.4166388,0,0,1.4166388,-3.2411359,-441.5072)"><path style="fill:url(#linearGradient4198);fill-opacity:1;stroke:url(#linearGradient4200);stroke-width:1px;stroke-linecap:butt;stroke-linejoin:miter;stroke-opacity:1" id="path4292" d="M 2.8125,0.90625 0.78125,5 C 0.17522066,6.0251238 0.58843406,7.4816983 1.71875,7.5 L 3,7.5 l 1,0 1.28125,0 C 6.4115665,7.4817738 6.8247794,6.0250615 6.21875,5 L 4.1875,0.90625 c -0.2942923,-0.55673837 -1.1188077,-0.46727236 -1.375,0 z" transform="matrix(1.0698871,0,0,1.0698871,15.590192,1043.4798)"/><path style="fill:#502800;fill-opacity:1;stroke:none" id="path4253" d="m 4.109375,5.484375 a 0.625,0.625 0 0 1 -0.625,0.625 0.625,0.625 0 0 1 -0.625,-0.625 0.625,0.625 0 0 1 0.625,-0.625 0.625,0.625 0 0 1 0.625,0.625 z" transform="matrix(1.125929,0,0,1.125929,15.411638,1043.3738)"/><path style="fill:#502800;fill-opacity:1;stroke:none;display:inline" id="path4253-7" d="m 19.350026,1045.5028 c -0.378471,0 -0.700512,0.3368 -0.700512,0.774 l 0.09137,1.4889 c 0,0.3887 0.272722,0.7037 0.609141,0.7037 0.336419,0 0.609139,-0.315 0.609139,-0.7037 l 0.06091,-1.4889 c 0,-0.4372 -0.291583,-0.774 -0.670056,-0.774 z"/></g></g></g></g></svg>