<svg xmlns="http://www.w3.org/2000/svg" xmlns:svg="http://www.w3.org/2000/svg" xmlns:xlink="http://www.w3.org/1999/xlink" id="svg2" width="16" height="16" version="1.1"><defs id="defs4"><linearGradient id="linearGradient4902-3"><stop id="stop4904-2" offset="0" style="stop-color:#b28a30;stop-opacity:1"/><stop id="stop4906-2" offset="1" style="stop-color:#7c703e;stop-opacity:1"/></linearGradient><linearGradient id="linearGradient4894-6"><stop id="stop4896-8" offset="0" style="stop-color:#e0c88f;stop-opacity:1"/><stop id="stop4898-5" offset="1" style="stop-color:#d5b269;stop-opacity:1"/></linearGradient><linearGradient id="linearGradient4994-6"><stop id="stop4996-1" offset="0" style="stop-color:#f9fafc;stop-opacity:1"/><stop id="stop4998-89" offset="1" style="stop-color:#dce7f7;stop-opacity:1"/></linearGradient><filter id="filter5140" width="1.236" height="1.244" x="-.118" y="-.122"><feGaussianBlur id="feGaussianBlur5142" stdDeviation=".334"/></filter><linearGradient id="linearGradient3008" x1="10.545" x2="10.545" y1="1038.578" y2="1052.323" gradientTransform="translate(-1.977903,-1.044194)" gradientUnits="userSpaceOnUse" xlink:href="#linearGradient4902-3"/><linearGradient id="linearGradient3011" x1="7.999" x2="9.987" y1="1042.231" y2="1040.33" gradientTransform="translate(2.022097,-1.044194)" gradientUnits="userSpaceOnUse" xlink:href="#linearGradient4894-6"/><linearGradient id="linearGradient3014" x1="9.895" x2="9.895" y1="1039.153" y2="1051.838" gradientTransform="translate(-1.977903,-1.044194)" gradientUnits="userSpaceOnUse" xlink:href="#linearGradient4994-6"/></defs><metadata id="metadata7"/><g style="display:inline" id="layer1" transform="translate(0,-1036.3622)"><path id="rect4001-3" d="m 3.519379,1037.8597 7.00967,0 3.062057,3.0066 0,9.9546 -10.071727,0 z" style="fill:url(#linearGradient3014);fill-opacity:1;stroke:none;display:inline"/><path id="path4884" d="m 9.998718,1037.397 0,3.9112 3.977478,0 z" style="fill:url(#linearGradient3011);fill-opacity:1;stroke:none;display:inline"/><path id="rect4001" d="m 3.519379,1037.8597 7.00967,0 3.062057,3.0066 0,9.9546 -10.071727,0 z" style="fill:none;stroke:url(#linearGradient3008);stroke-width:1;stroke-linecap:butt;stroke-linejoin:miter;stroke-miterlimit:4;stroke-opacity:1;stroke-dashoffset:0;display:inline"/><path id="path3836-2" d="m 3.993884,1046.0282 3.506116,0 0,2.3125 3.28125,-3.25 -3.28125,-3.3125 0,2.25 -3.506116,0" style="opacity:.3;fill:#000;fill-opacity:0;stroke:#000;stroke-width:1;stroke-linejoin:round;stroke-miterlimit:4;stroke-opacity:1;stroke-dasharray:none;display:inline;filter:url(#filter5140)"/><path id="path3836" d="m 3.993884,1045.8622 3.506116,0 0,2.3125 3.28125,-3.25 -3.28125,-3.3125 0,2.25 -3.506116,0" style="fill:#fff;fill-opacity:0;stroke:#8693ae;stroke-width:1;stroke-linejoin:round;stroke-miterlimit:4;stroke-opacity:1;stroke-dasharray:none;display:inline"/></g></svg>