<svg xmlns="http://www.w3.org/2000/svg" xmlns:svg="http://www.w3.org/2000/svg" xmlns:xlink="http://www.w3.org/1999/xlink" id="svg2" width="16" height="16" version="1.1"><defs id="defs4"><linearGradient id="linearGradient4212"><stop id="stop4214" offset="0" style="stop-color:#6f7684;stop-opacity:1"/><stop id="stop4216" offset="1" style="stop-color:#9a9b9c;stop-opacity:1"/></linearGradient><linearGradient id="linearGradient4077"><stop id="stop4079" offset="0" style="stop-color:#909192;stop-opacity:1"/><stop style="stop-color:#cbcbcb;stop-opacity:1" id="stop4085" offset=".802"/><stop id="stop4081" offset="1" style="stop-color:#90bdd6;stop-opacity:1"/></linearGradient><linearGradient id="linearGradient4083" x1="4.689" x2="5.539" y1="7.073" y2="1.078" gradientTransform="matrix(0.9249982,0,0,0.92499803,-10.616404,1043.6706)" gradientUnits="userSpaceOnUse" xlink:href="#linearGradient4077"/><linearGradient id="linearGradient4218" x1="5.389" x2="5.539" y1="7.94" y2="1.078" gradientTransform="matrix(0.9249982,0,0,0.92499803,-10.616404,1043.6706)" gradientUnits="userSpaceOnUse" xlink:href="#linearGradient4212"/></defs><metadata id="metadata7"/><g style="display:inline" id="layer1" transform="translate(0,-1036.3622)"><circle id="path4108-9-1-6-7" cx="-5.5" cy="1047.862" r="2.92" transform="scale(-1,1)" style="display:inline;fill:url(#linearGradient4083);fill-opacity:1;stroke:url(#linearGradient4218);stroke-width:1.16096604;stroke-miterlimit:4;stroke-dasharray:none;stroke-opacity:1"/><g id="text4307-2" transform="scale(1.0082888,0.99177935)" style="font-style:normal;font-weight:400;font-size:9.86002064px;line-height:125%;font-family:sans-serif;letter-spacing:0;word-spacing:0;display:inline;fill:#286296;fill-opacity:1;stroke:none;stroke-width:1px;stroke-linecap:butt;stroke-linejoin:miter;stroke-opacity:1"><path id="path4342" d="m 9.9177933,1053.0187 0,-7.058 3.9671177,0 -3.75e-4,1.0083 -2.975151,0 3.75e-4,2.0165 1.983371,4e-4 0,1.0338 -1.983371,-4e-4 0,2.9994 z" style="font-style:normal;font-variant:normal;font-weight:700;font-stretch:condensed;font-family:'Arial Narrow';-inkscape-font-specification:'Arial Narrow Bold Condensed';fill:#286296;fill-opacity:1"/></g><path id="path4147" d="m 5.5,1042.3622 0.00224,0.555 c 0.00283,0.6989 0.5088078,0.945 0.9904033,0.945 l 0.9623162,0 c 0.4930429,0 1.0450367,-0.5071 1.0450367,-1 l 0,-1 c 0,-0.4295 -0.4534576,-1 -0.9485294,-1 l -1.0477941,0 c -0.4731318,0 -1.0036765,-0.5401 -1.0036765,-1 l 0,-1 c 0,-0.4333 0.5247047,-1 0.9926471,-1 l 0.992647,0 c 0.7373493,0 1.0147059,0.8878 1.0147059,1.0603 l 0,0.4397" style="fill:none;fill-rule:evenodd;stroke:#c7022d;stroke-width:1;stroke-linecap:butt;stroke-linejoin:miter;stroke-miterlimit:4;stroke-dasharray:none;stroke-opacity:1"/></g></svg>