<svg xmlns="http://www.w3.org/2000/svg" xmlns:svg="http://www.w3.org/2000/svg" xmlns:xlink="http://www.w3.org/1999/xlink" id="svg2" width="16" height="16" version="1.1"><defs id="defs4"><linearGradient id="linearGradient4212"><stop id="stop4214" offset="0" style="stop-color:#6f7684;stop-opacity:1"/><stop id="stop4216" offset="1" style="stop-color:#9a9b9c;stop-opacity:1"/></linearGradient><linearGradient id="linearGradient4077"><stop id="stop4079" offset="0" style="stop-color:#909192;stop-opacity:1"/><stop style="stop-color:#cbcbcb;stop-opacity:1" id="stop4085" offset=".802"/><stop id="stop4081" offset="1" style="stop-color:#90bdd6;stop-opacity:1"/></linearGradient><linearGradient id="linearGradient4083" x1="4.689" x2="5.539" y1="7.073" y2="1.078" gradientTransform="matrix(0.9249982,0,0,0.92499803,-10.616404,1043.6706)" gradientUnits="userSpaceOnUse" xlink:href="#linearGradient4077"/><linearGradient id="linearGradient4218" x1="5.389" x2="5.539" y1="7.94" y2="1.078" gradientTransform="matrix(0.9249982,0,0,0.92499803,-10.616404,1043.6706)" gradientUnits="userSpaceOnUse" xlink:href="#linearGradient4212"/></defs><metadata id="metadata7"/><g style="display:inline" id="layer1" transform="translate(0,-1036.3622)"><circle id="path4108-9-1-6-7" cx="-5.5" cy="1047.862" r="2.92" transform="scale(-1,1)" style="display:inline;fill:url(#linearGradient4083);fill-opacity:1;stroke:url(#linearGradient4218);stroke-width:1.16096604;stroke-miterlimit:4;stroke-dasharray:none;stroke-opacity:1"/><path id="path4147" d="m 10.500044,1042.3622 0.0022,0.555 c 0.0028,0.6989 0.508808,0.945 0.990403,0.945 l 0.962316,0 c 0.493043,0 1.045037,-0.5071 1.045037,-1 l 0,-1 c 0,-0.4295 -0.453458,-1 -0.948529,-1 l -1.047794,0 c -0.473132,0 -1.003677,-0.5401 -1.003677,-1 l 0,-1 c 0,-0.4333 0.524705,-1 0.992647,-1 l 0.992647,0 c 0.737349,0 1.014706,0.8878 1.014706,1.0603 l 0,0.4397" style="display:inline;fill:none;fill-rule:evenodd;stroke:#c7022d;stroke-width:1;stroke-linecap:butt;stroke-linejoin:miter;stroke-miterlimit:4;stroke-dasharray:none;stroke-opacity:1"/></g></svg>