<svg xmlns="http://www.w3.org/2000/svg" xmlns:svg="http://www.w3.org/2000/svg" xmlns:xlink="http://www.w3.org/1999/xlink" id="svg2" width="16" height="16" version="1.1"><defs id="defs4"><linearGradient id="linearGradient4749"><stop id="stop4751" offset="0" style="stop-color:#ffe;stop-opacity:1"/><stop id="stop4753" offset="1" style="stop-color:#ffecad;stop-opacity:1"/></linearGradient><linearGradient id="linearGradient4741"><stop id="stop4743" offset="0" style="stop-color:#ba7f0d;stop-opacity:1"/><stop id="stop4745" offset="1" style="stop-color:#a2660b;stop-opacity:1"/></linearGradient><linearGradient id="linearGradient4747" x1="11.063" x2="11.063" y1="1038.55" y2="1049.912" gradientTransform="matrix(-1,0,0,1,17,0)" gradientUnits="userSpaceOnUse" xlink:href="#linearGradient4741"/><linearGradient id="linearGradient4755" x1="4.5" x2="4.5" y1="1042.047" y2="1046.49" gradientTransform="matrix(-1,0,0,1,17,0)" gradientUnits="userSpaceOnUse" xlink:href="#linearGradient4749"/><filter id="filter4499" width="1.144" height="1.144" x="-.072" y="-.072" style="color-interpolation-filters:sRGB"><feGaussianBlur id="feGaussianBlur4501" stdDeviation=".219"/></filter></defs><metadata id="metadata7"/><g style="display:inline" id="layer1" transform="translate(0,-1036.3622)"><path id="rect3968" d="m 8.5,1038.8622 0,3 5.78125,0 c 0.667867,0 1.21875,0.5509 1.21875,1.2188 l 0,2.5625 c 0,0.6678 -0.550883,1.2187 -1.21875,1.2187 l -5.78125,0 0,3 -1,0 -5.5,-5.5 5.5,-5.5 1,0 z" style="fill:url(#linearGradient4755);fill-opacity:1;stroke:url(#linearGradient4747);stroke-width:1;stroke-linecap:round;stroke-linejoin:round;stroke-miterlimit:4;stroke-dasharray:none;stroke-dashoffset:0;stroke-opacity:1"/><ellipse id="path4469" cx="13.727" cy="1039.116" rx="3.647" ry="3.663" transform="matrix(0.82766114,0,0,0.8242015,-8.861585,184.92095)" style="display:inline;opacity:.90399996;fill:#e9deb7;fill-opacity:1;stroke:none;stroke-width:1.37168431;stroke-linecap:butt;stroke-linejoin:miter;stroke-miterlimit:4;stroke-dasharray:none;stroke-dashoffset:0;stroke-opacity:1;filter:url(#filter4499)"/><g id="g4521" transform="matrix(0.70781815,0,0,0.72750345,-23.767608,285.37698)" style="display:inline"><path style="fill:none;fill-rule:evenodd;stroke:#355883;stroke-width:1.39354694px;stroke-linecap:butt;stroke-linejoin:miter;stroke-opacity:1" id="path4430" d="m 37.150891,1035.0263 0,8.2474"/><path style="display:inline;fill:none;fill-rule:evenodd;stroke:#355883;stroke-width:1.39354694px;stroke-linecap:butt;stroke-linejoin:miter;stroke-opacity:1" id="path4430-8-3" d="m 34.161058,1036.9375 6.06822,4.5836"/><path style="display:inline;fill:none;fill-rule:evenodd;stroke:#355883;stroke-width:1.39354694px;stroke-linecap:butt;stroke-linejoin:miter;stroke-opacity:1" id="path4430-8-3-1" d="m 39.98197,1036.8345 -5.979458,4.6998"/></g></g></svg>