<svg xmlns="http://www.w3.org/2000/svg" xmlns:svg="http://www.w3.org/2000/svg" id="svg2" width="7" height="8" version="1.1"><metadata id="metadata7"/><g id="layer1" transform="translate(0,-1044.3622)"><path style="fill:#fff;fill-rule:evenodd;stroke:none;stroke-width:1px;stroke-linecap:butt;stroke-linejoin:miter;stroke-opacity:1;fill-opacity:1" id="path4604-5" d="m 5.9821434,1051.8935 -3.4821434,0 c -0.9417644,0 -1.99776787,-1.0004 -1.99776787,-1.9978 l 0,-3.0469 c 0,-0.9339 1.04716807,-1.981 1.98102677,-1.981 l 3.0970985,0 c 0.4511414,0 0.957031,0.5059 0.957031,0.957 l 0,3.1223 c 0,0.4623 -0.6985491,0.9807 -0.980748,0.9807 -0.8663504,0 -2.1096188,0 -2.5990512,0 -0.6840666,0 -0.4464285,-0.7714 -0.4464285,-2.0522 0,-0.4735 0.5644525,-1.0044 1.0379464,-1.0044 0.2540707,0 1.0044643,-0.1116 1.0044643,0.2232 0,0.8145 0,2.8348 0,2.8348"/><rect style="opacity:1;fill:#fff;fill-opacity:1;stroke:none;stroke-width:1;stroke-miterlimit:4;stroke-dasharray:none;stroke-opacity:1" id="rect4621" width="1.585" height="2.813" x="2.779" y="1047.15"/><path style="fill:none;fill-rule:evenodd;stroke:#2d6492;stroke-width:.95;stroke-linecap:butt;stroke-linejoin:miter;stroke-miterlimit:4;stroke-dasharray:none;stroke-opacity:1" id="path4604" d="m 5.9821434,1051.8935 -3.4821434,0 c -0.9417644,0 -1.99776787,-1.0004 -1.99776787,-1.9978 l 0,-2.0313 c 0,-2.0057 0.98538377,-2.9966 3.06361607,-2.9966 l 2.0145092,0 c 0.4511414,0 0.957031,0.5059 0.957031,0.957 l 0,3.1223 c 0,0.4623 -0.6985491,0.9807 -0.980748,0.9807 l -2.5990512,0 c -0.6840666,0 -0.4464285,-0.7714 -0.4464285,-2.0522 0,-0.4735 0.5644525,-1.0044 1.0379464,-1.0044 0.2540707,0 1.0044643,-0.1116 1.0044643,0.2232 l 0,2.8348"/></g></svg>