<svg xmlns="http://www.w3.org/2000/svg" xmlns:svg="http://www.w3.org/2000/svg" id="svg2" width="7" height="7" version="1.1"><metadata id="metadata7"/><g id="layer1" transform="translate(0,-1045.3622)"><ellipse id="path3351" cx="3.471" cy="1051.275" rx="2.467" ry="1.083" style="opacity:1;fill:#fff;fill-opacity:1;stroke:none;stroke-opacity:1"/><path id="path3350" d="m 0.99437055,1045.3436 c 0,0 0.0262225,6.1581 0,6.0609 -0.0262225,-0.097 5.00707565,0 5.00707565,0 l 0,-6.029 z" style="fill:#fff;fill-opacity:1;fill-rule:evenodd;stroke:none;stroke-width:1px;stroke-linecap:butt;stroke-linejoin:miter;stroke-opacity:1"/><path style="fill:none;fill-rule:evenodd;stroke:#fff;stroke-width:1.01002824;stroke-linecap:butt;stroke-linejoin:miter;stroke-miterlimit:4;stroke-dasharray:none;stroke-opacity:1" id="path4163-4-0" d="m 5.47583,1050.3053 0,0.5002 c 0,0 -0.5325989,1.0498 -1.5061289,1.0498 l -1.1885365,0 c -0.5159588,0 -1.1249627,-0.7698 -1.1249627,-0.9276 l -0.1484375,-0.6884 0,-0.8854"/><path id="path4168-7" d="m 0.9643804,1045.3617 4.0669726,0 c 1.3456424,0 1.9781742,0.6469 1.9781742,1.1791 l 0,4.6651 c 0,0.9855 -0.7544691,1.1791 -2.1052671,1.1791 l -3.8975154,0 z" style="fill:#fff;fill-opacity:1;fill-rule:evenodd;stroke:none;stroke-width:1px;stroke-linecap:butt;stroke-linejoin:miter;stroke-opacity:1"/><path id="path4168" d="m 2.4969393,1045.8669 2.1249363,0 c 0.089272,-0.024 0.8744169,0.8718 0.8744169,1.0043 l 0,3.9731 c 0,0.1433 -0.8261452,1.0043 -0.9408212,1.0043 l -2.0363972,0 z" style="fill:none;fill-rule:evenodd;stroke:#894c1f;stroke-width:1;stroke-linecap:butt;stroke-linejoin:miter;stroke-miterlimit:4;stroke-dasharray:none;stroke-opacity:1"/></g></svg>