<svg xmlns="http://www.w3.org/2000/svg" xmlns:svg="http://www.w3.org/2000/svg" xmlns:xlink="http://www.w3.org/1999/xlink" id="svg2" width="7" height="8" version="1.1"><defs id="defs4"><linearGradient id="linearGradient3802"><stop id="stop3804" offset="0" style="stop-color:#905e27;stop-opacity:0"/><stop id="stop3806" offset="1" style="stop-color:#905e27;stop-opacity:1"/></linearGradient><linearGradient id="linearGradient10798-1-9-3-7-6-8-9-0-9-1"><stop id="stop10800-5-2-1-8-20-6-4-9-8-2" offset="0" style="stop-color:#a17748;stop-opacity:1"/><stop style="stop-color:#8e5c24;stop-opacity:1" id="stop10806-6-8-5-3-9-24-8-4-3-2" offset=".5"/><stop id="stop10802-1-5-3-0-4-8-4-2-9-2" offset="1" style="stop-color:#c7af93;stop-opacity:1"/></linearGradient><linearGradient id="linearGradient3030" x1="388.637" x2="388.637" y1="478.188" y2="459.248" gradientUnits="userSpaceOnUse" xlink:href="#linearGradient10798-1-9-3-7-6-8-9-0-9-1"/><radialGradient id="radialGradient3808" cx="388.125" cy="468.237" r="11.708" fx="388.125" fy="468.237" gradientTransform="matrix(0.83521992,0,0,0.83521992,63.955266,77.156164)" gradientUnits="userSpaceOnUse" xlink:href="#linearGradient3802"/></defs><metadata id="metadata7"/><g id="layer1" transform="translate(0,-1044.3622)"><path id="path10796-2-6-2" d="m 398.75,468.23718 a 10.625,10.625 0 0 1 -10.625,10.625 10.625,10.625 0 0 1 -10.625,-10.625 10.625,10.625 0 0 1 10.625,-10.625 10.625,10.625 0 0 1 10.625,10.625 z" transform="matrix(0.29745286,0,0,0.29745286,-111.98566,908.63317)" style="font-size:13.58917427px;font-style:normal;font-weight:400;line-height:125%;letter-spacing:0;word-spacing:0;fill:url(#linearGradient3030);fill-opacity:1;stroke:#905e27;stroke-width:2.16621375;stroke-linecap:round;stroke-linejoin:round;stroke-miterlimit:4;stroke-opacity:1;stroke-dasharray:none;stroke-dashoffset:0;display:inline;font-family:Sans"/><path id="path10796-2-6-2-4" d="m 398.75,468.23718 a 10.625,10.625 0 0 1 -10.625,10.625 10.625,10.625 0 0 1 -10.625,-10.625 10.625,10.625 0 0 1 10.625,-10.625 10.625,10.625 0 0 1 10.625,10.625 z" transform="matrix(0.29745286,0,0,0.29745286,-111.98566,908.63317)" style="font-size:13.589174270000001px;font-style:normal;font-weight:400;line-height:125%;letter-spacing:0;word-spacing:0;fill:url(#radialGradient3808);fill-opacity:1;stroke:#905e27;stroke-width:2.1662137499999998;stroke-linecap:round;stroke-linejoin:round;stroke-miterlimit:4;stroke-opacity:1;stroke-dasharray:none;stroke-dashoffset:0;display:inline;font-family:Sans"/><g id="g8046" transform="matrix(0.53611583,0,0,0.71389361,-3.2649866,309.05512)" style="font-size:13.58917427px;font-style:normal;font-weight:400;line-height:125%;letter-spacing:0;word-spacing:0;fill:#fff;fill-opacity:1;stroke:none;display:inline;font-family:Sans"><rect style="fill:#fff;fill-opacity:1;stroke:none" id="rect7222" width="1.869" height="7.005" x="9.812" y="1031.398"/><rect style="font-style:normal;font-weight:400;font-size:13.58917427px;line-height:125%;font-family:Sans;letter-spacing:0;word-spacing:0;display:inline;fill:#fff;fill-opacity:1;stroke:none" id="rect7222-7" width="5.604" height="1.419" x="9.819" y="1031.398"/><rect style="font-style:normal;font-weight:400;font-size:13.58917427px;line-height:125%;font-family:Sans;letter-spacing:0;word-spacing:0;display:inline;fill:#fff;fill-opacity:1;stroke:none" id="rect7222-7-2" width="5.006" height="1.401" x="10.406" y="1037"/><rect style="font-style:normal;font-weight:400;font-size:13.58917427px;line-height:125%;font-family:Sans;letter-spacing:0;word-spacing:0;display:inline;fill:#fff;fill-opacity:1;stroke:none" id="rect7222-7-2-5" width="2.78" height="1.387" x="10.757" y="1034.201"/></g></g></svg>