<svg xmlns="http://www.w3.org/2000/svg" xmlns:svg="http://www.w3.org/2000/svg" xmlns:xlink="http://www.w3.org/1999/xlink" id="svg2" width="6" height="13" version="1.1"><defs id="defs4"><linearGradient id="linearGradient23102"><stop id="stop23104" offset="0" style="stop-color:#c9473e;stop-opacity:1"/><stop style="stop-color:#f35863;stop-opacity:1" id="stop23118" offset=".254"/><stop id="stop23106" offset="1" style="stop-color:#f6928e;stop-opacity:1"/></linearGradient><linearGradient id="linearGradient23112"><stop style="stop-color:#f68886;stop-opacity:1" id="stop23114" offset="0"/><stop style="stop-color:#f4787b;stop-opacity:1" id="stop23116" offset="1"/></linearGradient><linearGradient id="linearGradient3047" x1="11.04" x2="10.746" y1="13.403" y2="14.498" gradientUnits="userSpaceOnUse" xlink:href="#linearGradient23112"/><linearGradient id="linearGradient3051" x1="11.063" x2="11.063" y1="9.891" y2="4.234" gradientTransform="translate(-8.0701672,1036.3992)" gradientUnits="userSpaceOnUse" xlink:href="#linearGradient23102"/></defs><metadata id="metadata7"/><g id="layer1" transform="translate(0,-1039.3622)"><rect id="rect3360" width="6" height="8" x=".045" y="1039.362" style="fill:#fff;fill-opacity:1;stroke:none"/><rect id="rect3360-0" width="6" height="4.023" x="0" y="1048.359" style="fill:#fff;fill-opacity:1;stroke:none"/><g id="g3043" transform="translate(0.08486705,-0.03111101)"><rect id="rect4173" width="3.993" height="1.689" x=".925" y="1047.043" style="opacity:1;fill:#fff;fill-opacity:1;stroke:none;stroke-width:1;stroke-linecap:square;stroke-linejoin:miter;stroke-miterlimit:4;stroke-dasharray:none;stroke-opacity:1"/><path style="fill:url(#linearGradient3047);fill-opacity:1;stroke:#ee1e2a;stroke-width:1.08058035;stroke-miterlimit:4;stroke-opacity:1;stroke-dasharray:none;display:inline" id="path22314" d="m 12.609375,14 a 1.625,1.625 0 0 1 -1.625,1.625 1.625,1.625 0 0 1 -1.625,-1.625 1.625,1.625 0 0 1 1.625,-1.625 1.625,1.625 0 0 1 1.625,1.625 z" transform="matrix(0.92542861,0,0,0.92542861,-7.2354198,1037.4432)"/><path style="display:inline;fill:url(#linearGradient3051);fill-opacity:1;stroke:#f93337;stroke-width:1;stroke-linecap:round;stroke-linejoin:round;stroke-miterlimit:4;stroke-dashoffset:0;stroke-opacity:1" id="rect22316" d="m 2.9142132,1040.8881 c 0.839655,0 1.576133,0.6781 1.515624,1.5156 l -0.220969,3.0584 c -0.060502,0.8374 -0.455,1.4051 -1.294655,1.4051 -0.839655,0 -1.2341524,-0.4888 -1.294655,-1.3262 l -0.220972,-3.0584 c -0.06051,-0.8375 0.675972,-1.5945 1.515627,-1.5945 z"/></g></g></svg>