<svg xmlns="http://www.w3.org/2000/svg" xmlns:svg="http://www.w3.org/2000/svg" id="svg2" width="7" height="7" version="1.1"><defs id="defs4"><filter id="filter3774" width="1.33" height="1.189" x="-.165" y="-.094"><feGaussianBlur id="feGaussianBlur3776" stdDeviation=".275"/></filter></defs><metadata id="metadata7"/><g id="layer1" transform="translate(0,-1045.3622)"><rect id="rect3342" width="3" height="7" x="1" y="1045.362" style="fill:#fff;fill-opacity:1;stroke:none"/><path id="rect2999-1" d="m 2,1045.3622 0,1 0,2 0,1 0,3 1,0 0,-3 2,0 0,-1 -2,0 0,-2 3,0 0,-1 -3,0 -1,0 z" style="fill:#fff;fill-opacity:1;stroke:#fff;filter:url(#filter3774);stroke-width:.5;stroke-miterlimit:4;stroke-dasharray:none;opacity:.75"/><rect id="rect3342-3" width="3" height="3.027" x="3.002" y="1045.368" style="fill:#fff;fill-opacity:1;stroke:none"/><rect id="rect3342-3-7" width="1.036" height="3.027" x="2.98" y="1049.363" style="fill:#fff;fill-opacity:1;stroke:none"/><rect id="rect3342-3-7-5" width="3.022" height=".996" x="1.98" y="1049.363" style="fill:#fff;fill-opacity:1;stroke:none"/><rect id="rect3342-3-7-5-0" width="3.022" height="2.022" x="3.984" y="1045.35" style="fill:#fff;fill-opacity:1;stroke:none"/><rect id="rect3342-3-7-5-9" width="3.022" height=".996" x="3.98" y="1046.363" style="fill:#fff;fill-opacity:1;stroke:none"/><rect id="rect3342-3-7-5-9-7" width="3.022" height=".996" x="2.948" y="1047.39" style="fill:#fff;fill-opacity:1;stroke:none"/><path id="rect2999" d="m 2,1045.3622 0,1 0,2 0,1 0,3 1,0 0,-3 2,0 0,-1 -2,0 0,-2 3,0 0,-1 -3,0 -1,0 z" style="fill:#286296;fill-opacity:1;stroke:none"/></g></svg>