<svg xmlns="http://www.w3.org/2000/svg" xmlns:svg="http://www.w3.org/2000/svg" xmlns:xlink="http://www.w3.org/1999/xlink" id="svg2" width="7" height="8" version="1.1"><defs id="defs4"><linearGradient id="linearGradient3798"><stop id="stop3800" offset="0" style="stop-color:#55429f;stop-opacity:0"/><stop id="stop3802" offset="1" style="stop-color:#55429f;stop-opacity:1"/></linearGradient><linearGradient id="linearGradient10798-1-9-3-7-6-8-9-0-9-1"><stop id="stop10800-5-2-1-8-20-6-4-9-8-2" offset="0" style="stop-color:#7564b1;stop-opacity:1"/><stop style="stop-color:#5d4aa1;stop-opacity:1" id="stop10806-6-8-5-3-9-24-8-4-3-2" offset=".5"/><stop id="stop10802-1-5-3-0-4-8-4-2-9-2" offset="1" style="stop-color:#9283c3;stop-opacity:1"/></linearGradient><linearGradient id="linearGradient3102" x1="388.637" x2="388.637" y1="478.188" y2="462.115" gradientUnits="userSpaceOnUse" xlink:href="#linearGradient10798-1-9-3-7-6-8-9-0-9-1"/><radialGradient id="radialGradient3804" cx="388.125" cy="468.237" r="11.708" fx="388.125" fy="468.237" gradientTransform="matrix(0.82332722,0,0,0.82332722,68.57113,82.724774)" gradientUnits="userSpaceOnUse" xlink:href="#linearGradient3798"/></defs><metadata id="metadata7"/><g id="layer1" transform="translate(0,-1044.3622)"><path id="path10796-2-6-2" d="m 398.75,468.23718 a 10.625,10.625 0 0 1 -10.625,10.625 10.625,10.625 0 0 1 -10.625,-10.625 10.625,10.625 0 0 1 10.625,-10.625 10.625,10.625 0 0 1 10.625,10.625 z" transform="matrix(0.29869153,0,0,0.29869153,-112.42903,908.01433)" style="font-size:13.58917427px;font-style:normal;font-weight:400;line-height:125%;letter-spacing:0;word-spacing:0;fill:url(#linearGradient3102);fill-opacity:1;stroke:#55429f;stroke-width:2.16621375;stroke-linecap:round;stroke-linejoin:round;stroke-miterlimit:4;stroke-opacity:1;stroke-dasharray:none;stroke-dashoffset:0;display:inline;font-family:Sans"/><path id="path10796-2-6-2-4" d="m 398.75,468.23718 a 10.625,10.625 0 0 1 -10.625,10.625 10.625,10.625 0 0 1 -10.625,-10.625 10.625,10.625 0 0 1 10.625,-10.625 10.625,10.625 0 0 1 10.625,10.625 z" transform="matrix(0.29869153,0,0,0.29869153,-112.42903,908.01433)" style="font-size:13.589174270000001px;font-style:normal;font-weight:400;line-height:125%;letter-spacing:0;word-spacing:0;fill:url(#radialGradient3804);fill-opacity:1;stroke:#55429f;stroke-width:2.1662137499999998;stroke-linecap:round;stroke-linejoin:round;stroke-miterlimit:4;stroke-opacity:1;stroke-dasharray:none;stroke-dashoffset:0;display:inline;font-family:Sans"/><path id="rect7222" d="m 2.0016375,1045.3643 0,0.9929 1.0020368,0 0,3.0147 -1.0020368,0 0,0.9929 2.997988,0 0,-0.9929 -1.0020354,0 0,-3.0147 1.0059813,0 0,-0.9929 z" style="font-style:normal;font-weight:400;font-size:13.58917427px;line-height:125%;font-family:Sans;letter-spacing:0;word-spacing:0;display:inline;fill:#fff;fill-opacity:1;stroke:none"/></g></svg>