<svg xmlns="http://www.w3.org/2000/svg" xmlns:svg="http://www.w3.org/2000/svg" xmlns:xlink="http://www.w3.org/1999/xlink" id="svg2" width="7" height="8" version="1.1"><defs id="defs4"><linearGradient id="linearGradient4738"><stop style="stop-color:#8cc861;stop-opacity:1" id="stop4740" offset="0"/><stop id="stop4746" offset=".438" style="stop-color:#4aa766;stop-opacity:1"/><stop style="stop-color:#c2dd97;stop-opacity:1" id="stop4742" offset="1"/></linearGradient><linearGradient id="linearGradient4741"><stop style="stop-color:#30825a;stop-opacity:1" id="stop4743" offset="0"/><stop style="stop-color:#106643;stop-opacity:1" id="stop4745" offset="1"/></linearGradient><linearGradient id="linearGradient6032" x1="-13.937" x2="-13.937" y1="1049.958" y2="1040.053" gradientTransform="translate(15.825436,0)" gradientUnits="userSpaceOnUse" xlink:href="#linearGradient4738"/><linearGradient id="linearGradient6034" x1="11.063" x2="11.063" y1="1038.55" y2="1049.912" gradientTransform="translate(-5.4895565,0)" gradientUnits="userSpaceOnUse" xlink:href="#linearGradient4741"/><filter id="filter3854" width="1.345" height="1.379" x="-.173" y="-.189"><feGaussianBlur id="feGaussianBlur3856" stdDeviation=".792"/></filter></defs><metadata id="metadata7"/><g id="layer1" transform="translate(0,-1044.3622)"><path id="path3360" d="m 9.000617,1047.4682 -6.9803119,-2.1139 -2.05187237,0 0,7.0079 2.02030507,0 7.0118792,-1.9721" style="fill:#fff;fill-opacity:1;fill-rule:evenodd;stroke:none;stroke-width:1px;stroke-linecap:butt;stroke-linejoin:miter;stroke-opacity:1"/><g id="layer1-6-4" transform="matrix(0.479092,0,0,0.43051303,2.2977699,599.01177)" style="display:inline;fill:#fff;stroke:#fff;filter:url(#filter3854)"><path style="fill:#fff;fill-opacity:1;stroke:#fff;stroke-width:2.2018990500000002;stroke-linecap:round;stroke-linejoin:round;stroke-miterlimit:4;stroke-opacity:1;stroke-dasharray:none;stroke-dashoffset:0" id="rect3968-5" d="m -1.6770565,1039.8618 0,2.0277 0,5 0,3 0.99999995,0 9.54668705,-4.5273 c 0.59227,-0.3746 0.618127,-0.6299 0,-1 l -9.12684205,-4.5004 z"/></g><g id="layer1-6" transform="matrix(0.479092,0,0,0.43051303,2.2977699,599.01177)" style="display:inline"><path style="fill:url(#linearGradient6032);fill-opacity:1;stroke:url(#linearGradient6034);stroke-width:2.20189905;stroke-linecap:round;stroke-linejoin:round;stroke-miterlimit:4;stroke-opacity:1;stroke-dasharray:none;stroke-dashoffset:0" id="rect3968" d="m -1.6770565,1039.8618 0,2.0277 0,5 0,3 0.99999995,0 9.54668705,-4.5273 c 0.59227,-0.3746 0.618127,-0.6299 0,-1 l -9.12684205,-4.5004 z"/></g></g></svg>