<svg xmlns="http://www.w3.org/2000/svg" xmlns:svg="http://www.w3.org/2000/svg" xmlns:xlink="http://www.w3.org/1999/xlink" id="svg2" width="7" height="8" version="1.1"><defs id="defs4"><linearGradient id="linearGradient8584" x1="28.005" x2="28.005" y1="-5.608" y2="1.609" gradientUnits="userSpaceOnUse" xlink:href="#linearGradient13755"/><linearGradient id="linearGradient13755"><stop style="stop-color:#f1fdfc;stop-opacity:1" id="stop13757" offset="0"/><stop id="stop13765" offset=".455" style="stop-color:#dbeff9;stop-opacity:1"/><stop id="stop13763" offset=".545" style="stop-color:#cee4f0;stop-opacity:1"/><stop style="stop-color:#def1fa;stop-opacity:1" id="stop13759" offset="1"/></linearGradient><linearGradient id="linearGradient8586" x1="30.034" x2="30.034" y1="-6.111" y2="1.909" gradientUnits="userSpaceOnUse" xlink:href="#linearGradient13831"/><linearGradient id="linearGradient13831"><stop style="stop-color:#055797;stop-opacity:1" id="stop13833" offset="0"/><stop style="stop-color:#184785;stop-opacity:1" id="stop13835" offset="1"/></linearGradient></defs><metadata id="metadata7"/><g id="layer1" transform="translate(0,-1044.3622)"><rect style="opacity:1;fill:#fff;fill-opacity:1;stroke:none;stroke-opacity:1" id="rect3348" width="7" height="8" x="0" y="1044.362"/><g style="display:inline" id="g8579" transform="matrix(0.61462059,0,0,0.61462059,-29.513779,403.91436)"><path id="path13745" d="m 30,-2 a 4,4 0 0 1 -4,4 4,4 0 0 1 -4,-4 4,4 0 0 1 4,-4 4,4 0 0 1 4,4 z" transform="matrix(1.2249496,0,0,1.2249496,21.871427,1050.2166)" style="fill:url(#linearGradient8584);fill-opacity:1;stroke:url(#linearGradient8586);stroke-width:1.30471706;stroke-linecap:round;stroke-linejoin:round;stroke-miterlimit:4;stroke-opacity:1;stroke-dasharray:none"/><path id="path13811" d="m 53.750446,1047.7972 0,-2.0313" style="fill:none;stroke:#1f4a83;stroke-width:1.62702001;stroke-linecap:round;stroke-linejoin:round;stroke-opacity:1;stroke-miterlimit:4;stroke-dasharray:none"/><path id="path13811-9" d="m 53.750446,1047.7972 1.458408,2.3881" style="fill:none;stroke:#1f4a83;stroke-width:1.62702001;stroke-linecap:round;stroke-linejoin:round;stroke-opacity:1;display:inline;stroke-miterlimit:4;stroke-dasharray:none"/></g></g></svg>