<svg xmlns="http://www.w3.org/2000/svg" xmlns:svg="http://www.w3.org/2000/svg" xmlns:xlink="http://www.w3.org/1999/xlink" id="svg2" width="7" height="8" version="1.1"><defs id="defs4"><linearGradient id="linearGradient5081"><stop id="stop5083" offset="0" style="stop-color:#ffe296;stop-opacity:1"/><stop style="stop-color:#f8d880;stop-opacity:1" id="stop5089" offset=".5"/><stop id="stop5085" offset="1" style="stop-color:#fffcd3;stop-opacity:1"/></linearGradient><linearGradient id="linearGradient5091"><stop id="stop5093" offset="0" style="stop-color:#c6852e;stop-opacity:1"/><stop id="stop5095" offset="1" style="stop-color:#e1a555;stop-opacity:1"/></linearGradient><linearGradient id="linearGradient4230" x1="3.383" x2="3.383" y1="7.016" y2=".982" gradientTransform="translate(3.8209032e-8,1044.3622)" gradientUnits="userSpaceOnUse" xlink:href="#linearGradient5081"/><linearGradient id="linearGradient4232" x1="6.389" x2="6.389" y1="7.237" y2=".393" gradientTransform="translate(3.8209032e-8,1044.3622)" gradientUnits="userSpaceOnUse" xlink:href="#linearGradient5091"/></defs><metadata id="metadata7"/><g id="layer1" transform="translate(0,-1044.3622)"><path id="path3348" d="m -1,1050.3622 3,-7 3,0 3,7 z" style="fill:#fff;fill-rule:evenodd;stroke:none;stroke-width:1px;stroke-linecap:butt;stroke-linejoin:miter;stroke-opacity:1;fill-opacity:1"/><path id="path4292" d="m 2.8125,1045.2684 -2.03124996,4.0938 c -0.60602934,1.0251 -0.19281594,2.4817 0.93749996,2.5 l 1.28125,0 1,0 1.28125,0 c 1.1303165,-0.018 1.5435294,-1.475 0.9375,-2.5 l -2.03125,-4.0938 c -0.2942923,-0.5567 -1.1188077,-0.4672 -1.375,0 z" style="fill:url(#linearGradient4230);fill-opacity:1;stroke:url(#linearGradient4232);stroke-width:1px;stroke-linecap:butt;stroke-linejoin:miter;stroke-opacity:1;display:inline"/><path id="path4253" d="m 4.109375,5.484375 a 0.625,0.625 0 0 1 -0.625,0.625 0.625,0.625 0 0 1 -0.625,-0.625 0.625,0.625 0 0 1 0.625,-0.625 0.625,0.625 0 0 1 0.625,0.625 z" transform="matrix(1.0523812,0,0,1.0523812,-0.16689048,1044.2631)" style="fill:#502800;fill-opacity:1;stroke:none;display:inline"/><path id="path4253-7" d="m 3.5142345,1046.253 c -0.3537485,0 -0.6547532,0.3148 -0.6547532,0.7235 l 0.085402,1.3916 c 0,0.3633 0.2549073,0.6577 0.5693508,0.6577 0.3144435,0 0.5693489,-0.2944 0.5693489,-0.6577 l 0.056931,-1.3916 c 0,-0.4087 -0.2725362,-0.7235 -0.6262867,-0.7235 z" style="fill:#502800;fill-opacity:1;stroke:none;display:inline"/></g></svg>