<svg xmlns="http://www.w3.org/2000/svg" xmlns:svg="http://www.w3.org/2000/svg" xmlns:xlink="http://www.w3.org/1999/xlink" id="svg2" width="16" height="16" version="1.1"><defs id="defs4"><linearGradient id="linearGradient4939"><stop style="stop-color:#d5f3ff;stop-opacity:1" id="stop4941" offset="0"/><stop style="stop-color:#fcffff;stop-opacity:1" id="stop4943" offset="1"/></linearGradient><linearGradient id="linearGradient4945" x1="1.433" x2="3.073" y1="6.461" y2="8.105" gradientUnits="userSpaceOnUse" xlink:href="#linearGradient4939"/><linearGradient id="linearGradient4939-8"><stop style="stop-color:#d5f3ff;stop-opacity:1" id="stop4941-8" offset="0"/><stop style="stop-color:#fcffff;stop-opacity:1" id="stop4943-2" offset="1"/></linearGradient><linearGradient id="linearGradient4983" x1="1.433" x2="3.073" y1="6.461" y2="8.105" gradientUnits="userSpaceOnUse" xlink:href="#linearGradient4939-8"/></defs><metadata id="metadata7"/><g id="layer1" transform="translate(0,-1036.3622)" style="display:inline"><g style="display:inline" id="g8159" transform="translate(-8.2201163,-12.904699)"><path style="fill:none;stroke:#324e6e;stroke-width:1px;stroke-linecap:butt;stroke-linejoin:miter;stroke-opacity:1" id="path4981" d="m 12.535948,1057.3138 c 0,0 0.409535,-0.5625 1.699794,-0.5625 1.290259,0 1.658145,0.5 1.658145,0.5"/><path style="fill:none;stroke:#324e6e;stroke-width:1px;stroke-linecap:round;stroke-linejoin:round;stroke-opacity:1" id="path4985" d="m 8.780508,1057.2857 0.5226274,-0.5467 3.3916416,-3.5479 c 0.828641,-0.7734 2.088175,-0.8729 2.088175,1.7014"/><path style="fill:none;stroke:#324e6e;stroke-width:1px;stroke-linecap:round;stroke-linejoin:round;stroke-opacity:1;display:inline" id="path4985-5" d="m 17.623497,1058.2071 4.076913,-4.2647 c 0.828641,-0.7734 2.088175,-0.8729 2.088175,1.7015"/><path style="fill:url(#linearGradient4945);fill-opacity:1;stroke:#324e6e;stroke-width:1.11897111;stroke-miterlimit:4;stroke-opacity:1;stroke-dasharray:none" id="path4150" d="m 4.7343755,7.5624995 c 0,1.2253819 -0.9933683,2.2187503 -2.2187503,2.2187503 -1.2253819,0 -2.2187502,-0.9933684 -2.2187502,-2.2187503 0,-1.2253819 0.9933683,-2.2187502 2.2187502,-2.2187502 1.225382,0 2.2187503,0.9933683 2.2187503,2.2187502 z" transform="matrix(0.89367816,0,0,0.89367816,8.471957,1052.0008)"/><path style="fill:url(#linearGradient4983);fill-opacity:1;stroke:#324e6e;stroke-width:1.11897111;stroke-miterlimit:4;stroke-opacity:1;stroke-dasharray:none;display:inline" id="path4150-4" d="m 4.7343755,7.5624995 c 0,1.2253819 -0.9933683,2.2187503 -2.2187503,2.2187503 -1.2253819,0 -2.2187502,-0.9933684 -2.2187502,-2.2187503 0,-1.2253819 0.9933683,-2.2187502 2.2187502,-2.2187502 1.225382,0 2.2187503,0.9933683 2.2187503,2.2187502 z" transform="matrix(0.89367816,0,0,0.89367816,15.471957,1052.0008)"/></g></g></svg>