<svg xmlns="http://www.w3.org/2000/svg" xmlns:svg="http://www.w3.org/2000/svg" xmlns:xlink="http://www.w3.org/1999/xlink" id="svg2" width="16" height="16" version="1.1"><defs id="defs4"><linearGradient id="linearGradient4590"><stop id="stop4592" offset="0" style="stop-color:#fff;stop-opacity:1"/><stop id="stop4594" offset="1" style="stop-color:#fff;stop-opacity:.91185409"/></linearGradient><linearGradient id="linearGradient4484"><stop id="stop4486" offset="0" style="stop-color:#e4b367;stop-opacity:1"/><stop style="stop-color:#f0d98d;stop-opacity:1" id="stop4488" offset=".523"/><stop id="stop4490" offset="1" style="stop-color:#f5f5b5;stop-opacity:1"/></linearGradient><linearGradient id="linearGradient3268" x1="7.478" x2="15.523" y1="1043.859" y2="1043.859" gradientUnits="userSpaceOnUse" xlink:href="#linearGradient3851-3"/><linearGradient id="linearGradient3851-3"><stop id="stop3853-2" offset="0" style="stop-color:#fff;stop-opacity:1"/><stop style="stop-color:#fff;stop-opacity:.82198954" id="stop3863-0" offset=".5"/><stop id="stop3855-4" offset="1" style="stop-color:#fff;stop-opacity:0"/></linearGradient><linearGradient id="linearGradient4482" x1="-16.993" x2="-16.95" y1="1049.353" y2="1042.582" gradientTransform="translate(27.397826,0.08406205)" gradientUnits="userSpaceOnUse" xlink:href="#linearGradient4484"/><linearGradient id="linearGradient4482-1" x1="-16.993" x2="-16.95" y1="1049.353" y2="1042.582" gradientTransform="translate(23.397826,-3.9159)" gradientUnits="userSpaceOnUse" xlink:href="#linearGradient4484"/><filter id="filter4586" width="1.12" height="1.12" x="-.06" y="-.06" style="color-interpolation-filters:sRGB"><feGaussianBlur id="feGaussianBlur4588" stdDeviation=".2"/></filter><radialGradient id="radialGradient4596" cx="7.515" cy="1043.909" r="5.057" fx="7.515" fy="1043.909" gradientTransform="matrix(0.71027295,-0.70392637,0.69511307,0.70138018,-722.49605,317.02101)" gradientUnits="userSpaceOnUse" xlink:href="#linearGradient4590"/></defs><metadata id="metadata7"/><g style="display:inline" id="layer1" transform="translate(0,-1036.3622)"><path id="path4474-6" d="m 2.5,1039.1122 1.250001,-1.25 1.249999,1.25 0.5,-0.25 0,-2 2,0 0,2 0.500001,0.25 1.25,-1.25 1.25,1.25 -1.25,1.25 0.25,0.5 2,0 0,2 -2,0 -0.25,0.5 1.25,1.25 -1.25,1.25 -1.25,-1.25 -0.500001,0.25 0,2 -2,0 0,-2 -0.5,-0.25 -1.249999,1.25 -1.250001,-1.25 1.250001,-1.25 -0.250001,-0.5 -2,0 0,-2 2,0 0.250001,-0.5 z" style="display:inline;fill:url(#linearGradient4482-1);fill-opacity:1;fill-rule:evenodd;stroke:#75615a;stroke-width:1px;stroke-linecap:butt;stroke-linejoin:round;stroke-opacity:1"/><path id="path4568" d="m 3.982449,1047.4031 -0.021029,-4.042 1,0 0,-3 3,0 0,-1 3.768679,0.021 -3e-6,7.8738 z" style="opacity:.91100003;fill:url(#radialGradient4596);fill-opacity:1;fill-rule:evenodd;stroke:none;stroke-width:1px;stroke-linecap:butt;stroke-linejoin:miter;stroke-opacity:1;filter:url(#filter4586)"/><path id="path4474" d="m 6.5,1043.1122 1.2500008,-1.25 1.2499992,1.25 0.5,-0.25 0,-2 2,0 0,2 0.500001,0.25 1.25,-1.25 1.25,1.25 -1.25,1.25 0.25,0.5 2,0 0,2 -2,0 -0.25,0.5 1.25,1.25 -1.25,1.25 -1.25,-1.25 -0.500001,0.25 0,2 -2,0 0,-2 -0.5,-0.25 -1.2499992,1.25 -1.2500008,-1.25 1.2500008,-1.25 -0.2500008,-0.5 -2,0 0,-2 2,0 0.2500008,-0.5 z" style="fill:url(#linearGradient4482);fill-opacity:1;fill-rule:evenodd;stroke:#75615a;stroke-width:1px;stroke-linecap:butt;stroke-linejoin:round;stroke-opacity:1"/><ellipse id="path4416" cx="10.5" cy="1045.862" rx="1" ry="1" style="opacity:1;fill:#fefcf0;fill-opacity:1;stroke:#77605a;stroke-width:1;stroke-linecap:round;stroke-linejoin:miter;stroke-miterlimit:4;stroke-dasharray:none;stroke-dashoffset:0;stroke-opacity:1"/></g></svg>