<svg xmlns="http://www.w3.org/2000/svg" xmlns:svg="http://www.w3.org/2000/svg" xmlns:xlink="http://www.w3.org/1999/xlink" id="svg2" width="15" height="12" version="1.1"><defs id="defs4"><linearGradient id="linearGradient4839"><stop id="stop4841" offset="0" style="stop-color:#2846b3;stop-opacity:1"/><stop style="stop-color:#555f9e;stop-opacity:1" id="stop4843" offset=".5"/><stop id="stop4845" offset="1" style="stop-color:#567ebc;stop-opacity:0"/></linearGradient><linearGradient id="linearGradient4838"><stop id="stop4840" offset="0" style="stop-color:#9e6627;stop-opacity:1"/><stop id="stop4842" offset="1" style="stop-color:#cf9852;stop-opacity:1"/></linearGradient><linearGradient id="linearGradient4762"><stop style="stop-color:#ffd175;stop-opacity:1" id="stop4764" offset="0"/><stop style="stop-color:#fff1c2;stop-opacity:1" id="stop4766" offset="1"/></linearGradient><linearGradient id="linearGradient4756"><stop style="stop-color:#92b5eb;stop-opacity:1" id="stop4758" offset="0"/><stop style="stop-color:#b1e1fd;stop-opacity:1" id="stop4760" offset="1"/></linearGradient><linearGradient id="linearGradient4748"><stop style="stop-color:#958189;stop-opacity:1" id="stop4750" offset="0"/><stop style="stop-color:#897b8d;stop-opacity:1" id="stop4752" offset="1"/></linearGradient><linearGradient id="linearGradient4807"><stop id="stop4809" offset="0" style="stop-color:#2846b3;stop-opacity:1"/><stop id="stop4811" offset="1" style="stop-color:#60649d;stop-opacity:1"/></linearGradient><linearGradient id="linearGradient3967"><stop id="stop3969" offset="0" style="stop-color:#d1ad79;stop-opacity:1"/><stop id="stop3971" offset="1" style="stop-color:#ce9650;stop-opacity:1"/></linearGradient><linearGradient id="linearGradient3955"><stop id="stop3957" offset="0" style="stop-color:#c38536;stop-opacity:0"/><stop style="stop-color:#f2dc91;stop-opacity:1" id="stop3959" offset=".154"/><stop style="stop-color:#fbdc8b;stop-opacity:1" id="stop3961" offset=".5"/><stop id="stop3963" offset=".75" style="stop-color:#e6bd7a;stop-opacity:1"/><stop id="stop3965" offset="1" style="stop-color:#ba772f;stop-opacity:0"/></linearGradient><linearGradient id="linearGradient3939" x1="531.093" x2="531.093" y1="366.789" y2="371.179" gradientTransform="translate(-61.177316,-1.5825443)" gradientUnits="userSpaceOnUse" xlink:href="#linearGradient3967"/><linearGradient id="linearGradient4776" x1="537.943" x2="537.902" y1="397.561" y2="385.152" gradientTransform="matrix(1,0,0,1.4165687,344.32442,-1.0061521e-6)" gradientUnits="userSpaceOnUse" xlink:href="#linearGradient4756"/><linearGradient id="linearGradient4778" x1="546.633" x2="546.583" y1="397.264" y2="382.124" gradientTransform="matrix(1,0,0,1.4165687,344.32442,-1.0061521e-6)" gradientUnits="userSpaceOnUse" xlink:href="#linearGradient4807"/><mask id="mask4917" maskUnits="userSpaceOnUse"><path style="fill:#fff;fill-opacity:1;stroke:#fff;stroke-width:2;stroke-linecap:round;stroke-linejoin:round;stroke-miterlimit:4;stroke-opacity:1;stroke-dashoffset:0;display:inline" id="path4919" d="m 462.77563,373.22885 29.11636,0 c 1.45425,0 2.625,1.17075 2.625,2.625 l 0,18.76896 c 0,1.45425 -1.17412,2.52598 -2.625,2.625 l -29.11636,1.98708 c -1.45088,0.099 -2.625,-1.17075 -2.625,-2.625 l 0,-20.75604 c 0,-1.45425 1.17075,-2.625 2.625,-2.625 z"/></mask><filter id="filter4929" width="1.275" height="1.755" x="-.138" y="-.377"><feGaussianBlur id="feGaussianBlur4931" stdDeviation="3.562"/></filter><linearGradient id="linearGradient4933" x1="538.006" x2="538.006" y1="396.223" y2="374.212" gradientTransform="translate(-60.558602)" gradientUnits="userSpaceOnUse" xlink:href="#linearGradient4762"/><linearGradient id="linearGradient4935" x1="548.459" x2="548.459" y1="398.988" y2="373.771" gradientTransform="translate(-60.558602)" gradientUnits="userSpaceOnUse" xlink:href="#linearGradient4838"/><linearGradient id="linearGradient4795-2" x1="548.459" x2="548.459" y1="398.988" y2="373.771" gradientTransform="translate(-60.558608)" gradientUnits="userSpaceOnUse" xlink:href="#linearGradient4839"/><linearGradient id="linearGradient4867" x1="523.008" x2="543.914" y1="373.229" y2="373.229" gradientTransform="translate(-60.558598,-1.7032105)" gradientUnits="userSpaceOnUse" xlink:href="#linearGradient3955"/><linearGradient id="linearGradient4030" x1="14" x2="14" y1="4" y2="6" gradientTransform="matrix(0.71197671,0,0,0.69270992,0.35509564,1041.6414)" gradientUnits="userSpaceOnUse" xlink:href="#linearGradient4748"/><mask id="mask4917-3" maskUnits="userSpaceOnUse"><path style="fill:#fff;fill-opacity:1;stroke:#fff;stroke-width:2;stroke-linecap:round;stroke-linejoin:round;stroke-miterlimit:4;stroke-opacity:1;stroke-dashoffset:0;display:inline" id="path4919-3" d="m 462.77563,373.22885 29.11636,0 c 1.45425,0 2.625,1.17075 2.625,2.625 l 0,18.76896 c 0,1.45425 -1.17412,2.52598 -2.625,2.625 l -29.11636,1.98708 c -1.45088,0.099 -2.625,-1.17075 -2.625,-2.625 l 0,-20.75604 c 0,-1.45425 1.17075,-2.625 2.625,-2.625 z"/></mask><filter id="filter4929-8" width="1.275" height="1.755" x="-.138" y="-.377" color-interpolation-filters="sRGB"><feGaussianBlur id="feGaussianBlur4931-4" stdDeviation="3.562"/></filter><mask id="mask6894" maskUnits="userSpaceOnUse"><g style="fill:#fff;stroke:#fff;display:inline" id="g6896" transform="matrix(1.1835826,0,0,1.1835826,-75.612218,-74.709881)"><rect style="fill:#fff;fill-opacity:1;stroke:#fff;stroke-width:3.02792978;stroke-linecap:round;stroke-linejoin:round;stroke-miterlimit:4;stroke-opacity:1;stroke-dasharray:none;stroke-dashoffset:0;display:inline" id="rect6898" width="15" height="16.625" x="463.933" y="365.467" rx="2.625" ry="2.625"/><path style="fill:#fff;fill-opacity:1;stroke:#fff;stroke-width:3.02792978;stroke-linecap:round;stroke-linejoin:round;stroke-miterlimit:4;stroke-opacity:1;stroke-dasharray:none;stroke-dashoffset:0" id="path6900" d="m 463.24874,371.54269 31.10344,0 c 1.45425,0 2.625,1.17075 2.625,2.625 l 0,14.39926 c 0,1.45425 -1.21199,2.28111 -2.625,2.625 l -31.10344,7.56983 c -1.413,0.34389 -2.625,-1.17075 -2.625,-2.625 l 0,-21.96909 c 0,-1.45425 1.17075,-2.625 2.625,-2.625 z"/><path style="fill:#fff;stroke:#fff;stroke-width:3.02792978;stroke-linecap:round;stroke-linejoin:round;stroke-miterlimit:4;stroke-opacity:1;stroke-dasharray:none;stroke-dashoffset:0;display:inline" id="path6902" d="m 463.24874,371.6096 31.10344,0 c 1.45425,0 2.625,1.17075 2.625,2.625 l 0,14.33235 c 0,1.45425 -1.21199,2.28111 -2.625,2.625 l -31.10344,7.56983 c -1.413,0.34389 -2.625,-1.17075 -2.625,-2.625 l 0,-21.90218 c 0,-1.45425 1.17075,-2.625 2.625,-2.625 z"/><path style="fill:#fff;stroke:#fff;stroke-width:3.02792978;stroke-linecap:butt;stroke-linejoin:miter;stroke-miterlimit:4;stroke-opacity:1;stroke-dasharray:none" id="path6904" d="m 462.26171,371.52622 20.09375,0"/><g id="g6906" mask="url(#mask4917-3)" style="fill:#fff;stroke:#fff"><rect id="rect6908" width="30.9" height="22.649" x="860.685" y="542.897" rx="2.625" ry="3.718" transform="matrix(1,0,-0.70828043,0.70593118,0,0)" style="opacity:.5;fill:#fff;fill-opacity:1;stroke:#fff;stroke-width:2.38039374;stroke-linecap:round;stroke-linejoin:round;stroke-miterlimit:4;stroke-opacity:1;stroke-dasharray:none;stroke-dashoffset:0;display:inline;filter:url(#filter4929-8)"/></g><rect style="fill:#000;fill-opacity:1;stroke:#000;stroke-width:3.60383272;stroke-linecap:round;stroke-linejoin:round;stroke-miterlimit:4;stroke-opacity:1;stroke-dasharray:none;stroke-dashoffset:0;display:inline" id="rect6910" width="30.237" height="21.543" x="860.685" y="543.433" rx="2.625" ry="3.718" transform="matrix(1,0,-0.70828042,0.70593119,0,0)"/><rect style="fill:#fff;fill-opacity:1;stroke:none;display:inline" id="rect6912" width="48.447" height="6.056" x="456.036" y="370.013"/></g></mask><filter id="filter6914" width="1.54" height="1.27" x="-.27" y="-.135"><feGaussianBlur id="feGaussianBlur6916" stdDeviation="1.609"/></filter><linearGradient id="linearGradient4351"><stop style="stop-color:#d22939;stop-opacity:1" id="stop4353" offset="0"/><stop style="stop-color:#f13f53;stop-opacity:1" id="stop4355" offset="1"/></linearGradient><linearGradient id="linearGradient4325"><stop style="stop-color:#d84e4e;stop-opacity:1" id="stop4327" offset="0"/><stop style="stop-color:#e6878f;stop-opacity:1" id="stop4329" offset="1"/></linearGradient><linearGradient id="linearGradient4331" x1="514.318" x2="514.318" y1="374.206" y2="345.535" gradientTransform="matrix(0.15944736,0,0,0.15944679,-68.363721,-1107.2424)" gradientUnits="userSpaceOnUse" xlink:href="#linearGradient4325"/><linearGradient id="linearGradient2871" x1="507.15" x2="507.15" y1="370.622" y2="349.119" gradientTransform="matrix(0.2325275,0,0,-0.2325275,-105.42631,1133.5421)" gradientUnits="userSpaceOnUse" xlink:href="#linearGradient4351"/><linearGradient id="linearGradient2873" x1="507.15" x2="507.15" y1="370.622" y2="349.119" gradientTransform="matrix(0.23252718,0,0,-0.23252718,-105.42615,1133.5419)" gradientUnits="userSpaceOnUse" xlink:href="#linearGradient4351"/></defs><metadata id="metadata7"/><g id="layer1" transform="translate(0,-1040.3622)"><rect style="fill:url(#linearGradient4030);fill-opacity:1;stroke:none;stroke-width:.27903304" id="rect3978" width="10.731" height="1.385" x=".355" y="1044.412"/><g style="stroke-width:1.42393911" id="g13813" transform="matrix(0.23513646,0,0,0.22877344,-106.87564,959.76321)"><rect style="display:inline;fill:#fdf7eb;fill-opacity:1;stroke:url(#linearGradient3939);stroke-width:4.31158733;stroke-linecap:round;stroke-linejoin:round;stroke-miterlimit:4;stroke-dasharray:none;stroke-dashoffset:0;stroke-opacity:1" id="rect13693-3" width="15" height="16.625" x="463.933" y="365.467" rx="2.625" ry="2.625"/><path style="fill:url(#linearGradient4933);fill-opacity:1;stroke:url(#linearGradient4935);stroke-width:4.31158733;stroke-linecap:round;stroke-linejoin:round;stroke-miterlimit:4;stroke-dasharray:none;stroke-dashoffset:0;stroke-opacity:1" id="rect13693" d="m 463.24874,371.54269 h 31.10344 c 1.45425,0 2.625,1.17075 2.625,2.625 v 14.39926 c 0,1.45425 -1.21199,2.28111 -2.625,2.625 l -31.10344,7.56983 c -1.413,0.34389 -2.625,-1.17075 -2.625,-2.625 v -21.96909 c 0,-1.45425 1.17075,-2.625 2.625,-2.625 z"/><path style="display:inline;fill:none;stroke:url(#linearGradient4795-2);stroke-width:4.31158733;stroke-linecap:round;stroke-linejoin:round;stroke-miterlimit:4;stroke-dasharray:none;stroke-dashoffset:0;stroke-opacity:1" id="rect13693-4" d="m 463.24874,371.6096 h 31.10344 c 1.45425,0 2.625,1.17075 2.625,2.625 v 14.33235 c 0,1.45425 -1.21199,2.28111 -2.625,2.625 l -31.10344,7.56983 c -1.413,0.34389 -2.625,-1.17075 -2.625,-2.625 V 374.2346 c 0,-1.45425 1.17075,-2.625 2.625,-2.625 z"/><path style="fill:none;stroke:url(#linearGradient4867);stroke-width:4.31158733;stroke-linecap:butt;stroke-linejoin:miter;stroke-miterlimit:4;stroke-dasharray:none;stroke-opacity:1" id="path13797" d="m 462.26171,371.52622 h 20.09375"/><g style="stroke-width:1.42393911" id="g4914" mask="url(#mask4917)"><rect id="rect13693-2-2" width="30.9" height="22.649" x="860.685" y="542.897" rx="2.625" ry="3.718" transform="matrix(1,0,-0.70828043,0.70593118,0,0)" style="display:inline;opacity:.5;fill:#000;fill-opacity:1;stroke:#000;stroke-width:3.38953543;stroke-linecap:round;stroke-linejoin:round;stroke-miterlimit:4;stroke-dasharray:none;stroke-dashoffset:0;stroke-opacity:1;filter:url(#filter4929)"/></g><rect style="display:inline;fill:url(#linearGradient4776);fill-opacity:1;stroke:url(#linearGradient4778);stroke-width:5.13163805;stroke-linecap:round;stroke-linejoin:round;stroke-miterlimit:4;stroke-dasharray:none;stroke-dashoffset:0;stroke-opacity:1" id="rect13693-2" width="30.237" height="21.543" x="860.685" y="543.433" rx="2.625" ry="3.718" transform="matrix(1,0,-0.70828042,0.70593119,0,0)"/></g><path style="fill:#60649d;fill-opacity:1;stroke:none;stroke-width:.27903304" id="path4004" d="M 6.0509092,1047.1831 H 3.2030024 v 0.6927 h 0.4025847 v -0.285 h 2.3563261 z"/><g id="g6069" mask="url(#mask6894)" transform="matrix(0.19866502,0,0,0.19328895,-92.578657,974.05117)" style="opacity:.5;stroke-width:1.42393911"><path id="path10927-5-7-3" d="m 508.82144,374.07917 c -0.69798,-0.0658 -1.51784,-0.22288 -2.17618,-0.41688 -1.02159,-0.30105 -0.91981,0.0576 -0.91981,-3.24137 0,-1.72707 0.029,-2.86606 0.0736,-2.88384 0.0404,-0.0162 0.11958,0.005 0.17597,0.0476 0.18285,0.13729 1.11115,0.61247 1.41851,0.72613 0.70341,0.26012 1.75884,0.3924 2.50231,0.31361 1.64812,-0.17464 2.76497,-1.11023 3.32672,-2.78677 0.45299,-1.35198 0.4302,-0.82772 0.47681,-10.97121 l 0.0429,-9.33095 h 3.12846 3.12848 l 0.0232,8.69877 c 0.0241,8.99185 -0.002,10.04427 -0.29307,11.68268 -0.58944,3.32221 -2.25753,5.82206 -4.73055,7.08936 -1.66243,0.85189 -4.07602,1.27111 -6.17731,1.07295 z" style="display:inline;fill:#fff;fill-opacity:1;stroke:#fff;stroke-width:10.2062397;stroke-miterlimit:4;stroke-dasharray:none;filter:url(#filter6914)"/></g><path style="display:inline;fill:#366c9a;fill-opacity:1;stroke-width:.27903304" id="path10927-5-7" d="m 8.4817922,1046.5092 c -0.1603743,-0.013 -0.3487524,-0.043 -0.500018,-0.081 -0.2347286,-0.058 -0.2113438,0.011 -0.2113438,-0.6265 0,-0.3339 0.00666,-0.554 0.016906,-0.5574 0.00928,0 0.027477,9e-4 0.040434,0.01 0.042012,0.027 0.2553064,0.1183 0.3259278,0.1403 0.161622,0.05 0.4041264,0.076 0.5749525,0.061 0.3786853,-0.034 0.6353029,-0.2146 0.7643736,-0.5386 0.1040826,-0.2613 0.098848,-0.16 0.1095558,-2.1206 l 0.00985,-1.8036 h 0.7188219 0.718826 l 0.0053,1.6814 c 0.0055,1.738 -3.97e-4,1.9414 -0.06734,2.2581 -0.135436,0.6421 -0.518711,1.1253 -1.0869329,1.3703 -0.3819732,0.1647 -0.9365407,0.2457 -1.4193503,0.2074 z"/><rect style="display:inline;opacity:.756;fill:none;fill-opacity:1;stroke:#fff;stroke-width:1;stroke-linecap:round;stroke-linejoin:miter;stroke-miterlimit:4;stroke-dasharray:none;stroke-dashoffset:0;stroke-opacity:1" id="rect4323-4" width="5" height="5" x="9.5" y="-1051.862" transform="scale(1,-1)"/><rect style="opacity:1;fill:#fffbf0;fill-opacity:1;stroke:url(#linearGradient4331);stroke-width:1.00000012;stroke-linecap:round;stroke-linejoin:miter;stroke-miterlimit:4;stroke-dasharray:none;stroke-dashoffset:0;stroke-opacity:1" id="rect4323" width="4" height="4" x="10.5" y="-1051.862" transform="scale(1,-1)"/><path id="path2869" d="m 12.5,1052.3622 v -5" style="display:inline;fill:none;fill-rule:evenodd;stroke:url(#linearGradient2873);stroke-width:1;stroke-linecap:butt;stroke-linejoin:miter;stroke-miterlimit:4;stroke-dasharray:none;stroke-opacity:1"/><path id="path4333-6" d="m 10,1049.8622 h 5" style="display:inline;fill:none;fill-rule:evenodd;stroke:url(#linearGradient2871);stroke-width:1;stroke-linecap:butt;stroke-linejoin:miter;stroke-miterlimit:4;stroke-dasharray:none;stroke-opacity:1"/></g></svg>