<svg xmlns="http://www.w3.org/2000/svg" xmlns:svg="http://www.w3.org/2000/svg" xmlns:xlink="http://www.w3.org/1999/xlink" id="svg2" width="15" height="12" version="1.1"><defs id="defs4"><linearGradient id="linearGradient4866"><stop style="stop-color:#a17748;stop-opacity:1" id="stop4868" offset="0"/><stop id="stop4870" offset=".5" style="stop-color:#8e5c24;stop-opacity:1"/><stop style="stop-color:#c7af93;stop-opacity:1" id="stop4872" offset="1"/></linearGradient><linearGradient id="linearGradient7302" x1="388.637" x2="388.637" y1="478.188" y2="459.248" gradientTransform="matrix(0.4140292,0,0,0.4140292,-154.69509,851.49834)" gradientUnits="userSpaceOnUse" xlink:href="#linearGradient4866"/></defs><metadata id="metadata7"/><g id="layer1" transform="translate(0,-1040.3622)"><circle id="path10796-2-6-2" cx="6" cy="1045.362" r="4.399" style="font-style:normal;font-weight:400;font-size:13.58917427px;line-height:125%;font-family:Sans;letter-spacing:0;word-spacing:0;display:inline;fill:url(#linearGradient7302);fill-opacity:1;stroke:#905e27;stroke-width:1.20187926;stroke-linecap:round;stroke-linejoin:round;stroke-miterlimit:4;stroke-dasharray:none;stroke-dashoffset:0;stroke-opacity:1"/><rect id="rect7222-7" width="4" height="1" x="1043.362" y="-8" transform="rotate(90)" style="font-style:normal;font-weight:400;font-size:13.58917427px;line-height:125%;font-family:Sans;letter-spacing:0;word-spacing:0;display:inline;fill:#fff;fill-opacity:1;stroke:none;stroke-width:.99999994"/><rect id="rect7222-7-2" width="4" height="1" x="1043.362" y="-5" transform="rotate(90)" style="font-style:normal;font-weight:400;font-size:13.58917427px;line-height:125%;font-family:Sans;letter-spacing:0;word-spacing:0;display:inline;fill:#fff;fill-opacity:1;stroke:none;stroke-width:.99999982"/><rect id="rect7222-7-2-7" width="2.3" height="1" x="732.783" y="-743.755" transform="rotate(135)" style="font-style:normal;font-weight:400;font-size:13.58917427px;line-height:125%;font-family:Sans;letter-spacing:0;word-spacing:0;display:inline;fill:#fff;fill-opacity:1;stroke:none;stroke-width:1"/><rect id="rect7222-7-2-7-1" width="2.482" height="1" x="-743.751" y="-735.237" transform="rotate(-135)" style="font-style:normal;font-weight:400;font-size:13.58917427px;line-height:125%;font-family:Sans;letter-spacing:0;word-spacing:0;display:inline;fill:#fff;fill-opacity:1;stroke:none;stroke-width:.99999988"/><g style="stroke-width:1.39999998" id="layer1-1" transform="matrix(0.71428571,0,0,0.71428571,10,294.3892)"><rect id="rect3335-1" width="7" height="8.4" x="0" y="1044.362" style="opacity:1;fill:#fff;fill-opacity:1;stroke:none;stroke-width:1.95999992;stroke-opacity:1"/><path id="path4147-5" d="m 2.0146,1052.5144 c -0.036184,-1.347 1.64e-4,-4.5342 1.64e-4,-5.085 v -1.2436 c 0,-0.519 0.5217335,-1.1906 0.9870261,-1.1906 h 0.9870261 c 0.7331739,0 1.0089599,0.951 1.0089599,1.2701 0,0 -0.00504,0.3426 0,1.0565 0.00214,0.304 -0.1585054,1.2937 -0.8989014,1.3064 -0.5025737,0.012 -1.6756952,0.041 -1.6756952,0.041" style="fill:none;fill-rule:evenodd;stroke:#366c9a;stroke-width:1.25999975;stroke-linecap:butt;stroke-linejoin:miter;stroke-miterlimit:4;stroke-dasharray:none;stroke-opacity:1"/><path id="path4576" d="m 3.2470428,1048.5199 c 0,0 0.4887146,1.032 1.1751151,2.0617 0.552245,0.8283 0.7840731,1.5337 0.8065528,1.9306 l 0.00519,0.092" style="fill:none;fill-rule:evenodd;stroke:#366c9a;stroke-width:1.39999998px;stroke-linecap:butt;stroke-linejoin:miter;stroke-opacity:1"/></g></g></svg>