<svg xmlns="http://www.w3.org/2000/svg" xmlns:svg="http://www.w3.org/2000/svg" xmlns:xlink="http://www.w3.org/1999/xlink" id="svg2" width="15" height="12" version="1.1"><defs id="defs4"><linearGradient id="linearGradient4866"><stop style="stop-color:#a17748;stop-opacity:1" id="stop4868" offset="0"/><stop id="stop4870" offset=".5" style="stop-color:#8e5c24;stop-opacity:1"/><stop style="stop-color:#c7af93;stop-opacity:1" id="stop4872" offset="1"/></linearGradient><linearGradient id="linearGradient7302" x1="388.637" x2="388.637" y1="478.188" y2="459.248" gradientTransform="matrix(0.4140292,0,0,0.4140292,-154.69509,851.49834)" gradientUnits="userSpaceOnUse" xlink:href="#linearGradient4866"/></defs><metadata id="metadata7"/><g id="layer1" transform="translate(0,-1040.3622)"><circle id="path10796-2-6-2" cx="6" cy="1045.362" r="4.399" style="font-style:normal;font-weight:400;font-size:13.58917427px;line-height:125%;font-family:Sans;letter-spacing:0;word-spacing:0;display:inline;fill:url(#linearGradient7302);fill-opacity:1;stroke:#905e27;stroke-width:1.20187926;stroke-linecap:round;stroke-linejoin:round;stroke-miterlimit:4;stroke-dasharray:none;stroke-dashoffset:0;stroke-opacity:1"/><rect id="rect7222-7" width="4" height="1" x="1043.362" y="-8" transform="rotate(90)" style="font-style:normal;font-weight:400;font-size:13.58917427px;line-height:125%;font-family:Sans;letter-spacing:0;word-spacing:0;display:inline;fill:#fff;fill-opacity:1;stroke:none;stroke-width:.99999994"/><rect id="rect7222-7-2" width="4" height="1" x="1043.362" y="-5" transform="rotate(90)" style="font-style:normal;font-weight:400;font-size:13.58917427px;line-height:125%;font-family:Sans;letter-spacing:0;word-spacing:0;display:inline;fill:#fff;fill-opacity:1;stroke:none;stroke-width:.99999982"/><rect id="rect7222-7-2-7" width="2.3" height="1" x="732.783" y="-743.755" transform="rotate(135)" style="font-style:normal;font-weight:400;font-size:13.58917427px;line-height:125%;font-family:Sans;letter-spacing:0;word-spacing:0;display:inline;fill:#fff;fill-opacity:1;stroke:none;stroke-width:1"/><rect id="rect7222-7-2-7-1" width="2.482" height="1" x="-743.751" y="-735.237" transform="rotate(-135)" style="font-style:normal;font-weight:400;font-size:13.58917427px;line-height:125%;font-family:Sans;letter-spacing:0;word-spacing:0;display:inline;fill:#fff;fill-opacity:1;stroke:none;stroke-width:.99999988"/><g style="stroke-width:1.39999998" id="layer1-1" transform="matrix(0.71428571,0,0,0.71428571,10,294.3892)"><rect id="rect3335" width="7" height="8.323" x="0" y="1044.362" style="opacity:1;fill:#fff;fill-opacity:1;stroke:none;stroke-width:1.95999992;stroke-opacity:1"/><path id="path4147" d="m 2.0321988,1050.3414 v 0.6663 c 0,0.8316 0.4986317,1.1245 0.9705953,1.1245 h 0.94307 c 0.4831821,0 1.0079227,-0.6392 1.0079227,-1.2257 v -1.1894 c 0,-0.5111 -0.4281752,-1.1106 -0.9133456,-1.1106 H 3.0136029 c -0.4636692,0 -0.983603,-0.6488 -0.983603,-1.196 v -1.2354 c 0,-0.5156 0.5142106,-1.1829 0.9727942,-1.1829 h 0.9727941 c 0.7226024,0 0.9944119,1.0564 0.9944119,1.2618 v 0.5665" style="fill:none;fill-opacity:1;fill-rule:evenodd;stroke:#366c9a;stroke-width:1.25999987;stroke-linecap:butt;stroke-linejoin:miter;stroke-miterlimit:4;stroke-dasharray:none;stroke-opacity:1"/></g></g></svg>