<svg xmlns="http://www.w3.org/2000/svg" xmlns:svg="http://www.w3.org/2000/svg" xmlns:xlink="http://www.w3.org/1999/xlink" id="svg2" width="16" height="16" version="1.1"><defs id="defs4"><linearGradient id="linearGradient4894"><stop id="stop4896" offset="0" style="stop-color:#b4d1e5;stop-opacity:1"/><stop style="stop-color:#5395be;stop-opacity:1" id="stop4898" offset=".5"/><stop id="stop4900" offset="1" style="stop-color:#91bcd7;stop-opacity:1"/></linearGradient><linearGradient id="linearGradient4806"><stop style="stop-color:#fffccb;stop-opacity:1" id="stop4808" offset="0"/><stop id="stop4816" offset=".5" style="stop-color:#ccc776;stop-opacity:1"/><stop style="stop-color:#fffcc6;stop-opacity:1" id="stop4810" offset="1"/></linearGradient><linearGradient id="linearGradient4812" x1="8.738" x2="8.738" y1="2.155" y2="6.872" gradientUnits="userSpaceOnUse" xlink:href="#linearGradient4806"/><linearGradient id="linearGradient4806-7"><stop style="stop-color:#ffbfbf;stop-opacity:1" id="stop4808-4" offset="0"/><stop id="stop4816-0" offset=".5" style="stop-color:#d66262;stop-opacity:1"/><stop style="stop-color:#ffa8a8;stop-opacity:1" id="stop4810-9" offset="1"/></linearGradient><linearGradient id="linearGradient4834" x1="8.738" x2="8.738" y1="2.155" y2="6.872" gradientUnits="userSpaceOnUse" xlink:href="#linearGradient4806-7"/><linearGradient id="linearGradient4871" x1="8.738" x2="8.738" y1="2.155" y2="6.872" gradientUnits="userSpaceOnUse" xlink:href="#linearGradient4894"/></defs><metadata id="metadata7"/><g id="layer1" transform="translate(0,-1036.3622)" style="display:inline"><path style="fill:url(#linearGradient4812);fill-opacity:1;stroke:#a5a036;stroke-width:.93798537999999998;stroke-miterlimit:4;stroke-opacity:1;stroke-dasharray:none" id="path4035" d="m 11.343751,4.499999 c 0,1.553301 -1.259199,2.8125003 -2.8125,2.8125003 -1.553301,0 -2.8125003,-1.2591993 -2.8125003,-2.8125003 0,-1.5533009 1.2591993,-2.8125002 2.8125003,-2.8125002 1.553301,0 2.8125,1.2591993 2.8125,2.8125002 z" transform="matrix(1.0661147,0,0,1.0661147,-0.59529061,1036.0648)"/><path style="fill:url(#linearGradient4834);fill-opacity:1;stroke:#720000;stroke-width:.93798536;stroke-miterlimit:4;stroke-opacity:1;stroke-dasharray:none;display:inline" id="path4035-4" d="m 11.343751,4.499999 c 0,1.553301 -1.259199,2.8125003 -2.8125,2.8125003 -1.553301,0 -2.8125003,-1.2591993 -2.8125003,-2.8125003 0,-1.5533009 1.2591993,-2.8125002 2.8125003,-2.8125002 1.553301,0 2.8125,1.2591993 2.8125,2.8125002 z" transform="matrix(1.0661147,0,0,1.0661147,3.4047096,1043.0648)"/><path style="fill:url(#linearGradient4871);fill-opacity:1;stroke:#244a6e;stroke-width:.93798535999999999;stroke-miterlimit:4;stroke-opacity:1;stroke-dasharray:none;display:inline" id="path4035-4-5" d="m 11.343751,4.499999 c 0,1.553301 -1.259199,2.8125003 -2.8125,2.8125003 -1.553301,0 -2.8125003,-1.2591993 -2.8125003,-2.8125003 0,-1.5533009 1.2591993,-2.8125002 2.8125003,-2.8125002 1.553301,0 2.8125,1.2591993 2.8125,2.8125002 z" transform="matrix(1.0661147,0,0,1.0661147,-4.59529,1043.0648)"/></g></svg>