<svg xmlns="http://www.w3.org/2000/svg" xmlns:svg="http://www.w3.org/2000/svg" xmlns:xlink="http://www.w3.org/1999/xlink" id="svg2" width="16" height="16" version="1.1"><defs id="defs4"><linearGradient id="linearGradient28456"><stop style="stop-color:#17325d;stop-opacity:1" id="stop28458" offset="0"/><stop style="stop-color:#9daeca;stop-opacity:1" id="stop28460" offset="1"/></linearGradient><linearGradient id="linearGradient28432"><stop style="stop-color:#5c7aaa;stop-opacity:1" id="stop28434" offset="0"/><stop style="stop-color:#9dafcc;stop-opacity:1" id="stop28436" offset="1"/></linearGradient><linearGradient id="linearGradient5591-4"><stop style="stop-color:#e0e566;stop-opacity:1" id="stop5593-0" offset="0"/><stop style="stop-color:#82c448;stop-opacity:1" id="stop5595-5" offset="1"/></linearGradient><linearGradient id="linearGradient5583-2"><stop style="stop-color:#426e4a;stop-opacity:1" id="stop5585-3" offset="0"/><stop style="stop-color:#669f71;stop-opacity:1" id="stop5587-3" offset="1"/></linearGradient><linearGradient id="linearGradient5618" x1="2.031" x2="2.031" y1="6.94" y2="9.144" gradientTransform="matrix(1.1258247,0,0,1.1258247,2.8794478,1039.223)" gradientUnits="userSpaceOnUse" xlink:href="#linearGradient5591-4"/><linearGradient id="linearGradient5620" x1="2.031" x2="2.031" y1="9.144" y2="4.672" gradientTransform="matrix(1.1258247,0,0,1.1258247,2.8794478,1039.223)" gradientUnits="userSpaceOnUse" xlink:href="#linearGradient5583-2"/><linearGradient id="linearGradient28438" x1="1.047" x2="6.731" y1="10.277" y2="10.409" gradientUnits="userSpaceOnUse" xlink:href="#linearGradient28432"/><linearGradient id="linearGradient28462" x1="27.221" x2="32.662" y1="11.072" y2="15.713" gradientTransform="translate(-15.842039,1035.8113)" gradientUnits="userSpaceOnUse" xlink:href="#linearGradient28456"/><linearGradient id="linearGradient28528-04"><stop style="stop-color:#fff3d6;stop-opacity:1" id="stop28530-1" offset="0"/><stop id="stop28532-9" offset=".555" style="stop-color:#fbe19f;stop-opacity:1"/><stop style="stop-color:#f8d888;stop-opacity:1" id="stop28534-9" offset="1"/></linearGradient><linearGradient id="linearGradient4935-9-2-05"><stop id="stop4937-5-7-6" offset="0" style="stop-color:#bc7f32;stop-opacity:1"/><stop id="stop4939-3-1-2" offset="1" style="stop-color:#a37840;stop-opacity:1"/></linearGradient><linearGradient id="linearGradient28613" x1="-17.95" x2="-17.95" y1="1062.508" y2="1055.16" gradientTransform="matrix(-0.44806739,0,0,-0.41105878,33.299715,1487.0648)" gradientUnits="userSpaceOnUse" xlink:href="#linearGradient28528-04"/><linearGradient id="linearGradient28615" x1="-17.95" x2="-9.604" y1="1055.16" y2="1059.978" gradientTransform="matrix(-0.44806739,0,0,-0.41105878,33.299715,1487.0648)" gradientUnits="userSpaceOnUse" xlink:href="#linearGradient4935-9-2-05"/><linearGradient id="linearGradient28528-04-6"><stop style="stop-color:#fff3d6;stop-opacity:1" id="stop28530-1-2" offset="0"/><stop id="stop28532-9-6" offset=".555" style="stop-color:#fbe19f;stop-opacity:1"/><stop style="stop-color:#f8d888;stop-opacity:1" id="stop28534-9-2" offset="1"/></linearGradient><linearGradient id="linearGradient4935-9-2-05-9"><stop id="stop4937-5-7-6-4" offset="0" style="stop-color:#bc7f32;stop-opacity:1"/><stop id="stop4939-3-1-2-4" offset="1" style="stop-color:#a37840;stop-opacity:1"/></linearGradient><linearGradient id="linearGradient28666" x1="-17.95" x2="-17.95" y1="1062.508" y2="1055.16" gradientTransform="matrix(-0.4478532,0,0,-0.41345568,28.037361,1488.7089)" gradientUnits="userSpaceOnUse" xlink:href="#linearGradient28528-04-6"/><linearGradient id="linearGradient28668" x1="-17.95" x2="-9.604" y1="1055.16" y2="1059.978" gradientTransform="matrix(-0.4478532,0,0,-0.41345568,28.037361,1488.7089)" gradientUnits="userSpaceOnUse" xlink:href="#linearGradient4935-9-2-05-9"/></defs><metadata id="metadata7"/><g id="layer1" transform="translate(0,-1036.3622)" style="display:inline"><g id="g28440" transform="translate(-0.56249998,-0.37499998)"><g id="g28426" style="stroke-width:.69999999;stroke-miterlimit:4;stroke-dasharray:none"><path style="fill:none;stroke:#5c7aaa;stroke-width:.69999999;stroke-linecap:butt;stroke-linejoin:miter;stroke-miterlimit:4;stroke-opacity:1;stroke-dasharray:none;display:inline" id="path28406-0" d="m 4.0658638,1042.1091 0,6.5407 5.3033006,0"/><path style="fill:none;stroke:#5c7aaa;stroke-width:.69999999;stroke-linecap:butt;stroke-linejoin:miter;stroke-miterlimit:4;stroke-opacity:1;stroke-dasharray:none" id="path28406" d="m 4.0658638,4.5979037 0,6.5407373 5.3033006,0" transform="translate(0,1036.3622)"/></g><path id="path28430" d="m 3.6239221,7.8499665 6.4296019,0 0,4.9680535" transform="translate(0,1036.3622)" style="fill:none;stroke:url(#linearGradient28438);stroke-width:1px;stroke-linecap:butt;stroke-linejoin:miter;stroke-opacity:1"/></g><path style="fill:url(#linearGradient5618);fill-opacity:1;stroke:url(#linearGradient5620);stroke-width:1;stroke-linecap:butt;stroke-linejoin:miter;stroke-miterlimit:4;stroke-opacity:1;stroke-dasharray:none;display:inline" id="path5581" d="m 3.6536582,1044.8636 2.0720134,0 0,1.9939 1.8453995,0 0,2.0408 -1.9509457,0 0,1.9743 -1.9664672,0 0,-1.9743 -2.0407632,0 0,-2.0057 2.0055812,0 z"/><g style="display:inline" id="layer1-7" transform="matrix(1.1463609,0,0,1.1463609,-37.415318,-164.64974)"><path id="path4887-8-4-7-5" d="m 38.193419,1048.9801 c 0,0 0.860975,-0.074 0.860975,0.6669 -0.04742,1.1428 0.03358,2.7783 0.03358,2.7783 l -5.111673,-0.011 c 0,0 0.02107,-1.9607 0.02109,-2.1218 -0.01978,0.5574 0,-0.407 0,-1.0506 0,-0.6435 0.252857,-1.0849 0.965913,-1.0713 1.217232,0 0.816241,-0.016 0.816241,-0.016 0.952688,0 1.61965,-0.011 1.61965,0.816 z" style="fill:url(#linearGradient28666);fill-opacity:1;stroke:url(#linearGradient28668);stroke-width:.91754627;stroke-linecap:butt;stroke-linejoin:miter;stroke-miterlimit:4;stroke-opacity:1;stroke-dasharray:none;display:inline"/><path id="path4887-8-4-7" d="m 43.406111,1049.7498 c 0,0 0.861386,-0.073 0.861386,0.663 -0.04744,1.1362 0.08812,2.8977 0.08812,2.8977 l -5.114116,-0.011 c 0,0 0.02108,-1.9494 0.0211,-2.1095 -0.01979,0.5542 0,-0.4047 0,-1.0445 0,-0.6398 0.252978,-1.0786 0.966375,-1.0651 1.217815,0 0.816632,-0.015 0.816632,-0.015 0.953144,0 1.565904,-0.146 1.565904,0.6758 z" style="fill:url(#linearGradient28613);fill-opacity:1;stroke:url(#linearGradient28615);stroke-width:.91510159;stroke-linecap:butt;stroke-linejoin:miter;stroke-miterlimit:4;stroke-opacity:1;stroke-dasharray:none;display:inline"/></g><rect style="color:#000;fill:#fff;fill-opacity:1;stroke:url(#linearGradient28462);stroke-width:1;stroke-linecap:butt;stroke-linejoin:miter;stroke-miterlimit:4;stroke-opacity:1;stroke-dasharray:none;stroke-dashoffset:0;marker:none;visibility:visible;display:inline;overflow:visible;enable-background:accumulate" id="rect28446" width="6.075" height="6.035" x="9.417" y="1044.848"/><path style="fill:#17325d;fill-opacity:1;stroke:none;display:inline" id="path3986" d="m 15.932685,1050.6702 -0.689928,0.7034 -2.756073,-2.7881 -1.379845,1.4067 -0.392778,-3.7177 3.724297,0.2863 -1.295713,1.3212 z"/></g></svg>