<svg xmlns="http://www.w3.org/2000/svg" xmlns:svg="http://www.w3.org/2000/svg" xmlns:xlink="http://www.w3.org/1999/xlink" id="svg2" width="16" height="16" version="1.1"><defs id="defs4"><linearGradient id="linearGradient3823"><stop id="stop3825" offset="0" style="stop-color:#694337;stop-opacity:1"/><stop style="stop-color:#44261d;stop-opacity:1" id="stop3831" offset=".5"/><stop id="stop3827" offset="1" style="stop-color:#694337;stop-opacity:1"/></linearGradient><linearGradient id="linearGradient4943"><stop id="stop4945" offset="0" style="stop-color:#bc7f32;stop-opacity:1"/><stop id="stop4947" offset="1" style="stop-color:#7b6244;stop-opacity:1"/></linearGradient><linearGradient id="linearGradient4935"><stop id="stop4937" offset="0" style="stop-color:#bc7f32;stop-opacity:1"/><stop id="stop4939" offset="1" style="stop-color:#a37840;stop-opacity:1"/></linearGradient><linearGradient id="linearGradient4916"><stop id="stop4918" offset="0" style="stop-color:#ffeab6;stop-opacity:1"/><stop id="stop4921" offset="1" style="stop-color:#f8d888;stop-opacity:1"/></linearGradient><linearGradient id="linearGradient5591-4"><stop id="stop5593-0" offset="0" style="stop-color:#e0e566;stop-opacity:1"/><stop id="stop5595-5" offset="1" style="stop-color:#82c448;stop-opacity:1"/></linearGradient><linearGradient id="linearGradient5583-2"><stop id="stop5585-3" offset="0" style="stop-color:#426e4a;stop-opacity:1"/><stop id="stop5587-3" offset="1" style="stop-color:#669f71;stop-opacity:1"/></linearGradient><linearGradient id="linearGradient11146-4-4-3"><stop id="stop11150-4-72-2" offset="0" style="stop-color:#faefba;stop-opacity:1"/><stop style="stop-color:#9e6542;stop-opacity:1" id="stop11152-9-0-2" offset="1"/></linearGradient><linearGradient id="linearGradient11146-8-3-2-5"><stop id="stop11150-7-5-9-0" offset="0" style="stop-color:#faefba;stop-opacity:1"/><stop style="stop-color:#9e6542;stop-opacity:1" id="stop11152-8-4-35-4" offset="1"/></linearGradient><linearGradient id="linearGradient11146-7-5-30-9"><stop id="stop11150-9-6-9-9" offset="0" style="stop-color:#faefba;stop-opacity:1"/><stop style="stop-color:#9e6542;stop-opacity:1" id="stop11152-6-7-6-1" offset="1"/></linearGradient><linearGradient id="linearGradient11146-8-7-5-7-9"><stop id="stop11150-7-8-3-8-47" offset="0" style="stop-color:#faefba;stop-opacity:1"/><stop style="stop-color:#9e6542;stop-opacity:1" id="stop11152-8-8-6-3-4" offset="1"/></linearGradient><linearGradient id="linearGradient5099" x1="-18.015" x2="-18.015" y1="1056.339" y2="1061.313" gradientTransform="translate(3.7499998,-16.499999)" gradientUnits="userSpaceOnUse" xlink:href="#linearGradient4916"/><linearGradient id="linearGradient5101" x1="-18.015" x2="-9.604" y1="1061.313" y2="1059.978" gradientTransform="translate(3.7499998,-16.499999)" gradientUnits="userSpaceOnUse" xlink:href="#linearGradient4935"/><linearGradient id="linearGradient5111" x1="-10.678" x2="-13.058" y1="1063.509" y2="1061.874" gradientTransform="translate(4.0937498,-16.374999)" gradientUnits="userSpaceOnUse" xlink:href="#linearGradient4916"/><linearGradient id="linearGradient5113" x1="-13.058" x2="-14.473" y1="1061.874" y2="1065.144" gradientTransform="translate(4.0937498,-16.374999)" gradientUnits="userSpaceOnUse" xlink:href="#linearGradient4943"/><linearGradient id="linearGradient3829" x1="357.924" x2="392.091" y1="450.04" y2="450.04" gradientUnits="userSpaceOnUse" xlink:href="#linearGradient3823"/><linearGradient id="linearGradient3839" x1="374.879" x2="375.453" y1="465.641" y2="435.865" gradientUnits="userSpaceOnUse" xlink:href="#linearGradient3823"/><linearGradient id="linearGradient3881" x1="2.031" x2="2.031" y1="6.94" y2="9.144" gradientTransform="matrix(1.0149052,0,0,1.0149052,-16.211443,1039.9483)" gradientUnits="userSpaceOnUse" xlink:href="#linearGradient5591-4"/><linearGradient id="linearGradient3883" x1="2.031" x2="2.031" y1="9.144" y2="4.672" gradientTransform="matrix(1.0149052,0,0,1.0149052,-16.211443,1039.9483)" gradientUnits="userSpaceOnUse" xlink:href="#linearGradient5583-2"/><linearGradient id="linearGradient4222" x1="388.081" x2="393.749" y1="442.791" y2="448.809" gradientUnits="userSpaceOnUse" xlink:href="#linearGradient11146-4-4-3"/><linearGradient id="linearGradient4224" x1="398.56" x2="404.149" y1="442.712" y2="448.017" gradientUnits="userSpaceOnUse" xlink:href="#linearGradient11146-8-3-2-5"/><linearGradient id="linearGradient4228" x1="398.401" x2="404.387" y1="453.587" y2="458.972" gradientUnits="userSpaceOnUse" xlink:href="#linearGradient11146-8-7-5-7-9"/><linearGradient id="linearGradient4230" x1="387.843" x2="393.432" y1="453.507" y2="458.892" gradientUnits="userSpaceOnUse" xlink:href="#linearGradient11146-7-5-30-9"/></defs><metadata id="metadata7"/><g style="display:inline" id="layer1" transform="translate(0,-1036.3622)"><g id="g5082" transform="translate(18.738328,0)"><g id="g5028" transform="translate(0.34374998,0.12499999)"><path id="path4887" d="m -7.8951641,1038.727 c 0,0 1.5909899,0.088 1.5909899,1.8783 l 0,3.271 m -5.7452428,-5.1493 c 0,0 -1.225408,0.017 -1.844114,0.017 -1.482835,0 -3.702254,1.0346 -3.702254,2.5911 0,1.5565 -0.04419,6.1872 0,6.8943 l 11.2445241,-0.015 0.047087,-4.3385" style="fill:url(#linearGradient5099);fill-opacity:1;stroke:url(#linearGradient5101);stroke-width:1;stroke-linecap:butt;stroke-linejoin:miter;stroke-miterlimit:4;stroke-dasharray:none;stroke-opacity:1"/><rect id="rect3885" width="1.03" height="7.074" x="-12.066" y="1039.154" ry="0" style="fill:#fff;fill-opacity:1;stroke:none"/><path style="opacity:.11522636;fill:none;stroke:#ba7f33;stroke-width:1px;stroke-linecap:butt;stroke-linejoin:miter;stroke-opacity:1;display:inline" id="path5012" d="m -17.374999,1040.6747 10.749999,0"/><path style="fill:#fff;fill-opacity:.67123287;stroke:none;display:inline" id="path5014" d="m -11.490485,1040.1204 4.640388,0 c 0,0 -0.220971,-0.9723 -1.5467957,-0.9281 -1.3258251,0.044 -5.7639293,0 -5.7639293,0 0,0 -1.846352,0.088 -2.023128,0.9281 2.784233,0 4.693465,0 4.693465,0 z"/></g><g style="display:inline" id="g11260-4-3" transform="matrix(0.27903303,0,0,0.27903303,-111.87997,916.3364)"><rect id="rect10961-8-9" width="10.875" height="10.875" x="384.25" y="439.175" transform="translate(-20.000002,2.6171874e-6)" style="fill:url(#linearGradient4222);fill-opacity:1;stroke:#824719;stroke-width:3.58380508;stroke-linecap:round;stroke-linejoin:round;stroke-miterlimit:4;stroke-opacity:1;stroke-dasharray:none;stroke-dashoffset:0;display:inline"/><rect id="rect10961-9-0-0" width="10.875" height="10.875" x="395.125" y="439.175" transform="translate(-20.000002,2.6171874e-6)" style="fill:url(#linearGradient4224);fill-opacity:1;stroke:#824719;stroke-width:3.58380508;stroke-linecap:round;stroke-linejoin:round;stroke-miterlimit:4;stroke-opacity:1;stroke-dasharray:none;stroke-dashoffset:0;display:inline"/><rect id="rect10961-3-9-3" width="10.875" height="10.875" x="384.25" y="450.05" transform="translate(-20.000002,2.6171874e-6)" style="fill:url(#linearGradient4230);fill-opacity:1;stroke:#824719;stroke-width:3.58380508;stroke-linecap:round;stroke-linejoin:round;stroke-miterlimit:4;stroke-opacity:1;stroke-dasharray:none;stroke-dashoffset:0;display:inline"/><rect id="rect10961-9-6-4-0" width="10.875" height="10.875" x="395.125" y="450.05" transform="translate(-20.000002,2.6171874e-6)" style="fill:url(#linearGradient4228);fill-opacity:1;stroke:#824719;stroke-width:3.58380508;stroke-linecap:round;stroke-linejoin:round;stroke-miterlimit:4;stroke-opacity:1;stroke-dasharray:none;stroke-dashoffset:0;display:inline"/><path style="fill:none;stroke:url(#linearGradient3839);stroke-width:3.58380507999999987;stroke-linecap:butt;stroke-linejoin:miter;stroke-miterlimit:4;stroke-opacity:1;stroke-dasharray:none;display:inline" id="path11108-8-0-8" d="m 375.00752,434.74862 0,30.58237"/><path style="fill:none;stroke:url(#linearGradient3829);stroke-width:3.58380507999999987;stroke-linecap:butt;stroke-linejoin:miter;stroke-miterlimit:4;stroke-opacity:1;stroke-dasharray:none" id="path11108-6-0" d="m 359.71634,450.03981 30.58237,0"/></g><path style="fill:url(#linearGradient5111);fill-opacity:1;stroke:url(#linearGradient5113);stroke-width:1;stroke-linecap:butt;stroke-linejoin:miter;stroke-miterlimit:4;stroke-opacity:1;stroke-dasharray:none;display:inline" id="path4887-8" d="m -12.611647,1044.0594 -0.04419,0.01 8.3526978,0 c 0,0 2.077126,-0.221 1.06066,1.1048 -1.016466,1.3258 -3.3587564,3.7565 -3.3587564,3.7565 -3.4017954,0 -7.9234814,-0.044 -10.6066014,-0.044 0,-1.5305 -0.04419,-4.6846 -0.04419,-4.6846"/><path style="fill:none;stroke:#bc7f32;stroke-width:1px;stroke-linecap:butt;stroke-linejoin:miter;stroke-opacity:1" id="path4933" d="m -12.44064,1043.9872 c -0.25,0 -4.774318,4.3765 -4.774318,4.3765"/><g id="g3875" transform="translate(0,1.0037913)"><path id="rect3934" d="M 2.5 8.5 L 2.46875 10.5 L 1.46875 10.5 L 1.46875 12.5625 L 3.4375 12.5625 L 3.4375 13.03125 L 5.4375 13.03125 L 5.4375 12.5625 L 8.5 12.5625 L 8.5 10.46875 L 6.5 10.46875 L 6.5 8.5 L 2.5 8.5 z" transform="translate(-18.738328,1035.3584)" style="fill:#fff;fill-opacity:1;stroke:#fff;stroke-width:1;stroke-linejoin:round;stroke-miterlimit:4;stroke-opacity:1;stroke-dasharray:none"/><path id="path5581" d="m -15.259969,1044.8643 2.093241,0 0,1.9664 2.029811,0 0,2.0932 -2.124957,0 0,1.9366 -1.998095,0 0,-1.9366 -1.968242,0 0,-2.0614 1.936527,0 z" style="fill:url(#linearGradient3881);fill-opacity:1;stroke:url(#linearGradient3883);stroke-width:1;stroke-linecap:butt;stroke-linejoin:miter;stroke-miterlimit:4;stroke-opacity:1;stroke-dasharray:none;display:inline"/></g></g></g></svg>