<svg xmlns="http://www.w3.org/2000/svg" xmlns:svg="http://www.w3.org/2000/svg" id="svg2" width="7" height="8" version="1.1"><metadata id="metadata7"/><g id="layer1" transform="translate(0,-1044.3622)" style="display:inline"><g style="display:inline" id="g8472" transform="matrix(0.9346781,0,0,0.9346781,-14.571811,69.044514)"><rect style="fill:#d8424f;fill-opacity:1;stroke:none" id="rect4244" width="7.489" height="8.559" x="15.59" y="1043.48"/><path style="font-size:7.68999243px;font-style:normal;font-variant:normal;font-weight:400;font-stretch:normal;text-indent:0;text-align:start;text-decoration:none;line-height:125%;letter-spacing:0;word-spacing:0;text-transform:none;direction:ltr;block-progression:tb;writing-mode:lr-tb;text-anchor:start;baseline-shift:baseline;color:#000;fill:#fff;fill-opacity:1;fill-rule:nonzero;stroke:none;stroke-width:.27519909;marker:none;visibility:visible;display:inline;overflow:visible;enable-background:accumulate;font-family:Sans;-inkscape-font-specification:Sans" id="path4187" d="M 1.25 1.78125 L 1.25 1.90625 L 1.25 2.40625 L 1.25 2.53125 L 1.375 2.53125 L 1.75 2.53125 L 2.9375 3.9375 L 1.71875 5.46875 L 1.375 5.46875 L 1.25 5.46875 L 1.25 5.59375 L 1.25 6.09375 L 1.25 6.21875 L 1.375 6.21875 L 2.875 6.21875 L 3 6.21875 L 3 6.09375 L 3 5.59375 L 3 5.46875 L 2.875 5.46875 L 3.5 4.625 L 4.125 5.46875 L 4 5.46875 L 4 5.59375 L 4 6.09375 L 4 6.21875 L 4.125 6.21875 L 5.625 6.21875 L 5.75 6.21875 L 5.75 6.09375 L 5.75 5.59375 L 5.75 5.46875 L 5.625 5.46875 L 5.3125 5.46875 L 4.0625 3.90625 L 5.21875 2.53125 L 5.625 2.53125 L 5.75 2.53125 L 5.75 2.40625 L 5.75 1.90625 L 5.75 1.78125 L 5.625 1.78125 L 4.125 1.78125 L 4 1.78125 L 4 1.90625 L 4 2.40625 L 4 2.53125 L 4.0625 2.53125 L 3.5 3.25 L 2.9375 2.53125 L 3 2.53125 L 3 2.40625 L 3 1.90625 L 3 1.78125 L 2.875 1.78125 L 1.375 1.78125 L 1.25 1.78125 z" transform="matrix(1.0698871,0,0,1.0698871,15.590192,1043.4798)"/></g></g></svg>