<svg xmlns="http://www.w3.org/2000/svg" xmlns:svg="http://www.w3.org/2000/svg" id="svg2" width="7" height="8" version="1.1"><defs id="defs4"><filter id="filter4264" width="1.166" height="1.1" x="-.083" y="-.05" style="color-interpolation-filters:sRGB"><feGaussianBlur id="feGaussianBlur4266" stdDeviation=".208"/></filter></defs><metadata id="metadata7"/><g style="display:inline" id="layer1" transform="translate(0,-1044.3622)"><path id="path4250" d="m 0.01940258,1050.3622 0.98059742,0 0,3 3,0 0,-3 1,0 1,-1 0,-1 -1.0446641,-0.9951 -0.9693003,0.014 -0.01669,-1.0199 1.0306545,5e-4 0,-1 1,0 0,-2 -6,0 0,3 1,0 0,1 -1,0.01 0.00543816,0.9775 z" style="fill:#fff;fill-opacity:1;fill-rule:evenodd;stroke:none;stroke-width:1px;stroke-linecap:butt;stroke-linejoin:miter;stroke-opacity:1;filter:url(#filter4264)"/><path id="path4271" d="m 3.9584687,1048.8622 -2.8955619,0 1.4476519,-1.749 z" style="fill:#000;fill-opacity:1;fill-rule:evenodd;stroke:#17325d;stroke-width:1px;stroke-linecap:butt;stroke-linejoin:miter;stroke-opacity:1"/><path id="path4203" d="m 0,1044.8622 5,0" style="fill:none;fill-rule:evenodd;stroke:#17325d;stroke-width:1px;stroke-linecap:butt;stroke-linejoin:miter;stroke-opacity:1"/><path id="path4203-1" d="m 2.5,1047.3622 0,5" style="display:inline;fill:none;fill-rule:evenodd;stroke:#17325d;stroke-width:1px;stroke-linecap:butt;stroke-linejoin:miter;stroke-opacity:1"/></g></svg>