<svg xmlns="http://www.w3.org/2000/svg" xmlns:svg="http://www.w3.org/2000/svg" id="svg2" width="7" height="8" version="1.1"><metadata id="metadata7"/><g id="layer1" transform="translate(0,-1044.3622)"><path id="path4389" d="m 0,1044.3757 0,1.9572 2.0203051,2.0203 0,4.009 3.9774756,0 0,-3.0147 1.0259362,-1.0259 0,-3.9775 z" style="fill:#fff;fill-rule:evenodd;stroke:none;stroke-width:1px;stroke-linecap:butt;stroke-linejoin:miter;stroke-opacity:1;fill-opacity:1"/><g id="g4381"><g id="g4385"><path id="path4157" d="m 2.2617188,1044.3477 -0.1503907,0.1621 -1.1269531,1.2168 0,1.6269 0.5,0 c 0.4461727,0 0.5481223,0.025 1.0678835,0.025 0.3569029,0 0.332218,-0.8719 0.4655277,-1.1229 0.2479358,-0.4669 0.5717966,-0.7795 0.689245,-0.8829 l 0.1583022,0 0.1306907,0.7305 c 0.00192,0.1428 0.00509,0.3822 0.00781,0.7637 0.00121,0.1702 -0.060416,0.8961 -0.060416,0.8961 l -0.9832341,0.6225 -0.024524,1.0595 1.675662,0 1.716222,-1.3867 0,-2.3457 -0.025391,-0.027 -1.5228625,-1.3125 -2.5175781,-0.025 z" style="color:#000;font-style:normal;font-variant:normal;font-weight:400;font-stretch:normal;font-size:medium;line-height:normal;font-family:sans-serif;text-indent:0;text-align:start;text-decoration:none;text-decoration-line:none;text-decoration-style:solid;text-decoration-color:#000;letter-spacing:normal;word-spacing:normal;text-transform:none;direction:ltr;block-progression:tb;writing-mode:lr-tb;baseline-shift:baseline;text-anchor:start;white-space:normal;clip-rule:nonzero;display:inline;overflow:visible;visibility:visible;opacity:1;isolation:auto;mix-blend-mode:normal;color-interpolation:sRGB;color-interpolation-filters:linearRGB;solid-color:#000;solid-opacity:1;fill:#17325d;fill-opacity:1;fill-rule:evenodd;stroke:none;stroke-width:1px;stroke-linecap:square;stroke-linejoin:miter;stroke-miterlimit:4;stroke-dasharray:none;stroke-dashoffset:0;stroke-opacity:1;color-rendering:auto;image-rendering:auto;shape-rendering:auto;text-rendering:auto;enable-background:accumulate"/><rect id="rect4159" width="1.981" height="1.981" x="2.999" y="1050.373" style="opacity:1;fill:#17325d;fill-opacity:1;stroke:none;stroke-width:1;stroke-linecap:square;stroke-linejoin:miter;stroke-miterlimit:4;stroke-dasharray:none;stroke-opacity:1"/></g></g></g></svg>