<svg xmlns="http://www.w3.org/2000/svg" xmlns:svg="http://www.w3.org/2000/svg" xmlns:xlink="http://www.w3.org/1999/xlink" id="svg2" width="7" height="8" version="1.1"><defs id="defs4"><linearGradient id="linearGradient4180"><stop id="stop4182" offset="0" style="stop-color:#e0a838;stop-opacity:1"/><stop style="stop-color:#e0b040;stop-opacity:1" id="stop4304" offset=".754"/><stop id="stop4184" offset="1" style="stop-color:#f0e880;stop-opacity:1"/></linearGradient><linearGradient id="linearGradient4397"><stop id="stop4399" offset="0" style="stop-color:#8698a9;stop-opacity:1"/><stop style="stop-color:#587088;stop-opacity:1" id="stop4168" offset=".496"/><stop id="stop4401" offset="1" style="stop-color:#697f94;stop-opacity:1"/></linearGradient><linearGradient id="linearGradient4403" x1="-6" x2="-6" y1="1038.362" y2="1049.362" gradientTransform="matrix(0.46997763,0,0,0.49530042,7.0071088,530.84261)" gradientUnits="userSpaceOnUse" xlink:href="#linearGradient4397"/><linearGradient id="linearGradient4186" x1="11.418" x2="11.721" y1="1041.893" y2="1049.401" gradientTransform="matrix(0.26513097,0,0,0.60232389,0.59172487,418.32951)" gradientUnits="userSpaceOnUse" xlink:href="#linearGradient4180"/><filter id="filter4324" width="1.1" height="1.093" x="-.05" y="-.046" style="color-interpolation-filters:sRGB"><feGaussianBlur id="feGaussianBlur4326" stdDeviation=".158"/></filter></defs><metadata id="metadata7"/><g style="display:inline" id="layer1" transform="translate(0,-1044.3622)"><path id="path4306" d="m -0.3718228,1044.2518 0.11619462,3.0675 1.25490196,-2e-4 0.0232389,1.0457 -1.32461873,-0.023 0.0232389,3.9971 7.5991286,0.093 -0.092956,-4.0436 -1.2781408,0 -0.023239,-1.0457 1.1387073,-0.069 -0.023239,-2.9746 z" style="fill:#fff;fill-opacity:1;fill-rule:evenodd;stroke:none;stroke-width:1px;stroke-linecap:butt;stroke-linejoin:miter;stroke-opacity:1;filter:url(#filter4324)"/><path id="path4395" d="m 1.3366385,1050.8282 4.2371556,0 -1.472573,-2.9678 1.8908737,-2.9642 -4.6554563,0 1.3418089,2.9874 z" style="fill:#e1f5fb;fill-opacity:1;fill-rule:evenodd;stroke:url(#linearGradient4403);stroke-width:.99999988px;stroke-linecap:butt;stroke-linejoin:miter;stroke-opacity:1"/><path id="path4178" d="m 2.070443,1050.3157 2.9535222,0.047 -0.8766084,-1.9367 -0.012223,-0.9972 0.5551911,-1.4393 c -1.1849177,0.2822 -1.2010803,0 -2.1507576,0.4327 l 0.4013615,1.0238 -0.011499,0.9302 z" style="fill:url(#linearGradient4186);fill-opacity:1;fill-rule:evenodd;stroke:none;stroke-width:1px;stroke-linecap:butt;stroke-linejoin:miter;stroke-opacity:1"/><rect id="rect4340" width="7" height="1" x="0" y="1044.362" style="opacity:1;fill:#c01020;fill-opacity:1;stroke:none;stroke-width:1;stroke-linecap:round;stroke-linejoin:miter;stroke-miterlimit:4;stroke-dasharray:none;stroke-dashoffset:0;stroke-opacity:1"/><rect id="rect4340-6" width="7" height="1" x="0" y="1050.362" style="display:inline;opacity:1;fill:#c01020;fill-opacity:1;stroke:none;stroke-width:1;stroke-linecap:round;stroke-linejoin:miter;stroke-miterlimit:4;stroke-dasharray:none;stroke-dashoffset:0;stroke-opacity:1"/></g></svg>