<svg xmlns="http://www.w3.org/2000/svg" xmlns:svg="http://www.w3.org/2000/svg" xmlns:xlink="http://www.w3.org/1999/xlink" id="svg2" width="16" height="16" version="1.1"><defs id="defs4"><linearGradient id="linearGradient4817"><stop style="stop-color:#7695b8;stop-opacity:1" id="stop4819" offset="0"/><stop style="stop-color:#8daac8;stop-opacity:1" id="stop4821" offset="1"/></linearGradient><linearGradient id="linearGradient4805"><stop style="stop-color:#4b82b6;stop-opacity:1" id="stop4807" offset="0"/><stop id="stop4815" offset=".794" style="stop-color:#9ab7d5;stop-opacity:1"/><stop style="stop-color:#a2bcd8;stop-opacity:1" id="stop4809" offset="1"/></linearGradient><linearGradient id="linearGradient4797"><stop style="stop-color:#6187b3;stop-opacity:1" id="stop4799" offset="0"/><stop style="stop-color:#35679d;stop-opacity:1" id="stop4801" offset="1"/></linearGradient><linearGradient id="linearGradient4803" x1="1.034" x2="1.034" y1="-.057" y2="9.816" gradientUnits="userSpaceOnUse" xlink:href="#linearGradient4797"/><radialGradient id="radialGradient4813" cx="4.953" cy="5.031" r="4.906" fx="4.953" fy="5.031" gradientTransform="matrix(2.2618785,0,0,0.76474629,-6.2926151,1.1836202)" gradientUnits="userSpaceOnUse" xlink:href="#linearGradient4805"/><linearGradient id="linearGradient4823" x1="11.437" x2="14.526" y1="9.631" y2="15.131" gradientUnits="userSpaceOnUse" xlink:href="#linearGradient4817"/></defs><metadata id="metadata7"/><g id="layer1" transform="translate(0,-1036.3622)" style="display:inline"><path style="fill:url(#radialGradient4813);fill-opacity:1;stroke:url(#linearGradient4803);stroke-width:1;stroke-linecap:butt;stroke-linejoin:miter;stroke-miterlimit:4;stroke-opacity:1;stroke-dasharray:none;stroke-dashoffset:0" id="path4003" d="M 9.4375,5.03125 C 9.4375,7.4647547 7.4647547,9.4375 5.03125,9.4375 2.5977453,9.4375 0.625,7.4647547 0.625,5.03125 0.625,2.5977453 2.5977453,0.625 5.03125,0.625 c 2.4335047,0 4.40625,1.9727453 4.40625,4.40625 z" transform="matrix(1.0318471,0,0,1.0318471,-0.16023089,1036.202)"/><path style="fill:url(#linearGradient4823);fill-opacity:1;stroke:#095799;stroke-width:1px;stroke-linecap:butt;stroke-linejoin:miter;stroke-opacity:1" id="path4005" d="m 7.9991455,15.524912 3.4913395,-7.0379216 3.535534,7.0379216 -2.010835,0 -2.496971,-5.027087" transform="translate(0,1036.3622)"/><rect style="fill:#095799;fill-opacity:1;stroke:none" id="rect4009" width="3.027" height=".994" x="6.994" y="1051.379"/><rect style="fill:#095799;fill-opacity:1;stroke:none;display:inline" id="rect4009-1" width="5.016" height=".994" x="10.994" y="1051.379"/></g></svg>