<svg xmlns="http://www.w3.org/2000/svg" xmlns:svg="http://www.w3.org/2000/svg" xmlns:xlink="http://www.w3.org/1999/xlink" id="svg2" width="16" height="16" version="1.1"><defs id="defs4"><linearGradient id="linearGradient5118"><stop style="stop-color:#2f81ad;stop-opacity:1" id="stop5120" offset="0"/><stop style="stop-color:#a7d7f1;stop-opacity:1" id="stop5122" offset="1"/></linearGradient><linearGradient id="linearGradient4922"><stop style="stop-color:#0d5c9a;stop-opacity:1" id="stop4924" offset="0"/><stop style="stop-color:#4077a7;stop-opacity:1" id="stop4926" offset="1"/></linearGradient><linearGradient id="linearGradient4929" x1="8.5" x2="7" y1="1048.893" y2="1050.362" gradientTransform="matrix(1,0,0,-1,5.9999999,2099.7244)" gradientUnits="userSpaceOnUse" xlink:href="#linearGradient4922"/><radialGradient id="radialGradient5031" cx="5.531" cy="4.531" r="3.682" fx="5.531" fy="4.531" gradientTransform="matrix(1.7515315,1.7129662e-7,-5.5948986e-8,0.57208606,-4.1569089,1.9389839)" gradientUnits="userSpaceOnUse" xlink:href="#linearGradient5118"/><radialGradient id="radialGradient5099" cx="5.531" cy="4.531" r="3.682" fx="5.531" fy="4.531" gradientTransform="matrix(1.7515315,1.7129662e-7,-5.5948986e-8,0.57208606,-4.1569089,1.9389839)" gradientUnits="userSpaceOnUse" xlink:href="#linearGradient5118"/></defs><metadata id="metadata7"/><g id="layer1" transform="translate(0,-1036.3622)" style="display:inline"><path style="fill:url(#radialGradient5099);fill-opacity:1;stroke:#214b6c;stroke-width:1.05162108;stroke-miterlimit:4;stroke-opacity:1;stroke-dasharray:none;display:inline" id="path4108-9-1-6-7" d="m 8.6875007,4.5312495 c 0,1.7431489 -1.4131013,3.1562503 -3.1562502,3.1562503 -1.7431489,0 -3.1562503,-1.4131014 -3.1562503,-3.1562503 0,-1.7431489 1.4131014,-3.1562502 3.1562503,-3.1562502 1.7431489,0 3.1562502,1.4131013 3.1562502,3.1562502 z" transform="matrix(-0.99129271,0,0,0.99129271,16.881769,1036.3704)"/><path style="fill:url(#radialGradient5031);fill-opacity:1;stroke:#214b6c;stroke-width:1.05162108;stroke-miterlimit:4;stroke-opacity:1;stroke-dasharray:none;display:inline" id="path4108-9-1-6" d="m 8.6875007,4.5312495 c 0,1.7431489 -1.4131013,3.1562503 -3.1562502,3.1562503 -1.7431489,0 -3.1562503,-1.4131014 -3.1562503,-3.1562503 0,-1.7431489 1.4131014,-3.1562502 3.1562503,-3.1562502 1.7431489,0 3.1562502,1.4131013 3.1562502,3.1562502 z" transform="matrix(-0.99129271,0,0,0.99129271,9.8830883,1044.3691)"/><path style="fill:url(#linearGradient4929);fill-opacity:1;stroke:none" id="path4920" d="m 10.75,1051.3622 4.25,0 0,-4.2813 z"/></g></svg>