<svg xmlns="http://www.w3.org/2000/svg" xmlns:svg="http://www.w3.org/2000/svg" xmlns:xlink="http://www.w3.org/1999/xlink" id="svg2" width="16" height="16" version="1.1"><defs id="defs4"><linearGradient id="linearGradient4942"><stop style="stop-color:#b28218;stop-opacity:1" id="stop4944" offset="0"/><stop style="stop-color:#a16e12;stop-opacity:1" id="stop4946" offset="1"/></linearGradient><linearGradient id="linearGradient5103"><stop style="stop-color:#fefdef;stop-opacity:1" id="stop5105" offset="0"/><stop style="stop-color:#fce69e;stop-opacity:1" id="stop5107" offset="1"/></linearGradient><linearGradient id="linearGradient5109" x1="11.906" x2="11.906" y1="1042.362" y2="1047.268" gradientTransform="translate(-4,-1)" gradientUnits="userSpaceOnUse" xlink:href="#linearGradient5103"/><linearGradient id="linearGradient4948" x1="8" x2="8" y1="1040.362" y2="1047.362" gradientUnits="userSpaceOnUse" xlink:href="#linearGradient4942"/></defs><metadata id="metadata7"/><g id="layer1" transform="translate(0,-1036.3622)" style="display:inline"><path style="fill:url(#linearGradient4948);fill-opacity:1;stroke:none;display:inline" id="path4108-1-6" d="m 7,1040.3622 0,2 -5,0 -1,0 c -0.9918497,0.9918 -0.9863244,2.0137 0,3 l 1,0 5,0 0,2 c 0,0.6519 0.740915,0.6375 1.5,0 l 3.9375,-3.5 -3.9375,-3.5 c -0.760225,-0.7602 -1.5,-0.5203 -1.5,0 z m 1,1 3,2.5 -3,2.5 0,-2 -6.4375,0 c -0.2762136,-0.2099 -0.2774437,-0.7282 0,-1 l 6.4375,0 z"/><path style="fill:url(#linearGradient5109);fill-opacity:1;stroke:none;display:inline" id="path4108-1" d="m 1,1043.3622 0,1 7,0 0,2 2.999893,-2.5 -2.999893,-2.5 0,2 z"/><rect style="fill:#4b6ea2;fill-opacity:1;stroke:none" id="rect4115" width="2" height="1" x="11" y="1" transform="translate(0,1036.3622)"/><rect style="fill:#4b6ea2;fill-opacity:1;stroke:none;display:inline" id="rect4115-1" width="2" height="1" x="14" y="1037.362"/><rect style="fill:#4b6ea2;fill-opacity:1;stroke:none;display:inline" id="rect4115-7" width="2" height="1" x="11" y="1050.362"/><rect style="fill:#4b6ea2;fill-opacity:1;stroke:none;display:inline" id="rect4115-1-4" width="2" height="1" x="14" y="1050.362"/><rect style="fill:#4b6ea2;fill-opacity:1;stroke:none;display:inline" id="rect4115-1-4-0" width="1" height="12" x="13" y="1038.362"/></g></svg>