<svg xmlns="http://www.w3.org/2000/svg" xmlns:svg="http://www.w3.org/2000/svg" xmlns:xlink="http://www.w3.org/1999/xlink" id="svg2" width="16" height="16" version="1.1"><defs id="defs4"><linearGradient id="linearGradient5181"><stop style="stop-color:#fef6e1;stop-opacity:1" id="stop5183" offset="0"/><stop style="stop-color:#fce5a5;stop-opacity:1" id="stop5185" offset="1"/></linearGradient><linearGradient id="linearGradient7029"><stop style="stop-color:#3a435f;stop-opacity:1" id="stop7031" offset="0"/><stop style="stop-color:#5689b4;stop-opacity:1" id="stop7033" offset="1"/></linearGradient><radialGradient id="radialGradient7035" cx="2" cy="16" r="2" fx="2" fy="16" gradientTransform="matrix(2,0,0,1.5,-1,1026.3622)" gradientUnits="userSpaceOnUse" xlink:href="#linearGradient7029"/><linearGradient id="linearGradient7029-1"><stop style="stop-color:#3a435f;stop-opacity:1" id="stop7031-3" offset="0"/><stop style="stop-color:#5689b4;stop-opacity:1" id="stop7033-1" offset="1"/></linearGradient><radialGradient id="radialGradient7055" cx="2" cy="16" r="2" fx="2" fy="16" gradientTransform="matrix(2,0,0,1.5,10,1026.3622)" gradientUnits="userSpaceOnUse" xlink:href="#linearGradient7029-1"/><linearGradient id="linearGradient7263-1" x1="27.438" x2="27.438" y1="1049.035" y2="1046.44" gradientTransform="matrix(0,-1,1,0,-1034.3003,1070.3801)" gradientUnits="userSpaceOnUse" xlink:href="#linearGradient7255-7"/><linearGradient id="linearGradient7255-7"><stop style="stop-color:#c28a1d;stop-opacity:1" id="stop7257-4" offset="0"/><stop style="stop-color:#c28a1d;stop-opacity:0" id="stop7259-0" offset="1"/></linearGradient><linearGradient id="linearGradient7076-1"><stop style="stop-color:#956413;stop-opacity:1" id="stop7078-7" offset="0"/><stop style="stop-color:#c38b1d;stop-opacity:1" id="stop7080-11" offset="1"/></linearGradient><linearGradient id="linearGradient5168" x1="1.138" x2="1.138" y1="1045.208" y2="1034.816" gradientTransform="matrix(0.58432111,0,0,-0.58432111,6.943,1653.1171)" gradientUnits="userSpaceOnUse" xlink:href="#linearGradient5181"/><linearGradient id="linearGradient5170" x1="20.125" x2="31.01" y1="1042.268" y2="1042.268" gradientTransform="matrix(0,-1,1,0,-1034.3003,1070.3801)" gradientUnits="userSpaceOnUse" xlink:href="#linearGradient7076-1"/></defs><metadata id="metadata7"/><g id="layer1" transform="translate(0,-1036.3622)" style="display:inline"><path style="fill:url(#radialGradient7035);fill-opacity:1;stroke:none" id="rect6259" d="m 2,1048.3622 c -0.554,0 -1,0.446 -1,1 l 0,1 4,0 0,-1 c 0,-0.554 -0.446,-1 -1,-1 l -2,0 z"/><path style="fill:url(#radialGradient7055);fill-opacity:1;stroke:none;display:inline" id="rect6259-5" d="m 13,1048.3622 c -0.554,0 -1,0.446 -1,1 l 0,1 4,0 0,-1 c 0,-0.554 -0.446,-1 -1,-1 l -2,0 z"/><path style="fill:url(#linearGradient5168);fill-opacity:1;stroke:url(#linearGradient5170);stroke-width:1;stroke-linecap:round;stroke-linejoin:round;stroke-miterlimit:4;stroke-opacity:1;stroke-dasharray:none;stroke-dashoffset:0;display:inline" id="rect3968" d="m 7.53125,1043.427 0,5.7031 c 0,0.3903 0.2972,0.7188 0.6875,0.7188 l 0.5312,0 c 0.3903,0 0.721109,-0.3285 0.7188,-0.7188 l 0,-5.2812 2.03125,0 0,2.25 1,0 3.2188,-3.2188 -3.2188,-3.2187 -1,0 0,2.2187 -2.43745,0 c -0.9367,0 -1.5313,0.4395 -1.5313,1.5469 z"/><path style="font-size:medium;font-style:normal;font-variant:normal;font-weight:400;font-stretch:normal;text-indent:0;text-align:start;text-decoration:none;line-height:normal;letter-spacing:normal;word-spacing:normal;text-transform:none;direction:ltr;block-progression:tb;writing-mode:lr-tb;text-anchor:start;baseline-shift:baseline;opacity:.5;color:#000;fill:url(#linearGradient7263-1);fill-opacity:1;stroke:none;stroke-width:1.5;marker:none;visibility:visible;display:inline;overflow:visible;enable-background:accumulate;font-family:Sans;-inkscape-font-specification:Sans" id="rect3968-7" d="m 8.9375,1043.5676 2.5625,0 a 0.29218979,0.29218979 0 0 1 0.125,0.031 0.29218979,0.29218979 0 0 1 0.094,0.062 0.29218979,0.29218979 0 0 1 0.031,0.062 0.29218979,0.29218979 0 0 1 0.031,0.125 l 0,1.9687 0.5625,0 2.9375,-2.9375 -2.9375,-2.9375 -0.5625,0 0,1.9375 a 0.29218979,0.29218979 0 0 1 0,0.062 0.29218979,0.29218979 0 0 1 -0.094,0.1563 0.29218979,0.29218979 0 0 1 -0.062,0.031 0.29218979,0.29218979 0 0 1 -0.094,0.031 0.29218979,0.29218979 0 0 1 -0.031,0 l -2.5625,0 0,0.4687 2.5625,0 a 0.750075,0.750075 0 0 0 0.75,-0.75 l 0,-1.4062 2.4063,2.4062 -2.4063,2.4063 0,-1.4375 a 0.750075,0.750075 0 0 0 -0.75,-0.75 l -2.5625,0 0,0.4687 z"/></g></svg>