<svg xmlns="http://www.w3.org/2000/svg" xmlns:svg="http://www.w3.org/2000/svg" xmlns:xlink="http://www.w3.org/1999/xlink" id="svg2" width="16" height="16" version="1.1"><defs id="defs4"><linearGradient id="linearGradient7255"><stop style="stop-color:#c28a1d;stop-opacity:1" id="stop7257" offset="0"/><stop style="stop-color:#c28a1d;stop-opacity:0" id="stop7259" offset="1"/></linearGradient><linearGradient id="linearGradient7084"><stop id="stop7086" offset="0" style="stop-color:#fefaef;stop-opacity:1"/><stop id="stop7088" offset="1" style="stop-color:#fce5a7;stop-opacity:1"/></linearGradient><linearGradient id="linearGradient7076"><stop style="stop-color:#956413;stop-opacity:1" id="stop7078" offset="0"/><stop style="stop-color:#c38b1d;stop-opacity:1" id="stop7080" offset="1"/></linearGradient><linearGradient id="linearGradient7029"><stop style="stop-color:#3a435f;stop-opacity:1" id="stop7031" offset="0"/><stop style="stop-color:#5689b4;stop-opacity:1" id="stop7033" offset="1"/></linearGradient><radialGradient id="radialGradient7035" cx="2" cy="16" r="2" fx="2" fy="16" gradientTransform="matrix(2,0,0,1.5,-1,1026.3622)" gradientUnits="userSpaceOnUse" xlink:href="#linearGradient7029"/><linearGradient id="linearGradient7029-1"><stop style="stop-color:#3a435f;stop-opacity:1" id="stop7031-3" offset="0"/><stop style="stop-color:#5689b4;stop-opacity:1" id="stop7033-1" offset="1"/></linearGradient><radialGradient id="radialGradient7055" cx="2" cy="16" r="2" fx="2" fy="16" gradientTransform="matrix(2,0,0,1.5,10,1026.3622)" gradientUnits="userSpaceOnUse" xlink:href="#linearGradient7029-1"/><linearGradient id="linearGradient7074" x1="1.138" x2="10.473" y1="1045.208" y2="1045.208" gradientTransform="matrix(0,0.58432111,0.58432111,0,-601.73696,1040.3056)" gradientUnits="userSpaceOnUse" xlink:href="#linearGradient7084"/><linearGradient id="linearGradient7082" x1="32" x2="32" y1="1050.362" y2="1037.362" gradientTransform="translate(-19,-0.93755)" gradientUnits="userSpaceOnUse" xlink:href="#linearGradient7076"/><linearGradient id="linearGradient7263" x1="27.438" x2="27.438" y1="1049.035" y2="1046.44" gradientTransform="translate(-19,-0.93755)" gradientUnits="userSpaceOnUse" xlink:href="#linearGradient7255"/></defs><metadata id="metadata7"/><g id="layer1" transform="translate(0,-1036.3622)" style="display:inline"><path style="fill:url(#radialGradient7035);fill-opacity:1;stroke:none" id="rect6259" d="m 2,1048.3622 c -0.554,0 -1.00000003,0.446 -1.00000003,1 l 0,1 4.00000003,0 0,-1 c 0,-0.554 -0.446,-1 -1,-1 l -2,0 z"/><path style="fill:url(#radialGradient7055);fill-opacity:1;stroke:none;display:inline" id="rect6259-5" d="m 13,1048.3622 c -0.554,0 -1,0.446 -1,1 l 0,1 4,0 0,-1 c 0,-0.554 -0.446,-1 -1,-1 l -2,0 z"/><path style="fill:url(#linearGradient7074);fill-opacity:1;stroke:url(#linearGradient7082);stroke-width:1;stroke-linecap:round;stroke-linejoin:round;stroke-miterlimit:4;stroke-opacity:1;stroke-dasharray:none;stroke-dashoffset:0" id="rect3968" d="m 7.953125,1039.8626 -5.703125,0 c -0.39031,0 -0.71875,0.2972 -0.71875,0.6875 l 0,0.5312 c 0,0.3903 0.32845,0.7188 0.71875,0.7188 l 5.28125,0 0,3.0625 -2.25,0 0,1 3.21875,3.2188 3.21875,-3.2188 0,-1 -2.21875,0 0,-3.4687 c 0,-0.9367 -0.439519,-1.5313 -1.546875,-1.5313 z"/><path style="font-size:medium;font-style:normal;font-variant:normal;font-weight:400;font-stretch:normal;text-indent:0;text-align:start;text-decoration:none;line-height:normal;letter-spacing:normal;word-spacing:normal;text-transform:none;direction:ltr;block-progression:tb;writing-mode:lr-tb;text-anchor:start;baseline-shift:baseline;opacity:.5;color:#000;fill:url(#linearGradient7263);fill-opacity:1;stroke:none;stroke-width:1.5;marker:none;visibility:visible;display:inline;overflow:visible;enable-background:accumulate;font-family:Sans;-inkscape-font-specification:Sans" id="rect3968-7" d="m 7.8124999,1042.3001 0,2.5625 a 0.29218979,0.29218979 0 0 1 -0.03125,0.125 0.29218979,0.29218979 0 0 1 -0.0625,0.094 0.29218979,0.29218979 0 0 1 -0.0625,0.031 0.29218979,0.29218979 0 0 1 -0.125,0.031 l -1.96875,0 0,0.5625 2.9375,2.9375 2.9375001,-2.9375 0,-0.5625 -1.9375001,0 a 0.29218979,0.29218979 0 0 1 -0.0625,0 0.29218979,0.29218979 0 0 1 -0.15625,-0.094 0.29218979,0.29218979 0 0 1 -0.03125,-0.062 0.29218979,0.29218979 0 0 1 -0.03125,-0.094 0.29218979,0.29218979 0 0 1 0,-0.031 l 0,-2.5625 -0.46875,0 0,2.5625 a 0.750075,0.750075 0 0 0 0.75,0.75 l 1.4062501,0 -2.4062501,2.4063 -2.40625,-2.4063 1.4375,0 a 0.750075,0.750075 0 0 0 0.75,-0.75 l 0,-2.5625 -0.46875,0 z"/></g></svg>