<svg xmlns="http://www.w3.org/2000/svg" xmlns:svg="http://www.w3.org/2000/svg" xmlns:xlink="http://www.w3.org/1999/xlink" id="svg2" width="16" height="16" version="1.1"><defs id="defs4"><linearGradient id="linearGradient4809"><stop id="stop4811" offset="0" style="stop-color:#fff;stop-opacity:1"/><stop id="stop4813" offset="1" style="stop-color:#fff;stop-opacity:0"/></linearGradient><linearGradient id="linearGradient4729"><stop id="stop4731" offset="0" style="stop-color:#fff;stop-opacity:1"/><stop style="stop-color:#fff;stop-opacity:.49579832" id="stop4737" offset=".5"/><stop id="stop4733" offset="1" style="stop-color:#fff;stop-opacity:1"/></linearGradient><linearGradient id="linearGradient6642"><stop id="stop6644" offset="0" style="stop-color:#e83038;stop-opacity:1"/><stop id="stop6646" offset="1" style="stop-color:#af131a;stop-opacity:1"/></linearGradient><linearGradient id="linearGradient3976" x1="8.22" x2="8.22" y1="1043.381" y2="1049.088" gradientUnits="userSpaceOnUse" xlink:href="#linearGradient6642"/><linearGradient id="linearGradient3978" x1="7.501" x2="7.501" y1="1040.394" y2="1048.31" gradientUnits="userSpaceOnUse" xlink:href="#linearGradient4729"/><radialGradient id="radialGradient4815" cx="8.239" cy="1045.268" r="4.51" fx="8.239" fy="1045.268" gradientTransform="matrix(1,0,0,0.9996545,0,0.35996519)" gradientUnits="userSpaceOnUse" xlink:href="#linearGradient4809"/><linearGradient id="linearGradient4852-7-4-1"><stop id="stop4854-4-0-2" offset="0" style="stop-color:#707070;stop-opacity:1"/><stop id="stop4856-0-3-9" offset="1" style="stop-color:#a0a0a0;stop-opacity:1"/></linearGradient><linearGradient id="linearGradient4844-4-5-9"><stop id="stop4846-8-7-9" offset="0" style="stop-color:#2b2b2b;stop-opacity:1"/><stop id="stop4848-8-6-9" offset="1" style="stop-color:#404040;stop-opacity:1"/></linearGradient><linearGradient id="linearGradient3057" x1="4.753" x2="4.753" y1="1051.047" y2="1038.581" gradientTransform="matrix(0.68200217,0,0,0.64568976,5.322453,373.54809)" gradientUnits="userSpaceOnUse" xlink:href="#linearGradient4852-7-4-1"/><linearGradient id="linearGradient3059" x1="8.657" x2="8.657" y1="1050.739" y2="1037.7" gradientTransform="matrix(0.68200217,0,0,0.64568976,5.322453,373.54809)" gradientUnits="userSpaceOnUse" xlink:href="#linearGradient4844-4-5-9"/></defs><metadata id="metadata7"/><g style="display:inline" id="layer1" transform="translate(0,-1036.3622)"><g id="g3966" transform="matrix(0.85381076,0,0,0.84973545,-1.2248467,154.32622)"><rect style="font-size:13.58917427px;font-style:normal;font-weight:400;line-height:125%;letter-spacing:0;word-spacing:0;color:#000;fill:url(#linearGradient3976);fill-opacity:1;fill-rule:nonzero;stroke:#a81d24;stroke-width:.60000002;stroke-miterlimit:4;stroke-opacity:1;stroke-dasharray:none;marker:none;visibility:visible;display:inline;overflow:visible;enable-background:accumulate;font-family:Sans" id="rect6562" width="9.944" height="9.988" x="2.903" y="1039.493" rx="1.149" ry="1.149"/><rect style="font-size:13.58917427px;font-style:normal;font-weight:400;line-height:125%;letter-spacing:0;word-spacing:0;color:#000;fill:none;stroke:url(#linearGradient3978);stroke-width:.89999998;stroke-miterlimit:4;stroke-opacity:.69158876;stroke-dasharray:none;marker:none;visibility:visible;display:inline;overflow:visible;enable-background:accumulate;font-family:Sans" id="rect6562-9" width="7.689" height="7.653" x="4.017" y="1040.633" rx=".309" ry=".309"/></g><rect style="font-size:13.589174270000001px;font-style:normal;font-weight:400;line-height:125%;letter-spacing:0;word-spacing:0;color:#000;fill:url(#radialGradient4815);fill-opacity:1;fill-rule:nonzero;stroke:none;stroke-width:.51106244000000001;marker:none;visibility:visible;display:inline;overflow:visible;enable-background:accumulate;font-family:Sans" id="rect6562-94" width="9.021" height="9.017" x=".989" y="1037.355" rx="1.258" ry="1.258"/><path id="rect4043-9" d="m 14.474439,1044.197 c -0.319304,-0.3022 -0.83339,-0.3022 -1.152678,0 l -2.122933,2.0099 -2.1229178,-2.0099 c -0.3192555,-0.3022 -0.83339,-0.3022 -1.1526765,0 l -0.5865593,0.5553 c -0.3192716,0.3023 -0.3192629,0.7889 2.61e-5,1.0913 l 2.1228823,2.01 -2.1228873,2.0097 c -0.3193188,0.3025 -0.3193114,0.7891 -7.4e-6,1.0914 l 0.5865903,0.5555 c 0.3192691,0.3022 0.8333552,0.3022 1.152674,0 l 2.1229226,-2.01 2.137671,2.0239 c 0.31927,0.3024 0.833356,0.3024 1.152677,0 l 0.586559,-0.5552 c 0.319285,-0.3024 0.316078,-0.7862 -2.6e-5,-1.0914 l -2.137671,-2.0239 2.12292,-2.0099 c 0.319301,-0.3023 0.319294,-0.7891 2.4e-5,-1.0914 z" style="fill:url(#linearGradient3057);fill-opacity:1;stroke:url(#linearGradient3059);stroke-width:1;stroke-linecap:round;stroke-linejoin:miter;stroke-miterlimit:4;stroke-opacity:1;stroke-dasharray:none;stroke-dashoffset:0;display:inline"/></g></svg>