<svg xmlns="http://www.w3.org/2000/svg" xmlns:svg="http://www.w3.org/2000/svg" xmlns:xlink="http://www.w3.org/1999/xlink" id="svg2" width="16" height="16" version="1.1"><defs id="defs4"><linearGradient id="linearGradient4343"><stop id="stop4345" offset="0" style="stop-color:#96b956;stop-opacity:1"/><stop id="stop4347" offset="1" style="stop-color:#abca52;stop-opacity:1"/></linearGradient><linearGradient id="linearGradient4106"><stop id="stop4108" offset="0" style="stop-color:#359b58;stop-opacity:1"/><stop id="stop4110" offset="1" style="stop-color:#146d39;stop-opacity:1"/></linearGradient><linearGradient id="linearGradient4112" x1="10.225" x2="10.225" y1="1030.462" y2="1039.783" gradientTransform="translate(0,10.337603)" gradientUnits="userSpaceOnUse" xlink:href="#linearGradient4106"/><filter id="filter4339" width="1.181" height="1.358" x="-.09" y="-.179"><feGaussianBlur id="feGaussianBlur4341" stdDeviation=".28"/></filter><linearGradient id="linearGradient4349" x1="11.033" x2="11.033" y1="1048.514" y2="1041.73" gradientUnits="userSpaceOnUse" xlink:href="#linearGradient4343"/><filter id="filter4525" width="1.222" height="1.261" x="-.111" y="-.131"><feGaussianBlur id="feGaussianBlur4527" stdDeviation=".388"/></filter><mask id="mask4529" maskUnits="userSpaceOnUse"><rect id="rect4531" width="8.994" height="4" x="2.497" y="1046.86" style="fill:#fff;fill-opacity:1;stroke:#fff;stroke-opacity:1;display:inline"/></mask><linearGradient id="linearGradient4266-4"><stop id="stop4268-6" offset="0" style="stop-color:#1b639e;stop-opacity:1"/><stop id="stop4270-39" offset="1" style="stop-color:#6f8db9;stop-opacity:1"/></linearGradient><linearGradient id="linearGradient4553-7" x1="7" x2="9" y1="12.5" y2="12.5" gradientTransform="translate(0,1036.3622)" gradientUnits="userSpaceOnUse" xlink:href="#linearGradient4188-4-3"/><linearGradient id="linearGradient4188-4-3"><stop id="stop4190-6-1" offset="0" style="stop-color:#8297bc;stop-opacity:1"/><stop id="stop4192-4-6" offset="1" style="stop-color:#6c81ad;stop-opacity:1"/></linearGradient><linearGradient id="linearGradient4582-4" x1="7" x2="9" y1="12.5" y2="12.5" gradientTransform="translate(-2.0000001,1036.3934)" gradientUnits="userSpaceOnUse" xlink:href="#linearGradient4188-6-0-7"/><linearGradient id="linearGradient4188-6-0-7"><stop id="stop4190-4-6-2" offset="0" style="stop-color:#8297bc;stop-opacity:1"/><stop id="stop4192-7-4-6" offset="1" style="stop-color:#6c81ad;stop-opacity:1"/></linearGradient><linearGradient id="linearGradient4609" x1="25.93" x2="25.93" y1="1051.114" y2="1047.26" gradientTransform="translate(-20,2.7828126e-6)" gradientUnits="userSpaceOnUse" xlink:href="#linearGradient4266-4"/></defs><metadata id="metadata7"/><g style="display:inline" id="layer1" transform="translate(0,-1036.3622)"><rect id="rect4264" width="8.994" height="4" x="2.497" y="1046.86" style="fill:#f1f5fa;fill-opacity:1;stroke:url(#linearGradient4609);stroke-opacity:1;display:inline"/><rect id="rect4178" width="4" height="1" x="6" y="1048.362" style="fill:url(#linearGradient4553-7);fill-opacity:1;stroke:none;display:inline"/><rect id="rect4178-9" width="1" height="1" x="4" y="1048.362" style="fill:url(#linearGradient4582-4);fill-opacity:1;stroke:none;display:inline"/><g style="filter:url(#filter4525);stroke:#fff;stroke-width:2;stroke-miterlimit:4;stroke-dasharray:none" id="g4518" mask="url(#mask4529)"><path style="fill:#fff;stroke:#fff;stroke-width:2;stroke-linecap:round;stroke-linejoin:round;stroke-miterlimit:4;stroke-opacity:1;stroke-dasharray:none;display:inline" id="path4108-1-1" d="m 1.4560597,1047.0104 c 0.166408,-2.3394 3.0629699,-2.1562 3.0629699,-2.1562 l 0,1.9561 4.3860242,-3.4248 -4.3860242,-3.4965 0,1.9824 c -1.8676292,0.013 -5.798807,1.6782 -3.0629699,5.139 z"/></g><g style="display:inline" id="layer1-7" transform="matrix(0.7738738,0,0,0.7738738,-3.6954984,234.78238)"><path id="path4108-1-3" d="m 6.6568452,1049.5614 c 0.2150324,-3.023 3.9579708,-2.7863 3.9579708,-2.7863 l 0,2.5277 5.667622,-4.4255 -5.667622,-4.5182 0,2.5616 c -2.4133512,0.017 -7.4932205,2.1686 -3.9579708,6.6407 z" style="fill:#abca52;fill-opacity:1;stroke:none;display:inline"/><path id="path4108-1-3-4" d="m 6.6568452,1049.5614 c 0.2150325,-3.023 3.9579708,-2.7863 3.9579708,-2.7863 l 0,2.5277 5.667622,-4.4255 -5.667622,-4.5182 0,2.5616 c -2.4133511,0.017 -7.4932205,2.1686 -3.9579708,6.6407 z" style="fill:url(#linearGradient4349);fill-opacity:1;stroke:none;display:inline"/><path id="path4108-1" d="m 6.6568452,1049.5614 c 0.2150324,-3.023 3.9579708,-2.7863 3.9579708,-2.7863 l 0,2.5277 5.667622,-4.4255 -5.667622,-4.5182 0,2.5616 c -2.4133512,0.017 -7.4932205,2.1686 -3.9579708,6.6407 z" style="fill:none;stroke:url(#linearGradient4112);stroke-width:1.29220033;stroke-linecap:round;stroke-linejoin:round;stroke-miterlimit:4;stroke-opacity:1;stroke-dasharray:none;display:inline"/><rect id="rect4122" width=".949" height="1.199" x="10.311" y="1042.365" style="fill:#2f9353;fill-opacity:1;stroke:none"/><rect id="rect4122-2" width=".949" height="1.199" x="10.304" y="1046.124" style="fill:#1d7a42;fill-opacity:1;stroke:none;display:inline"/><rect id="rect4176" width="1" height="1" x="4" y="12" transform="matrix(1.2922004,0,0,1.2922004,4.7753243,1035.8017)" style="fill:none;stroke:none"/><path id="path4108-1-3-4-6" d="m 11.90625,1043.0312 2.28125,1.8438 -2.28125,1.7812 0,-1.0937 -1.21875,-0.062 c 0,0 -1.1298804,-0.1 -2.375,0.3125 -0.4970996,0.1646 -1.0141192,0.5483 -1.5,0.9687 -9.736e-4,-0.029 -0.06306,-0.097 -0.0625,-0.125 0.00915,-0.4526 0.1773911,-0.7816 0.5625,-1.1562 0.7702178,-0.7493 2.483426,-1.2754 3.3125,-1.2812 l 1.28125,0 0,-1.1876 z" style="font-size:medium;font-style:normal;font-variant:normal;font-weight:400;font-stretch:normal;text-indent:0;text-align:start;text-decoration:none;line-height:normal;letter-spacing:normal;word-spacing:normal;text-transform:none;direction:ltr;block-progression:tb;writing-mode:lr-tb;text-anchor:start;baseline-shift:baseline;color:#000;fill:#cfdc63;fill-opacity:1;fill-rule:nonzero;stroke:none;stroke-width:2.58440065;marker:none;visibility:visible;display:inline;overflow:visible;filter:url(#filter4339);enable-background:accumulate;font-family:Sans;-inkscape-font-specification:Sans"/></g></g></svg>