<svg xmlns="http://www.w3.org/2000/svg" xmlns:svg="http://www.w3.org/2000/svg" xmlns:xlink="http://www.w3.org/1999/xlink" id="svg2" width="16" height="16" version="1.1"><defs id="defs4"><linearGradient id="linearGradient4343"><stop id="stop4345" offset="0" style="stop-color:#96b956;stop-opacity:1"/><stop id="stop4347" offset="1" style="stop-color:#abca52;stop-opacity:1"/></linearGradient><linearGradient id="linearGradient4106"><stop id="stop4108" offset="0" style="stop-color:#359b58;stop-opacity:1"/><stop id="stop4110" offset="1" style="stop-color:#146d39;stop-opacity:1"/></linearGradient><linearGradient id="linearGradient4112" x1="10.225" x2="10.225" y1="1030.462" y2="1039.783" gradientTransform="translate(0,10.337603)" gradientUnits="userSpaceOnUse" xlink:href="#linearGradient4106"/><filter id="filter4339" width="1.181" height="1.358" x="-.09" y="-.179"><feGaussianBlur id="feGaussianBlur4341" stdDeviation=".28"/></filter><linearGradient id="linearGradient4349" x1="11.033" x2="11.033" y1="1048.514" y2="1041.73" gradientUnits="userSpaceOnUse" xlink:href="#linearGradient4343"/><linearGradient id="linearGradient4266-4"><stop id="stop4268-6" offset="0" style="stop-color:#1b639e;stop-opacity:1"/><stop id="stop4270-39" offset="1" style="stop-color:#6f8db9;stop-opacity:1"/></linearGradient><linearGradient id="linearGradient4553-7" x1="7" x2="9" y1="12.5" y2="12.5" gradientTransform="translate(3.0277276,1034.3622)" gradientUnits="userSpaceOnUse" xlink:href="#linearGradient4188-4-3"/><linearGradient id="linearGradient4188-4-3"><stop id="stop4190-6-1" offset="0" style="stop-color:#8297bc;stop-opacity:1"/><stop id="stop4192-4-6" offset="1" style="stop-color:#6c81ad;stop-opacity:1"/></linearGradient><linearGradient id="linearGradient4582-4" x1="7" x2="9" y1="12.5" y2="12.5" gradientTransform="translate(1.9964775,1034.2996)" gradientUnits="userSpaceOnUse" xlink:href="#linearGradient4188-6-0-7"/><linearGradient id="linearGradient4188-6-0-7"><stop id="stop4190-4-6-2" offset="0" style="stop-color:#8297bc;stop-opacity:1"/><stop id="stop4192-7-4-6" offset="1" style="stop-color:#6c81ad;stop-opacity:1"/></linearGradient><linearGradient id="linearGradient4609" x1="25.93" x2="25.93" y1="1051.114" y2="1047.26" gradientTransform="translate(-16.972268,-1.9999972)" gradientUnits="userSpaceOnUse" xlink:href="#linearGradient4266-4"/><linearGradient id="linearGradient4188-4-3-7"><stop id="stop4190-6-1-0" offset="0" style="stop-color:#8297bc;stop-opacity:1"/><stop id="stop4192-4-6-6" offset="1" style="stop-color:#6c81ad;stop-opacity:1"/></linearGradient><linearGradient id="linearGradient4582-4-4" x1="7" x2="9" y1="12.5" y2="12.5" gradientTransform="translate(1.9964775,1032.2996)" gradientUnits="userSpaceOnUse" xlink:href="#linearGradient4188-6-0-7-5"/><linearGradient id="linearGradient4188-6-0-7-5"><stop id="stop4190-4-6-2-6" offset="0" style="stop-color:#8297bc;stop-opacity:1"/><stop id="stop4192-7-4-6-4" offset="1" style="stop-color:#6c81ad;stop-opacity:1"/></linearGradient><linearGradient id="linearGradient3262" x1="7" x2="9" y1="12.5" y2="12.5" gradientTransform="translate(3.0277276,1032.3622)" gradientUnits="userSpaceOnUse" xlink:href="#linearGradient4188-4-3-7"/><linearGradient id="linearGradient4994-6-5-8"><stop style="stop-color:#f9fafc;stop-opacity:1" id="stop4996-1-4-1" offset="0"/><stop style="stop-color:#dce7f7;stop-opacity:1" id="stop4998-89-1-0" offset="1"/></linearGradient><linearGradient id="linearGradient4908-2-8-8" x1="10.545" x2="10.545" y1="1038.578" y2="1052.323" gradientTransform="translate(-1.986544,-1.0535)" gradientUnits="userSpaceOnUse" xlink:href="#linearGradient4902-3-1-1"/><linearGradient id="linearGradient4902-3-1-1"><stop style="stop-color:#b28a30;stop-opacity:1" id="stop4904-2-9-9" offset="0"/><stop style="stop-color:#7b703e;stop-opacity:1" id="stop4906-2-5-7" offset="1"/></linearGradient><linearGradient id="linearGradient3575" x1="9.895" x2="9.895" y1="1039.153" y2="1051.838" gradientTransform="translate(-1.986544,-1.0535)" gradientUnits="userSpaceOnUse" xlink:href="#linearGradient4994-6-5-8"/><filter id="filter4480" width="1.209" height="1.281" x="-.105" y="-.14"><feGaussianBlur id="feGaussianBlur4482" stdDeviation=".351"/></filter><mask id="mask4487" maskUnits="userSpaceOnUse"><path style="fill:#fff;stroke:#fff;stroke-width:1;stroke-linecap:butt;stroke-linejoin:miter;stroke-miterlimit:4;stroke-opacity:1;stroke-dashoffset:0;display:inline" id="path4489" d="m 3.5107388,1037.8693 9.9833382,0 0,12.9865 -9.9833382,0 z"/></mask><filter id="filter4339-7" width="1.181" height="1.358" x="-.09" y="-.179" color-interpolation-filters="sRGB"><feGaussianBlur id="feGaussianBlur4341-1" stdDeviation=".28"/></filter><filter id="filter4564" width="1.256" height="1.226" x="-.128" y="-.113"><feGaussianBlur id="feGaussianBlur4566" stdDeviation=".577"/></filter><mask id="mask4578" maskUnits="userSpaceOnUse"><g id="g4580"><rect style="fill:#f1f5fa;fill-opacity:1;stroke:#fff;stroke-opacity:1;display:inline" id="rect4582" width="8.034" height="5.988" x="6.484" y="1042.871"/><path id="path4584" d="m 3.5107388,1037.8693 9.9833382,0 0,12.9865 -9.9833382,0 z" style="fill:#fff;stroke:#fff;stroke-width:1;stroke-linecap:butt;stroke-linejoin:miter;stroke-miterlimit:4;stroke-opacity:1;stroke-dashoffset:0;display:inline"/></g></mask></defs><metadata id="metadata7"/><g style="display:inline" id="layer1" transform="translate(0,-1036.3622)"><path style="fill:url(#linearGradient3575);fill-opacity:1;stroke:none;display:inline" id="rect4001-3" d="m 3.5107388,1037.8504 9.5841942,0 0.487532,3.0066 0,9.9546 -10.0717262,0 z"/><path style="fill:none;stroke:url(#linearGradient4908-2-8-8);stroke-width:1;stroke-linecap:butt;stroke-linejoin:miter;stroke-miterlimit:4;stroke-opacity:1;stroke-dashoffset:0;display:inline" id="rect4001" d="m 3.5107388,1037.8693 9.9833382,0 0,12.9865 -9.9833382,0 z"/><g style="opacity:.5" id="g4484" mask="url(#mask4487)"><rect style="fill:#fff;fill-opacity:1;stroke:#fff;stroke-width:2;stroke-miterlimit:4;stroke-opacity:1;stroke-dasharray:none;display:inline;filter:url(#filter4480)" id="rect4264-4-5" width="8.034" height="5.988" x="6.484" y="1042.871"/></g><rect id="rect4264" width="8.034" height="5.988" x="6.484" y="1042.871" style="fill:#f1f5fa;fill-opacity:1;stroke:url(#linearGradient4609);stroke-opacity:1;display:inline"/><rect id="rect4178" width="3.028" height="1" x="10" y="1046.362" style="fill:url(#linearGradient4553-7);fill-opacity:1;stroke:none;display:inline"/><rect id="rect4178-9" width="1" height="1" x="8" y="1046.362" style="fill:url(#linearGradient4582-4);fill-opacity:1;stroke:none;display:inline"/><rect id="rect4178-1" width="3.028" height="1" x="10" y="1044.362" style="fill:url(#linearGradient3262);fill-opacity:1;stroke:none;display:inline"/><rect id="rect4178-9-7" width="1" height="1" x="8" y="1044.362" style="fill:url(#linearGradient4582-4-4);fill-opacity:1;stroke:none;display:inline"/><g style="opacity:.5" id="g4568" mask="url(#mask4578)"><g id="layer1-7-1" transform="matrix(0.7738738,0,0,0.7738738,-2.6348376,234.78238)" style="fill:#fff;stroke:#fff;stroke-width:2.58440065000000008;stroke-miterlimit:4;stroke-dasharray:none;display:inline;filter:url(#filter4564)"><path style="fill:#fff;fill-opacity:1;stroke:#fff;stroke-width:2.58440065000000008;stroke-miterlimit:4;stroke-dasharray:none;display:inline" id="path4108-1-3-9" d="m 6.6568452,1049.5614 c 0.2150324,-3.023 3.9579708,-2.7863 3.9579708,-2.7863 l 0,2.5277 5.667622,-4.4255 -5.667622,-4.5182 0,2.5616 c -2.4133512,0.017 -7.4932205,2.1686 -3.9579708,6.6407 z"/><path style="fill:#fff;fill-opacity:1;stroke:#fff;stroke-width:2.58440065000000008;stroke-miterlimit:4;stroke-dasharray:none;display:inline" id="path4108-1-3-4-1" d="m 6.6568452,1049.5614 c 0.2150325,-3.023 3.9579708,-2.7863 3.9579708,-2.7863 l 0,2.5277 5.667622,-4.4255 -5.667622,-4.5182 0,2.5616 c -2.4133511,0.017 -7.4932205,2.1686 -3.9579708,6.6407 z"/><path style="fill:#fff;stroke:#fff;stroke-width:2.58440065000000008;stroke-linecap:round;stroke-linejoin:round;stroke-miterlimit:4;stroke-opacity:1;stroke-dasharray:none;display:inline" id="path4108-1-2" d="m 6.6568452,1049.5614 c 0.2150324,-3.023 3.9579708,-2.7863 3.9579708,-2.7863 l 0,2.5277 5.667622,-4.4255 -5.667622,-4.5182 0,2.5616 c -2.4133512,0.017 -7.4932205,2.1686 -3.9579708,6.6407 z"/><rect style="fill:#fff;fill-opacity:1;stroke:#fff;stroke-width:2.58440065000000008;stroke-miterlimit:4;stroke-dasharray:none" id="rect4122-9" width=".949" height="1.199" x="10.311" y="1042.365"/><rect style="fill:#fff;fill-opacity:1;stroke:#fff;stroke-width:2.58440065000000008;stroke-miterlimit:4;stroke-dasharray:none;display:inline" id="rect4122-2-9" width=".949" height="1.199" x="10.304" y="1046.124"/><path style="font-size:medium;font-style:normal;font-variant:normal;font-weight:400;font-stretch:normal;text-indent:0;text-align:start;text-decoration:none;line-height:normal;letter-spacing:normal;word-spacing:normal;text-transform:none;direction:ltr;block-progression:tb;writing-mode:lr-tb;text-anchor:start;baseline-shift:baseline;color:#000;fill:#fff;fill-opacity:1;fill-rule:nonzero;stroke:#fff;stroke-width:2.58440065000000008;stroke-miterlimit:4;stroke-dasharray:none;marker:none;visibility:visible;display:inline;overflow:visible;filter:url(#filter4339-7);enable-background:accumulate;font-family:Sans;-inkscape-font-specification:Sans" id="path4108-1-3-4-6-9" d="m 11.90625,1043.0312 2.28125,1.8438 -2.28125,1.7812 0,-1.0937 -1.21875,-0.062 c 0,0 -1.1298804,-0.1 -2.375,0.3125 -0.4970996,0.1646 -1.0141192,0.5483 -1.5,0.9687 -9.736e-4,-0.029 -0.06306,-0.097 -0.0625,-0.125 0.00915,-0.4526 0.1773911,-0.7816 0.5625,-1.1562 0.7702178,-0.7493 2.483426,-1.2754 3.3125,-1.2812 l 1.28125,0 0,-1.1876 z"/></g></g><g style="display:inline" id="layer1-7" transform="matrix(0.7738738,0,0,0.7738738,-2.6348376,234.78238)"><path id="path4108-1-3" d="m 6.6568452,1049.5614 c 0.2150324,-3.023 3.9579708,-2.7863 3.9579708,-2.7863 l 0,2.5277 5.667622,-4.4255 -5.667622,-4.5182 0,2.5616 c -2.4133512,0.017 -7.4932205,2.1686 -3.9579708,6.6407 z" style="fill:#abca52;fill-opacity:1;stroke:none;display:inline"/><path id="path4108-1-3-4" d="m 6.6568452,1049.5614 c 0.2150325,-3.023 3.9579708,-2.7863 3.9579708,-2.7863 l 0,2.5277 5.667622,-4.4255 -5.667622,-4.5182 0,2.5616 c -2.4133511,0.017 -7.4932205,2.1686 -3.9579708,6.6407 z" style="fill:url(#linearGradient4349);fill-opacity:1;stroke:none;display:inline"/><path id="path4108-1" d="m 6.6568452,1049.5614 c 0.2150324,-3.023 3.9579708,-2.7863 3.9579708,-2.7863 l 0,2.5277 5.667622,-4.4255 -5.667622,-4.5182 0,2.5616 c -2.4133512,0.017 -7.4932205,2.1686 -3.9579708,6.6407 z" style="fill:none;stroke:url(#linearGradient4112);stroke-width:1.29220033;stroke-linecap:round;stroke-linejoin:round;stroke-miterlimit:4;stroke-opacity:1;stroke-dasharray:none;display:inline"/><rect id="rect4122" width=".949" height="1.199" x="10.311" y="1042.365" style="fill:#2f9353;fill-opacity:1;stroke:none"/><rect id="rect4122-2" width=".949" height="1.199" x="10.304" y="1046.124" style="fill:#1d7a42;fill-opacity:1;stroke:none;display:inline"/><rect id="rect4176" width="1" height="1" x="4" y="12" transform="matrix(1.2922004,0,0,1.2922004,4.7753243,1035.8017)" style="fill:none;stroke:none"/><path id="path4108-1-3-4-6" d="m 11.90625,1043.0312 2.28125,1.8438 -2.28125,1.7812 0,-1.0937 -1.21875,-0.062 c 0,0 -1.1298804,-0.1 -2.375,0.3125 -0.4970996,0.1646 -1.0141192,0.5483 -1.5,0.9687 -9.736e-4,-0.029 -0.06306,-0.097 -0.0625,-0.125 0.00915,-0.4526 0.1773911,-0.7816 0.5625,-1.1562 0.7702178,-0.7493 2.483426,-1.2754 3.3125,-1.2812 l 1.28125,0 0,-1.1876 z" style="font-size:medium;font-style:normal;font-variant:normal;font-weight:400;font-stretch:normal;text-indent:0;text-align:start;text-decoration:none;line-height:normal;letter-spacing:normal;word-spacing:normal;text-transform:none;direction:ltr;block-progression:tb;writing-mode:lr-tb;text-anchor:start;baseline-shift:baseline;color:#000;fill:#cfdc63;fill-opacity:1;fill-rule:nonzero;stroke:none;stroke-width:2.58440065;marker:none;visibility:visible;display:inline;overflow:visible;filter:url(#filter4339);enable-background:accumulate;font-family:Sans;-inkscape-font-specification:Sans"/></g></g></svg>