<svg xmlns="http://www.w3.org/2000/svg" xmlns:svg="http://www.w3.org/2000/svg" xmlns:xlink="http://www.w3.org/1999/xlink" id="svg2" width="16" height="16" version="1.1"><defs id="defs4"><linearGradient id="linearGradient4890"><stop id="stop4892" offset="0" style="stop-color:#2857bd;stop-opacity:1"/><stop id="stop4894" offset="1" style="stop-color:#3d5384;stop-opacity:1"/></linearGradient><linearGradient id="linearGradient4996-4"><stop id="stop4998-5" offset="0" style="stop-color:#02468c;stop-opacity:1"/><stop id="stop5000-5" offset="1" style="stop-color:#0e62a4;stop-opacity:1"/></linearGradient><linearGradient id="linearGradient5028" x1="13.903" x2="13.903" y1="1062.135" y2="1051.735" gradientTransform="translate(38.469436,55.035191)" gradientUnits="userSpaceOnUse" xlink:href="#linearGradient4996-4"/><linearGradient id="linearGradient4896" x1="14.256" x2="18.341" y1="1056.547" y2="1056.547" gradientUnits="userSpaceOnUse" xlink:href="#linearGradient4890"/><linearGradient id="linearGradient4898" x1="16.307" x2="16.307" y1="1055.018" y2="1060.679" gradientUnits="userSpaceOnUse" xlink:href="#linearGradient4890"/></defs><metadata id="metadata7"/><g style="display:inline" id="layer1" transform="translate(0,-1036.3622)"><g id="g8159" transform="translate(-8.2201163,-12.904699)" style="display:inline"><g id="text4140-1-8" transform="matrix(1.0865583,0,0,1,-1.7201207,-0.04419418)" style="font-size:15.07241725999999993px;font-style:normal;font-variant:normal;font-weight:900;font-stretch:normal;text-align:start;line-height:125%;letter-spacing:0;word-spacing:0;writing-mode:lr-tb;text-anchor:start;fill:url(#linearGradient4896);fill-opacity:1;stroke:none;display:inline;font-family:Kozuka Mincho Pr6N H;-inkscape-font-specification:Kozuka Mincho Pr6N H Heavy"><path id="path5058" d="m 16.245657,1050.9177 c -0.355456,0.01 -0.65062,0.1291 -0.885494,0.3674 -0.234876,0.2383 -0.35671,0.5529 -0.365501,0.9439 0.0088,0.3981 0.130625,0.7172 0.365502,0.9571 0.234873,0.2399 0.530037,0.363 0.885493,0.3692 0.362672,-0.01 0.662232,-0.1293 0.898681,-0.3692 0.236442,-0.2399 0.358903,-0.559 0.367386,-0.9571 -0.0057,-0.3778 -0.122466,-0.6886 -0.35043,-0.9326 -0.227971,-0.244 -0.533183,-0.3702 -0.915637,-0.3787 z m 0.94955,3.3912 c -1.039986,0.4346 -2.019679,0.6808 -2.939084,0.7386 l 0,0.6029 c 0.435838,-0.02 0.70965,0.039 0.821436,0.1771 0.111784,0.1381 0.159513,0.476 0.143187,1.0136 l 0,3.4515 c 0.01539,0.5401 -0.03423,0.888 -0.148838,1.0438 -0.114613,0.1557 -0.386541,0.2248 -0.815785,0.2072 l 0,0.633 4.084573,0 0,-0.633 c -0.386544,0.017 -0.634608,-0.051 -0.744192,-0.2054 -0.109591,-0.1541 -0.157947,-0.4977 -0.145069,-1.0305 l 0,-5.8631 z" style="fill:url(#linearGradient4898);fill-opacity:1"/></g><text id="text4140-1-8-1" x="50.288" y="1117.212" xml:space="preserve" style="font-style:normal;font-variant:normal;font-weight:900;font-stretch:normal;line-height:0%;font-family:'Kozuka Mincho Pr6N H';-inkscape-font-specification:'Kozuka Mincho Pr6N H Heavy';text-align:start;letter-spacing:0;word-spacing:0;writing-mode:lr-tb;text-anchor:start;display:inline;fill:url(#linearGradient5028);fill-opacity:1;stroke:none"><tspan style="font-size:15.0724px;line-height:1.25;fill:url(#linearGradient5028);fill-opacity:1" id="tspan4142-7-8-7" x="50.288" y="1117.212">Kozuka Mincho Pr6N H</tspan></text></g></g></svg>