<svg xmlns="http://www.w3.org/2000/svg" xmlns:svg="http://www.w3.org/2000/svg" xmlns:xlink="http://www.w3.org/1999/xlink" id="svg2" width="16" height="16" version="1.1"><defs id="defs4"><linearGradient id="linearGradient4162" x1="4" x2="4" y1="1060.362" y2="1054.362" gradientTransform="matrix(0.99831084,0,0,1.0107427,-0.01475778,-28.3296)" gradientUnits="userSpaceOnUse" xlink:href="#linearGradient4156"/><linearGradient id="linearGradient4156"><stop id="stop4158" offset="0" style="stop-color:#446691;stop-opacity:1"/><stop id="stop4160" offset="1" style="stop-color:#5174a6;stop-opacity:1"/></linearGradient></defs><metadata id="metadata7"/><g style="display:inline" id="layer1" transform="translate(0,-1036.3622)"><path style="display:inline;fill:#7e5320;fill-opacity:1;stroke:#fff;stroke-width:0;stroke-linecap:butt;stroke-linejoin:miter;stroke-miterlimit:4;stroke-dasharray:none;stroke-dashoffset:0;stroke-opacity:1" id="rect4043-2-3" d="m 6.1934524,1045.4788 c -0.1165775,-0.1555 -0.3042716,-0.1555 -0.4208455,0 l -0.7750882,1.0333 -0.7750839,-1.0333 c -0.1165608,-0.1555 -0.3042727,-0.1555 -0.4208439,0 l -0.214155,0.2854 c -0.1165675,0.1554 -0.1165645,0.4056 8.3e-6,0.5611 l 0.7750708,1.0333 -0.7750715,1.0334 c -0.1165856,0.1552 -0.1165826,0.4056 -3e-6,0.561 l 0.2141661,0.2853 c 0.1165653,0.1557 0.3042599,0.1557 0.4208446,0 l 0.7750847,-1.033 0.7804695,1.0404 c 0.1165664,0.1553 0.3042605,0.1553 0.4208456,0 l 0.2141541,-0.2855 c 0.1165731,-0.1555 0.1154023,-0.4042 -9.8e-6,-0.5612 l -0.7804696,-1.0404 0.7750846,-1.0331 c 0.1165769,-0.1557 0.1165753,-0.4059 7.5e-6,-0.5613 z"/><rect id="rect4244" width="6" height="7" x="9.5" y="1036.862" style="display:inline;fill:#d8424f;fill-opacity:1;stroke:#c91625;stroke-width:1;stroke-opacity:1"/><path style="color:#000;font-style:normal;font-variant:normal;font-weight:400;font-stretch:normal;font-size:7.68999243px;line-height:125%;font-family:Sans;text-indent:0;text-align:start;text-decoration:none;text-decoration-line:none;letter-spacing:0;word-spacing:0;text-transform:none;direction:ltr;block-progression:tb;writing-mode:lr-tb;baseline-shift:baseline;text-anchor:start;display:inline;overflow:visible;visibility:visible;fill:#fff;fill-opacity:1;fill-rule:nonzero;stroke:none;stroke-width:.27519909;marker:none;enable-background:accumulate" id="path4187-4" d="m 10.25,1038.1434 0,0.125 0,0.5 0,0.125 0.125,0 0.375,0 1.1875,1.4063 -1.21875,1.5312 -0.34375,0 -0.125,0 0,0.125 0,0.5 0,0.125 0.125,0 1.5,0 0.125,0 0,-0.125 0,-0.5 0,-0.125 -0.125,0 0.625,-0.8437 0.625,0.8437 -0.125,0 0,0.125 0,0.5 0,0.125 0.125,0 1.5,0 0.125,0 0,-0.125 0,-0.5 0,-0.125 -0.125,0 -0.3125,0 -1.25,-1.5625 1.15625,-1.375 0.40625,0 0.125,0 0,-0.125 0,-0.5 0,-0.125 -0.125,0 -1.5,0 -0.125,0 0,0.125 0,0.5 0,0.125 0.0625,0 -0.5625,0.7188 -0.5625,-0.7188 0.0625,0 0,-0.125 0,-0.5 0,-0.125 -0.125,0 -1.5,0 -0.125,0 z"/></g><g id="layer3"><path id="rect7768" d="m 1.5,1043.8622 6.0000005,0 0,7 -6.0000005,0 z" transform="translate(0,-1036.3622)" style="display:inline;opacity:1;fill:url(#linearGradient4162);fill-opacity:1;stroke:#04306e;stroke-width:1;stroke-linecap:butt;stroke-linejoin:miter;stroke-miterlimit:4;stroke-dasharray:none;stroke-dashoffset:0;stroke-opacity:1"/><path style="color:#000;font-style:normal;font-variant:normal;font-weight:400;font-stretch:normal;font-size:7.68999243px;line-height:125%;font-family:Sans;text-indent:0;text-align:start;text-decoration:none;text-decoration-line:none;letter-spacing:0;word-spacing:0;text-transform:none;direction:ltr;block-progression:tb;writing-mode:lr-tb;baseline-shift:baseline;text-anchor:start;display:inline;overflow:visible;visibility:visible;fill:#fff;fill-opacity:1;fill-rule:nonzero;stroke:none;stroke-width:.27519909;marker:none;enable-background:accumulate" id="path4187" d="m 2.2500002,8.78125 0,0.125 0,0.5 0,0.125 0.125,0 0.375,0 1.1875,1.4063 -1.21875,1.5312 -0.34375,0 -0.125,0 0,0.125 0,0.5 0,0.125 0.125,0 1.5,0 0.125,0 0,-0.125 0,-0.5 0,-0.125 -0.125,0 0.625,-0.8437 0.625,0.8437 -0.125,0 0,0.125 0,0.5 0,0.125 0.125,0 1.5,0 0.125,0 0,-0.125 0,-0.5 0,-0.125 -0.125,0 -0.3125,0 -1.25,-1.5625 1.15625,-1.375 0.40625,0 0.125,0 0,-0.125 0,-0.5 0,-0.125 -0.125,0 -1.5,0 -0.125,0 0,0.125 0,0.5 0,0.125 0.0625,0 -0.5625,0.7188 -0.5625,-0.7188 0.0625,0 0,-0.125 0,-0.5 0,-0.125 -0.125,0 -1.5,0 -0.125,0 z"/></g></svg>