<svg xmlns="http://www.w3.org/2000/svg" xmlns:svg="http://www.w3.org/2000/svg" xmlns:xlink="http://www.w3.org/1999/xlink" id="svg2" width="16" height="16" version="1.1"><defs id="defs4"><linearGradient id="linearGradient4908-2" x1="10.545" x2="10.545" y1="1038.578" y2="1052.323" gradientTransform="matrix(1.3256964,0,0,1.2739105,7.8110464,-288.18648)" gradientUnits="userSpaceOnUse" xlink:href="#linearGradient4902-3"/><linearGradient id="linearGradient4902-3"><stop style="stop-color:#b4903d;stop-opacity:1" id="stop4904-2" offset="0"/><stop style="stop-color:#7b744f;stop-opacity:1" id="stop4906-2" offset="1"/></linearGradient><linearGradient id="linearGradient4900-1" x1="7.999" x2="9.987" y1="1042.231" y2="1040.33" gradientTransform="matrix(1.0056621,0,0,1.022686,13.534565,-27.257381)" gradientUnits="userSpaceOnUse" xlink:href="#linearGradient4894-6"/><linearGradient id="linearGradient4894-6"><stop style="stop-color:#e0c88f;stop-opacity:1" id="stop4896-8" offset="0"/><stop style="stop-color:#d5b269;stop-opacity:1" id="stop4898-5" offset="1"/></linearGradient><linearGradient id="linearGradient4101" x1="9.895" x2="9.895" y1="1039.153" y2="1051.838" gradientTransform="matrix(1.3853738,0,0,1.3731735,6.9405586,-391.77518)" gradientUnits="userSpaceOnUse" xlink:href="#linearGradient4994-6"/><linearGradient id="linearGradient4994-6"><stop style="stop-color:#f9fafc;stop-opacity:1" id="stop4996-1" offset="0"/><stop style="stop-color:#dce7f7;stop-opacity:1" id="stop4998-89" offset="1"/></linearGradient></defs><metadata id="metadata7"/><g id="layer1" transform="translate(0,-1036.3622)"><g id="g4242"><g id="g3353" transform="translate(-9.5563496,1.6205583)"><path style="font-style:normal;font-variant:normal;font-weight:400;font-stretch:normal;font-size:11.05178356px;line-height:125%;font-family:AustralianFlyingCorpsStencil;text-align:start;letter-spacing:0;word-spacing:0;writing-mode:lr-tb;text-anchor:start;display:inline;fill:url(#linearGradient4101);fill-opacity:1;stroke:none;stroke-width:.24860173;stroke-miterlimit:4;stroke-dasharray:none;stroke-opacity:1" id="rect4001-3" d="m 14.55635,1034.8201 6.757906,-0.078 4.242094,4.1286 0,9.7929 -11,0.079 z"/><path style="font-style:normal;font-variant:normal;font-weight:400;font-stretch:normal;font-size:11.05178356px;line-height:125%;font-family:AustralianFlyingCorpsStencil;text-align:start;letter-spacing:0;word-spacing:0;writing-mode:lr-tb;text-anchor:start;display:inline;fill:url(#linearGradient4900-1);fill-opacity:1;stroke:none;stroke-width:.24860173;stroke-miterlimit:4;stroke-dasharray:none;stroke-opacity:1" id="path4884" d="m 21.55635,1034.7416 0,4 4,0 z"/><path style="font-style:normal;font-variant:normal;font-weight:400;font-stretch:normal;font-size:11.05178356px;line-height:125%;font-family:AustralianFlyingCorpsStencil;text-align:start;letter-spacing:0;word-spacing:0;writing-mode:lr-tb;text-anchor:start;display:inline;fill:none;fill-opacity:1;stroke:url(#linearGradient4908-2);stroke-width:1.08484948;stroke-linecap:butt;stroke-linejoin:miter;stroke-miterlimit:4;stroke-dasharray:none;stroke-dashoffset:0;stroke-opacity:1" id="rect4001" d="m 15.098773,1035.2841 6.957577,-0.043 3,3 -0.04242,9.9581 -9.915151,0 z"/><g id="text4274" transform="matrix(0.62327782,0,0,0.61261745,12.536387,366.57731)" style="font-style:normal;font-weight:400;font-size:20.8505249px;line-height:125%;font-family:sans-serif;letter-spacing:0;word-spacing:0;display:inline;fill:#21844f;fill-opacity:1;stroke:none;stroke-width:1px;stroke-linecap:butt;stroke-linejoin:miter;stroke-opacity:1"><path id="path4283" d="m 5.3345888,1103.7196 c -0.1425329,0.013 -0.2511294,0.069 -0.3257895,0.1647 -0.07466,0.096 -0.1129672,0.1957 -0.1119901,0.2986 l 0.050073,5.2728 c 0.035415,3.7292 -0.6534498,5.8891 -4.88010539,5.7008 -1.80177981,-0.1182 -2.68329271,-0.9148 -3.22646321,-2.0718 l -0.017128,-3.1277 1.6661364,0 c 0.2156756,0.6325 0.2672726,3.1936 1.55032368,3.2206 2.28669362,0.048 2.00531992,-2.0283 1.99101432,-3.576 l -0.050073,-5.417 c -9.511e-4,-0.1029 -0.03733,-0.2024 -0.1119902,-0.2986 -0.067873,-0.096 -0.1764693,-0.1509 -0.3257894,-0.1647 l -2.42110631,0 0.023486,-1.5646 8.47130621,-0.039 0.0031,1.6187 -2.2850064,-0.021 z" style="font-style:normal;font-variant:normal;font-weight:400;font-stretch:normal;font-family:'Abyssinica SIL';fill:#21844f;fill-opacity:1"/></g><g id="text4278" transform="matrix(0.62198272,0,0,0.65613979,12.879739,358.70624)" style="font-style:normal;font-weight:400;font-size:13.30733204px;line-height:125%;font-family:sans-serif;letter-spacing:0;word-spacing:0;display:inline;fill:#d8424f;fill-opacity:1;stroke:none;stroke-width:1px;stroke-linecap:butt;stroke-linejoin:miter;stroke-opacity:1"><path id="path4286" d="m 14.493918,1045.5868 c -0.0953,0.01 -0.166775,0.043 -0.214425,0.104 -0.04332,0.061 -0.06498,0.1235 -0.06498,0.1884 l 0,4.1111 c 0,2.119 -0.303699,3.1463 -3.402397,3.1906 -2.9671605,0.043 -3.4725414,-1.0246 -3.5398067,-3.1906 l 0,-4.1426 c 0,-0.065 -0.023825,-0.1275 -0.071475,-0.1884 -0.043318,-0.061 -0.112627,-0.095 -0.2079271,-0.104 l -1.0817934,-0.032 0,-1.4845 4.6249862,0 0,1.4845 -0.760234,0.052 c -0.0953,0.01 -0.1667748,0.043 -0.2144248,0.104 -0.043318,0.061 -0.064977,0.1235 -0.064977,0.1884 l 0,3.6054 c 4.416e-4,1.5084 -0.1333615,2.0993 1.3558868,2.0802 1.4123,-0.018 1.58617,-0.797 1.58617,-1.8874 l 0,-3.7667 c 0,-0.065 -0.02599,-0.1275 -0.07797,-0.1884 -0.04765,-0.061 -0.119128,-0.095 -0.214425,-0.104 l -0.7186,-0.013 0,-1.516 4.130158,-0.039 0,1.516 z" style="font-style:normal;font-variant:normal;font-weight:400;font-stretch:normal;font-family:'Abyssinica SIL';-inkscape-font-specification:'Abyssinica SIL';fill:#d8424f;fill-opacity:1"/></g></g></g></g></svg>