<svg xmlns="http://www.w3.org/2000/svg" xmlns:svg="http://www.w3.org/2000/svg" xmlns:xlink="http://www.w3.org/1999/xlink" id="svg2" width="16" height="16" version="1.1"><defs id="defs4"><linearGradient id="linearGradient4908-2" x1="5.994" x2="15.923" y1="1038.405" y2="1052.364" gradientTransform="matrix(1.0070984,0,0,1.0029935,-1.0363003,-5.1516)" gradientUnits="userSpaceOnUse" xlink:href="#linearGradient4902-3"/><linearGradient id="linearGradient4902-3"><stop id="stop4904-2" offset="0" style="stop-color:#b4903d;stop-opacity:1"/><stop id="stop4906-2" offset="1" style="stop-color:#7b744f;stop-opacity:1"/></linearGradient><linearGradient id="linearGradient4101" x1="9.895" x2="9.895" y1="1039.153" y2="1051.838" gradientTransform="matrix(1.0070984,0,0,1.0029935,-1.0363003,-5.1516)" gradientUnits="userSpaceOnUse" xlink:href="#linearGradient4994-6"/><linearGradient id="linearGradient4994-6"><stop id="stop4996-1" offset="0" style="stop-color:#f9fafc;stop-opacity:1"/><stop id="stop4998-89" offset="1" style="stop-color:#dce7f7;stop-opacity:1"/></linearGradient></defs><metadata id="metadata7"/><g style="display:inline" id="layer1" transform="translate(0,-1036.3622)"><path id="rect4001-3" d="m 4.5000041,1036.8623 7.0594269,0 3.492927,0.1007 0,12.8993 -10.5523539,0 z" style="display:inline;fill:url(#linearGradient4101);fill-opacity:1;stroke:none"/><path id="rect4001" d="m 4.5000041,1036.8622 10.9999959,0 c 0,0 0,8.6667 0,13 l -10.9999969,0 z" style="display:inline;fill:none;stroke:url(#linearGradient4908-2);stroke-width:1;stroke-linecap:butt;stroke-linejoin:miter;stroke-miterlimit:4;stroke-dashoffset:0;stroke-opacity:1"/><path id="path4187" d="m 6.5261555,1041.8798 5.5075695,0" style="display:inline;fill:none;fill-rule:evenodd;stroke:#49a068;stroke-width:.99999994px;stroke-linecap:butt;stroke-linejoin:miter;stroke-opacity:1"/><path id="path4189" d="m 6.4632119,1044.8731 5.5705131,0" style="display:inline;fill:none;fill-rule:evenodd;stroke:#49a068;stroke-width:.99999994px;stroke-linecap:butt;stroke-linejoin:miter;stroke-opacity:1"/><path id="path4187-6" d="m 13.012045,1041.8798 1.012273,0" style="display:inline;fill:none;fill-rule:evenodd;stroke:#49a068;stroke-width:.99999994px;stroke-linecap:butt;stroke-linejoin:miter;stroke-opacity:1"/><path id="path4187-6-4" d="m 12.987731,1044.8623 1.012273,0" style="display:inline;fill:none;fill-rule:evenodd;stroke:#49a068;stroke-width:.99999994px;stroke-linecap:butt;stroke-linejoin:miter;stroke-opacity:1"/><path id="path4187-6-4-2" d="m 12.987731,1047.8623 1.012273,0" style="display:inline;fill:none;fill-rule:evenodd;stroke:#49a068;stroke-width:.99999994px;stroke-linecap:butt;stroke-linejoin:miter;stroke-opacity:1"/><path style="display:inline;fill:none;fill-rule:evenodd;stroke:#49a068;stroke-width:.99999994px;stroke-linecap:butt;stroke-linejoin:miter;stroke-opacity:.2154696" id="path4278" d="m 7.500004,1038.3623 0,2.5044 4.51755,0"/><path style="display:inline;fill:none;fill-rule:evenodd;stroke:#49a068;stroke-width:.99999994px;stroke-linecap:butt;stroke-linejoin:miter;stroke-opacity:.2154696" id="path4278-4" d="m 7.0151214,1043.8623 4.9848826,0"/><path style="display:inline;fill:none;fill-rule:evenodd;stroke:#49a068;stroke-width:.99999994px;stroke-linecap:butt;stroke-linejoin:miter;stroke-opacity:.2154696" id="path4278-4-0" d="m 7.0151214,1046.8623 4.9848826,0"/><path style="display:inline;fill:none;fill-rule:evenodd;stroke:#49a068;stroke-width:.99999994px;stroke-linecap:butt;stroke-linejoin:miter;stroke-opacity:.2154696" id="path4278-4-0-3" d="m 12.976323,1046.8623 1.023681,0"/><path style="display:inline;fill:none;fill-rule:evenodd;stroke:#49a068;stroke-width:.99999994px;stroke-linecap:butt;stroke-linejoin:miter;stroke-opacity:.2154696" id="path4278-4-0-3-7" d="m 12.976323,1043.8623 1.023681,0"/><path style="display:inline;fill:none;fill-rule:evenodd;stroke:#49a068;stroke-width:.99999994px;stroke-linecap:butt;stroke-linejoin:miter;stroke-opacity:.2154696" id="path4278-4-0-3-7-2" d="m 12.995025,1040.8807 1.023681,0"/><path id="path4185" d="m 6.4982419,1038.3623 0,9.4848 5.5000001,0" style="display:inline;fill:none;fill-rule:evenodd;stroke:#49a068;stroke-width:1px;stroke-linecap:butt;stroke-linejoin:miter;stroke-opacity:1"/><rect id="rect4244" width="5.998" height="7.002" x="1.5" y="-1050.862" transform="scale(1,-1)" style="display:inline;fill:#d8424f;fill-opacity:1;stroke:#c91625;stroke-width:1;stroke-miterlimit:4;stroke-dasharray:none;stroke-opacity:1"/><path id="path4187-8-9" d="m 2.2263573,1049.8355 0,-0.1402 0,-0.5607 0,-0.1402 0.1215217,0 0.3645649,0 1.1544552,-1.5773 -1.1848357,-1.7173 -0.3341844,0 -0.1215217,0 0,-0.1402 0,-0.5608 0,-0.1402 0.1215217,0 1.4582597,0 0.1215217,0 0,0.1402 0,0.5608 0,0.1402 -0.1215217,0 0.6076078,0.9462 0.6076087,-0.9462 -0.1215217,0 0,-0.1402 0,-0.5608 0,-0.1402 0.1215217,0 1.4582591,0 0.1215217,0 0,0.1402 0,0.5608 0,0.1402 -0.1215217,0 -0.3038039,0 -1.2152165,1.7524 1.124075,1.5422 0.3949454,0 0.1215217,0 0,0.1402 0,0.5607 0,0.1402 -0.1215217,0 -1.4582591,0 -0.1215217,0 0,-0.1402 0,-0.5607 0,-0.1402 0.060757,0 -0.5468474,-0.8062 -0.5468474,0.8062 0.060757,0 0,0.1402 0,0.5607 0,0.1402 -0.1215217,0 -1.4582596,0 -0.1215216,0 z" style="color:#000;font-style:normal;font-variant:normal;font-weight:400;font-stretch:normal;font-size:7.68999243px;line-height:125%;font-family:Sans;text-indent:0;text-align:start;text-decoration:none;text-decoration-line:none;letter-spacing:0;word-spacing:0;text-transform:none;direction:ltr;block-progression:tb;writing-mode:lr-tb;baseline-shift:baseline;text-anchor:start;display:inline;overflow:visible;visibility:visible;fill:#fff;fill-opacity:1;fill-rule:nonzero;stroke:none;stroke-width:.27519909;marker:none;enable-background:accumulate"/></g></svg>