<svg xmlns="http://www.w3.org/2000/svg" xmlns:svg="http://www.w3.org/2000/svg" xmlns:xlink="http://www.w3.org/1999/xlink" id="svg2" width="16" height="16" version="1.1"><defs id="defs4"><filter id="filter4270" width="1.183" height="1.157" x="-.092" y="-.078" style="color-interpolation-filters:sRGB"><feGaussianBlur id="feGaussianBlur4272" stdDeviation=".229"/></filter><linearGradient id="linearGradient4908-2-3" x1="10.545" x2="17.102" y1="1038.578" y2="1052.513" gradientTransform="matrix(0.73243539,0,0,0.77153463,3.4735994,239.31197)" gradientUnits="userSpaceOnUse" xlink:href="#linearGradient4167"/><linearGradient id="linearGradient4167"><stop style="stop-color:#b4903d;stop-opacity:1" id="stop4169" offset="0"/><stop style="stop-color:#7b744f;stop-opacity:1" id="stop4171" offset="1"/></linearGradient><linearGradient id="linearGradient4101-7" x1="9.895" x2="9.895" y1="1039.153" y2="1051.838" gradientTransform="matrix(0.7324354,0,0,0.7715346,3.9735994,239.31194)" gradientUnits="userSpaceOnUse" xlink:href="#linearGradient4994-6"/><linearGradient id="linearGradient4994-6"><stop id="stop4996-1" offset="0" style="stop-color:#f9fafc;stop-opacity:1"/><stop id="stop4998-89" offset="1" style="stop-color:#dce7f7;stop-opacity:1"/></linearGradient><linearGradient id="linearGradient4908-2-3-1" x1="-2.012" x2="-2.012" y1="1035.664" y2="1039.552" gradientTransform="matrix(0.73243539,0,0,0.77153463,3.4735983,239.31197)" gradientUnits="userSpaceOnUse" xlink:href="#linearGradient4902-3"/><linearGradient id="linearGradient4902-3"><stop id="stop4904-2" offset="0" style="stop-color:#b4903d;stop-opacity:1"/><stop id="stop4906-2" offset="1" style="stop-color:#ccc2a5;stop-opacity:1"/></linearGradient><linearGradient id="linearGradient4101-7-8" x1="9.895" x2="9.895" y1="1039.153" y2="1051.838" gradientTransform="matrix(0.7324354,0,0,0.7715346,3.9735984,239.31194)" gradientUnits="userSpaceOnUse" xlink:href="#linearGradient4994-6"/><linearGradient id="linearGradient4162" x1="4" x2="4" y1="1060.362" y2="1054.362" gradientTransform="matrix(0.99831084,0,0,1.0107427,-0.0147578,-28.3296)" gradientUnits="userSpaceOnUse" xlink:href="#linearGradient4156"/><linearGradient id="linearGradient4156"><stop id="stop4158" offset="0" style="stop-color:#446691;stop-opacity:1"/><stop id="stop4160" offset="1" style="stop-color:#5174a6;stop-opacity:1"/></linearGradient></defs><metadata id="metadata7"/><g style="display:inline" id="layer1" transform="translate(0,-1036.3622)"><path id="rect4001-3-8-2" d="m 2.0000043,1036.8623 5.1341296,0 2.540311,0.078 0,9.9226 -7.6744406,0 z" style="display:inline;fill:url(#linearGradient4101-7-8);fill-opacity:1;stroke:none"/><path id="rect4001-5-7" d="m 1.5000032,1036.8622 7.9999966,0 0,2.3197 0,7.6803 -7.9999996,0 z" style="display:inline;fill:none;stroke:url(#linearGradient4908-2-3-1);stroke-width:1;stroke-linecap:butt;stroke-linejoin:miter;stroke-miterlimit:4;stroke-dashoffset:0;stroke-opacity:1"/><path id="path4185-5-6" d="m 3.5,1038.3622 0,6.4697 2.5,0" style="display:inline;fill:none;fill-rule:evenodd;stroke:#49a068;stroke-width:1;stroke-linecap:butt;stroke-linejoin:miter;stroke-miterlimit:4;stroke-dasharray:none;stroke-opacity:1"/><path id="path4187-8-1" d="m 2.999999,1041.8622 3.000001,0" style="display:inline;fill:none;fill-rule:evenodd;stroke:#49a068;stroke-width:1;stroke-linecap:butt;stroke-linejoin:miter;stroke-miterlimit:4;stroke-dasharray:none;stroke-opacity:1"/><path style="display:inline;fill:none;fill-rule:evenodd;stroke:#49a068;stroke-width:1;stroke-linecap:butt;stroke-linejoin:miter;stroke-miterlimit:4;stroke-dasharray:none;stroke-opacity:.2154696" id="path4278-9-2" d="m 4.5,1038.3622 0,2.4884 1.5,0"/><path id="rect4001-3-8" d="m 8.0000039,1040.8623 5.1341301,0 2.540311,0.078 0,9.9226 -7.6744411,0 z" style="display:inline;fill:url(#linearGradient4101-7);fill-opacity:1;stroke:none"/><path id="rect4001-5" d="m 7.5000029,1040.8622 7.9999971,0 c 0,3.3333 0,6.6667 0,10 l -8.0000001,0 z" style="display:inline;fill:none;stroke:url(#linearGradient4908-2-3);stroke-width:1;stroke-linecap:butt;stroke-linejoin:miter;stroke-miterlimit:4;stroke-dashoffset:0;stroke-opacity:1"/><path id="path4185-5" d="m 9.5,1042.3622 0,6.5 2.5,0" style="display:inline;fill:none;fill-rule:evenodd;stroke:#49a068;stroke-width:1;stroke-linecap:butt;stroke-linejoin:miter;stroke-miterlimit:4;stroke-dasharray:none;stroke-opacity:1"/><path id="path4187-8" d="m 8.9999989,1045.8622 3.0000011,0" style="display:inline;fill:none;fill-rule:evenodd;stroke:#49a068;stroke-width:1;stroke-linecap:butt;stroke-linejoin:miter;stroke-miterlimit:4;stroke-dasharray:none;stroke-opacity:1"/><path id="path4187-6-4-2-8" d="m 13,1048.8622 1,0" style="display:inline;fill:none;fill-rule:evenodd;stroke:#49a068;stroke-width:1;stroke-linecap:butt;stroke-linejoin:miter;stroke-miterlimit:4;stroke-dasharray:none;stroke-opacity:1"/><path style="display:inline;fill:none;fill-rule:evenodd;stroke:#49a068;stroke-width:1;stroke-linecap:butt;stroke-linejoin:miter;stroke-miterlimit:4;stroke-dasharray:none;stroke-opacity:.2154696" id="path4278-9" d="m 10.5,1042.3622 0,2.4884 1.5,0"/><path style="display:inline;fill:none;fill-rule:evenodd;stroke:#49a068;stroke-width:.99999994;stroke-linecap:butt;stroke-linejoin:miter;stroke-miterlimit:4;stroke-dasharray:none;stroke-opacity:.2154696" id="path4278-4-0-6" d="m 10,1047.8622 2,0"/><path style="display:inline;fill:none;fill-rule:evenodd;stroke:#49a068;stroke-width:1;stroke-linecap:butt;stroke-linejoin:miter;stroke-miterlimit:4;stroke-dasharray:none;stroke-opacity:.2154696" id="path4278-4-0-3-2" d="m 13,1047.8622 1,0"/><path id="path4187-6-4-2-8-7" d="m 13,1045.8622 1,0" style="display:inline;fill:none;fill-rule:evenodd;stroke:#49a068;stroke-width:1;stroke-linecap:butt;stroke-linejoin:miter;stroke-miterlimit:4;stroke-dasharray:none;stroke-opacity:1"/><path style="display:inline;fill:none;fill-rule:evenodd;stroke:#49a068;stroke-width:1;stroke-linecap:butt;stroke-linejoin:miter;stroke-miterlimit:4;stroke-dasharray:none;stroke-opacity:.2154696" id="path4278-4-0-3-2-1" d="m 13,1044.8622 1,0"/><path id="rect7768-7" d="m 2.4539992,5.4539999 6.0000005,0 0,7.0000001 -6.0000005,0 z" transform="matrix(1.1513332,0,0,1.2890056,-1.1930077,1035.0399)" style="display:inline;opacity:.89200003;fill:#eff0f0;fill-opacity:1;stroke:none;stroke-width:1;stroke-linecap:butt;stroke-linejoin:miter;stroke-miterlimit:4;stroke-dasharray:none;stroke-dashoffset:0;stroke-opacity:1;filter:url(#filter4270)"/><path id="rect7768" d="m 1.5,1043.8622 6.0000005,0 0,7 -6.0000005,0 z" style="display:inline;opacity:1;fill:url(#linearGradient4162);fill-opacity:1;stroke:#04306e;stroke-width:1;stroke-linecap:butt;stroke-linejoin:miter;stroke-miterlimit:4;stroke-dasharray:none;stroke-dashoffset:0;stroke-opacity:1"/><path style="color:#000;font-style:normal;font-variant:normal;font-weight:400;font-stretch:normal;font-size:7.68999243px;line-height:125%;font-family:Sans;text-indent:0;text-align:start;text-decoration:none;text-decoration-line:none;letter-spacing:0;word-spacing:0;text-transform:none;direction:ltr;block-progression:tb;writing-mode:lr-tb;baseline-shift:baseline;text-anchor:start;display:inline;overflow:visible;visibility:visible;fill:#fff;fill-opacity:1;fill-rule:nonzero;stroke:none;stroke-width:.27519909;marker:none;enable-background:accumulate" id="path4187" d="m 2.2500002,1045.1435 0,0.125 0,0.5 0,0.125 0.125,0 0.375,0 1.1875,1.4063 -1.21875,1.5312 -0.34375,0 -0.125,0 0,0.125 0,0.5 0,0.125 0.125,0 1.5,0 0.125,0 0,-0.125 0,-0.5 0,-0.125 -0.125,0 0.625,-0.8437 0.625,0.8437 -0.125,0 0,0.125 0,0.5 0,0.125 0.125,0 1.5,0 0.125,0 0,-0.125 0,-0.5 0,-0.125 -0.125,0 -0.3125,0 -1.25,-1.5625 1.15625,-1.375 0.40625,0 0.125,0 0,-0.125 0,-0.5 0,-0.125 -0.125,0 -1.5,0 -0.125,0 0,0.125 0,0.5 0,0.125 0.0625,0 -0.5625,0.7188 -0.5625,-0.7188 0.0625,0 0,-0.125 0,-0.5 0,-0.125 -0.125,0 -1.5,0 -0.125,0 z"/></g></svg>