<svg xmlns="http://www.w3.org/2000/svg" xmlns:svg="http://www.w3.org/2000/svg" xmlns:xlink="http://www.w3.org/1999/xlink" id="svg2" width="16" height="16" version="1.1"><defs id="defs4"><linearGradient id="linearGradient1037"><stop id="stop1033" offset="0" style="stop-color:#e0e060;stop-opacity:1"/><stop id="stop1035" offset="1" style="stop-color:#80b050;stop-opacity:1"/></linearGradient><linearGradient id="linearGradient5641-4-8"><stop id="stop5643-1-4" offset="0" style="stop-color:#1e6cbe;stop-opacity:1"/><stop id="stop5645-2-3" offset="1" style="stop-color:#104276;stop-opacity:1"/></linearGradient><linearGradient id="linearGradient3174" x1="30.456" x2="30.456" y1="1028.999" y2="1033.872" gradientTransform="matrix(0.69574445,0.13682846,0,0.64372984,-8.5125514,381.02553)" gradientUnits="userSpaceOnUse" xlink:href="#linearGradient5641-4-8"/><linearGradient id="linearGradient5583-2"><stop style="stop-color:#005020;stop-opacity:1" id="stop5585-3" offset="0"/><stop style="stop-color:#309858;stop-opacity:1" id="stop5587-3" offset="1"/></linearGradient><linearGradient id="linearGradient5620" x1="2.188" x2="2.031" y1="9.264" y2="4.672" gradientTransform="matrix(1.4105678,0,0,1.4692784,1.35886,1033.7454)" gradientUnits="userSpaceOnUse" xlink:href="#linearGradient5583-2"/><linearGradient id="linearGradient1039" x1="-5.757" x2="-5.077" y1="1042.476" y2="1047.072" gradientTransform="translate(11)" gradientUnits="userSpaceOnUse" xlink:href="#linearGradient1037"/></defs><metadata id="metadata7"/><g style="display:inline" id="layer1" transform="translate(0,-1036.3622)"><path id="path5639" d="m 10.490941,1038.9341 c 0,0 0.803623,-0.9469 1.776433,-1.0253 0.972807,-0.077 2.241686,-0.041 2.241686,-0.041 v 13.1768 l -2.030207,-2.0455 -0.930513,2.5152 c 0,0 -0.972807,-0.861 -1.015103,-1.6048 -0.0423,-0.7434 -0.0423,-10.9749 -0.0423,-10.9749 z" style="display:inline;fill:#71baff;fill-opacity:1;stroke:url(#linearGradient3174);stroke-width:.97756839px;stroke-linecap:butt;stroke-linejoin:miter;stroke-opacity:1"/><path id="path5581" d="m 3.5,1041.8622 h 2 v 2 h 2 v 2 h -2 v 2 h -2 v -2 h -2 v -2 h 2 z" style="display:inline;fill:url(#linearGradient1039);fill-opacity:1;stroke:url(#linearGradient5620);stroke-width:.99999994;stroke-linecap:butt;stroke-linejoin:miter;stroke-miterlimit:4;stroke-dasharray:none;stroke-opacity:1"/></g></svg>