<svg xmlns="http://www.w3.org/2000/svg" xmlns:svg="http://www.w3.org/2000/svg" xmlns:xlink="http://www.w3.org/1999/xlink" id="svg2" width="16" height="16" version="1.1"><defs id="defs4"><linearGradient id="linearGradient4811"><stop id="stop4813" offset="0" style="stop-color:#9f6716;stop-opacity:1"/><stop id="stop4815" offset="1" style="stop-color:#dfd4c4;stop-opacity:1"/></linearGradient><linearGradient id="linearGradient4801"><stop id="stop4803" offset="0" style="stop-color:#fff;stop-opacity:1"/><stop id="stop4805" offset="1" style="stop-color:#b4ccdf;stop-opacity:1"/></linearGradient><linearGradient id="linearGradient3241" x1="-21.906" x2="-21.906" y1="1045.014" y2="1052.009" gradientUnits="userSpaceOnUse" xlink:href="#linearGradient4801"/><linearGradient id="linearGradient3243" x1="-16.617" x2="-19.622" y1="1.946" y2="4.51" gradientTransform="matrix(1.2222222,0,0,1.2222222,3.8596245,1035.6056)" gradientUnits="userSpaceOnUse" xlink:href="#linearGradient4811"/><radialGradient id="radialGradient5366-0-3" cx="7.738" cy="2.433" r="2.35" fx="7.738" fy="2.433" gradientTransform="matrix(0.3089145,0.02433326,-0.0270668,0.33136796,5.4628028,1.7171329)" gradientUnits="userSpaceOnUse" xlink:href="#linearGradient3844-7"/><linearGradient id="linearGradient3844-7"><stop style="stop-color:#fff;stop-opacity:1" id="stop3846-9" offset="0"/><stop id="stop3848-5" offset=".612" style="stop-color:#ddd;stop-opacity:1"/><stop style="stop-color:#464646;stop-opacity:1" id="stop3850-7" offset="1"/></linearGradient><linearGradient id="linearGradient5368-1-8" x1="7.83" x2="7.802" y1="5.575" y2="1.931" gradientUnits="userSpaceOnUse" xlink:href="#linearGradient3860-4"/><linearGradient id="linearGradient3860-4"><stop style="stop-color:#424242;stop-opacity:1" id="stop3862-1" offset="0"/><stop style="stop-color:#6b6b6b;stop-opacity:1" id="stop3864-9" offset="1"/></linearGradient><radialGradient id="radialGradient5370-9-6" cx="7.938" cy="3.452" r="2.35" fx="7.938" fy="3.452" gradientTransform="matrix(0.37553419,-2.0140452e-8,1.7614747e-8,0.40297829,4.9079328,2.1932289)" gradientUnits="userSpaceOnUse" xlink:href="#linearGradient5328-5-0-3"/><linearGradient id="linearGradient5328-5-0-3"><stop id="stop5330-9-96-5" offset="0" style="stop-color:#fff;stop-opacity:1"/><stop style="stop-color:#ddd;stop-opacity:1" id="stop3842-6" offset=".5"/><stop id="stop5332-8-97-7" offset="1" style="stop-color:#464646;stop-opacity:1"/></linearGradient><linearGradient id="linearGradient5372-5-7" x1="7.83" x2="7.889" y1="5.968" y2="3.584" gradientUnits="userSpaceOnUse" xlink:href="#linearGradient5209-0-9-4"/><linearGradient id="linearGradient5209-0-9-4"><stop id="stop5211-9-9-6" offset="0" style="stop-color:#4c4c4c;stop-opacity:1"/><stop id="stop5213-4-2-4" offset="1" style="stop-color:#6b6b6b;stop-opacity:1"/></linearGradient><radialGradient id="radialGradient5374-4-5" cx="7.93" cy="1.786" r="2.35" fx="7.93" fy="1.786" gradientTransform="matrix(0.35882709,-0.01458857,0.01251176,0.40537334,4.9838699,2.1071585)" gradientUnits="userSpaceOnUse" xlink:href="#linearGradient3852-6"/><linearGradient id="linearGradient3852-6"><stop style="stop-color:#fff;stop-opacity:1" id="stop3854-9" offset="0"/><stop id="stop3856-9" offset=".666" style="stop-color:#ddd;stop-opacity:1"/><stop style="stop-color:#464646;stop-opacity:1" id="stop3858-6" offset="1"/></linearGradient><linearGradient id="linearGradient5376-4-0" x1="7.845" x2="7.845" y1="5.653" y2="1.018" gradientUnits="userSpaceOnUse" xlink:href="#linearGradient3866-5"/><linearGradient id="linearGradient3866-5"><stop style="stop-color:#717188;stop-opacity:1" id="stop3868-7" offset="0"/><stop style="stop-color:#6b6b6b;stop-opacity:1" id="stop3870-9-9" offset="1"/></linearGradient></defs><metadata id="metadata7"/><g style="display:inline" id="layer1" transform="translate(0,-1036.3622)"><g id="g4827" transform="translate(0.53033009,-0.70710678)"><g id="g4819" transform="translate(31.245281,-0.08838834)"><path id="path4031" d="m -27.267805,1037.7339 0,13.0815 10.960155,0 0,-10.1647 -3.049398,-3.0052 z" style="fill:url(#linearGradient3241);fill-opacity:1;stroke:#b4903d;stroke-width:1px;stroke-linecap:butt;stroke-linejoin:miter;stroke-opacity:1"/><path id="path4809" d="m -19.780575,1037.3361 0,3.8228 3.870672,0 z" style="fill:url(#linearGradient3243);fill-opacity:1;stroke:none"/></g><g id="g5354" transform="matrix(1.0360309,0,0,1,-15.153295,1.4548986)" style="display:inline"><path id="path5232" d="m 16.00016,1040.6747 1.0625,0 c 0,0 -0.01559,0.9707 0,1.3125 0.03102,0.6799 1.089433,0.911 2.135523,0.988 l -0.368927,1.0914 c -0.259641,-0.033 -1.305203,-0.1906 -1.961455,-0.5505 -0.68501,-0.3756 -0.867641,-0.8082 -0.867641,-1.2264 0,-0.679 0,-1.615 0,-1.615 z" style="fill:#424242;fill-opacity:1;stroke:none"/><rect id="rect5291" width="3.599" height="1.004" x="15.073" y="1044.669" style="fill:#424242;fill-opacity:1;stroke:none"/><path id="path3990" d="m 21.758434,1046.9302 c 0,0 2.443218,1.4337 2.443218,1.875 0,0.4412 0.03016,1.8437 0.03016,1.8437" style="fill:none;stroke:#424242;stroke-width:.98245722px;stroke-linecap:butt;stroke-linejoin:round;stroke-opacity:1"/><rect id="rect5291-0" width="3.581" height="1.004" x="22.202" y="1044.669" style="fill:#424242;fill-opacity:1;stroke:none;display:inline"/><path id="path5232-0" d="m 24.785679,1040.6435 -1.0625,0 c 0,0 0.01559,0.9707 0,1.3125 -0.03102,0.6799 -1.14976,0.911 -2.19585,0.988 l 0.368927,1.0914 c 0.259641,-0.033 1.36553,-0.1906 2.021782,-0.5505 0.68501,-0.3756 0.867641,-0.8082 0.867641,-1.2264 0,-0.679 0,-1.615 0,-1.615 z" style="fill:#424242;fill-opacity:1;stroke:none;display:inline"/><path id="path3990-6" d="m 19.027634,1046.9302 c 0,0 -2.443218,1.4337 -2.443218,1.875 0,0.4412 -0.03016,1.8437 -0.03016,1.8437" style="fill:none;stroke:#424242;stroke-width:.98245722px;stroke-linecap:butt;stroke-linejoin:round;stroke-opacity:1;display:inline"/><g id="g5221" transform="matrix(1.2267698,0,0,1,-0.6977351,0)"><rect id="rect4812" width="2.875" height="1.5" x="7.063" y="5.031" transform="matrix(0.78679975,0,0,1,10.510885,1036.6801)" style="fill:#717188;fill-opacity:1;stroke:none"/><path style="fill:url(#radialGradient5366-0-3);fill-opacity:1;stroke:url(#linearGradient5368-1-8);stroke-width:.73476011;stroke-miterlimit:4;stroke-opacity:1;stroke-dasharray:none" id="path5160" d="m 9.7227181,3.7582138 c 0,1.1959806 -0.8508154,2.1655144 -1.9003495,2.1655144 -1.049534,0 -1.9003495,-0.9695338 -1.9003495,-2.1655144 0,-1.1959807 0.8508155,-2.1655145 1.9003495,-2.1655145 1.0495341,0 1.9003495,0.9695338 1.9003495,2.1655145 z" transform="matrix(0.87416197,0,0,0.95795205,10.384403,1036.6143)"/><path style="fill:url(#radialGradient5370-9-6);fill-opacity:1;stroke:url(#linearGradient5372-5-7);stroke-width:.74850893;stroke-miterlimit:4;stroke-opacity:1;stroke-dasharray:none;display:inline" id="path5160-4" d="m 9.7227181,3.7582138 c 0,1.1959806 -0.8508154,2.1655144 -1.9003495,2.1655144 -1.049534,0 -1.9003495,-0.9695338 -1.9003495,-2.1655144 0,-1.1959807 0.8508155,-2.1655145 1.9003495,-2.1655145 1.0495341,0 1.9003495,0.9695338 1.9003495,2.1655145 z" transform="matrix(0.83859985,0,0,0.96222818,10.58764,1044.6295)"/><path style="fill:none;stroke:#b9b9bc;stroke-width:.74850893;stroke-miterlimit:4;stroke-opacity:1;stroke-dasharray:none;display:inline" id="path5160-4-3-3" d="M 6.495798,5.3087931 C 5.8243753,4.562881 5.730772,3.3703871 6.2753669,2.5005297" transform="matrix(-0.83859982,0,0,0.96222818,23.702439,1044.6295)"/><path style="fill:none;stroke:#b9b9bc;stroke-width:.73476011;stroke-miterlimit:4;stroke-opacity:1;stroke-dasharray:none;display:inline" id="path5160-8" d="M 6.8844671,5.6416097 C 5.971664,5.0513436 5.6516038,3.7296132 6.1695925,2.6894423 6.2510184,2.5259313 6.3507833,2.3751996 6.4663706,2.2410492" transform="matrix(0.87416199,0,0,0.95795205,10.384403,1036.6143)"/><path style="fill:none;stroke:#b9b9bc;stroke-width:.73476011;stroke-miterlimit:4;stroke-opacity:1;stroke-dasharray:none;display:inline" id="path5160-18" d="M 8.9887997,2.0486202 C 9.8173679,2.7827109 9.9668263,4.1432201 9.3226242,5.0874026 9.2726304,5.1606766 9.2185543,5.2302123 9.1607304,5.2955792" transform="matrix(0.87416199,0,0,0.95795205,10.384403,1036.6143)"/><path style="fill:#717188;fill-opacity:1;stroke:#717188;stroke-width:.73476011;stroke-miterlimit:4;stroke-opacity:1;stroke-dasharray:none;display:inline" id="path5160-1" d="M 9.2080729,5.2401138 C 8.5324781,6.0604524 7.4181631,6.1546571 6.6437341,5.456904" transform="matrix(0.87416199,0,0,0.95795205,10.384403,1036.6143)"/><path style="fill:none;stroke:#717188;stroke-width:.73476011;stroke-miterlimit:4;stroke-opacity:1;stroke-dasharray:none;display:inline" id="path5160-1-9" d="M 7.4605451,1.6323133 C 8.0018493,1.5126804 8.5620639,1.6668612 8.9957835,2.0548376" transform="matrix(0.87416199,0,0,0.95795205,10.384403,1036.6143)"/><path style="fill:none;stroke:#b9b9bc;stroke-width:.74850893;stroke-miterlimit:4;stroke-opacity:1;stroke-dasharray:none;display:inline" id="path5160-4-3" d="M 6.5415829,5.357999 C 5.7662341,4.5519395 5.711117,3.1822508 6.4184754,2.2987138 c 0.01334,-0.016663 0.026908,-0.033087 0.040698,-0.049267" transform="matrix(0.83859982,0,0,0.96222818,10.58764,1044.6295)"/><path style="fill:none;stroke:#717188;stroke-width:.74850893;stroke-miterlimit:4;stroke-opacity:1;stroke-dasharray:none;display:inline" id="path5160-4-2" d="M 9.2223552,5.2225784 C 8.5126391,6.1036568 7.3105051,6.1622936 6.5373139,5.3535473 6.4859681,5.2998404 6.4372541,5.2429554 6.3913926,5.1831499" transform="matrix(0.83859982,0,0,0.96222818,10.58764,1044.6295)"/><g id="g4814"><path id="path5160-2" d="m 9.7227181,3.7582138 c 0,1.1959806 -0.8508154,2.1655144 -1.9003495,2.1655144 -1.049534,0 -1.9003495,-0.9695338 -1.9003495,-2.1655144 0,-1.1959807 0.8508155,-2.1655145 1.9003495,-2.1655145 1.0495341,0 1.9003495,0.9695338 1.9003495,2.1655145 z" transform="matrix(0.83008275,0,0,0.99611349,10.71719,1041.4653)" style="fill:url(#radialGradient5374-4-5);fill-opacity:1;stroke:url(#linearGradient5376-4-0);stroke-width:.76813984;stroke-miterlimit:4;stroke-opacity:1;stroke-dasharray:none;display:inline"/><path id="path5160-2-6" d="M 6.1730079,2.6826127 C 6.6943067,1.6445913 7.8553467,1.2846717 8.7662635,1.8787098 9.0150626,2.0409597 9.2284265,2.2652477 9.3903785,2.5347793" transform="matrix(0.83008279,0,0,0.99611349,10.71719,1041.4653)" style="fill:none;stroke:#717188;stroke-width:.76813984;stroke-miterlimit:4;stroke-opacity:1;stroke-dasharray:none;display:inline"/><path id="path5160-2-3" d="M 6.2760225,5.0169443 C 5.7539854,4.1841638 5.8148397,3.0486227 6.4219245,2.2944173" transform="matrix(0.83008279,0,0,0.99611349,10.71719,1041.4653)" style="fill:none;stroke:#b8b8b8;stroke-width:.76813984;stroke-miterlimit:4;stroke-opacity:1;stroke-dasharray:none;display:inline"/><path id="path5160-2-3-5" d="M 6.1702789,4.8283624 C 5.7369983,3.9597741 5.8814363,2.8661412 6.5198739,2.1813529" transform="matrix(-0.83008279,0,0,0.99611349,23.691612,1041.4653)" style="fill:none;stroke:#b8b8b8;stroke-width:.76813984;stroke-miterlimit:4;stroke-opacity:1;stroke-dasharray:none;display:inline"/><path id="path5160-2-3-6" d="M 8.0166796,5.9123782 C 7.2842139,5.998173 6.574178,5.5940758 6.1943583,4.8752547" transform="matrix(0.83008279,0,0,0.99611349,10.71719,1041.4653)" style="fill:none;stroke:#888;stroke-width:.76813984;stroke-miterlimit:4;stroke-opacity:1;stroke-dasharray:none;display:inline"/></g></g></g></g></g></svg>