<svg xmlns="http://www.w3.org/2000/svg" xmlns:svg="http://www.w3.org/2000/svg" xmlns:xlink="http://www.w3.org/1999/xlink" id="svg2" width="16" height="16" version="1.1"><defs id="defs4"><linearGradient id="linearGradient10351"><stop style="stop-color:#849abe;stop-opacity:1" id="stop10353" offset="0"/><stop style="stop-color:#677da9;stop-opacity:1" id="stop10355" offset="1"/></linearGradient><linearGradient id="linearGradient10593"><stop style="stop-color:#1b639e;stop-opacity:1" id="stop10595" offset="0"/><stop style="stop-color:#6f8db9;stop-opacity:1" id="stop10597" offset="1"/></linearGradient><linearGradient id="linearGradient9610"><stop style="stop-color:#c7b571;stop-opacity:1" id="stop9612" offset="0"/><stop id="stop9614" offset="1" style="stop-color:#9a9990;stop-opacity:1"/></linearGradient><linearGradient id="linearGradient9568" x1="8.014" x2="8.014" y1="1035.974" y2="1051.01" gradientTransform="translate(-7.930539,1.0094674)" gradientUnits="userSpaceOnUse" xlink:href="#linearGradient9610"/><linearGradient id="linearGradient10599" x1="10" x2="10" y1="10" y2="5" gradientTransform="translate(1,1038.3622)" gradientUnits="userSpaceOnUse" xlink:href="#linearGradient10593"/><linearGradient id="linearGradient10357" x1="5" x2="11" y1="1037.862" y2="1037.862" gradientTransform="translate(0,2)" gradientUnits="userSpaceOnUse" xlink:href="#linearGradient10351"/><linearGradient id="linearGradient10351-2"><stop style="stop-color:#849abe;stop-opacity:1" id="stop10353-6" offset="0"/><stop style="stop-color:#677da9;stop-opacity:1" id="stop10355-9" offset="1"/></linearGradient><linearGradient id="linearGradient10490" x1="5" x2="11" y1="1037.862" y2="1037.862" gradientTransform="translate(0,12)" gradientUnits="userSpaceOnUse" xlink:href="#linearGradient10351-2"/><linearGradient id="linearGradient10599-8" x1="10" x2="10" y1="10" y2="5" gradientTransform="translate(1,1038.3622)" gradientUnits="userSpaceOnUse" xlink:href="#linearGradient10593"/><linearGradient id="linearGradient10357-8" x1="5" x2="11" y1="1037.862" y2="1037.862" gradientTransform="translate(0,6.0000006)" gradientUnits="userSpaceOnUse" xlink:href="#linearGradient10351"/><linearGradient id="linearGradient10357-8-1" x1="5" x2="11" y1="1037.862" y2="1037.862" gradientTransform="translate(0,7.9687501)" gradientUnits="userSpaceOnUse" xlink:href="#linearGradient10351"/></defs><metadata id="metadata7"/><g id="layer1" transform="translate(0,-1036.3622)" style="display:inline"><rect id="rect18863-4-58" width="6" height="1" x="5" y="1043.362" style="display:inline;fill:url(#linearGradient10357-8);fill-opacity:1;stroke:none"/><rect style="display:inline;fill:none;stroke:url(#linearGradient9568);stroke-width:1;stroke-linecap:butt;stroke-linejoin:miter;stroke-miterlimit:4;stroke-dasharray:none;stroke-dashoffset:0;stroke-opacity:1" id="rect3997-9" width="13.014" height="14.031" x="1.5" y="1037.862" rx="0" ry="0"/><rect id="rect18863" width="1" height="1" x="3" y="1039.362" style="fill:#879cc0;fill-opacity:1;stroke:none;display:inline"/><rect id="rect18863-4" width="6" height="1" x="5" y="1039.362" style="fill:url(#linearGradient10357);fill-opacity:1;stroke:none;display:inline"/><path style="display:inline;fill:url(#linearGradient10599);fill-opacity:1;stroke:none" id="rect18863-4-5" d="m 5.0037913,1041.3622 0,7 1,0 3.9947402,0 0.9999995,0 0,-1 0,-6 -4.9947397,0 z m 1,1 3.9947402,0 0,5 -3.9947402,0 z"/><rect id="rect18863-7" width="1" height="1" x="3" y="1041.362" style="fill:#879cc0;fill-opacity:1;stroke:none;display:inline"/><rect id="rect18863-5" width="1" height="1" x="3" y="1043.362" style="fill:#879cc0;fill-opacity:1;stroke:none;display:inline"/><rect id="rect18863-70" width="1" height="1" x="3" y="1045.362" style="fill:#879cc0;fill-opacity:1;stroke:none;display:inline"/><rect id="rect18863-9" width="1" height="1" x="3" y="1047.362" style="fill:#879cc0;fill-opacity:1;stroke:none;display:inline"/><rect id="rect18863-9-2" width="1" height="1" x="3" y="1049.362" style="fill:#879cc0;fill-opacity:1;stroke:none;display:inline"/><rect id="rect18863-4-2" width="6" height="1" x="5" y="1049.362" style="fill:url(#linearGradient10490);fill-opacity:1;stroke:none;display:inline"/><rect id="rect18863-2" width="1" height="1" x="12.011" y="1039.362" style="display:inline;fill:#879cc0;fill-opacity:1;stroke:none"/><rect id="rect18863-7-8" width="1" height="1" x="12.011" y="1041.362" style="display:inline;fill:#879cc0;fill-opacity:1;stroke:none"/><rect id="rect18863-5-4" width="1" height="1" x="12.011" y="1043.362" style="display:inline;fill:#879cc0;fill-opacity:1;stroke:none"/><rect id="rect18863-70-9" width="1" height="1" x="12.011" y="1045.362" style="display:inline;fill:#879cc0;fill-opacity:1;stroke:none"/><rect id="rect18863-9-23" width="1" height="1" x="12.011" y="1047.362" style="display:inline;fill:#879cc0;fill-opacity:1;stroke:none"/><rect id="rect18863-9-2-9" width="1" height="1" x="12.011" y="1049.362" style="display:inline;fill:#879cc0;fill-opacity:1;stroke:none"/><rect id="rect18863-4-58-6" width="6" height="1" x="5" y="1045.331" style="display:inline;fill:url(#linearGradient10357-8-1);fill-opacity:1;stroke:none"/><path style="display:inline;fill:url(#linearGradient10599-8);fill-opacity:1;stroke:none" id="rect18863-4-5-5" d="m 5.0037913,1041.3622 0,7 1,0 3.9947402,0 0.9999995,0 0,-1 0,-6 -4.9947397,0 z m 1,1 3.9947402,0 0,5 -3.9947402,0 z"/></g></svg>