<svg xmlns="http://www.w3.org/2000/svg" xmlns:svg="http://www.w3.org/2000/svg" xmlns:xlink="http://www.w3.org/1999/xlink" id="svg2" width="16" height="16" version="1.1"><defs id="defs4"><linearGradient id="linearGradient4844-4"><stop id="stop4846-8" offset="0" style="stop-color:#414141;stop-opacity:1"/><stop id="stop4848-8" offset="1" style="stop-color:#535353;stop-opacity:1"/></linearGradient><linearGradient id="linearGradient4049" x1="8.657" x2="8.657" y1="1050.739" y2="1037.7" gradientTransform="matrix(0.66424307,0,0,0.74821423,1.7780465,262.96969)" gradientUnits="userSpaceOnUse" xlink:href="#linearGradient4844-4"/></defs><metadata id="metadata7"/><g style="display:inline" id="layer1" transform="translate(0,-1036.3622)"><path id="rect4043" d="m 10.691718,1040.1063 c -0.310988,-0.3502 -0.8116884,-0.3502 -1.1226604,0 l -2.067654,2.3291 -2.0676381,-2.3291 c -0.310941,-0.3502 -0.811687,-0.3502 -1.122659,0 l -0.571287,0.6437 c -0.310957,0.3501 -0.31095,0.9141 2.5e-5,1.2644 l 2.067604,2.3291 -2.067607,2.329 c -0.311005,0.3503 -0.310997,0.9143 -9e-6,1.2645 l 0.571317,0.6437 c 0.310955,0.3502 0.811654,0.3502 1.122659,0 l 2.0676412,-2.329 2.0820069,2.3451 c 0.310956,0.3504 0.8116554,0.3504 1.1226614,0 l 0.571285,-0.6435 c 0.310973,-0.3503 0.307849,-0.9108 -2.4e-5,-1.2646 l -2.0820085,-2.3452 2.0676415,-2.329 c 0.310986,-0.3503 0.310978,-0.9143 2.3e-5,-1.2645 z" style="display:inline;fill:#fff;fill-opacity:1;stroke:url(#linearGradient4049);stroke-width:.99999994;stroke-linecap:round;stroke-linejoin:miter;stroke-miterlimit:4;stroke-dasharray:none;stroke-dashoffset:0;stroke-opacity:1"/></g></svg>