<svg xmlns="http://www.w3.org/2000/svg" xmlns:svg="http://www.w3.org/2000/svg" xmlns:xlink="http://www.w3.org/1999/xlink" id="svg2" width="16" height="16" version="1.1"><defs id="defs4"><linearGradient id="lefthandle-stroke-3"><stop style="stop-color:#7395b8;stop-opacity:1" id="lefthandle-stroke-stop0" offset="0"/><stop style="stop-color:#125f9c;stop-opacity:1" id="lefthandle-stroke-stop1" offset="1"/></linearGradient><linearGradient id="righthandle-stroke-6"><stop style="stop-color:#7395b8;stop-opacity:1" id="righthandle-stroke-stop0" offset="0"/><stop style="stop-color:#125f9c;stop-opacity:1" id="righthandle-stroke-stop1" offset="1"/></linearGradient><linearGradient id="lefthandle-stroke" x1="-17.094" x2="-13.313" y1="9.625" y2="12.438" gradientUnits="userSpaceOnUse" xlink:href="#lefthandle-stroke-3"/><linearGradient id="righthandle-stroke" x1="-17.094" x2="-13.313" y1="9.625" y2="12.438" gradientTransform="translate(27.726339,1036.5644)" gradientUnits="userSpaceOnUse" xlink:href="#righthandle-stroke-6"/></defs><metadata id="metadata7"/><g id="layer1" transform="translate(0,-1036.3622)" style="display:inline"><g id="g4857" transform="matrix(0.75134134,0.65047808,-0.62287103,0.78464248,652.4173,219.65493)"><path id="leftblade" d="m 6.312499,1045.9559 2.125,-3 2.500001,-5.875 c 0,0 0.71875,1.4063 0.5,2.0313 -0.21875,0.625 -2.531251,6.0312 -2.531251,6.0312 l -2,1.9688 z" style="fill:#79879d;fill-opacity:1;stroke:#4d607b;stroke-width:.5;stroke-linecap:butt;stroke-linejoin:miter;stroke-miterlimit:4;stroke-opacity:1;stroke-dasharray:none"><title id="title3215">leftblade</title></path><path id="rightblade" d="m 11.317555,1045.6254 -1.963626,-2.6695 -2.500001,-5.875 c 0,0 -0.71875,1.4063 -0.5,2.0313 0.21875,0.625 2.531251,6.0312 2.531251,6.0312 l 1.838626,1.6383 z" style="display:inline;fill:#79879d;fill-opacity:1;stroke:#4d607b;stroke-width:.5;stroke-linecap:butt;stroke-linejoin:miter;stroke-miterlimit:4;stroke-dasharray:none;stroke-opacity:1"><title id="title3213">rightblade</title></path><path id="pin" d="m -10.906251,7.0937495 a 0.265625,0.265625 0 0 1 -0.265625,0.265625 0.265625,0.265625 0 0 1 -0.265625,-0.265625 0.265625,0.265625 0 0 1 0.265625,-0.265625 0.265625,0.265625 0 0 1 0.265625,0.265625 z" transform="matrix(1.3529412,0,0,1.3529412,24.013328,1033.8898)" style="fill:#4d607b;fill-opacity:1;stroke:none"><title id="title3211">pin</title></path><path id="lefthandle" d="m -13.187501,10.875 a 2.03125,2.1875 0 0 1 -2.03125,2.1875 2.03125,2.1875 0 0 1 -2.03125,-2.1875 2.03125,2.1875 0 0 1 2.03125,-2.1875 2.03125,2.1875 0 0 1 2.03125,2.1875 z" transform="translate(20,1036.706)" style="fill:none;stroke:url(#lefthandle-stroke);stroke-width:1;stroke-linecap:round;stroke-linejoin:round;stroke-miterlimit:4;stroke-opacity:1;stroke-dasharray:none;stroke-dashoffset:0"><title id="title3207">lefthandle</title></path><ellipse id="righthandle" cx="12.508" cy="1047.439" rx="2.031" ry="2.188" style="display:inline;fill:none;stroke:url(#righthandle-stroke);stroke-width:1;stroke-linecap:round;stroke-linejoin:round;stroke-miterlimit:4;stroke-dasharray:none;stroke-dashoffset:0;stroke-opacity:1"><title id="title3209">righthandle</title></ellipse></g></g></svg>