<svg xmlns="http://www.w3.org/2000/svg" xmlns:svg="http://www.w3.org/2000/svg" id="svg1545" width="409" height="295" version="1.1" viewBox="0 0 108.215 78.052"><defs id="defs1539"><marker style="overflow:visible" id="Arrow2Mend-4" orient="auto" refX="0" refY="0"><path style="fill:#919191;fill-opacity:1;fill-rule:evenodd;stroke:#919191;stroke-width:.625;stroke-linejoin:round;stroke-opacity:1" id="path2195-8" d="M 8.7185878,4.0337352 -2.2072895,0.01601326 8.7185884,-4.0017078 c -1.7454984,2.3720609 -1.7354408,5.6174519 -6e-7,8.035443 z" transform="scale(-0.6)"/></marker><marker style="overflow:visible" id="Arrow2Mend-7" orient="auto" refX="0" refY="0"><path style="fill:#919191;fill-opacity:1;fill-rule:evenodd;stroke:#919191;stroke-width:.625;stroke-linejoin:round;stroke-opacity:1" id="path2195-0" d="M 8.7185878,4.0337352 -2.2072895,0.01601326 8.7185884,-4.0017078 c -1.7454984,2.3720609 -1.7354408,5.6174519 -6e-7,8.035443 z" transform="scale(-0.6)"/></marker><marker style="overflow:visible" id="Arrow2Mend-22" orient="auto" refX="0" refY="0"><path style="fill:#919191;fill-opacity:1;fill-rule:evenodd;stroke:#919191;stroke-width:.625;stroke-linejoin:round;stroke-opacity:1" id="path2195-4" d="M 8.7185878,4.0337352 -2.2072895,0.01601326 8.7185884,-4.0017078 c -1.7454984,2.3720609 -1.7354408,5.6174519 -6e-7,8.035443 z" transform="scale(-0.6)"/></marker><marker style="overflow:visible" id="Arrow2Mend-7-4" orient="auto" refX="0" refY="0"><path style="fill:#919191;fill-opacity:1;fill-rule:evenodd;stroke:#919191;stroke-width:.625;stroke-linejoin:round;stroke-opacity:1" id="path2195-0-9" d="M 8.7185878,4.0337352 -2.2072895,0.01601326 8.7185884,-4.0017078 c -1.7454984,2.3720609 -1.7354408,5.6174519 -6e-7,8.035443 z" transform="scale(-0.6)"/></marker></defs><metadata id="metadata1542"/><g id="layer1" transform="translate(0,-218.9479)"><path id="path6471" d="m 77.92,227.41457 v 29.89741 l 0.0049,0.66498 c 0.194628,2.49451 5.74452,4.49468 12.562427,4.49468 6.81791,0 12.367803,-2.00017 12.562433,-4.49468 l 0.005,-5.13564 v -20.42634 l -0.005,-4.8651 c 0.004,-0.045 0.005,-0.0902 0.005,-0.13553 v 0 c 0,-2.55719 -5.626755,-4.63021 -12.567713,-4.63021 -6.940955,0 -12.56729,2.07302 -12.567287,4.63021 0,0.0453 0.0018,0.0905 0.0053,0.13553" style="fill:#e6e6e6;fill-opacity:1;stroke:#919191;stroke-width:.529;stroke-linecap:butt;stroke-linejoin:miter;stroke-opacity:1;stroke-miterlimit:4;stroke-dasharray:none"/><rect id="rect1379-5-1-4" width="23.548" height="12.965" x="41.992" y="249.467" style="opacity:1;fill:#e6e6e6;fill-opacity:1;stroke:#919191;stroke-width:.52916664;stroke-linecap:butt;stroke-linejoin:round;stroke-miterlimit:4;stroke-dasharray:none;stroke-opacity:1"/><path id="path2166-7" d="M 18.520833,285.09373 38.364583,274.5104" style="fill:none;stroke:#919191;stroke-width:.26499999;stroke-linecap:butt;stroke-linejoin:miter;stroke-miterlimit:4;stroke-dasharray:none;stroke-opacity:1;marker-end:url(#Arrow2Mend-4)"/><path id="path2166-4" d="M 85.989583,285.09373 67.46875,274.5104" style="fill:none;stroke:#919191;stroke-width:.26499999;stroke-linecap:butt;stroke-linejoin:miter;stroke-miterlimit:4;stroke-dasharray:none;stroke-opacity:1;marker-end:url(#Arrow2Mend-7)"/><text id="text4425" x="11.919" y="244.278" xml:space="preserve" style="font-style:normal;font-weight:400;font-size:3.175px;line-height:1.25;font-family:sans-serif;letter-spacing:0;word-spacing:0;fill:#000;fill-opacity:1;stroke:none;stroke-width:.264583"><tspan id="tspan5192" x="11.919" y="244.278" style="font-size:3.88056px;stroke-width:.264583">My CVS</tspan><tspan id="tspan5204" x="11.919" y="249.128" style="font-size:3.88056px;stroke-width:.264583">Password</tspan></text><text id="text4425-2" x="44.661" y="254.969" xml:space="preserve" style="font-style:normal;font-weight:400;font-size:3.175px;line-height:1.25;font-family:sans-serif;letter-spacing:0;word-spacing:0;fill:#000;fill-opacity:1;stroke:none;stroke-width:.264583"><tspan id="tspan4480" x="44.661" y="254.969" style="font-size:3.88056px;stroke-width:.264583">&quot;Master&quot;</tspan><tspan id="tspan5188" x="44.661" y="259.82" style="font-size:3.88056px;stroke-width:.264583">Password</tspan></text><text id="text4425-20" x="80.319" y="243.063" xml:space="preserve" style="font-style:normal;font-weight:400;font-size:3.175px;line-height:1.25;font-family:sans-serif;letter-spacing:0;word-spacing:0;fill:#000;fill-opacity:1;stroke:none;stroke-width:.264583"><tspan id="tspan5320" x="80.319" y="243.063" style="font-size:3.88056px;stroke-width:.264583">Encryped</tspan><tspan id="tspan5324" x="80.319" y="247.914" style="font-size:3.88056px;stroke-width:.264583">File</tspan></text><path id="path2166-42" d="m 33.072917,246.72915 h 43.65625" style="fill:none;stroke:#919191;stroke-width:.26499999;stroke-linecap:butt;stroke-linejoin:miter;stroke-miterlimit:4;stroke-dasharray:none;stroke-opacity:1;marker-end:url(#Arrow2Mend-22)"/><rect id="rect1379-5-1-4-0" width="28.84" height="12.965" x="3.969" y="240.115" style="opacity:1;fill:#e6e6e6;fill-opacity:1;stroke:#919191;stroke-width:.529;stroke-linecap:butt;stroke-linejoin:round;stroke-miterlimit:4;stroke-dasharray:none;stroke-opacity:1"/><text id="text4425-2-2" x="36.663" y="271.806" xml:space="preserve" style="font-style:normal;font-weight:400;font-size:3.175px;line-height:1.25;font-family:sans-serif;letter-spacing:0;word-spacing:0;fill:#919191;fill-opacity:1;stroke:none;stroke-width:.264583"><tspan id="tspan5186-1" x="36.663" y="271.806" style="font-size:3.88056px;fill:#919191;fill-opacity:1;stroke-width:.264583">Password Providers</tspan></text><rect id="rect1379-5-1-4-0-3" width="28.84" height="7.673" x="5.556" y="285.094" style="opacity:1;fill:#e6e6e6;fill-opacity:1;stroke:#919191;stroke-width:.52916664;stroke-linecap:butt;stroke-linejoin:round;stroke-miterlimit:4;stroke-dasharray:none;stroke-opacity:1"/><rect id="rect1379-5-1-4-0-3-0" width="28.84" height="7.673" x="39.347" y="285.094" style="opacity:1;fill:#e6e6e6;fill-opacity:1;stroke:#919191;stroke-width:.52916664;stroke-linecap:butt;stroke-linejoin:round;stroke-miterlimit:4;stroke-dasharray:none;stroke-opacity:1"/><rect id="rect1379-5-1-4-0-3-02" width="28.84" height="7.673" x="73.025" y="285.094" style="opacity:1;fill:#e6e6e6;fill-opacity:1;stroke:#919191;stroke-width:.52916664;stroke-linecap:butt;stroke-linejoin:round;stroke-miterlimit:4;stroke-dasharray:none;stroke-opacity:1"/><path id="path2166-4-3" d="M 53.55363,285.09373 V 274.5104" style="fill:none;stroke:#919191;stroke-width:.26499999;stroke-linecap:butt;stroke-linejoin:miter;stroke-miterlimit:4;stroke-dasharray:none;stroke-opacity:1;marker-end:url(#Arrow2Mend-7-4)"/><text id="text4425-2-9" x="9.253" y="245.578" xml:space="preserve" style="font-style:normal;font-weight:400;font-size:3.175px;line-height:1.25;font-family:sans-serif;letter-spacing:0;word-spacing:0;fill:#000;fill-opacity:1;stroke:none;stroke-width:.264583"><tspan id="tspan5186-0" x="9.253" y="245.578" style="font-size:3.88056px;stroke-width:.264583">My CVS</tspan><tspan id="tspan6356" x="9.253" y="250.429" style="font-size:3.88056px;stroke-width:.264583">Password</tspan></text><text id="text4425-2-9-4" x="11.303" y="290.375" xml:space="preserve" style="font-style:normal;font-weight:400;font-size:3.175px;line-height:1.25;font-family:sans-serif;letter-spacing:0;word-spacing:0;fill:#000;fill-opacity:1;stroke:none;stroke-width:.264583"><tspan id="tspan6356-4" x="11.303" y="290.375" style="font-size:3.88056px;stroke-width:.264583">Windows</tspan></text><text id="text4425-2-9-4-8" x="46.037" y="290.341" xml:space="preserve" style="font-style:normal;font-weight:400;font-size:3.175px;line-height:1.25;font-family:sans-serif;letter-spacing:0;word-spacing:0;fill:#000;fill-opacity:1;stroke:none;stroke-width:.264583"><tspan id="tspan6356-4-9" x="46.037" y="290.341" style="font-size:3.88056px;stroke-width:.264583">MacOS</tspan></text><text id="text6454" x="75.767" y="289.951" xml:space="preserve" style="font-style:normal;font-weight:400;font-size:3.175px;line-height:1.25;font-family:sans-serif;letter-spacing:0;word-spacing:0;fill:#000;fill-opacity:1;stroke:none;stroke-width:.264583"><tspan style="font-size:3.88056px;stroke-width:.264583" id="tspan6452" x="75.767" y="289.951">UI Prompt</tspan></text><path id="path6458" d="m 103.04383,227.42486 c -0.19463,2.49451 -5.744519,4.49468 -12.562429,4.49468 -6.81791,0 -12.3674,-2.00017 -12.56201,-4.49468" style="fill:none;fill-opacity:1;stroke:#919191;stroke-width:.529;stroke-linecap:butt;stroke-linejoin:miter;stroke-opacity:1;stroke-miterlimit:4;stroke-dasharray:none"/><path id="path6485" d="m 23.538277,271.97014 c -0.04287,-1.96478 1.08911,-3.21753 2.484334,-4.31074 l 23.920515,-0.0355 c 2.433815,-0.41249 3.42819,-2.12242 3.739264,-4.44823 0.30802,1.95687 0.922858,3.72697 3.23165,4.46598 l 24.14861,-1e-5 c 2.075561,0.61749 2.72964,2.52362 2.93379,4.24572" style="fill:none;stroke:#919191;stroke-width:.26458332px;stroke-linecap:butt;stroke-linejoin:miter;stroke-opacity:1"/></g></svg>