<svg xmlns="http://www.w3.org/2000/svg" xmlns:svg="http://www.w3.org/2000/svg" xmlns:xlink="http://www.w3.org/1999/xlink" id="svg2" width="16" height="16" version="1.1"><defs id="defs4"><linearGradient id="linearGradient4088"><stop id="stop4090" offset="0" style="stop-color:#b71717;stop-opacity:1"/><stop id="stop4092" offset="1" style="stop-color:#d80000;stop-opacity:1"/></linearGradient><linearGradient id="linearGradient10798-1-9-3-7-1-15-1-7-6-1-28-0"><stop id="stop10800-5-2-1-8-2-8-1-7-3-7-2-4" offset="0" style="stop-color:#4f9e55;stop-opacity:1"/><stop style="stop-color:#3c8d49;stop-opacity:1" id="stop10806-6-8-5-3-2-95-0-5-4-8-94-0" offset=".5"/><stop id="stop10802-1-5-3-0-2-0-9-8-4-3-4-7" offset="1" style="stop-color:#a4e173;stop-opacity:1"/></linearGradient><linearGradient id="linearGradient9276-9"><stop style="stop-color:#9dd560;stop-opacity:1" id="stop9278-0" offset="0"/><stop style="stop-color:#499851;stop-opacity:1" id="stop9280-5" offset="1"/></linearGradient><linearGradient id="linearGradient13741" x1="388.637" x2="388.637" y1="478.188" y2="457.955" gradientUnits="userSpaceOnUse" xlink:href="#linearGradient10798-1-9-3-7-1-15-1-7-6-1-28-0"/><linearGradient id="linearGradient13743" x1="16.966" x2="15.634" y1="1054.691" y2="1056.289" gradientUnits="userSpaceOnUse" xlink:href="#linearGradient9276-9"/><mask id="mask14146" maskUnits="userSpaceOnUse"><g id="g14148" transform="matrix(0.73426076,0,0,0.73426076,3.6725146,281.72245)" style="fill:#fff;stroke:#fff;display:inline"><path style="fill:#fff;fill-opacity:1;stroke:#fff;stroke-width:.80190599;stroke-linecap:round;stroke-linejoin:round;stroke-miterlimit:4;stroke-opacity:1;stroke-dasharray:none;display:inline" id="path14150" d="m 30,-2 c 0,2.209139 -1.790861,4 -4,4 -2.209139,0 -4,-1.790861 -4,-4 0,-2.209139 1.790861,-4 4,-4 2.209139,0 4,1.790861 4,4 z" transform="matrix(1.247029,0,0,1.247029,-18.103841,1064.137)"/><path style="fill:#fff;stroke:#fff;stroke-width:1px;stroke-linecap:round;stroke-linejoin:round;stroke-opacity:1;display:inline" id="path14152" d="m 14.349242,1061.6734 0,-2.0313"/><path style="fill:#fff;stroke:#fff;stroke-width:1px;stroke-linecap:round;stroke-linejoin:round;stroke-opacity:1;display:inline" id="path14154" d="m 14.349242,1061.6734 1.458408,2.3881"/></g></mask><filter id="filter14156" width="1.36" height="1.36" x="-.18" y="-.18"><feGaussianBlur id="feGaussianBlur14158" stdDeviation=".993"/></filter><linearGradient id="linearGradient3890-5" x1="11.469" x2="11.469" y1="8.454" y2="9.266" gradientUnits="userSpaceOnUse" xlink:href="#linearGradient3870-0"/><linearGradient id="linearGradient3870-0"><stop id="stop3872-4" offset="0" style="stop-color:#ff2727;stop-opacity:1"/><stop id="stop3874-7" offset="1" style="stop-color:#bc0000;stop-opacity:1"/></linearGradient><linearGradient id="linearGradient4094" x1="20.044" x2="20.044" y1="1061.286" y2="1064.603" gradientUnits="userSpaceOnUse" xlink:href="#linearGradient4088"/></defs><metadata id="metadata7"/><g style="display:inline" id="layer1" transform="translate(0,-1036.3622)"><g id="g8159" transform="translate(-8.2201163,-12.904699)" style="display:inline"><g id="g14139" mask="url(#mask14146)"><g id="layer1-0-8-9" transform="matrix(0.77393739,0,0,0.77393739,7.411332,246.44575)" style="display:inline;fill:#fff;stroke:#fff;filter:url(#filter14156);stroke-width:2.58418837;stroke-miterlimit:4;stroke-dasharray:none"><g style="display:inline;fill:#fff;stroke:#fff;stroke-width:2.58418837;stroke-miterlimit:4;stroke-dasharray:none" id="g8159-2-9-7" transform="translate(-8.2201167,-12.904699)"><path style="fill:#fff;fill-opacity:1;stroke:#fff;display:inline;stroke-width:4.14792857;stroke-miterlimit:4;stroke-dasharray:none" id="path10796-2-6-0-3-1-6" d="m 398.75,468.23718 c 0,5.86803 -4.75697,10.625 -10.625,10.625 -5.86803,0 -10.625,-4.75697 -10.625,-10.625 0,-5.86802 4.75697,-10.625 10.625,-10.625 5.86803,0 10.625,4.75698 10.625,10.625 z" transform="matrix(0.62300696,0,0,0.62300696,-225.45273,765.59692)"/><path id="path8117-2-7-3" d="m 14.039346,1052.2494 6.0625,5.1875 -6,5.0625 z" style="fill:#fff;fill-opacity:1;stroke:#fff;stroke-width:2.58418837;stroke-miterlimit:4;stroke-opacity:1;stroke-dasharray:none;display:inline"/><path style="fill:#fff;stroke:#fff;stroke-width:4.14792857;stroke-linecap:round;stroke-linejoin:round;stroke-miterlimit:4;stroke-opacity:1;stroke-dasharray:none;stroke-dashoffset:0;display:inline" id="path10796-2-6-0-5-3-1" d="m 398.75,468.23718 c 0,5.86803 -4.75697,10.625 -10.625,10.625 -5.86803,0 -10.625,-4.75697 -10.625,-10.625 0,-5.86802 4.75697,-10.625 10.625,-10.625 5.86803,0 10.625,4.75698 10.625,10.625 z" transform="matrix(0.62300696,0,0,0.62300696,-225.45273,765.59692)"/></g></g></g><g style="display:inline" id="layer1-0-8" transform="matrix(0.77393739,0,0,0.77393739,7.411332,246.44575)"><g id="g8159-2-9" transform="translate(-8.2201167,-12.904699)" style="display:inline"><path id="path10796-2-6-0-3-1" d="m 398.75,468.23718 c 0,5.86803 -4.75697,10.625 -10.625,10.625 -5.86803,0 -10.625,-4.75697 -10.625,-10.625 0,-5.86802 4.75697,-10.625 10.625,-10.625 5.86803,0 10.625,4.75698 10.625,10.625 z" transform="matrix(0.62300696,0,0,0.62300696,-225.45273,765.59692)" style="fill:url(#linearGradient13741);fill-opacity:1;stroke:none;display:inline"/><path style="fill:#fff;fill-opacity:1;stroke:url(#linearGradient13743);stroke-width:.64604712;stroke-miterlimit:4;stroke-opacity:1;stroke-dasharray:none;display:inline" id="path8117-2-7" d="m 14.039346,1052.2494 6.0625,5.1875 -6,5.0625 z"/><path id="path10796-2-6-0-5-3" d="m 398.75,468.23718 c 0,5.86803 -4.75697,10.625 -10.625,10.625 -5.86803,0 -10.625,-4.75697 -10.625,-10.625 0,-5.86802 4.75697,-10.625 10.625,-10.625 5.86803,0 10.625,4.75698 10.625,10.625 z" transform="matrix(0.62300696,0,0,0.62300696,-225.45273,765.59692)" style="fill:none;stroke:#14733c;stroke-width:1.5;stroke-linecap:round;stroke-linejoin:round;stroke-miterlimit:4;stroke-opacity:1;stroke-dasharray:none;stroke-dashoffset:0;display:inline"/></g></g></g><g id="g3986" transform="translate(-17.341094,-12.898227)" style="display:inline"><g id="g3878" transform="translate(9.125,0)"><g id="g3884"><g id="g3864" transform="translate(0,-1.0000001e-6)" style="display:inline"><rect style="fill:#ff3c3c;fill-opacity:1;stroke:none" id="rect3069" width="9" height="5" x="7" y="10" transform="translate(8.2201163,1049.2669)"/><rect style="fill:url(#linearGradient4094);fill-opacity:1;stroke:none;display:inline" id="rect3069-6" width="9" height="3.969" x="15.22" y="1060.298"/></g><path style="fill:none;stroke:url(#linearGradient3890-5);stroke-width:1px;stroke-linecap:butt;stroke-linejoin:miter;stroke-opacity:1" id="path3868" d="m 9.4687504,10.03125 0,-1.5312503 3.9962096,0 0,1.5312503" transform="translate(8.2201163,1049.2669)"/><path style="fill:none;stroke:#f09088;stroke-width:1px;stroke-linecap:butt;stroke-linejoin:miter;stroke-opacity:1" id="path3894" d="m 16.177926,1060.7812 6.963533,0"/><path style="fill:none;stroke:#f09088;stroke-width:1px;stroke-linecap:butt;stroke-linejoin:miter;stroke-opacity:.5051546;display:inline" id="path3894-9" d="m 16.177925,1062.7408 0.979158,0"/><path style="fill:none;stroke:#f09088;stroke-width:1px;stroke-linecap:butt;stroke-linejoin:miter;stroke-opacity:.5051546;display:inline" id="path3894-9-1" d="m 18.190869,1062.7408 3.010408,0"/><path style="fill:none;stroke:#f09088;stroke-width:1px;stroke-linecap:butt;stroke-linejoin:miter;stroke-opacity:.5051546;display:inline" id="path3894-9-1-1" d="m 22.200022,1062.7408 0.979158,0"/><path style="fill:none;stroke:#f09088;stroke-width:1px;stroke-linecap:butt;stroke-linejoin:miter;stroke-opacity:1;display:inline" id="path3894-9-6" d="m 15.183557,1063.7573 0.979158,0"/><path style="fill:none;stroke:#f09088;stroke-width:1px;stroke-linecap:butt;stroke-linejoin:miter;stroke-opacity:1;display:inline" id="path3894-9-6-3" d="m 23.2048,1063.7352 0.979158,0"/><path style="fill:none;stroke:#881818;stroke-width:1px;stroke-linecap:butt;stroke-linejoin:miter;stroke-opacity:1;display:inline" id="path3894-5" d="m 16.177926,1061.7535 1.088533,0"/><path style="fill:#881818;fill-opacity:1;stroke:#881818;stroke-width:1px;stroke-linecap:butt;stroke-linejoin:miter;stroke-opacity:1;display:inline" id="path3894-9-6-8" d="m 17.260683,1060.765 0.979158,0"/><path style="fill:#881818;fill-opacity:1;stroke:#881818;stroke-width:1px;stroke-linecap:butt;stroke-linejoin:miter;stroke-opacity:1;display:inline" id="path3894-9-6-8-6" d="m 21.198183,1060.765 0.979158,0"/><path style="fill:none;stroke:#881818;stroke-width:1px;stroke-linecap:butt;stroke-linejoin:miter;stroke-opacity:1;display:inline" id="path3894-5-0" d="m 18.209176,1061.7535 3.041658,0"/><path style="fill:none;stroke:#881818;stroke-width:1px;stroke-linecap:butt;stroke-linejoin:miter;stroke-opacity:1;display:inline" id="path3894-5-9" d="m 22.131051,1061.7535 1.088533,0"/></g></g></g></g></svg>