<svg xmlns="http://www.w3.org/2000/svg" xmlns:svg="http://www.w3.org/2000/svg" xmlns:xlink="http://www.w3.org/1999/xlink" id="svg2" width="16" height="16" version="1.1"><defs id="defs4"><linearGradient id="linearGradient4313"><stop style="stop-color:#73a5e0;stop-opacity:1" id="stop4315" offset="0"/><stop style="stop-color:#8bc0fb;stop-opacity:1" id="stop4317" offset="1"/></linearGradient><linearGradient id="linearGradient4307"><stop style="stop-color:#0e62a4;stop-opacity:1" id="stop4309" offset="0"/><stop style="stop-color:#02468c;stop-opacity:1" id="stop4311" offset="1"/></linearGradient><linearGradient id="linearGradient3790" x1="2.042" x2="6.907" y1="4.343" y2="4.343" gradientTransform="matrix(-0.83407083,0,0,-0.87772899,29.141274,1047.0527)" gradientUnits="userSpaceOnUse" xlink:href="#linearGradient4313"/><linearGradient id="linearGradient3792" x1="11.772" x2="-.39" y1="6.654" y2="5.498" gradientTransform="matrix(-0.83407083,0,0,-0.87772899,29.141274,1047.0527)" gradientUnits="userSpaceOnUse" xlink:href="#linearGradient4307"/><filter id="filter4357" width="1.318" height="1.255" x="-.159" y="-.128" style="color-interpolation-filters:sRGB"><feGaussianBlur id="feGaussianBlur4359" stdDeviation=".47"/></filter></defs><metadata id="metadata7"/><g style="display:inline" id="layer1" transform="translate(0,-1036.3622)"><g id="g8472" transform="matrix(0.9346781,0,0,0.9346781,-14.571811,69.169514)" style="display:inline"><g id="g8833" transform="matrix(0,1.0547057,-1.0547057,0,1124.4616,1017.6166)" style="display:inline"><path style="display:inline;fill:#fff;fill-opacity:1;stroke:#fff;stroke-width:.81496847;stroke-linecap:butt;stroke-linejoin:miter;stroke-miterlimit:4;stroke-dasharray:none;stroke-opacity:1;filter:url(#filter4357)" id="path8715-7-01-0-6" d="m 23.639301,1045.5467 0,1.5474 2.709852,0 2.9739,-3.8347 -3.097414,-3.9653 -2.549478,0.024 -0.09572,1.5001 -2.520545,-0.024 -1.365197,2.4304 1.328336,2.358 z" transform="matrix(1.2802344,0,0,1.2667698,-6.8246403,-278.30244)"/><path style="display:inline;fill:url(#linearGradient3790);fill-opacity:1;stroke:url(#linearGradient3792);stroke-width:1.03784955;stroke-linecap:butt;stroke-linejoin:miter;stroke-miterlimit:4;stroke-dasharray:none;stroke-opacity:1" id="path8715-7-01-0" d="m 24.883658,1044.797 0,1.9827 1.106546,0 2.78246,-3.5687 -2.929904,-3.53 -0.922241,0 0,2.0805 -4.028132,0 -0.958387,1.463 0.921526,1.5599 z"/></g></g></g></svg>