<svg xmlns="http://www.w3.org/2000/svg" xmlns:svg="http://www.w3.org/2000/svg" xmlns:xlink="http://www.w3.org/1999/xlink" id="svg2" width="16" height="16" version="1.1"><defs id="defs4"><linearGradient id="linearGradient8661"><stop style="stop-color:#c6e7f9;stop-opacity:1" id="stop8663" offset="0"/><stop style="stop-color:#f9fcff;stop-opacity:1" id="stop8665" offset="1"/></linearGradient><linearGradient id="linearGradient8653"><stop id="stop8655" offset="0" style="stop-color:#676656;stop-opacity:1"/><stop id="stop8657" offset="1" style="stop-color:#9e884e;stop-opacity:1"/></linearGradient><linearGradient id="linearGradient8337"><stop id="stop8339" offset="0" style="stop-color:#4e86ca;stop-opacity:1"/><stop id="stop8341" offset="1" style="stop-color:#4e86ca;stop-opacity:0"/></linearGradient><linearGradient id="linearGradient8137"><stop id="stop8139" offset="0" style="stop-color:#326097;stop-opacity:1"/><stop id="stop8141" offset="1" style="stop-color:#2e73c5;stop-opacity:1"/></linearGradient><linearGradient id="linearGradient8153-2"><stop id="stop8155-7" offset="0" style="stop-color:#75b1e3;stop-opacity:1"/><stop id="stop8157-7" offset="1" style="stop-color:#c1def7;stop-opacity:1"/></linearGradient><linearGradient id="linearGradient8337-1"><stop id="stop8339-4" offset="0" style="stop-color:#4e86ca;stop-opacity:1"/><stop id="stop8341-2" offset="1" style="stop-color:#4e86ca;stop-opacity:0"/></linearGradient><linearGradient id="linearGradient8153-2-4"><stop id="stop8155-7-78" offset="0" style="stop-color:#75b1e3;stop-opacity:1"/><stop id="stop8157-7-0" offset="1" style="stop-color:#c1def7;stop-opacity:1"/></linearGradient><linearGradient id="linearGradient8137-93"><stop id="stop8139-9" offset="0" style="stop-color:#326097;stop-opacity:1"/><stop id="stop8141-8" offset="1" style="stop-color:#2e73c5;stop-opacity:1"/></linearGradient><linearGradient id="linearGradient8681" x1="636.995" x2="636.995" y1="277.455" y2="308.575" gradientTransform="translate(0,2.6171875e-6)" gradientUnits="userSpaceOnUse" xlink:href="#linearGradient8661"/><linearGradient id="linearGradient8683" x1="617.063" x2="657.717" y1="283.283" y2="283.283" gradientUnits="userSpaceOnUse" xlink:href="#linearGradient8137"/><linearGradient id="linearGradient8685" x1="616.342" x2="658.342" y1="272.222" y2="272.222" gradientTransform="translate(0,3e-6)" gradientUnits="userSpaceOnUse" xlink:href="#linearGradient8153-2"/><linearGradient id="linearGradient8687" x1="636.094" x2="636.094" y1="275.531" y2="269.336" gradientTransform="translate(0,0.34375)" gradientUnits="userSpaceOnUse" xlink:href="#linearGradient8337"/><linearGradient id="linearGradient8689" x1="641.076" x2="641.076" y1="308.689" y2="276.306" gradientUnits="userSpaceOnUse" xlink:href="#linearGradient8653"/><linearGradient id="linearGradient8691" x1="641.076" x2="641.076" y1="308.689" y2="276.306" gradientUnits="userSpaceOnUse" xlink:href="#linearGradient8653"/><linearGradient id="linearGradient8693" x1="641.076" x2="641.076" y1="308.689" y2="276.306" gradientUnits="userSpaceOnUse" xlink:href="#linearGradient8653"/><linearGradient id="linearGradient8695" x1="641.076" x2="641.076" y1="308.689" y2="276.306" gradientUnits="userSpaceOnUse" xlink:href="#linearGradient8653"/><linearGradient id="linearGradient8697" x1="641.076" x2="641.076" y1="308.689" y2="276.306" gradientUnits="userSpaceOnUse" xlink:href="#linearGradient8653"/><linearGradient id="linearGradient8699" x1="617.063" x2="657.717" y1="283.283" y2="283.283" gradientTransform="translate(0,2.6171875e-6)" gradientUnits="userSpaceOnUse" xlink:href="#linearGradient8137-93"/><linearGradient id="linearGradient8701" x1="616.342" x2="658.342" y1="272.222" y2="272.222" gradientTransform="translate(0,2.6171875e-6)" gradientUnits="userSpaceOnUse" xlink:href="#linearGradient8153-2-4"/><linearGradient id="linearGradient8703" x1="636.094" x2="636.094" y1="275.531" y2="269.336" gradientTransform="translate(0,0.34375262)" gradientUnits="userSpaceOnUse" xlink:href="#linearGradient8337-1"/></defs><metadata id="metadata7"/><g style="display:inline" id="layer1" transform="translate(0,-1036.3622)"><g id="g8667" transform="matrix(0.27903303,0,0,0.27903303,-169.06377,963.86005)"><rect style="fill:url(#linearGradient8681);fill-opacity:1;stroke:none" id="rect8093" width="40.88" height="41" x="613.837" y="268.004" rx="2.563" ry="2.563"/><path style="fill:#4e86ca;fill-opacity:1;stroke:url(#linearGradient8683);stroke-width:1;stroke-linecap:round;stroke-linejoin:round;stroke-miterlimit:4;stroke-opacity:1;stroke-dashoffset:0" id="rect8093-5" d="m 619.40542,268.004 33.14428,0 c 1.42005,0 2.56326,1.14321 2.56326,2.56326 l 0,5.87348 -38.2708,0 0,-5.87348 c 0,-1.42005 1.14322,-2.56326 2.56326,-2.56326 z"/><path style="fill:url(#linearGradient8685);fill-opacity:1;stroke:none" id="rect8093-5-9" d="m 619.40625,269 c -0.88334,0 -1.5625,0.67915 -1.5625,1.5625 l 0,4.875 37,0 0,-4.875 c 0,-0.88335 -0.67915,-1.5625 -1.5625,-1.5625 z"/><path style="fill:url(#linearGradient8687);fill-opacity:1;stroke:none" id="rect8093-5-9-8" d="m 619.40625,269.34375 c -0.88334,0 -1.5625,0.67915 -1.5625,1.5625 l 0,4.875 37,0 0,-4.875 c 0,-0.88335 -0.67915,-1.5625 -1.5625,-1.5625 z"/><g id="g8643" style="stroke:url(#linearGradient8697);stroke-opacity:1"><rect style="fill:none;stroke:url(#linearGradient8689);stroke-width:2;stroke-linecap:round;stroke-linejoin:round;stroke-miterlimit:4;stroke-opacity:1;stroke-dasharray:none;stroke-dashoffset:0" id="rect8645" width="41.395" height="41" x="613.572" y="268.004" rx="2.563" ry="2.563"/><path style="fill:none;stroke:url(#linearGradient8691);stroke-width:2;stroke-linecap:butt;stroke-linejoin:miter;stroke-miterlimit:4;stroke-opacity:1;stroke-dasharray:none" id="path8647" d="m 613.49908,294.54968 15.68842,0"/><path style="fill:none;stroke:url(#linearGradient8693);stroke-width:2;stroke-linecap:butt;stroke-linejoin:miter;stroke-miterlimit:4;stroke-opacity:1;stroke-dasharray:none" id="path8649" d="m 629.3125,291.23718 26.3125,0"/><path style="fill:none;stroke:url(#linearGradient8695);stroke-width:2;stroke-linecap:butt;stroke-linejoin:miter;stroke-miterlimit:4;stroke-opacity:1;stroke-dasharray:none" id="path8651" d="m 629.1875,275.98718 0,32.84375"/></g><path style="fill:#4e86ca;fill-opacity:1;stroke:url(#linearGradient8699);stroke-width:2;stroke-linecap:round;stroke-linejoin:round;stroke-miterlimit:4;stroke-opacity:1;stroke-dasharray:none;stroke-dashoffset:0" id="rect8093-5-8" d="m 616.15672,268.004 36.22378,0 c 1.42005,0 2.56326,1.14321 2.56326,2.56326 l 0,5.87348 -41.3503,0 0,-5.87348 c 0,-1.42005 1.14322,-2.56326 2.56326,-2.56326 z"/><path style="fill:url(#linearGradient8701);fill-opacity:1;stroke:none" id="rect8093-5-9-6" d="m 616.33433,269 c -0.88334,0 -1.5625,0.67915 -1.5625,1.5625 l 0,4.875 39.18804,0 0,-4.875 c 0,-0.88335 -0.67915,-1.5625 -1.5625,-1.5625 z"/><path style="fill:url(#linearGradient8703);fill-opacity:1;stroke:none" id="rect8093-5-9-8-0" d="m 615.93658,269.34375 c -0.88334,0 -1.57051,0.67919 -1.5625,1.5625 l 0,4.875 39.60789,0 0,-4.875 c 0,-0.88335 -0.67915,-1.5625 -1.5625,-1.5625 z"/></g></g></svg>