<svg xmlns="http://www.w3.org/2000/svg" xmlns:svg="http://www.w3.org/2000/svg" xmlns:xlink="http://www.w3.org/1999/xlink" id="svg2" width="16" height="16" version="1.1"><defs id="defs4"><linearGradient id="linearGradient5116"><stop style="stop-color:#fffab5;stop-opacity:1" id="stop5118" offset="0"/><stop style="stop-color:#f0e660;stop-opacity:1" id="stop5120" offset="1"/></linearGradient><linearGradient id="linearGradient5108"><stop style="stop-color:#fffab9;stop-opacity:1" id="stop5110" offset="0"/><stop style="stop-color:#adaa7d;stop-opacity:1" id="stop5112" offset="1"/></linearGradient><linearGradient id="linearGradient4418-3" x1="5.115" x2="12.52" y1="1044.737" y2="1044.737" gradientUnits="userSpaceOnUse" xlink:href="#linearGradient4972-28"/><linearGradient id="linearGradient4972-28"><stop style="stop-color:#c7e3e7;stop-opacity:1" id="stop4974-1" offset="0"/><stop style="stop-color:#fff;stop-opacity:1" id="stop4976-54" offset="1"/></linearGradient><linearGradient id="linearGradient5106" x1="5.115" x2="12.52" y1="1044.737" y2="1044.737" gradientUnits="userSpaceOnUse" xlink:href="#linearGradient4972-28"/><linearGradient id="linearGradient5114" x1="13.3" x2="14.662" y1="-16.292" y2="-14.604" gradientTransform="matrix(0.61266044,0,0,0.61266044,12.39389,1052.0849)" gradientUnits="userSpaceOnUse" xlink:href="#linearGradient5108"/><linearGradient id="linearGradient5123" x1="12.205" x2="14.104" y1="-12.091" y2="-9.716" gradientTransform="matrix(0.61266044,0,0,0.61266044,12.39389,1052.0849)" gradientUnits="userSpaceOnUse" xlink:href="#linearGradient5116"/></defs><metadata id="metadata7"/><g id="layer1" transform="translate(0,-1036.3622)" style="display:inline"><g style="display:inline" id="g4399" transform="translate(-16.484427,1.2963028e-7)"><g id="g4211" transform="translate(-2.8726216,1.016466)"><g id="g4087" transform="matrix(1.6322255,0,0,1.6322255,7.8149257,-661.76902)" style="fill:url(#linearGradient4418-3);fill-opacity:1"><g id="g5102" transform="translate(-8.5772462,0)" style="fill:url(#linearGradient5106)"><path id="path4332" d="m 17.410047,1043.9671 c 0,0 -0.191456,0.4212 0.612661,1.0339 0.804116,0.6127 1.79969,1.187 1.837981,1.5699 0.03829,0.383 -0.574369,1.0722 -0.804117,1.3785 -0.229748,0.3064 -0.114874,1.1105 0.30633,1.2254 0.421204,0.1148 3.484506,-2.757 3.484506,-2.757 0,0 0.344622,-1.2253 -0.07658,-1.9146 -0.421204,-0.6892 -2.297477,-2.106 -2.297477,-2.106 z" style="fill:url(#linearGradient5123);fill-opacity:1;stroke:#243253;stroke-width:.24506418;stroke-linecap:butt;stroke-linejoin:miter;stroke-miterlimit:4;stroke-opacity:1;stroke-dasharray:none"/><path id="path4330" d="m 19.516067,1044.6181 2.144312,-2.0677 c 0,0 0.229748,-1.5317 -0.03829,-1.7997 -0.268039,-0.2681 -0.918991,-0.3064 -1.148739,-0.1532 -0.229747,0.1532 -3.101593,3.3313 -3.101593,3.3313 0,0 0.459495,-0.3446 0.957282,-0.268 0.497786,0.077 1.033864,0.6127 1.110447,0.7658 0.07658,0.1532 0.07658,0.1915 0.07658,0.1915 z" style="fill:url(#linearGradient5114);fill-opacity:1;stroke:#5e562f;stroke-width:.24506418;stroke-linecap:butt;stroke-linejoin:miter;stroke-miterlimit:4;stroke-opacity:1;stroke-dasharray:none"/></g><path style="fill:none;stroke:#243253;stroke-width:.40000001;stroke-linecap:butt;stroke-linejoin:miter;stroke-miterlimit:4;stroke-opacity:1;stroke-dasharray:none" id="path5125" d="m 6.805568,11.208296 c 0.5321699,0.694432 0.6087794,0.821348 0.7089466,1.489927 0.089362,0.596458 0.073223,1.732345 0.073223,1.732345" transform="matrix(0.61266044,0,0,0.61266044,7.0714021,1039.7551)"/></g></g></g></g></svg>