<svg xmlns="http://www.w3.org/2000/svg" xmlns:svg="http://www.w3.org/2000/svg" xmlns:xlink="http://www.w3.org/1999/xlink" id="svg2" width="16" height="16" version="1.1"><defs id="defs4"><linearGradient id="linearGradient5068"><stop id="stop5070" offset="0" style="stop-color:#fff;stop-opacity:1"/><stop id="stop5072" offset="1" style="stop-color:#fff;stop-opacity:0"/></linearGradient><linearGradient id="linearGradient4815"><stop id="stop4817" offset="0" style="stop-color:#c7b571;stop-opacity:1"/><stop id="stop4819" offset="1" style="stop-color:#989891;stop-opacity:1"/></linearGradient><linearGradient id="linearGradient4753"><stop id="stop4755" offset="0" style="stop-color:#f9fafc;stop-opacity:1"/><stop id="stop4757" offset="1" style="stop-color:#dce7f7;stop-opacity:1"/></linearGradient><linearGradient id="linearGradient4759" x1="7.464" x2="7.464" y1="3" y2="15" gradientTransform="translate(0,1036.3622)" gradientUnits="userSpaceOnUse" xlink:href="#linearGradient4753"/><linearGradient id="linearGradient4821" x1="8" x2="8" y1="1038.362" y2="1052.362" gradientTransform="translate(-2,0)" gradientUnits="userSpaceOnUse" xlink:href="#linearGradient4815"/><linearGradient id="linearGradient3050" x1="10" x2="10.008" y1="5" y2="6.984" gradientTransform="translate(-0.0078125,1036.3778)" gradientUnits="userSpaceOnUse" xlink:href="#linearGradient5068"/><linearGradient id="linearGradient3056" x1="12" x2="12" y1="1043.362" y2="1045.347" gradientTransform="translate(-0.0078125,0.015625)" gradientUnits="userSpaceOnUse" xlink:href="#linearGradient5068"/><linearGradient id="linearGradient3058" x1="13" x2="15.008" y1="1043.362" y2="1043.347" gradientTransform="translate(-0.0078125,0.015625)" gradientUnits="userSpaceOnUse" xlink:href="#linearGradient5068"/><linearGradient id="linearGradient3060" x1="12" x2="10.008" y1="1042.362" y2="1042.362" gradientTransform="translate(-0.0078125,0.015625)" gradientUnits="userSpaceOnUse" xlink:href="#linearGradient5068"/><linearGradient id="linearGradient3062" x1="10" x2="8.008" y1="1041.362" y2="1041.347" gradientTransform="translate(-0.0078125,0.015625)" gradientUnits="userSpaceOnUse" xlink:href="#linearGradient5068"/><linearGradient id="linearGradient3064" x1="10" x2="10.008" y1="1040.362" y2="1038.347" gradientTransform="translate(-0.0078125,0.015625)" gradientUnits="userSpaceOnUse" xlink:href="#linearGradient5068"/><linearGradient id="linearGradient3066" x1="12" x2="10.008" y1="1038.362" y2="1038.347" gradientTransform="translate(-0.0078125,0.015625)" gradientUnits="userSpaceOnUse" xlink:href="#linearGradient5068"/><linearGradient id="linearGradient3068" x1="14" x2="14" y1="1041.362" y2="1043.347" gradientTransform="translate(-0.0078125,0.015625)" gradientUnits="userSpaceOnUse" xlink:href="#linearGradient5068"/><radialGradient id="radialGradient3091-1" cx="-757.205" cy="-738.838" r="3.48" fx="-757.205" fy="-738.838" gradientTransform="matrix(1.8508179,-8.813921e-6,8.4531434e-6,1.7750589,644.24981,572.63612)" gradientUnits="userSpaceOnUse" xlink:href="#linearGradient4528-9-5"/><linearGradient id="linearGradient4528-9-5"><stop id="stop4530-0-5" offset="0" style="stop-color:#e0c576;stop-opacity:1"/><stop id="stop4532-7-9" offset="1" style="stop-color:#9e7916;stop-opacity:1"/></linearGradient><linearGradient id="linearGradient3093-5" x1=".938" x2=".938" y1="4.844" y2="7.549" gradientTransform="matrix(2.3199889,0,0,2.3199889,10.199693,1043.1852)" gradientUnits="userSpaceOnUse" xlink:href="#linearGradient6281-8-0-1-6-6"/><linearGradient id="linearGradient6281-8-0-1-6-6"><stop style="stop-color:#f7f9fb;stop-opacity:1" id="stop6283-0-2-2-1-2" offset="0"/><stop style="stop-color:#ffd680;stop-opacity:1" id="stop6285-5-0-9-7-6" offset="1"/></linearGradient></defs><metadata id="metadata7"/><g style="display:inline" id="layer1" transform="translate(0,-1036.3622)"><path id="rect3983-9" d="m 3,1038.3622 0,14 11,0 0,-14 -11,0 z m 1,1 9,0 0,12 -9,0 0,-12 z" style="fill:url(#linearGradient4821);fill-opacity:1;stroke:none;display:inline"/><rect id="rect3983" width="9" height="12" x="4" y="1039.362" style="opacity:1;fill:url(#linearGradient4759);fill-opacity:1;stroke:none"/><g id="g3038" transform="matrix(1.1954268,0,0,1.1954268,-2.4071696,-204.29183)"><path style="fill:url(#linearGradient3050);fill-opacity:1;stroke:none;display:inline" id="path5581-1-1" d="m 8,1043.3622 2,0 1.492188,-1.4844 -2.0312504,0 z"/><path style="fill:url(#linearGradient3056);fill-opacity:1;stroke:none;display:inline" id="path5581-1-1-8" d="m 10,1045.3622 4,0 0,-1 -0.476562,-0.4844 -2.03125,0 z"/><path style="fill:url(#linearGradient3058);fill-opacity:1;stroke:none;display:inline" id="path5581-1-1-7" d="m 13.523438,1041.8778 0,2 0.476562,0.4844 0,-2 z"/><path style="fill:url(#linearGradient3060);fill-opacity:1;stroke:none;display:inline" id="path5581-1-1-6" d="m 10,1043.3622 0,2 1.492188,-1.4844 0,-2 z"/><path style="fill:url(#linearGradient3062);fill-opacity:1;stroke:none;display:inline" id="path5581-1-1-1" d="m 8,1038.3622 0,5 1.4609376,-1.4844 1.7544454,-2 z"/><path style="fill:url(#linearGradient3064);fill-opacity:1;stroke:none;display:inline" id="path5581-1-1-89" d="m 10,1038.3622 -2,0 1.4609375,1.5156 2.0312505,0 z"/><path style="fill:url(#linearGradient3066);fill-opacity:1;stroke:none;display:inline" id="path5581-1-1-2" d="m 10,1038.3622 0,0 1.503907,1.5273 0,-1.5156 z"/><path style="fill:url(#linearGradient3068);fill-opacity:1;stroke:none;display:inline" id="path5581-1-1-79" d="m 13.996095,1041.8778 -0.472657,0 0.476563,0.4844 -0.0039,0 z"/><g id="g4514" transform="matrix(0.83652132,0,0,0.83652132,9.9187208,156.77841)" style="display:inline"><g id="g4522" transform="translate(-9.9375,0)"><rect id="rect3910" width="4.583" height="4.454" x="-758.823" y="-740.411" transform="matrix(-0.70710678,-0.70710678,0.70710678,-0.70710678,0,0)" style="fill:url(#radialGradient3091-1);fill-opacity:1;stroke:#a27d18;stroke-width:1.03243756;stroke-miterlimit:4;stroke-opacity:1;stroke-dasharray:none;display:inline"/><path style="fill:url(#linearGradient3093-5);fill-opacity:1;stroke:none;display:inline" id="path5581-5-5" d="m 12.471186,1054.309 1.001133,0 0,1.946 1.986639,0 0,1.0167 -1.986639,0 0,2.043 -1.001133,0 0,-2.043 -1.98664,0 0,-1.0167 1.98664,0 z"/></g></g></g></g></svg>