<svg xmlns="http://www.w3.org/2000/svg" xmlns:svg="http://www.w3.org/2000/svg" xmlns:xlink="http://www.w3.org/1999/xlink" id="svg2" width="16" height="16" version="1.1"><defs id="defs4"><linearGradient id="linearGradient4749"><stop id="stop4751" offset="0" style="stop-color:#fff;stop-opacity:1"/><stop id="stop4753" offset="1" style="stop-color:#fbe49d;stop-opacity:1"/></linearGradient><linearGradient id="linearGradient4741"><stop id="stop4743" offset="0" style="stop-color:#a66b10;stop-opacity:1"/><stop id="stop4745" offset="1" style="stop-color:#bd8416;stop-opacity:1"/></linearGradient><linearGradient id="linearGradient4747" x1="1.063" x2="15.566" y1="1050.081" y2="1050.081" gradientTransform="matrix(0,0.70175581,-0.72727303,0,771.0368,1041.3359)" gradientUnits="userSpaceOnUse" xlink:href="#linearGradient4741"/><linearGradient id="linearGradient4755" x1="1.686" x2="14.375" y1="1040.74" y2="1040.74" gradientTransform="matrix(0,0.70175581,-0.72727303,0,771.0368,1041.3359)" gradientUnits="userSpaceOnUse" xlink:href="#linearGradient4749"/><linearGradient id="linearGradient4002-1" x1="11.437" x2="14.526" y1="9.631" y2="15.131" gradientTransform="matrix(1.4272605,0,0,1.2227194,-9.8528808,1031.0009)" gradientUnits="userSpaceOnUse" xlink:href="#linearGradient4817-9"/><linearGradient id="linearGradient4817-9"><stop id="stop4819-5" offset="0" style="stop-color:#7695b8;stop-opacity:1"/><stop id="stop4821-6" offset="1" style="stop-color:#8daac8;stop-opacity:1"/></linearGradient><linearGradient id="linearGradient4002-1-2" x1="11.437" x2="14.526" y1="9.631" y2="15.131" gradientTransform="matrix(1.4272605,0,0,1.2227194,-6.9841725,1027.9781)" gradientUnits="userSpaceOnUse" xlink:href="#linearGradient4817-9"/><filter id="filter4397" width="1.14" height="1.105" x="-.07" y="-.052" style="color-interpolation-filters:sRGB"><feGaussianBlur id="feGaussianBlur4399" stdDeviation=".174"/></filter></defs><metadata id="metadata7"/><g style="display:inline" id="layer1" transform="translate(0,-1036.3622)"><path style="display:inline;fill:url(#linearGradient4002-1-2);fill-opacity:1;stroke:#095799;stroke-width:1;stroke-linecap:butt;stroke-linejoin:miter;stroke-miterlimit:4;stroke-dasharray:none;stroke-opacity:1" id="path4005-8" d="m 7.7822634,1041.2321 1.6334796,-2.8768 3.825257,6.2577 -1.649114,2.3478 -3.5638289,-6.1468"/><path style="display:inline;fill:url(#linearGradient4002-1);fill-opacity:1;stroke:#095799;stroke-width:1;stroke-linecap:butt;stroke-linejoin:miter;stroke-miterlimit:4;stroke-dasharray:none;stroke-opacity:1" id="path4005" d="m 1.5639845,1049.9836 4.9830505,-8.6055 5.046128,8.6055 -3.9030303,-1.9722 -2.5307833,-4.1746"/><rect style="display:inline;fill:#095799;fill-opacity:1;stroke:none" id="rect4009" width="6.541" height="1" x=".459" y="1049.362"/><path id="rect3968-5" d="m 8.518,1041.8622 0,4.0121 -0.984955,0 0.011702,3.9579 2.736122,-0.066 3.123477,-2.6388 0.09391,-1.2534 -0.983459,0 0,-4.0121 z" transform="matrix(1.019275,0,0,1,-0.26017935,0)" style="display:inline;opacity:.9;fill:#fff;fill-opacity:1;stroke:#fff;stroke-width:.99049962;stroke-linecap:square;stroke-linejoin:round;stroke-miterlimit:4;stroke-dasharray:none;stroke-dashoffset:0;stroke-opacity:1;filter:url(#filter4397)"/><path id="rect3968" d="m 9.518,1042.8622 0,4.0121 -2.018,0 0,1.1282 4,3.8597 4,-3.8597 0,-1.1282 -1.9852,0 0,-4.0121 z" style="fill:url(#linearGradient4755);fill-opacity:1;stroke:url(#linearGradient4747);stroke-width:1;stroke-linecap:square;stroke-linejoin:round;stroke-miterlimit:4;stroke-dasharray:none;stroke-dashoffset:0;stroke-opacity:1"/></g></svg>