<svg xmlns="http://www.w3.org/2000/svg" xmlns:svg="http://www.w3.org/2000/svg" xmlns:xlink="http://www.w3.org/1999/xlink" id="svg2" width="16" height="16" version="1.1"><defs id="defs4"><linearGradient id="linearGradient4749"><stop id="stop4751" offset="0" style="stop-color:#fff;stop-opacity:1"/><stop id="stop4753" offset="1" style="stop-color:#fbe49d;stop-opacity:1"/></linearGradient><linearGradient id="linearGradient4741"><stop id="stop4743" offset="0" style="stop-color:#a66b10;stop-opacity:1"/><stop id="stop4745" offset="1" style="stop-color:#bd8416;stop-opacity:1"/></linearGradient><linearGradient id="linearGradient4747" x1="1.063" x2="15.566" y1="1050.081" y2="1050.081" gradientTransform="matrix(0,-0.70175581,-0.72727303,0,765.0368,1048.3885)" gradientUnits="userSpaceOnUse" xlink:href="#linearGradient4741"/><linearGradient id="linearGradient4755" x1="14.287" x2="2.887" y1="1043.675" y2="1042.3" gradientTransform="matrix(0,-0.70175581,-0.72727303,0,765.0368,1048.3885)" gradientUnits="userSpaceOnUse" xlink:href="#linearGradient4749"/><filter id="filter4397" width="1.14" height="1.105" x="-.07" y="-.052" style="color-interpolation-filters:sRGB"><feGaussianBlur id="feGaussianBlur4399" stdDeviation=".174"/></filter><linearGradient id="linearGradient4002-1" x1="11.437" x2="14.526" y1="9.631" y2="15.131" gradientTransform="matrix(1.3073974,0,0,1.2539923,-7.446125,1032.3853)" gradientUnits="userSpaceOnUse" xlink:href="#linearGradient4817-9"/><linearGradient id="linearGradient4817-9"><stop id="stop4819-5" offset="0" style="stop-color:#7695b8;stop-opacity:1"/><stop id="stop4821-6" offset="1" style="stop-color:#8daac8;stop-opacity:1"/></linearGradient><linearGradient id="linearGradient4002-1-1" x1="11.437" x2="14.526" y1="9.631" y2="15.131" gradientTransform="matrix(1.3073974,0,0,1.2539923,-4.4434433,1029.3853)" gradientUnits="userSpaceOnUse" xlink:href="#linearGradient4817-9"/></defs><metadata id="metadata7"/><g style="display:inline" id="layer1" transform="translate(0,-1036.3622)"><path style="display:inline;fill:url(#linearGradient4002-1-1);fill-opacity:1;stroke:#095799;stroke-width:1;stroke-linecap:butt;stroke-linejoin:miter;stroke-miterlimit:4;stroke-dasharray:none;stroke-opacity:1" id="path4005-6" d="m 9.3015807,1042.4987 1.2776063,-2.4709 4.622347,8.8257 -2.62896,0 -3.2645328,-6.3041"/><rect style="display:inline;fill:#095799;fill-opacity:1;stroke:none" id="rect4009-1-5" width="4" height="1" x="12" y="1048.362"/><g id="g4550"><path id="path4005" d="m 3.011937,1051.8535 4.5645678,-8.8257 4.6223472,8.8257 -2.6289598,0 -3.2645334,-6.3041" style="display:inline;fill:url(#linearGradient4002-1);fill-opacity:1;stroke:#095799;stroke-width:1;stroke-linecap:butt;stroke-linejoin:miter;stroke-miterlimit:4;stroke-dasharray:none;stroke-opacity:1"/><rect id="rect4009" width="5.991" height="1" x="2.009" y="1051.362" style="display:inline;fill:#095799;fill-opacity:1;stroke:none"/><rect id="rect4009-1" width="5.997" height="1" x="7" y="1051.362" style="display:inline;fill:#095799;fill-opacity:1;stroke:none"/></g><path id="rect3968-5" d="m 8.518,1041.8622 0,4.0121 -0.984955,0 0.7487999,2.6786 5.1624031,-0.066 0.789333,-0.692 0.0632,-2.3381 -1.689845,0 -0.09214,-3.5949 z" transform="matrix(1.019275,0,0,-1.1255965,-4.1845584,2220.6077)" style="display:inline;opacity:.9;fill:#fff;fill-opacity:1;stroke:#fff;stroke-width:.93360454;stroke-linecap:square;stroke-linejoin:round;stroke-miterlimit:4;stroke-dasharray:none;stroke-dashoffset:0;stroke-opacity:1;filter:url(#filter4397)"/><path id="rect3968" d="m 3.518,1046.8622 0,-4.0121 -2.018,0 0,-1.1282 4,-3.8597 4,3.8597 0,1.1282 -1.9852,0 0,4.0121 z" style="fill:url(#linearGradient4755);fill-opacity:1;stroke:url(#linearGradient4747);stroke-width:1;stroke-linecap:square;stroke-linejoin:round;stroke-miterlimit:4;stroke-dasharray:none;stroke-dashoffset:0;stroke-opacity:1"/></g></svg>