<svg xmlns="http://www.w3.org/2000/svg" xmlns:svg="http://www.w3.org/2000/svg" xmlns:xlink="http://www.w3.org/1999/xlink" id="svg2" width="16" height="16" version="1.1"><defs id="defs4"><linearGradient id="linearGradient4457"><stop id="stop4459" offset="0" style="stop-color:#efbf59;stop-opacity:1"/><stop style="stop-color:#f0c83b;stop-opacity:1" id="stop4461" offset=".174"/><stop style="stop-color:#fdfabf;stop-opacity:1" id="stop4463" offset=".347"/><stop style="stop-color:#fbf0a1;stop-opacity:1" id="stop4465" offset=".5"/><stop id="stop4467" offset=".638" style="stop-color:#f6e057;stop-opacity:1"/><stop style="stop-color:#f2b11f;stop-opacity:1" id="stop4469" offset=".819"/><stop id="stop4471" offset="1" style="stop-color:#f6a81d;stop-opacity:1"/></linearGradient><linearGradient id="linearGradient4371"><stop id="stop4373" offset="0" style="stop-color:#a6661f;stop-opacity:1"/><stop id="stop4375" offset="1" style="stop-color:#d2a40f;stop-opacity:1"/></linearGradient><linearGradient id="linearGradient4347"><stop id="stop4349" offset="0" style="stop-color:#e6970d;stop-opacity:1"/><stop id="stop4351" offset="1" style="stop-color:#c4870c;stop-opacity:1"/></linearGradient><linearGradient id="linearGradient4353-6-8" x1="-8.145" x2="-8.052" y1="1055.597" y2="1052.564" gradientTransform="matrix(1.1578466,0,0,1.2556724,17.730739,-284.16504)" gradientUnits="userSpaceOnUse" xlink:href="#linearGradient4347"/><linearGradient id="linearGradient4377-6-9" x1="3.581" x2="3.493" y1="1063.338" y2="1052.597" gradientTransform="matrix(1.1431743,0,0,1.3001921,3.9273029,-331.06196)" gradientUnits="userSpaceOnUse" xlink:href="#linearGradient4371"/><linearGradient id="linearGradient4331-6-9-0" x1="673.61" x2="696.684" y1="460.616" y2="460.616" gradientTransform="matrix(0.31514318,0,0,0.28028373,-207.40147,915.23296)" gradientUnits="userSpaceOnUse" xlink:href="#linearGradient4457"/></defs><metadata id="metadata7"/><g style="display:inline" id="layer1" transform="translate(0,-1036.3622)"><path style="display:inline;fill:url(#linearGradient4331-6-9-0);fill-opacity:1;stroke:none" id="path3868-1-3-3-4-1" d="M 8.4823509,1037.8068 C 5.9921973,1037.8068 4,1038.477 4,1039.3136 l 0,10.0447 c 0,0.8367 1.9921973,1.507 4.4823509,1.507 2.4901581,0 4.5176491,-0.6703 4.5176491,-1.507 l 0,-10.0447 c 0,-0.8366 -2.027491,-1.5068 -4.5176491,-1.5068 z"/><path style="display:inline;fill:none;stroke:url(#linearGradient4377-6-9);stroke-width:.99789387;stroke-miterlimit:4;stroke-dasharray:none;stroke-opacity:1" id="path3868-1-4-6-9-1" d="m 8.4843081,1037.8612 c -2.2140523,0 -3.985361,0.6672 -3.985361,1.4999 l 0,10.0016 c 0,0.8331 1.7713087,1.5006 3.985361,1.5006 2.2140559,0 4.0167459,-0.6675 4.0167459,-1.5006 l 0,-10.0016 c 0,-0.8327 -1.80269,-1.4999 -4.0167459,-1.4999 z"/><ellipse style="display:inline;fill:none;stroke:url(#linearGradient4353-6-8);stroke-width:1.11513841;stroke-opacity:1" id="path3868-67-2-9" cx="8.5" cy="1039.362" rx="3.942" ry="1.442"/></g></svg>