<svg xmlns="http://www.w3.org/2000/svg" xmlns:svg="http://www.w3.org/2000/svg" xmlns:xlink="http://www.w3.org/1999/xlink" id="svg2" width="16" height="16" version="1.1" viewBox="0 0 16 16"><defs id="defs4"><linearGradient id="linearGradient6378"><stop id="stop6374" offset="0" style="stop-color:#dfe8f8;stop-opacity:1"/><stop id="stop6376" offset="1" style="stop-color:#5e76a3;stop-opacity:1"/></linearGradient><linearGradient id="linearGradient7592-1"><stop id="stop7594-6" offset="0" style="stop-color:#bd8416;stop-opacity:1"/><stop id="stop7596-9" offset="1" style="stop-color:#a66b10;stop-opacity:1"/></linearGradient><linearGradient id="linearGradient7584-5"><stop id="stop7586-4" offset="0" style="stop-color:#f9cd5f;stop-opacity:1"/><stop id="stop7588-5" offset="1" style="stop-color:#fbf0b4;stop-opacity:1"/></linearGradient><filter id="filter5779" width="1.2" height="1.282" x="-.1" y="-.141" style="color-interpolation-filters:sRGB"><feGaussianBlur id="feGaussianBlur5781" stdDeviation=".076"/></filter><linearGradient id="linearGradient983"><stop style="stop-color:#f8f9fb;stop-opacity:1" id="stop979" offset="0"/><stop style="stop-color:#8794ad;stop-opacity:1" id="stop981" offset="1"/></linearGradient><linearGradient id="linearGradient4845"><stop style="stop-color:#afb8cd;stop-opacity:1" id="stop4847" offset="0"/><stop style="stop-color:#8192b5;stop-opacity:1" id="stop4849" offset="1"/></linearGradient><linearGradient id="linearGradient4837"><stop style="stop-color:#acbfd5;stop-opacity:1" id="stop4839" offset="0"/><stop style="stop-color:#627297;stop-opacity:1" id="stop4841" offset="1"/></linearGradient><linearGradient id="linearGradient4784"><stop style="stop-color:#b68e69;stop-opacity:1" id="stop4786" offset="0"/><stop id="stop4792" offset=".942" style="stop-color:#d5ae7d;stop-opacity:1"/><stop style="stop-color:#c69863;stop-opacity:1" id="stop4788" offset="1"/></linearGradient><linearGradient id="linearGradient4767"><stop style="stop-color:#f1c373;stop-opacity:1" id="stop4769" offset="0"/><stop style="stop-color:#f6e3c9;stop-opacity:1" id="stop4771" offset="1"/></linearGradient><linearGradient id="linearGradient4843" x1="-11.376" x2="-11.376" y1="1036.296" y2="1040.278" gradientTransform="translate(21.96875,-0.00521732)" gradientUnits="userSpaceOnUse" xlink:href="#linearGradient4837"/><linearGradient id="linearGradient4851" x1="-12.922" x2="-12.922" y1="1037.323" y2="1040.391" gradientTransform="translate(21.96875,-0.00521732)" gradientUnits="userSpaceOnUse" xlink:href="#linearGradient4845"/><linearGradient id="linearGradient5000-6" x1="9.895" x2="9.895" y1="1039.153" y2="1051.838" gradientTransform="translate(-4,-2)" gradientUnits="userSpaceOnUse" xlink:href="#linearGradient4994-7"/><linearGradient id="linearGradient4908" x1="10.545" x2="10.545" y1="1038.578" y2="1052.323" gradientTransform="translate(-4,-2)" gradientUnits="userSpaceOnUse" xlink:href="#linearGradient4902"/><linearGradient id="linearGradient4871" x1="7.007" x2="14" y1="1047.857" y2="1047.857" gradientTransform="matrix(0.72293526,0,0,1,-13.971893,-4.125)" gradientUnits="userSpaceOnUse" xlink:href="#linearGradient4861"/><linearGradient id="linearGradient4869" x1="7.007" x2="14" y1="1045.857" y2="1045.857" gradientTransform="matrix(0.57546531,0,0,1,-12.938564,-4.125)" gradientUnits="userSpaceOnUse" xlink:href="#linearGradient4861"/><linearGradient id="linearGradient4867" x1="7.007" x2="11" y1="1043.857" y2="1043.857" gradientTransform="matrix(0.82571734,0,0,1,-14.692092,-4.125)" gradientUnits="userSpaceOnUse" xlink:href="#linearGradient4877"/><linearGradient id="linearGradient4861"><stop id="stop4863" offset="0" style="stop-color:#91a5c7;stop-opacity:1"/><stop id="stop4865" offset="1" style="stop-color:#637aa7;stop-opacity:1"/></linearGradient><linearGradient id="linearGradient4877"><stop style="stop-color:#91a5c7;stop-opacity:1" id="stop4879" offset="0"/><stop style="stop-color:#5e76a3;stop-opacity:1" id="stop4881" offset="1"/></linearGradient><linearGradient id="linearGradient4902"><stop id="stop4904" offset="0" style="stop-color:#c7b571;stop-opacity:1"/><stop id="stop4906" offset="1" style="stop-color:#9a9a8f;stop-opacity:1"/></linearGradient><linearGradient id="linearGradient4994-7"><stop id="stop4996-7" offset="0" style="stop-color:#f9fafc;stop-opacity:1"/><stop id="stop4998-4" offset="1" style="stop-color:#dce7f7;stop-opacity:1"/></linearGradient><linearGradient id="linearGradient4908-9" x1="10.545" x2="10.545" y1="1038.578" y2="1052.323" gradientTransform="matrix(0.99309753,0,0,0.99393698,-0.95933587,8.307072)" gradientUnits="userSpaceOnUse" xlink:href="#linearGradient983"/><linearGradient id="linearGradient5000-6-7" x1="9.895" x2="9.895" y1="1039.153" y2="1051.838" gradientTransform="translate(-1.0285852,1.9123827)" gradientUnits="userSpaceOnUse" xlink:href="#linearGradient4994-7"/><linearGradient id="linearGradient4843-2" x1="-11.376" x2="-11.376" y1="1036.296" y2="1040.278" gradientTransform="matrix(1,0,0,0.99777994,22.000768,2.3453808)" gradientUnits="userSpaceOnUse" xlink:href="#linearGradient4837"/><linearGradient id="linearGradient4851-7" x1="-12.922" x2="-12.922" y1="1037.323" y2="1040.391" gradientTransform="translate(22.015625,0.06528268)" gradientUnits="userSpaceOnUse" xlink:href="#linearGradient4845"/><linearGradient id="linearGradient4774-3" x1="-12" x2="-12" y1="1050.995" y2="1038.866" gradientTransform="matrix(0.9951149,0,0,1.0005475,21.932264,-0.52564024)" gradientUnits="userSpaceOnUse" xlink:href="#linearGradient4767"/><linearGradient id="linearGradient4790-5" x1="-17.313" x2="-17.344" y1="1050.945" y2="1039.084" gradientTransform="matrix(0.9951149,0,0,1.0005475,21.932264,-0.52564024)" gradientUnits="userSpaceOnUse" xlink:href="#linearGradient4784"/><linearGradient id="linearGradient6370" x1="22.519" x2="22.519" y1="1042.028" y2="1040.735" gradientTransform="matrix(0,0.94440354,1.0625213,0,-1101.9544,1021.9209)" gradientUnits="userSpaceOnUse" xlink:href="#linearGradient7584-5"/><linearGradient id="linearGradient6372" x1="24.929" x2="24.929" y1="1038.366" y2="1044.562" gradientTransform="matrix(0,0.94440354,1.0625213,0,-1101.9544,1021.9209)" gradientUnits="userSpaceOnUse" xlink:href="#linearGradient7592-1"/><linearGradient id="linearGradient6380" x1="8" x2="12" y1="1044.912" y2="1044.912" gradientTransform="matrix(1.4921875,0,0,1.4921875,-5.90625,-514.29258)" gradientUnits="userSpaceOnUse" xlink:href="#linearGradient6378"/><linearGradient id="linearGradient6380-8" x1="8" x2="12" y1="1044.912" y2="1044.912" gradientTransform="matrix(1.5,0,0,1.5,-6,-524.50565)" gradientUnits="userSpaceOnUse" xlink:href="#linearGradient6378"/><linearGradient id="linearGradient6380-8-1" x1="8" x2="12" y1="1044.912" y2="1044.912" gradientTransform="matrix(1.5,0,0,1.5,-5.9348351,-520.46828)" gradientUnits="userSpaceOnUse" xlink:href="#linearGradient6378"/></defs><metadata id="metadata7"/><g id="layer1" transform="translate(0,-1036.3622)"><path id="path4794" d="m 4.9843752,1040.3414 1.53125,-1.3672 0.9375,-2.1172 h 1.5 1.4999998 l 0.953125,2.1172 1.546875,1.3672" style="fill:url(#linearGradient4851);fill-opacity:1;stroke:none"/><path id="path4794-5" d="m 7.3125002,1036.3698 c -0.138213,0.043 -0.255616,0.1482 -0.3125,0.2812 l -0.875,2 -0.966084,0.8634 c -0.219449,0.2194 -0.161431,0.3252 -0.190934,0.8384 0.205415,0 0.484943,0 0.746694,-3e-4 l 1.129074,-1.0139 c 0.0516,-0.043 0.0944,-0.097 0.125,-0.1563 l 0.8125,-1.8125 h 1.1875 H 10.125 l 0.8125,1.8125 c 0.0306,0.06 0.0734,0.1133 0.125,0.1563 l 1.173251,1.0325 c 0.113518,0 0.471938,-0.02 0.715999,-0.031 0,-0.2129 0.08262,-0.5753 -0.123815,-0.7817 l -1.015435,-0.9075 -0.90625,-2 c -0.07974,-0.164 -0.255243,-0.2768 -0.4375,-0.2812 h -1.4999998 -1.5 c -0.05166,-0.01 -0.104595,-0.01 -0.15625,0 z" style="color:#000;font-style:normal;font-variant:normal;font-weight:400;font-stretch:normal;font-size:medium;line-height:normal;font-family:Sans;text-indent:0;text-align:start;text-decoration:none;text-decoration-line:none;letter-spacing:normal;word-spacing:normal;text-transform:none;writing-mode:lr-tb;direction:ltr;baseline-shift:baseline;text-anchor:start;display:inline;overflow:visible;visibility:visible;fill:url(#linearGradient4843);fill-opacity:1;fill-rule:nonzero;stroke:none;stroke-width:1px;marker:none;enable-background:accumulate"/><g id="layer1-3" transform="translate(3.1589148,4.1623875)" style="display:inline"><path style="display:inline;fill:url(#linearGradient5000-6);fill-opacity:1;stroke:none" id="rect4001-3" d="M 1.4972825,1036.9037 H 9.653585 l 0.759173,3.0066 v 6.5483 H 1.4972825 Z"/><path style="fill:none;stroke:url(#linearGradient4908);stroke-width:1;stroke-linecap:butt;stroke-linejoin:miter;stroke-miterlimit:4;stroke-dashoffset:0;stroke-opacity:1" id="rect4001" d="m 1.4972825,1036.9037 h 8.4908829 l 0.04042,3.0066 v 6.4546 H 1.4972807 Z"/><rect style="display:inline;fill:url(#linearGradient4867);fill-opacity:1;stroke:none" id="rect4001-1" width="6.047" height="1.01" x="-8.906" y="1039.227" transform="scale(-1,1)"/><rect style="display:inline;fill:url(#linearGradient4869);fill-opacity:1;stroke:none" id="rect4001-1-7" width="6.024" height="1.01" x="-8.906" y="1041.227" transform="scale(-1,1)"/><rect style="display:inline;fill:url(#linearGradient4871);fill-opacity:1;stroke:none" id="rect4001-1-7-4" width="6.055" height="1.01" x="-8.906" y="1043.227" transform="scale(-1,1)"/></g><rect id="rect3997-8" width="11" height="12" x="3.5" y="1038.912" rx="1.219" ry="1.219" style="display:inline;fill:url(#linearGradient4774-3);fill-opacity:1;stroke:url(#linearGradient4790-5);stroke-width:1;stroke-linecap:butt;stroke-linejoin:miter;stroke-miterlimit:4;stroke-dasharray:none;stroke-dashoffset:0;stroke-opacity:1"/><path id="path4794-9" d="m 5.0312502,1040.4119 1.53125,-1.3672 0.9375,-2.1172 h 1.5 H 10.5 l 0.953125,2.1172 L 13,1040.4119" style="display:inline;fill:url(#linearGradient4851-7);fill-opacity:1;stroke:none"/><path id="path4794-5-4" d="m 7.3445181,1036.4196 c -0.138213,0.043 -0.255616,0.1479 -0.3125,0.2806 l -0.875,1.9955 -0.966084,0.8615 c -0.219449,0.2189 -0.161431,0.3245 -0.190934,0.8365 0.205415,0 0.484943,0 0.746694,-3e-4 l 1.129074,-1.0116 c 0.0516,-0.043 0.0944,-0.097 0.125,-0.156 l 0.8125,-1.8084 h 1.1875 1.1562499 l 0.8125,1.8084 c 0.0306,0.06 0.0734,0.1131 0.125,0.156 l 1.173251,1.0302 c 0.113518,0 0.471938,-0.02 0.715999,-0.031 0,-0.2125 0.08262,-0.5741 -0.123815,-0.78 l -1.015435,-0.9055 -0.90625,-1.9955 c -0.07974,-0.1637 -0.255243,-0.2762 -0.4375,-0.2806 h -1.4999999 -1.5 c -0.05166,-0.01 -0.104595,-0.01 -0.15625,0 z" style="color:#000;font-style:normal;font-variant:normal;font-weight:400;font-stretch:normal;font-size:medium;line-height:normal;font-family:Sans;text-indent:0;text-align:start;text-decoration:none;text-decoration-line:none;letter-spacing:normal;word-spacing:normal;text-transform:none;writing-mode:lr-tb;direction:ltr;baseline-shift:baseline;text-anchor:start;display:inline;overflow:visible;visibility:visible;fill:url(#linearGradient4843-2);fill-opacity:1;fill-rule:nonzero;stroke:none;stroke-width:1px;marker:none;enable-background:accumulate"/><path style="display:inline;fill:url(#linearGradient5000-6-7);fill-opacity:1;stroke:none" id="rect4001-3-6" d="M 4.4686973,1040.8161 H 13.28125 l 0.102923,3.0066 v 6.5483 H 4.4686973 Z"/><path style="display:inline;fill:none;stroke:url(#linearGradient4908-9);stroke-width:.99999994;stroke-linecap:butt;stroke-linejoin:miter;stroke-miterlimit:4;stroke-dashoffset:0;stroke-opacity:1" id="rect4001-4" d="M 4.5000017,1040.9119 H 13.5 v 9 H 4.5000001 Z"/><path id="path908-9" d="M 12,1044.9119 H 6.03125" style="display:inline;fill:none;stroke:url(#linearGradient6380);stroke-width:1px;stroke-linecap:butt;stroke-linejoin:miter;stroke-opacity:1"/><path id="path908-9-7" d="M 12,1042.8622 H 6" style="display:inline;fill:none;stroke:url(#linearGradient6380-8);stroke-width:1px;stroke-linecap:butt;stroke-linejoin:miter;stroke-opacity:1"/><path id="path908-9-7-3" d="M 12.065165,1046.8996 H 6.0651648" style="display:inline;fill:none;stroke:url(#linearGradient6380-8-1);stroke-width:1px;stroke-linecap:butt;stroke-linejoin:miter;stroke-opacity:1"/><path style="display:inline;fill:url(#linearGradient6370);fill-opacity:1;stroke:url(#linearGradient6372);stroke-width:1;stroke-linecap:butt;stroke-linejoin:miter;stroke-miterlimit:4;stroke-dasharray:none;stroke-opacity:1" id="path7582" d="M 2.4325024,1042.8228 H 0.87374016 c 0,0 -0.84549721,-0.3432 0,-1.3032 0.84520524,-0.96 1.90714854,-2.087 2.28282774,-2.2539 0.3756793,-0.167 1.0330449,-0.8765 2.0660897,0.084 1.0331909,0.9599 1.7979769,1.8913 1.7979769,1.8913 0,0 1.2738649,1.5823 -0.1822935,1.5823 H 5.5501729 c -0.067137,1.2904 -0.1951372,2.5861 0.3699871,3.3358 0.6379541,0.8464 2.4461475,0.7299 2.5791094,1.1136 0.1328159,0.3837 -2.4843869,0.5898 -2.9490965,0.5898 -0.4648556,0 -1.1617742,-0.1646 -1.9319603,-0.6783 -0.4153781,-0.2772 -0.8574652,-0.9506 -1.0108603,-1.4461 -0.1036255,-0.8899 -0.2230139,-1.614 -0.1748499,-2.9148 z"/><path style="display:inline;opacity:.85714285;fill:#fff;fill-opacity:1;stroke:none;stroke-width:.98257542;filter:url(#filter5779)" id="path7602-2-3" d="m 27.55363,1041.8824 -0.722164,-0.081 c 0,0 -0.291655,0.1949 -0.188749,0.4208 0.103439,0.2263 0.514635,0.3938 0.600479,0.4391 0.08531,0.045 0.520692,0.9447 0.692273,0.8391 0.171581,-0.1056 -0.06394,-1.2385 -0.06394,-1.2385 z" transform="matrix(0,1.3170263,1.4547054,0,-1511.5359,1010.5183)"/></g></svg>