<svg xmlns="http://www.w3.org/2000/svg" xmlns:svg="http://www.w3.org/2000/svg" xmlns:xlink="http://www.w3.org/1999/xlink" id="svg2" width="16" height="16" version="1.1"><defs id="defs4"><linearGradient id="io-slider-fill-0"><stop style="stop-color:#e4cf9d;stop-opacity:1" id="io-slider-fill-stop0" offset="0"/><stop id="io-slider-fill-stop1" offset=".383" style="stop-color:#b5cef2;stop-opacity:1"/><stop id="io-slider-fill-stop2" offset=".625" style="stop-color:#97b2d9;stop-opacity:1"/><stop style="stop-color:#f8f8fc;stop-opacity:1" id="io-slider-fill-stop3" offset="1"/></linearGradient><linearGradient id="base-fill-9"><stop style="stop-color:#b7c9e3;stop-opacity:1" id="base-fill-stop0" offset="0"/><stop style="stop-color:#f3f5f6;stop-opacity:1" id="base-fill-stop1" offset="1"/></linearGradient><linearGradient id="label-fill-7"><stop style="stop-color:#e4cf9d;stop-opacity:1" id="label-fill-stop0" offset="0"/><stop id="label-fill-stop1" offset=".167" style="stop-color:#dce9f2;stop-opacity:1"/><stop style="stop-color:#fefdfa;stop-opacity:1" id="label-fill-stop2" offset="1"/></linearGradient><linearGradient id="base-stroke-3"><stop style="stop-color:#8a9b9e;stop-opacity:1" id="base-stroke-stop0" offset="0"/><stop style="stop-color:#5b7aaa;stop-opacity:1" id="base-stroke-stop1" offset="1"/></linearGradient><linearGradient id="base-stroke-inst" x1="29.587" x2="29.587" y1="1037.924" y2="1052.018" gradientTransform="translate(-20,1.7382813e-5)" gradientUnits="userSpaceOnUse" xlink:href="#base-stroke-3"/><linearGradient id="base-fill-inst" x1="32.664" x2="32.664" y1="1051.801" y2="1038.272" gradientTransform="translate(-20,1.7382813e-5)" gradientUnits="userSpaceOnUse" xlink:href="#base-fill-9"/><linearGradient id="io-slider-fill-inst" x1="24.101" x2="24.101" y1="1042.035" y2="1038.334" gradientTransform="translate(-15.997089,9.0087328)" gradientUnits="userSpaceOnUse" xlink:href="#io-slider-fill-0"/><linearGradient id="label-fill-inst" x1="24.101" x2="24.101" y1="1036.621" y2="1043.13" gradientTransform="matrix(1,0,0,-1,-16.992359,2080.6648)" gradientUnits="userSpaceOnUse" xlink:href="#label-fill-7"/><linearGradient id="label-stroke-inst" x1="20.523" x2="24.424" y1="1044.169" y2="1040.458" gradientTransform="translate(-13.413833,-0.1253)" gradientUnits="userSpaceOnUse" xlink:href="#label-stroke-3"/><linearGradient id="label-stroke-3"><stop style="stop-color:#8a9b9e;stop-opacity:1" id="label-stroke-stop0" offset="0"/><stop style="stop-color:#b1bdbf;stop-opacity:1" id="label-stroke-stop1" offset="1"/></linearGradient></defs><metadata id="metadata7"/><g id="layer1" transform="translate(0,-1036.3622)" style="display:inline"><rect style="fill:url(#base-fill-inst);fill-opacity:1;stroke:url(#base-stroke-inst);stroke-opacity:1" id="disk-base" width="14.007" height="14" x="1.496" y="1037.862" rx=".813" ry=".813"/><path style="display:inline;fill:url(#io-slider-fill-inst);fill-opacity:1;stroke:#5b7aaa;stroke-opacity:1" id="io-slider" d="m 6.311783,1046.871 4.380896,0 c 0.450125,0 0.8125,0.3624 0.8125,0.8125 l 0,4.1273 -6.005896,0 0,-4.1273 c 0,-0.4501 0.362375,-0.8125 0.8125,-0.8125 z"/><rect style="display:inline;fill:#5b7aaa;fill-opacity:1;stroke:none" id="io-slider-slot" width="1" height="2.906" x="9" y="1047.925"/><path style="display:inline;fill:url(#label-fill-inst);fill-opacity:1;stroke:url(#label-stroke-inst);stroke-opacity:1" id="label-base" d="m 5.3165135,1044.8465 6.3751585,0 c 0.450124,0 0.812499,-0.3624 0.812499,-0.8125 l 0,-6.1713 -8.0001575,0 0,6.1713 c 0,0.4501 0.362375,0.8125 0.8125,0.8125 z"/><path style="display:inline;opacity:.35;fill:#a6b4b6;fill-opacity:1;stroke:none" id="label-lines" d="m 11,1039.3623 0,0.9999 -5,0 0,-0.9999 z m 0,2 0,0.9998 -5.000002,0 0,-0.9998 z"/></g></svg>