<svg xmlns="http://www.w3.org/2000/svg" xmlns:svg="http://www.w3.org/2000/svg" xmlns:xlink="http://www.w3.org/1999/xlink" id="svg2" width="16" height="16" version="1.1"><defs id="defs4"><linearGradient id="linearGradient4193"><stop id="stop4195" offset="0" style="stop-color:#6891be;stop-opacity:1"/><stop id="stop4197" offset="1" style="stop-color:#2877aa;stop-opacity:1"/></linearGradient><linearGradient id="linearGradient4199" x1="7.433" x2="7.433" y1="1044.272" y2="1048.957" gradientTransform="translate(0,1.016466)" gradientUnits="userSpaceOnUse" xlink:href="#linearGradient4193"/></defs><metadata id="metadata7"/><g style="display:inline" id="layer1" transform="translate(0,-1036.3622)"><path id="path4191" d="m 12.014757,1040.3787 -5.0312496,0 c 0,0 -2.953125,-0.1719 -2.953125,1.875 0.04959,2.2225 -0.366731,3.3125 1.953125,3.3125 l 0,4.8125 2.0234372,0 -0.016181,-8.0117 0.9927427,0 0,8.0117 2.0274592,0 0.01105,-8 0.992743,0 z" style="fill:url(#linearGradient4199);fill-opacity:1;fill-rule:evenodd;stroke:none;stroke-width:1px;stroke-linecap:butt;stroke-linejoin:miter;stroke-opacity:1"/><path id="path4223" d="m 9.0110488,1041.3622 -2.0000001,0 0,9.0156 1.0156251,0 0,-8.0091 0.984375,0 z" style="fill:#8eaac6;fill-opacity:1;fill-rule:evenodd;stroke:none;stroke-width:1px;stroke-linecap:butt;stroke-linejoin:miter;stroke-opacity:1"/><path id="path4223-4" d="m 12.005204,1041.3622 -2,0 0,9.0156 1.015625,0 0,-8.0312 0.984375,0 z" style="display:inline;fill:#8eaac6;fill-opacity:1;fill-rule:evenodd;stroke:none;stroke-width:1px;stroke-linecap:butt;stroke-linejoin:miter;stroke-opacity:1"/></g></svg>