<svg xmlns="http://www.w3.org/2000/svg" xmlns:svg="http://www.w3.org/2000/svg" xmlns:xlink="http://www.w3.org/1999/xlink" id="svg2" width="16" height="16" version="1.1"><defs id="defs4"><linearGradient id="arrow-stroke-6-7"><stop style="stop-color:#ad7212;stop-opacity:1" id="arrow-stroke-stop0" offset="0"/><stop style="stop-color:#996c22;stop-opacity:1" id="arrow-stroke-stop1" offset="1"/></linearGradient><linearGradient id="arrow-bg-3-5"><stop id="arrow-bg-stop0" offset="0" style="stop-color:#fff;stop-opacity:1"/><stop id="arrow-bg-stop1" offset="1" style="stop-color:#ffd25d;stop-opacity:1"/></linearGradient><radialGradient id="arrow-bg" cx="23.617" cy="1043.666" r="4.673" fx="23.617" fy="1043.666" gradientTransform="matrix(3.7884012,0,0,-1.5570198,-80.469347,2666.3704)" gradientUnits="userSpaceOnUse" xlink:href="#arrow-bg-3-5"/><linearGradient id="arrow-stroke" x1="22.669" x2="22.669" y1="1043.58" y2="1039.239" gradientTransform="matrix(1.6126329,0,0,-1.6126329,-29.556508,2724.273)" gradientUnits="userSpaceOnUse" xlink:href="#arrow-stroke-6-7"/></defs><metadata id="metadata7"/><g id="layer1" transform="translate(0,-1036.3622)" style="display:inline"><path style="display:inline;fill:url(#arrow-bg);fill-opacity:1;stroke:url(#arrow-stroke);stroke-width:1;stroke-linecap:butt;stroke-linejoin:round;stroke-miterlimit:4;stroke-dasharray:none;stroke-opacity:1" id="undo-arrow" d="m 1.4488362,1044.9916 7.0628709,-6.1983 c 0,0 -0.034043,2.1872 -0.034043,3.5236 2.3360919,0.1451 3.0159019,0.077 4.1591609,-1.0218 1.438134,-1.3824 1.221875,-3.8377 1.877007,-4.0393 0.655133,-0.2016 1.007896,3.5276 1.007896,4.2331 0,0.7056 -0.281877,3.0666 -1.15908,4.2355 -0.473379,0.6307 -1.623229,1.5408 -2.469344,1.7735 -0.846115,0.2329 -3.4156396,0.6912 -3.4156396,0.6912 l 0.020606,2.679 c -1.2710251,-1.0741 -7.0494342,-5.8765 -7.0494342,-5.8765 z"><title id="title3225">undo-arrow</title></path></g></svg>