<svg xmlns="http://www.w3.org/2000/svg" xmlns:svg="http://www.w3.org/2000/svg" xmlns:xlink="http://www.w3.org/1999/xlink" style="shape-rendering:crispEdges" id="svg2" width="7" height="8" version="1.1"><defs id="defs4"><linearGradient id="linearGradient4967" x1="679.378" x2="696.684" y1="460.495" y2="460.616" gradientTransform="matrix(0.14411835,0,0,0.13418602,-95.24669,987.1159)" gradientUnits="userSpaceOnUse" xlink:href="#linearGradient5961"/><linearGradient id="linearGradient5961"><stop style="stop-color:#faecd5;stop-opacity:1" id="stop5969" offset="0"/><stop id="stop5971" offset=".277" style="stop-color:#ffc624;stop-opacity:1"/><stop id="stop5975" offset="1" style="stop-color:#ffa815;stop-opacity:1"/></linearGradient><linearGradient id="linearGradient4794-9"><stop style="stop-color:#c37815;stop-opacity:1" id="stop4796-8" offset="0"/><stop id="stop4802-2" offset=".216" style="stop-color:#eca84f;stop-opacity:1"/><stop style="stop-color:#d08726;stop-opacity:1" id="stop4173" offset=".435"/><stop style="stop-color:#c47915;stop-opacity:1" id="stop4798-4" offset="1"/></linearGradient><linearGradient id="linearGradient4755-8" x1="690.186" x2="690.186" y1="484.134" y2="438.441" gradientTransform="matrix(0.13863639,0,0,0.12917096,-91.467824,989.36476)" gradientUnits="userSpaceOnUse" xlink:href="#linearGradient4721-1"/><linearGradient id="linearGradient4721-1"><stop style="stop-color:#b96d15;stop-opacity:1" id="stop4723-2" offset="0"/><stop style="stop-color:#d48b15;stop-opacity:1" id="stop4725-1" offset="1"/></linearGradient><linearGradient id="linearGradient4800-4" x1="4.57" x2="11.813" y1="2.633" y2="2.633" gradientTransform="matrix(0.50097844,0,0,0.50786704,-0.69960766,1045.5204)" gradientUnits="userSpaceOnUse" xlink:href="#linearGradient4794-9"/></defs><metadata id="metadata7"/><g style="display:inline" id="layer1" transform="translate(0,-1044.3622)"><rect id="rect4238" width="3" height="7" x="0" y="1045.362" style="opacity:.867;fill:#fff;fill-opacity:1;stroke:none;stroke-width:.824;stroke-linecap:square;stroke-linejoin:miter;stroke-miterlimit:4;stroke-dasharray:none;stroke-dashoffset:0;stroke-opacity:1"/><path id="path3868-1" d="m 3.4792798,1045.7982 c -1.1387741,0 -2.0498277,0.3209 -2.0498277,0.7214 l 0,4.809 c 0,0.4004 0.9110536,0.7213 2.0498277,0.7213 1.1387741,0 2.0659688,-0.3209 2.0659688,-0.7213 l 0,-4.809 c 0,-0.4005 -0.9271947,-0.7214 -2.0659688,-0.7214 z" style="display:inline;fill:url(#linearGradient4967);fill-opacity:1;stroke:none"/><ellipse id="path3868" cx="3.5" cy="1046.858" rx="1.936" ry=".973" style="display:inline;fill:none;stroke:url(#linearGradient4800-4);stroke-width:1.00000012;stroke-miterlimit:4;stroke-dasharray:none;stroke-opacity:1;shape-rendering:crispEdges"/><path id="path3868-1-4" d="m 3.5028167,1045.8539 c -1.1164463,0 -1.9718561,0.6229 -1.9718561,1.0083 l 0,4 c 0,0.3855 0.8763992,1.0097 1.9718561,1.0097 1.0954584,0 1.9873842,-0.6242 1.9873842,-1.0097 l 0.020989,-4 c 0,-0.3854 -0.8919266,-1.0083 -2.0083729,-1.0083 z" style="display:inline;fill:none;stroke:url(#linearGradient4755-8);stroke-width:.99999976;stroke-miterlimit:4;stroke-dasharray:none;stroke-opacity:1"/></g></svg>