<svg xmlns="http://www.w3.org/2000/svg" xmlns:svg="http://www.w3.org/2000/svg" xmlns:xlink="http://www.w3.org/1999/xlink" id="svg2" width="16" height="16" version="1.1"><defs id="defs4"><linearGradient id="linearGradient6323-7-1-1" x1="10" x2="10.008" y1="5" y2="6.984" gradientTransform="translate(-15.015625,1046.6356)" gradientUnits="userSpaceOnUse" xlink:href="#linearGradient5068-6-9-4-9"/><linearGradient id="linearGradient5068-6-9-4-9"><stop style="stop-color:#fff;stop-opacity:1" id="stop5070-8-0-4-9" offset="0"/><stop style="stop-color:#fff;stop-opacity:0" id="stop5072-3-6-1-7" offset="1"/></linearGradient><linearGradient id="linearGradient5084-3-3-2-6" x1="12" x2="12" y1="1043.362" y2="1045.347" gradientTransform="translate(-15.015625,10.2734)" gradientUnits="userSpaceOnUse" xlink:href="#linearGradient5068-6-9-4-9"/><linearGradient id="linearGradient5086-8-0-8-5" x1="13" x2="15.008" y1="1043.362" y2="1043.347" gradientTransform="translate(-15.015625,10.2734)" gradientUnits="userSpaceOnUse" xlink:href="#linearGradient5068-6-9-4-9"/><linearGradient id="linearGradient5082-1-0-8-1" x1="12" x2="10.008" y1="1042.362" y2="1042.362" gradientTransform="translate(-15.015625,10.2734)" gradientUnits="userSpaceOnUse" xlink:href="#linearGradient5068-6-9-4-9"/><linearGradient id="linearGradient5078-8-2-1-4" x1="10" x2="8.008" y1="1041.362" y2="1041.347" gradientTransform="translate(-15.015625,10.2734)" gradientUnits="userSpaceOnUse" xlink:href="#linearGradient5068-6-9-4-9"/><linearGradient id="linearGradient5076-5-2-9-8" x1="10" x2="10.008" y1="1040.362" y2="1038.347" gradientTransform="translate(-15.015625,10.2734)" gradientUnits="userSpaceOnUse" xlink:href="#linearGradient5068-6-9-4-9"/><linearGradient id="linearGradient3500-5" x1="12" x2="10.008" y1="1038.362" y2="1038.347" gradientTransform="translate(-15.015625,10.2734)" gradientUnits="userSpaceOnUse" xlink:href="#linearGradient5068-6-9-4-9"/><linearGradient id="linearGradient5088-1-4-8-6" x1="14" x2="14" y1="1041.362" y2="1043.347" gradientTransform="translate(-15.015625,10.2734)" gradientUnits="userSpaceOnUse" xlink:href="#linearGradient5068-6-9-4-9"/><radialGradient id="radialGradient3091-1-9-6-4-6" cx="-757.205" cy="-738.838" r="3.48" fx="-757.205" fy="-738.838" gradientTransform="matrix(1.8508179,-8.813921e-6,8.4531434e-6,1.7750589,644.24981,572.63612)" gradientUnits="userSpaceOnUse" xlink:href="#linearGradient4528-9-5-7-9-7-3"/><linearGradient id="linearGradient4528-9-5-7-9-7-3"><stop id="stop4530-0-5-0-5-8-4" offset="0" style="stop-color:#e0c576;stop-opacity:1"/><stop id="stop4532-7-9-3-3-6-1" offset="1" style="stop-color:#9e7916;stop-opacity:1"/></linearGradient><linearGradient id="linearGradient3093-5-2-7-0-9" x1=".938" x2=".938" y1="4.844" y2="7.549" gradientTransform="matrix(2.3199889,0,0,2.3199889,10.199693,1043.1852)" gradientUnits="userSpaceOnUse" xlink:href="#linearGradient6281-8-0-1-6-6-4-2-8-0"/><linearGradient id="linearGradient6281-8-0-1-6-6-4-2-8-0"><stop style="stop-color:#f7f9fb;stop-opacity:1" id="stop6283-0-2-2-1-2-0-1-6-0" offset="0"/><stop style="stop-color:#ffd680;stop-opacity:1" id="stop6285-5-0-9-7-6-9-9-1-9" offset="1"/></linearGradient><linearGradient id="linearGradient10798-1-9-3-7-6-8-9-0-9-1-9"><stop id="stop10800-5-2-1-8-20-6-4-9-8-2-1" offset="0" style="stop-color:#7564b1;stop-opacity:1"/><stop style="stop-color:#5d4aa1;stop-opacity:1" id="stop10806-6-8-5-3-9-24-8-4-3-2-7" offset=".5"/><stop id="stop10802-1-5-3-0-4-8-4-2-9-2-3" offset="1" style="stop-color:#9283c3;stop-opacity:1"/></linearGradient><linearGradient id="linearGradient3097" x1="388.637" x2="388.637" y1="478.188" y2="462.115" gradientUnits="userSpaceOnUse" xlink:href="#linearGradient10798-1-9-3-7-6-8-9-0-9-1-9"/></defs><metadata id="metadata7"/><g style="display:inline" id="layer1" transform="translate(0,-1036.3622)"><g id="g3093" transform="translate(-16.440233,9.5017478)"><path style="font-size:13.58917427px;font-style:normal;font-weight:400;line-height:125%;letter-spacing:0;word-spacing:0;fill:url(#linearGradient3097);fill-opacity:1;stroke:#55429f;stroke-width:2.16621375;stroke-linecap:round;stroke-linejoin:round;stroke-miterlimit:4;stroke-opacity:1;stroke-dasharray:none;stroke-dashoffset:0;display:inline;font-family:Sans" id="path10796-2-6-2" d="m 398.75,468.23718 c 0,5.86803 -4.75697,10.625 -10.625,10.625 -5.86803,0 -10.625,-4.75697 -10.625,-10.625 0,-5.86802 4.75697,-10.625 10.625,-10.625 5.86803,0 10.625,4.75698 10.625,10.625 z" transform="matrix(0.55482947,0,0,0.55482947,-191.34575,775.68824)"/><path style="font-size:13.58917427px;font-style:normal;font-weight:400;line-height:125%;letter-spacing:0;word-spacing:0;fill:#fff;fill-opacity:1;stroke:none;display:inline;font-family:Sans" id="rect7222" d="m 21.535823,1031.9047 0,1.0313 0.888066,0 0,4.9687 -0.93226,0 0,1.0313 4.789695,0 0,-1.0313 -1.285812,0 0,-4.9687 1.285812,0 0,-1.0313 z"/></g><g id="g6432" transform="translate(15.023334,-10.242077)" style="display:inline"><path id="path5581-1-1" d="m -7.007813,1053.62 2,0 1.492188,-1.4844 -2.0312504,0 z" style="fill:url(#linearGradient6323-7-1-1);fill-opacity:1;stroke:none;display:inline"/><path id="path5581-1-1-8" d="m -5.007813,1055.62 4,0 0,-1 -0.476562,-0.4844 -2.03125,0 z" style="fill:url(#linearGradient5084-3-3-2-6);fill-opacity:1;stroke:none;display:inline"/><path id="path5581-1-1-7" d="m -1.484375,1052.1356 0,2 0.476562,0.4844 0,-2 z" style="fill:url(#linearGradient5086-8-0-8-5);fill-opacity:1;stroke:none;display:inline"/><path id="path5581-1-1-6" d="m -5.007813,1053.62 0,2 1.492188,-1.4844 0,-2 z" style="fill:url(#linearGradient5082-1-0-8-1);fill-opacity:1;stroke:none;display:inline"/><path id="path5581-1-1-1" d="m -7.007813,1048.62 0,5 1.4609376,-1.4844 0,-2 z" style="fill:url(#linearGradient5078-8-2-1-4);fill-opacity:1;stroke:none;display:inline"/><path id="path5581-1-1-89" d="m -5.007813,1048.62 -2,0 1.4609375,1.5156 2.0312505,0 z" style="fill:url(#linearGradient5076-5-2-9-8);fill-opacity:1;stroke:none;display:inline"/><path id="path5581-1-1-2" d="m -5.007813,1048.62 0,0 1.503907,1.5273 0,-1.5156 z" style="fill:url(#linearGradient3500-5);fill-opacity:1;stroke:none;display:inline"/><path id="path5581-1-1-79" d="m -1.011718,1052.1356 -0.472657,0 0.476563,0.4844 -0.0039,0 z" style="fill:url(#linearGradient5088-1-4-8-6);fill-opacity:1;stroke:none;display:inline"/><g id="g4514" transform="translate(-5.536708,-5.6240351)" style="display:inline"><g id="g4522" transform="translate(-9.9375,0)"><rect id="rect3910" width="4.583" height="4.454" x="-758.823" y="-740.411" transform="matrix(-0.70710678,-0.70710678,0.70710678,-0.70710678,0,0)" style="fill:url(#radialGradient3091-1-9-6-4-6);fill-opacity:1;stroke:#a27d18;stroke-width:1.03243756;stroke-miterlimit:4;stroke-opacity:1;stroke-dasharray:none;display:inline"/><path style="fill:url(#linearGradient3093-5-2-7-0-9);fill-opacity:1;stroke:none;display:inline" id="path5581-5-5" d="m 12.471186,1054.309 1.001133,0 0,1.946 1.986639,0 0,1.0167 -1.986639,0 0,2.043 -1.001133,0 0,-2.043 -1.98664,0 0,-1.0167 1.98664,0 z"/></g></g></g></g></svg>